<?xml version="1.0" encoding="utf-8"?>
<!-- Generator: Adobe Illustrator 18.0.0, SVG Export Plug-In . SVG Version: 6.00 Build 0)  -->
<!DOCTYPE svg PUBLIC "-//W3C//DTD SVG 1.1//EN" "http://www.w3.org/Graphics/SVG/1.1/DTD/svg11.dtd">
<svg version="1.1" xmlns="http://www.w3.org/2000/svg" xmlns:xlink="http://www.w3.org/1999/xlink" x="0px" y="0px"
	 viewBox="0 0 320 50" enable-background="new 0 0 320 50" xml:space="preserve">
<g id="Background" display="none">
	<rect x="0" y="0" display="inline" fill="#FFFFFF" width="320" height="50"/>
</g>
<g id="Layer_2">
	<g>
		<g>
			<path d="M107.995,36.184c0,1.921,0,3.841,0,5.762c-8.745,0.391-17.48,0.88-26.2,1.467c0-2.086,0-4.172,0-6.258
				c2.278-0.102,4.557-0.199,6.838-0.291c-0.842-2.025-1.683-4.066-2.525-6.125c-4.603,0.094-9.202,0.196-13.797,0.307
				c-0.942,2.209-1.883,4.443-2.825,6.702c2.362-0.122,4.726-0.239,7.091-0.352c0,2.127,0,4.254,0,6.382
				c-7.845,0.564-15.678,1.209-23.494,1.933c0-2.345,0-4.691,0-7.036c2.187-0.134,4.375-0.264,6.564-0.39
				c3.442-9.103,6.887-17.799,10.335-26.152c-2.362-0.122-4.723-0.248-7.083-0.379c0-2.248,0-4.495,0-6.742
				c11.538,0.969,23.108,1.764,34.698,2.386c0,1.978,0,3.956,0,5.935c-2.377-0.084-4.753-0.174-7.129-0.268
				c3.725,8.056,7.452,15.805,11.181,23.319C103.764,36.312,105.879,36.246,107.995,36.184z M83.927,25.415
				c-1.479-3.687-2.956-7.432-4.434-11.24c-1.592,3.686-3.184,7.436-4.776,11.257C77.785,25.427,80.855,25.421,83.927,25.415z"/>
			<path d="M60.285,13.149c0,0,4.456,0.238,6.452,0.345c-3.144,7.664-6.243,15.509-9.231,23.379
				c-1.92,0.114-7.048,0.418-7.048,0.418l0.009,1.382V47.5l3.024-0.28c7.748-0.718,15.622-1.366,23.404-1.926l2.295-0.165v-0.001
				c0.023-0.002,2.902-0.195,2.902-0.195c8.644-0.583,17.425-1.074,26.1-1.462l2.415-0.108V34.57c0,0-5.137,0.161-7.022,0.22
				c-3.36-6.792-6.528-13.394-9.632-20.063c1.741,0.065,6.266,0.235,6.266,0.235l-0.009-1.631V6l-2.376-0.127
				C86.334,5.256,74.704,4.456,63.271,3.496l-2.986-0.251V13.149z M65.514,6.752c9.773,0.795,19.649,1.474,29.469,2.022
				c0,1.043,0,1.76,0,2.926c-2.064-0.077-7.982-0.3-7.982-0.3l0.944,2.062c3.598,7.781,7.26,15.417,11.194,23.346l0.579,1.166
				c0,0,3.902-0.122,5.662-0.177c0,1.107,0,1.733,0,2.745c-6.984,0.326-14.005,0.72-20.971,1.171c0-1.241,0-2.035,0-3.137
				c2.015-0.086,7.479-0.319,7.479-0.319l-0.715-1.756l-3.024-7.337l-2.132,0.044L70.235,29.56l-0.461,1.114l-3.701,8.781
				l3.643-0.185c0,0,2.208-0.11,4.246-0.211c0,1.302,0,2.255,0,3.376c-6.085,0.45-12.197,0.953-18.265,1.499
				c0-1.463,0-2.654,0-3.879c1.932-0.115,6.086-0.361,6.086-0.361l0.416-1.08c3.327-8.8,6.801-17.588,10.324-26.123l0.71-1.721
				c0,0-5.627-0.301-7.72-0.413C65.514,9.173,65.514,8.134,65.514,6.752z M84.068,32.313c0.415,1.006,0.769,1.865,1.301,3.155
				c-1.867,0.08-6.137,0.261-6.177,0.263v-0.002c0,0-4.561,0.226-6.294,0.312c0.632-1.499,1.07-2.538,1.481-3.513
				C76.742,32.476,81.535,32.37,84.068,32.313z"/>
			<path d="M71.369,26.975l3.357-0.013l12.485-0.023l-5.168-13.102l-5.084-0.036L71.369,26.975z M79.401,20.743
				c0.614,1.557,0.897,2.275,1.243,3.149c-1.183,0.002-1.385,0.003-2.581,0.005C78.438,23.012,78.738,22.303,79.401,20.743z"/>
		</g>
		<g>
			<path d="M138.374,35.549c0,1.812,0,3.625,0,5.437c-9.394,0.174-18.783,0.461-28.162,0.862c0-1.91,0-3.819,0-5.729
				c2.268-0.064,4.537-0.124,6.807-0.179c0-7.343,0-14.685,0-22.028c-2.27-0.055-4.539-0.115-6.807-0.179c0-1.91,0-3.819,0-5.729
				c9.368,0.4,18.747,0.688,28.13,0.862c6.554,0.122,11.618,1.08,15.191,2.921c3.572,1.84,5.359,4.291,5.359,7.376
				c0,1.763-0.628,3.362-1.882,4.798c-1.255,1.436-2.861,2.539-4.82,3.309c-1.959,0.77-4.198,1.301-6.72,1.591
				c-2.522,0.29-5.677,0.445-9.463,0.466c-1.702,0.009-3.404,0.02-5.105,0.032c0,2.099,0,4.199,0,6.298
				C133.393,35.616,135.884,35.58,138.374,35.549z M130.904,23.956c0.69,0.001,1.38,0.002,2.07,0.003
				c4.753,0.006,7.814-0.456,9.183-1.379c1.367-0.923,2.051-2.07,2.051-3.446c0-1.161-0.473-2.153-1.419-2.98
				c-0.947-0.826-2.032-1.343-3.259-1.549c-1.227-0.206-3.234-0.326-6.019-0.368c-0.869-0.013-1.737-0.027-2.607-0.041
				C130.904,17.449,130.904,20.703,130.904,23.956z"/>
			<path d="M107.598,15.195c0,0,4.8,0.126,6.807,0.179c0,2.368,0,16.736,0,19.104c-2.007,0.053-6.816,0.179-6.816,0.179l0.009,1.462
				v7.374l2.805-0.12c9.297-0.397,18.736-0.686,28.054-0.859l2.532-0.047v-8.486c0,0-5.261,0.075-7.471,0.107
				c0-1.203,0-2.043,0-3.217c1.257-0.008,2.516-0.015,2.516-0.015c3.935-0.022,7.28-0.189,9.943-0.495
				c2.853-0.329,5.435-0.942,7.674-1.823c2.322-0.913,4.236-2.22,5.689-3.882c1.439-1.648,2.168-3.496,2.168-5.494
				c0-3.521-2.102-6.389-6.247-8.524c-3.99-2.057-9.655-3.168-16.834-3.302c-9.306-0.173-18.734-0.461-28.023-0.858l-2.805-0.12
				V15.195z M112.827,9.632c8.453,0.341,16.988,0.605,25.433,0.762c5.932,0.111,10.489,0.966,13.545,2.54
				c3.01,1.551,4.473,3.588,4.473,6.228c0,1.509-0.537,2.889-1.596,4.102c-1.044,1.195-2.373,2.115-3.95,2.736
				c-1.659,0.653-3.599,1.11-5.766,1.36c-2.347,0.27-5.37,0.417-8.984,0.438l-7.697,0.048l0.003,1.513v7.865
				c0,0,5.271-0.076,7.47-0.107c0,0.986,0,1.456,0,2.403c-7.633,0.158-15.312,0.393-22.933,0.7c0-1.073,0-1.635,0-2.638
				c1.997-0.053,6.799-0.179,6.799-0.179l0.008-1.463V12.45c0,0-4.81-0.127-6.807-0.179
				C112.827,11.267,112.827,10.706,112.827,9.632z"/>
			<path d="M128.29,14.196v11.286l4.678,0.007c5.679,0.007,9.226-0.599,11.164-1.907c1.786-1.206,2.691-2.702,2.691-4.448
				c0-1.463-0.626-2.752-1.862-3.831c-1.297-1.132-2.881-1.861-4.711-2.168c-1.461-0.245-3.581-0.381-6.672-0.427l-5.285-0.083
				L128.29,14.196z M133.518,15.767c3.139,0.049,4.612,0.194,5.291,0.308c0.609,0.102,1.218,0.415,1.807,0.93
				c0.657,0.574,0.977,1.27,0.977,2.129c0,1.003-0.462,1.803-1.413,2.444c-0.287,0.194-1.635,0.807-6.662,0.844
				C133.518,20.66,133.518,17.565,133.518,15.767z"/>
		</g>
		<g>
			<path d="M159.05,40.786c0-1.79,0-3.58,0-5.37c2.142-0.001,4.284,0.001,6.426,0.008c0-6.999,0-13.998,0-20.998
				c-2.142,0.007-4.283,0.009-6.426,0.008c0-1.79,0-3.58,0-5.37c15.692,0.013,31.384-0.29,47.049-0.91c0,3.548,0,7.097,0,10.645
				c-3.404,0.049-6.809,0.093-10.214,0.131c0-1.621,0-3.241,0-4.861c-5.501,0.112-11.007,0.198-16.512,0.258
				c0,2.456,0,4.913,0,7.369c4.436-0.015,8.87-0.035,13.302-0.06c0,1.841,0,4.906,0,6.747c-4.432-0.017-8.867-0.031-13.302-0.041
				c0,2.8,0,4.377,0,7.177c5.506,0.06,11.011,0.147,16.512,0.258c0-1.64,0-3.281,0-4.922c3.405,0.038,6.811,0.081,10.214,0.13
				c0,3.569,0,7.138,0,10.707C190.434,41.077,174.742,40.774,159.05,40.786z"/>
			<path d="M205.923,6.63c-15.53,0.614-31.299,0.919-46.869,0.907l-2.618-0.002v8.434c0,0,4.583-0.006,6.426-0.008
				c0,2.427,0,15.505,0,17.933c-1.843-0.002-6.434-0.008-6.434-0.008l0.009,1.533v6.901l2.618-0.002
				c15.569-0.013,31.338,0.292,46.869,0.906l2.79,0.11v-13.84l-15.449-0.196l0.007,1.563c0,0,0,1.888,0,3.345
				c-3.759-0.071-7.527-0.13-11.283-0.176c0-1.571,0-2.539,0-4.145c3.382,0.01,13.299,0.041,13.299,0.041l0.004-1.538
				c0,0,0-7.488,0-7.916c0.237-0.003,13.43-0.173,13.43-0.173l-0.007-1.496V6.52L205.923,6.63z M203.484,9.778
				c0,1.945,0,5.708,0,7.527c-1.869,0.024-3.061,0.039-4.984,0.064c0-1.439,0-4.881,0-4.881l-2.706,0.055
				c-5.467,0.111-11.008,0.198-16.471,0.258l-2.565,0.028V23.24c0,0,9.909-0.045,13.302-0.06c0,0.984,0,2.687,0,3.669
				c-3.388-0.01-13.306-0.041-13.306-0.041l0.003,1.538v8.678l2.565,0.028c5.463,0.06,11.004,0.147,16.471,0.258l2.706,0.055
				c0,0,0-3.486,0-4.942c1.924,0.025,3.115,0.04,4.984,0.063c0,1.825,0,5.636,0,7.588c-13.878-0.515-27.913-0.789-41.82-0.809
				c0-0.94,0-1.371,0-2.315c1.834,0.002,6.417,0.008,6.417,0.008l0.008-1.533V12.894c0,0-4.591,0.006-6.425,0.008
				c0-0.944,0-1.375,0-2.315C175.572,10.568,189.607,10.294,203.484,9.778z M193.27,15.648c0,1.44,0,4.019,0,4.459
				c-0.223,0.001-7.899,0.035-11.283,0.05c0-1.433,0-2.931,0-4.333C185.744,15.778,189.511,15.719,193.27,15.648z"/>
		</g>
		<g>
			<path d="M208.742,41.804c0-1.904,0-3.809,0-5.714c2.619,0.073,5.237,0.151,7.854,0.235c4.327-3.813,8.653-7.755,12.975-11.875
				c-4.322-3.789-8.647-7.415-12.975-10.923c-2.443,0.079-4.886,0.152-7.331,0.22c0-1.907,0-3.814,0-5.721
				c9.293-0.393,18.574-0.897,27.84-1.512c0,2.076,0,4.151,0,6.226c-1.689,0.074-3.378,0.146-5.067,0.215
				c2.487,2.032,4.973,4.114,7.458,6.254c2.267-2.24,4.533-4.537,6.797-6.898c-1.605,0.079-3.211,0.156-4.818,0.231
				c0-2.109,0-4.218,0-6.327c7.978-0.56,15.942-1.203,23.891-1.929c0,2.329,0,4.658,0,6.987c-2.449,0.148-4.899,0.29-7.35,0.428
				c-4.178,4.595-8.36,8.943-12.546,13.089c4.618,4.231,9.232,8.69,13.84,13.432c2.54,0.144,5.079,0.294,7.614,0.45
				c0,2.345,0,4.691,0,7.036c-9.462-0.877-18.948-1.636-28.45-2.279c0-2.086,0-4.173,0-6.26c1.766,0.079,3.531,0.161,5.295,0.245
				c-2.685-2.623-5.371-5.162-8.059-7.63c-2.538,2.377-5.076,4.691-7.616,6.952c1.829,0.071,3.657,0.145,5.485,0.221
				c0,2.05,0,4.101,0,6.151C225.312,42.586,217.031,42.15,208.742,41.804z"/>
			<path d="M264.964,2.775c-7.877,0.719-15.885,1.365-23.8,1.921c0,0-1.933,0.136-2.17,0.153c-0.817,0.054-2.185,0.145-2.185,0.145
				c-9.184,0.61-18.514,1.117-27.732,1.507l-2.426,0.102v8.754c0,0,6.79-0.204,8.65-0.26c3.922,3.192,7.592,6.282,11.157,9.387
				c-3.588,3.4-7.28,6.778-11.223,10.268c-1.969-0.059-9.117-0.273-9.117-0.273l0.01,1.61v7.138l2.428,0.102
				c8.223,0.344,16.548,0.782,24.743,1.301l2.562,0.163l2.314,0.156c9.434,0.638,18.97,1.402,28.342,2.27l3.024,0.28V37.29
				c0,0-6.829-0.403-8.645-0.511c-3.974-4.065-8.129-8.096-12.379-12.018c3.81-3.799,7.544-7.695,11.133-11.618
				c1.825-0.106,8.341-0.486,8.341-0.486l-0.009-1.384V2.5L264.964,2.775z M262.753,6.057c0,1.45,0,2.614,0,3.832
				c-2.17,0.126-6.378,0.371-6.378,0.371l-0.666,0.723c-4.004,4.403-8.205,8.787-12.489,13.03l-0.817,0.809l0.865,0.792
				c4.741,4.344,9.374,8.84,13.771,13.365l0.667,0.687c0,0,4.364,0.258,6.605,0.39c0,1.226,0,2.419,0,3.881
				c-7.705-0.693-15.481-1.316-23.222-1.856c0-1.1,0-1.989,0-3.256c1.229,0.057,7.522,0.348,7.522,0.348l-2.597-2.544
				c-2.626-2.565-5.35-5.145-8.097-7.666l-2.227-2.045l-2.195,2.057c-2.441,2.287-4.992,4.616-7.583,6.922l-2.456,2.186
				c0,0,6.009,0.243,7.511,0.303c0,1.082,0,1.826,0,3.035c-6.516-0.396-13.078-0.741-19.609-1.028c0-1.002,0-1.603,0-2.693
				c2.318,0.069,6.584,0.197,6.584,0.197l0.834-0.726c4.618-4.069,8.879-7.968,13.025-11.921l0.875-0.835l-0.929-0.815
				c-4.145-3.634-8.407-7.222-13.029-10.969l-0.832-0.675c0,0-3.861,0.116-6.004,0.18c0-1.093,0-1.7,0-2.703
				c7.53-0.334,15.1-0.746,22.611-1.225c0,1.232,0,2.013,0,3.109c-1.316,0.056-7.286,0.31-7.286,0.31l2.708,2.218
				c2.533,2.07,5.029,4.164,7.421,6.223l2.314,1.993l2.098-2.073c2.31-2.283,4.606-4.614,6.827-6.929l2.405-2.507
				c0,0-5.926,0.284-6.889,0.33c0-1.286,0-2.211,0-3.323C250.309,7.111,256.553,6.607,262.753,6.057z M235.703,32.654
				c1.068,0.998,2.125,1.995,3.176,3c-0.015-0.001-3.025-0.14-3.025-0.14v0.002c-0.505-0.02-2.817-0.114-3.147-0.127
				C233.719,34.475,234.715,33.566,235.703,32.654z M241.539,14.075c-0.744,0.76-1.486,1.516-2.239,2.272
				c-0.812-0.688-1.627-1.372-2.454-2.061c0.074-0.003,1.3-0.055,2.015-0.086v0.003c0,0,0.403-0.019,0.611-0.029
				c0.047-0.002,0.254-0.011,0.254-0.011v-0.001C240.497,14.125,241.364,14.083,241.539,14.075z"/>
		</g>
	</g>
	<g>
		<g>
			<path fill="#FDB913" d="M107.995,36.184c0,1.921,0,3.841,0,5.762c-8.745,0.391-17.48,0.88-26.2,1.467c0-2.086,0-4.172,0-6.258
				c2.278-0.102,4.557-0.199,6.838-0.291c-0.842-2.025-1.683-4.066-2.525-6.125c-4.603,0.094-9.202,0.196-13.797,0.307
				c-0.942,2.209-1.883,4.443-2.825,6.702c2.362-0.122,4.726-0.239,7.091-0.352c0,2.127,0,4.254,0,6.382
				c-7.845,0.564-15.678,1.209-23.494,1.933c0-2.345,0-4.691,0-7.036c2.187-0.134,4.375-0.264,6.564-0.39
				c3.442-9.103,6.887-17.799,10.335-26.152c-2.362-0.122-4.723-0.248-7.083-0.379c0-2.248,0-4.495,0-6.742
				c11.538,0.969,23.108,1.764,34.698,2.386c0,1.978,0,3.956,0,5.935c-2.377-0.084-4.753-0.174-7.129-0.268
				c3.725,8.056,7.452,15.805,11.181,23.319C103.764,36.312,105.879,36.246,107.995,36.184z M83.927,25.415
				c-1.479-3.687-2.956-7.432-4.434-11.24c-1.592,3.686-3.184,7.436-4.776,11.257C77.785,25.427,80.855,25.421,83.927,25.415z"/>
			<path fill="#FFFFFF" d="M62.115,12.171c0,0,5.516,0.295,6.893,0.369c-3.412,8.281-6.776,16.793-10.004,25.32
				c-0.944,0.056-6.709,0.398-6.709,0.398l0.003,0.414v7.573l0.907-0.084c7.769-0.72,15.665-1.369,23.467-1.931l0.688-0.05v-7.287
				c0,0-5.287,0.263-6.851,0.34c0.407-0.965,2.192-5.201,2.421-5.746c1.025-0.023,11.454-0.255,12.564-0.28
				c0.243,0.588,1.818,4.412,2.158,5.234c-1.384,0.059-6.646,0.283-6.646,0.283l0.003,0.427v6.773l0.874-0.059
				c8.666-0.584,17.471-1.077,26.17-1.466l0.725-0.032v-6.671c0,0-5.531,0.173-6.548,0.205c-3.758-7.58-7.27-14.903-10.717-22.342
				c1.573,0.059,6.87,0.258,6.87,0.258l-0.003-0.489V6.977l-0.712-0.038C86.136,6.32,74.475,5.519,63.011,4.556l-0.896-0.075V12.171
				z M63.684,5.533c10.967,0.912,22.1,1.678,33.129,2.277c0,0.652,0,4.271,0,5.032c-1.298-0.049-7.385-0.277-7.385-0.277
				l0.283,0.619c3.594,7.774,7.253,15.405,11.185,23.327l0.174,0.35c0,0,4.892-0.153,6.139-0.192c0,0.747,0,4.199,0,4.856
				c-8.193,0.371-16.466,0.834-24.632,1.378c0-0.796,0-4.646,0-5.322c1.159-0.049,7.03-0.299,7.03-0.299l-0.214-0.527l-2.675-6.489
				l-0.639,0.013l-14.392,0.32l-0.139,0.334l-3.087,7.326l1.093-0.055c0,0,4.923-0.244,6.238-0.31c0,0.79,0,4.832,0,5.48
				c-7.295,0.529-14.659,1.135-21.926,1.803c0-0.852,0-5.413,0-6.089c1.12-0.067,6.421-0.381,6.421-0.381l0.125-0.324
				c3.33-8.806,6.806-17.602,10.331-26.143l0.213-0.516c0,0-6.124-0.327-7.274-0.389C63.684,10.658,63.684,6.362,63.684,5.533z"/>
			<path fill="#FFFFFF" d="M73.713,25.895l1.008-0.004l10.192-0.019l-4.654-11.799l-1.526-0.011L73.713,25.895z M79.465,16.146
				c0.964,2.443,3.147,7.976,3.477,8.813c-1.377,0.003-5.816,0.011-7.221,0.013C76.081,24.124,78.433,18.579,79.465,16.146z"/>
		</g>
		<g>
			<path fill="#FDB913" d="M138.374,35.549c0,1.812,0,3.625,0,5.437c-9.394,0.174-18.783,0.461-28.162,0.862c0-1.91,0-3.819,0-5.729
				c2.268-0.064,4.537-0.124,6.807-0.179c0-7.343,0-14.685,0-22.028c-2.27-0.055-4.539-0.115-6.807-0.179c0-1.91,0-3.819,0-5.729
				c9.368,0.4,18.747,0.688,28.13,0.862c6.554,0.122,11.618,1.08,15.191,2.921c3.572,1.84,5.359,4.291,5.359,7.376
				c0,1.763-0.628,3.362-1.882,4.798c-1.255,1.436-2.861,2.539-4.82,3.309c-1.959,0.77-4.198,1.301-6.72,1.591
				c-2.522,0.29-5.677,0.445-9.463,0.466c-1.702,0.009-3.404,0.02-5.105,0.032c0,2.099,0,4.199,0,6.298
				C133.393,35.616,135.884,35.58,138.374,35.549z M130.904,23.956c0.69,0.001,1.38,0.002,2.07,0.003
				c4.753,0.006,7.814-0.456,9.183-1.379c1.367-0.923,2.051-2.07,2.051-3.446c0-1.161-0.473-2.153-1.419-2.98
				c-0.947-0.826-2.032-1.343-3.259-1.549c-1.227-0.206-3.234-0.326-6.019-0.368c-0.869-0.013-1.737-0.027-2.607-0.041
				C130.904,17.449,130.904,20.703,130.904,23.956z"/>
			<path fill="#FFFFFF" d="M109.428,14.172c0,0,5.616,0.148,6.806,0.179c0,0.826,0,20.325,0,21.151
				c-1.19,0.031-6.81,0.179-6.81,0.179l0.003,0.438v6.223l0.842-0.036c9.322-0.398,18.786-0.688,28.13-0.861l0.76-0.014v-6.352
				c0,0-6.187,0.089-7.47,0.107c0-0.743,0-4.655,0-5.374c1.115-0.007,4.328-0.027,4.328-0.027c3.822-0.022,7.054-0.181,9.607-0.475
				c2.612-0.301,4.969-0.86,7.005-1.66c2.062-0.811,3.77-1.982,5.081-3.481c1.306-1.496,1.967-3.18,1.967-5.006
				c0-3.2-1.893-5.797-5.626-7.72c-3.664-1.888-8.941-2.91-15.684-3.036c-9.33-0.173-18.784-0.463-28.098-0.861l-0.842-0.036V14.172
				z M110.997,8.492c9.065,0.381,18.249,0.663,27.321,0.832c6.369,0.119,11.314,1.063,14.697,2.807
				c3.427,1.765,5.093,4.065,5.093,7.032c0,1.68-0.604,3.224-1.796,4.589c-1.187,1.359-2.721,2.414-4.559,3.137
				c-1.863,0.732-4.027,1.245-6.434,1.521c-2.457,0.283-5.593,0.437-9.319,0.458l-5.882,0.036l0.001,0.454v6.768
				c0,0,6.194-0.089,7.47-0.107c0,0.715,0,3.854,0,4.527c-8.839,0.17-17.772,0.443-26.593,0.814c0-0.749,0-4.123,0-4.802
				c1.183-0.031,6.804-0.179,6.804-0.179l0.003-0.439V13.473c0,0-5.624-0.148-6.807-0.179
				C110.997,12.615,110.997,9.241,110.997,8.492z"/>
			<path fill="#FFFFFF" d="M130.119,14.196v10.218l2.852,0.004c5.037,0.006,8.235-0.497,9.778-1.537
				c1.488-1.005,2.243-2.266,2.243-3.747c0-1.247-0.522-2.336-1.553-3.235c-1.049-0.916-2.292-1.499-3.694-1.734
				c-1.29-0.216-3.323-0.343-6.215-0.386l-3.41-0.054L130.119,14.196z M131.689,14.667c0.77,0.012,1.802,0.028,1.802,0.028
				c2.719,0.041,4.678,0.159,5.823,0.351c1.036,0.174,1.986,0.632,2.823,1.363c0.854,0.746,1.287,1.663,1.287,2.725
				c0,1.272-0.608,2.301-1.86,3.146c-0.831,0.561-2.995,1.228-8.588,1.221c0,0-0.682-0.001-1.287-0.002
				C131.689,22.709,131.689,15.479,131.689,14.667z"/>
		</g>
		<g>
			<path fill="#FDB913" d="M159.05,40.786c0-1.79,0-3.58,0-5.37c2.142-0.001,4.284,0.001,6.426,0.008c0-6.999,0-13.998,0-20.998
				c-2.142,0.007-4.283,0.009-6.426,0.008c0-1.79,0-3.58,0-5.37c15.692,0.013,31.384-0.29,47.049-0.91c0,3.548,0,7.097,0,10.645
				c-3.404,0.049-6.809,0.093-10.214,0.131c0-1.621,0-3.241,0-4.861c-5.501,0.112-11.007,0.198-16.512,0.258
				c0,2.456,0,4.913,0,7.369c4.436-0.015,8.87-0.035,13.302-0.06c0,1.841,0,4.906,0,6.747c-4.432-0.017-8.867-0.031-13.302-0.041
				c0,2.8,0,4.377,0,7.177c5.506,0.06,11.011,0.147,16.512,0.258c0-1.64,0-3.281,0-4.922c3.405,0.038,6.811,0.081,10.214,0.13
				c0,3.569,0,7.138,0,10.707C190.434,41.077,174.742,40.774,159.05,40.786z"/>
			<path fill="#FFFFFF" d="M206.046,7.698c-15.571,0.616-31.383,0.922-46.995,0.909l-0.786,0v6.289c0,0,5.212-0.007,6.426-0.008
				c0,0.86,0,19.218,0,20.078c-1.214-0.001-6.428-0.008-6.428-0.008l0.002,0.46v5.829l0.786-0.001
				c15.611-0.013,31.422,0.293,46.995,0.909l0.838,0.033V30.54l-11.784-0.15l0.002,0.469c0,0,0,3.675,0,4.448
				c-4.966-0.099-9.981-0.177-14.944-0.234c0-0.757,0-5.49,0-6.267c1.394,0.004,13.301,0.041,13.301,0.041l0.001-0.461v-7.21
				c0,0-11.907,0.053-13.303,0.06c0-0.76,0-5.72,0-6.458c4.962-0.057,9.978-0.135,14.944-0.234c0,0.771,0,4.857,0,4.857
				l11.785-0.151l-0.002-0.449V7.665L206.046,7.698z M205.315,8.643c0,0.847,0,8.925,0,9.71c-1.199,0.015-7.397,0.095-8.645,0.111
				c0-0.766,0-4.868,0-4.868l-0.811,0.017c-5.477,0.111-11.028,0.198-16.5,0.258l-0.77,0.008v8.282c0,0,11.902-0.053,13.302-0.06
				c0,0.706,0,5.12,0,5.824c-1.397-0.004-13.303-0.041-13.303-0.041l0.001,0.461v7.627l0.77,0.008
				c5.472,0.06,11.023,0.147,16.5,0.258l0.811,0.017c0,0,0-4.16,0-4.928c1.248,0.016,7.447,0.095,8.645,0.11
				c0,0.785,0,8.923,0,9.771c-15.077-0.585-30.368-0.884-45.48-0.882c0-0.696,0-3.753,0-4.45c1.208,0.001,6.423,0.008,6.423,0.008
				l0.003-0.46V13.967c0,0-5.217,0.007-6.425,0.008c0-0.697,0-3.754,0-4.45C174.948,9.527,190.238,9.228,205.315,8.643z"/>
		</g>
		<g>
			<path fill="#FDB913" d="M208.742,41.804c0-1.904,0-3.809,0-5.714c2.619,0.073,5.237,0.151,7.854,0.235
				c4.327-3.813,8.653-7.755,12.975-11.875c-4.322-3.789-8.647-7.415-12.975-10.923c-2.443,0.079-4.886,0.152-7.331,0.22
				c0-1.907,0-3.814,0-5.721c9.293-0.393,18.574-0.897,27.84-1.512c0,2.076,0,4.151,0,6.226c-1.689,0.074-3.378,0.146-5.067,0.215
				c2.487,2.032,4.973,4.114,7.458,6.254c2.267-2.24,4.533-4.537,6.797-6.898c-1.605,0.079-3.211,0.156-4.818,0.231
				c0-2.109,0-4.218,0-6.327c7.978-0.56,15.942-1.203,23.891-1.929c0,2.329,0,4.658,0,6.987c-2.449,0.148-4.899,0.29-7.35,0.428
				c-4.178,4.595-8.36,8.943-12.546,13.089c4.618,4.231,9.232,8.69,13.84,13.432c2.54,0.144,5.079,0.294,7.614,0.45
				c0,2.345,0,4.691,0,7.036c-9.462-0.877-18.948-1.636-28.45-2.279c0-2.086,0-4.173,0-6.26c1.766,0.079,3.531,0.161,5.295,0.245
				c-2.685-2.623-5.371-5.162-8.059-7.63c-2.538,2.377-5.076,4.691-7.616,6.952c1.829,0.071,3.657,0.145,5.485,0.221
				c0,2.05,0,4.101,0,6.151C225.312,42.586,217.031,42.15,208.742,41.804z"/>
			<path fill="#FFFFFF" d="M265.246,3.833c-7.899,0.721-15.928,1.369-23.864,1.926l-0.691,0.049v7.232c0,0,2.753-0.132,4.176-0.2
				c-1.778,1.843-3.594,3.688-5.429,5.51c-1.936-1.659-3.93-3.331-5.957-4.996c1.464-0.062,4.411-0.188,4.411-0.188l-0.002-0.427V6
				l-0.873,0.058c-9.209,0.612-18.564,1.12-27.807,1.511L208.481,7.6v6.631c0,0,6.963-0.209,7.727-0.232
				c4.397,3.569,8.471,6.998,12.429,10.462c-3.968,3.776-8.047,7.509-12.45,11.392c-0.802-0.024-8.233-0.246-8.233-0.246
				l0.003,0.483v6.141l0.728,0.03c8.246,0.345,16.593,0.784,24.81,1.304l0.869,0.055V36.53c0,0-3.358-0.136-4.885-0.197
				c2.121-1.897,4.208-3.802,6.23-5.687c2.233,2.06,4.441,4.151,6.594,6.241c-1.548-0.072-4.614-0.214-4.614-0.214l0.002,0.497
				v6.668l0.694,0.047c9.459,0.64,19.02,1.405,28.418,2.276l0.907,0.084v-7.988c0,0-7.206-0.425-7.923-0.468
				c-4.287-4.403-8.792-8.775-13.402-13.008c4.155-4.124,8.23-8.375,12.122-12.648c0.739-0.043,7.648-0.445,7.648-0.445
				l-0.003-0.415V3.751L265.246,3.833z M264.582,4.818c0,0.849,0,5.365,0,6.041c-1.151,0.067-7.058,0.411-7.058,0.411l-0.2,0.217
				c-4.016,4.417-8.231,8.814-12.529,13.071l-0.245,0.243l0.259,0.237c4.758,4.359,9.407,8.872,13.82,13.412l0.2,0.206
				c0,0,6.154,0.363,7.312,0.432c0,0.676,0,5.239,0,6.089c-8.9-0.818-17.93-1.541-26.883-2.152c0-0.648,0-4.576,0-5.358
				c1.193,0.055,5.964,0.276,5.964,0.276l-0.779-0.763c-2.617-2.557-5.333-5.128-8.071-7.641l-0.668-0.613l-0.658,0.617
				c-2.449,2.294-5.007,4.63-7.607,6.943l-0.737,0.656c0,0,4.997,0.202,6.093,0.246c0,0.676,0,4.428,0,5.216
				c-7.715-0.483-15.53-0.894-23.27-1.222c0-0.659,0-4.064,0-4.808c1.317,0.039,7.473,0.224,7.473,0.224l0.251-0.218
				c4.605-4.058,8.854-7.947,12.989-11.888l0.263-0.25l-0.278-0.244c-4.133-3.623-8.383-7.2-12.992-10.937l-0.25-0.203
				c0,0-5.637,0.169-6.932,0.208c0-0.744,0-4.157,0-4.816c8.738-0.375,17.562-0.855,26.271-1.426c0,0.794,0,4.616,0,5.291
				c-1.065,0.045-5.732,0.244-5.732,0.244l0.812,0.666c2.541,2.077,5.047,4.178,7.447,6.245l0.694,0.598l0.63-0.622
				c2.303-2.276,4.593-4.599,6.806-6.907l0.722-0.752c0,0-4.289,0.205-5.439,0.26c0-0.787,0-4.778,0-5.426
				C249.688,6.093,257.185,5.487,264.582,4.818z"/>
		</g>
	</g>
	<g>
		<rect x="50.461" y="22.512" stroke="#000000" stroke-width="0.3078" width="218.758" height="7.104"/>
		<g display="none">
			<path display="inline" fill="#FFFFFF" d="M64.62,23.678l3.071,4.804h-1.875l-0.622-1.07h-3.071l-0.644,1.07h-1.818l3.106-4.804
				H64.62z M64.724,26.623l-1.036-1.76h-0.023l-1.07,1.76H64.724z"/>
			<path display="inline" fill="#FFFFFF" d="M77.859,23.678c0.514,0,0.951,0.044,1.311,0.131c0.36,0.087,0.654,0.203,0.879,0.347
				c0.226,0.144,0.391,0.307,0.495,0.491c0.103,0.184,0.155,0.375,0.155,0.572c0,0.193-0.052,0.383-0.155,0.569
				c-0.104,0.186-0.269,0.351-0.495,0.495c-0.226,0.144-0.519,0.259-0.879,0.347c-0.361,0.088-0.798,0.131-1.311,0.131h-1.898v1.721
				h-1.806v-4.804H77.859z M77.364,25.939c0.207,0,0.407-0.009,0.598-0.027c0.192-0.018,0.36-0.053,0.506-0.104
				c0.145-0.051,0.263-0.124,0.351-0.218c0.088-0.094,0.132-0.217,0.132-0.37c0-0.152-0.044-0.276-0.132-0.37
				c-0.088-0.094-0.205-0.167-0.351-0.218c-0.146-0.051-0.314-0.086-0.506-0.104c-0.192-0.018-0.391-0.027-0.598-0.027h-1.403v1.439
				H77.364z"/>
			<path display="inline" fill="#FFFFFF" d="M93.723,23.678v0.889h-4.337v1.028h3.981v0.822h-3.981v1.176h4.429v0.889H87.58v-4.804
				H93.723z"/>
			<path display="inline" fill="#FFFFFF" d="M100.155,23.678h2.094l1.611,1.534l1.668-1.534h1.979l-2.634,2.295l2.864,2.509h-2.151
				l-1.795-1.662l-1.829,1.662h-2.025l2.865-2.516L100.155,23.678z"/>
			<path display="inline" fill="#FFFFFF" d="M124.966,23.678v1.84h3.326v-1.84h1.805v4.804h-1.805v-2.074h-3.326v2.074h-1.806
				v-4.804H124.966z"/>
			<path display="inline" fill="#FFFFFF" d="M139.243,23.678v4.804h-1.806v-4.804H139.243z"/>
			<path display="inline" fill="#FFFFFF" d="M151.45,28.443c-0.392,0.096-0.786,0.144-1.184,0.144c-0.628,0-1.193-0.064-1.695-0.192
				c-0.502-0.128-0.925-0.304-1.27-0.528c-0.345-0.224-0.609-0.487-0.793-0.79c-0.184-0.303-0.276-0.629-0.276-0.978
				c0-0.359,0.092-0.692,0.276-0.999c0.184-0.307,0.448-0.575,0.793-0.804c0.345-0.229,0.768-0.408,1.271-0.538
				s1.068-0.195,1.697-0.195c0.422,0,0.829,0.037,1.225,0.111c0.395,0.074,0.752,0.183,1.07,0.327
				c0.318,0.144,0.581,0.321,0.788,0.532c0.207,0.211,0.334,0.453,0.38,0.727h-1.726c-0.107-0.269-0.314-0.471-0.621-0.606
				c-0.307-0.135-0.679-0.202-1.116-0.202c-0.407,0-0.752,0.046-1.036,0.138c-0.283,0.092-0.514,0.215-0.69,0.37
				c-0.177,0.155-0.306,0.331-0.386,0.528c-0.08,0.197-0.121,0.401-0.121,0.612c0,0.202,0.04,0.398,0.121,0.588
				c0.08,0.191,0.209,0.362,0.385,0.515c0.177,0.152,0.407,0.275,0.69,0.366c0.284,0.092,0.628,0.138,1.034,0.138
				c0.598,0,1.06-0.089,1.385-0.266c0.326-0.177,0.516-0.434,0.569-0.771h-1.818v-0.789h3.452v2.599h-1.15l-0.185-0.545
				C152.197,28.178,151.841,28.347,151.45,28.443z"/>
			<path display="inline" fill="#FFFFFF" d="M162.871,23.678v1.84h3.325v-1.84h1.806v4.804h-1.806v-2.074h-3.325v2.074h-1.806
				v-4.804H162.871z"/>
			<path display="inline" fill="#FFFFFF" d="M185.675,27.297c0.1,0.112,0.232,0.203,0.396,0.273c0.165,0.07,0.358,0.121,0.581,0.155
				c0.222,0.034,0.452,0.05,0.69,0.05c0.161,0,0.333-0.008,0.517-0.024c0.184-0.015,0.357-0.046,0.518-0.091
				c0.161-0.045,0.295-0.106,0.402-0.185c0.107-0.078,0.161-0.178,0.161-0.299c0-0.13-0.071-0.235-0.213-0.316
				c-0.142-0.081-0.327-0.148-0.558-0.202c-0.23-0.054-0.49-0.101-0.781-0.141c-0.292-0.04-0.586-0.085-0.885-0.135
				c-0.307-0.045-0.606-0.1-0.897-0.165c-0.291-0.065-0.551-0.149-0.782-0.252c-0.23-0.103-0.416-0.232-0.557-0.387
				c-0.142-0.155-0.213-0.342-0.213-0.562c0-0.247,0.09-0.461,0.27-0.642c0.18-0.182,0.416-0.333,0.706-0.454
				c0.291-0.121,0.621-0.211,0.989-0.269c0.368-0.058,0.736-0.087,1.104-0.087c0.429,0,0.841,0.028,1.235,0.084
				c0.395,0.056,0.746,0.147,1.052,0.273c0.307,0.126,0.55,0.286,0.73,0.482c0.18,0.195,0.271,0.432,0.271,0.71h-1.749
				c-0.015-0.143-0.067-0.262-0.155-0.357c-0.087-0.094-0.204-0.168-0.349-0.222c-0.146-0.054-0.313-0.092-0.5-0.114
				c-0.187-0.022-0.393-0.034-0.614-0.034c-0.145,0-0.291,0.009-0.436,0.027c-0.145,0.018-0.278,0.049-0.396,0.094
				c-0.119,0.045-0.216,0.101-0.292,0.168c-0.077,0.067-0.115,0.153-0.115,0.256c0,0.094,0.031,0.17,0.092,0.229
				c0.062,0.058,0.183,0.112,0.362,0.161c0.18,0.049,0.429,0.099,0.748,0.148c0.318,0.049,0.734,0.112,1.247,0.188
				c0.153,0.018,0.366,0.05,0.638,0.097c0.271,0.047,0.542,0.122,0.81,0.225c0.268,0.103,0.5,0.241,0.696,0.413
				c0.196,0.173,0.293,0.393,0.293,0.662c0,0.22-0.073,0.424-0.219,0.612c-0.145,0.188-0.362,0.351-0.65,0.488
				c-0.287,0.136-0.644,0.243-1.069,0.319c-0.426,0.076-0.918,0.114-1.478,0.114c-0.452,0-0.891-0.032-1.317-0.097
				c-0.426-0.065-0.801-0.167-1.127-0.306c-0.326-0.139-0.584-0.316-0.776-0.531c-0.192-0.215-0.284-0.471-0.276-0.767h1.748
				C185.525,27.048,185.575,27.185,185.675,27.297z"/>
			<path display="inline" fill="#FFFFFF" d="M202.783,24.961c-0.107-0.101-0.241-0.19-0.403-0.266
				c-0.161-0.076-0.343-0.136-0.546-0.178c-0.204-0.043-0.416-0.064-0.639-0.064c-0.407,0-0.752,0.046-1.035,0.138
				c-0.284,0.092-0.514,0.215-0.69,0.37c-0.176,0.155-0.305,0.331-0.385,0.528c-0.08,0.197-0.12,0.401-0.12,0.612
				c0,0.202,0.04,0.398,0.12,0.588c0.081,0.191,0.21,0.362,0.385,0.515c0.176,0.152,0.407,0.275,0.69,0.366
				c0.283,0.092,0.628,0.138,1.035,0.138c0.552,0,0.984-0.099,1.294-0.296c0.31-0.198,0.5-0.458,0.569-0.781h1.749
				c-0.046,0.301-0.165,0.572-0.357,0.814c-0.192,0.242-0.445,0.448-0.759,0.618c-0.314,0.17-0.683,0.3-1.104,0.389
				c-0.422,0.089-0.885,0.134-1.392,0.134c-0.629,0-1.195-0.064-1.696-0.192c-0.503-0.128-0.926-0.304-1.271-0.528
				c-0.345-0.224-0.609-0.487-0.793-0.79c-0.184-0.303-0.276-0.629-0.276-0.978c0-0.359,0.092-0.692,0.276-0.999
				c0.184-0.307,0.449-0.575,0.793-0.804c0.345-0.229,0.769-0.408,1.271-0.538c0.502-0.13,1.068-0.195,1.696-0.195
				c0.452,0,0.88,0.038,1.283,0.114c0.403,0.076,0.763,0.188,1.082,0.333c0.318,0.146,0.581,0.327,0.788,0.542
				c0.207,0.215,0.337,0.462,0.391,0.74h-1.749C202.959,25.173,202.89,25.062,202.783,24.961z"/>
			<path display="inline" fill="#FFFFFF" d="M213.59,23.678v1.84h3.325v-1.84h1.806v4.804h-1.806v-2.074h-3.325v2.074h-1.806v-4.804
				H213.59z"/>
			<path display="inline" fill="#FFFFFF" d="M225.986,25.1c0.184-0.307,0.448-0.575,0.792-0.804c0.345-0.229,0.768-0.408,1.27-0.538
				c0.501-0.13,1.066-0.195,1.694-0.195c0.635,0,1.202,0.065,1.7,0.195c0.497,0.13,0.919,0.309,1.263,0.538
				c0.345,0.229,0.609,0.496,0.793,0.804c0.184,0.307,0.276,0.64,0.276,0.999c0,0.35-0.092,0.676-0.276,0.978
				c-0.184,0.303-0.448,0.566-0.793,0.79c-0.344,0.224-0.766,0.4-1.263,0.528c-0.498,0.128-1.065,0.192-1.7,0.192
				c-0.628,0-1.193-0.064-1.694-0.192c-0.502-0.128-0.925-0.304-1.27-0.528c-0.345-0.224-0.608-0.487-0.792-0.79
				c-0.184-0.303-0.276-0.629-0.276-0.978C225.71,25.74,225.802,25.407,225.986,25.1z M227.636,26.689
				c0.08,0.191,0.208,0.362,0.385,0.515c0.176,0.152,0.405,0.275,0.688,0.366c0.284,0.092,0.628,0.138,1.033,0.138
				c0.406,0,0.749-0.046,1.033-0.138c0.283-0.092,0.512-0.214,0.688-0.366c0.176-0.153,0.304-0.324,0.385-0.515
				c0.08-0.191,0.12-0.387,0.12-0.588c0-0.211-0.04-0.415-0.12-0.612c-0.081-0.197-0.209-0.373-0.385-0.528
				c-0.176-0.155-0.405-0.278-0.688-0.37c-0.284-0.092-0.627-0.138-1.033-0.138c-0.406,0-0.75,0.046-1.033,0.138
				c-0.283,0.092-0.512,0.215-0.688,0.37c-0.176,0.155-0.305,0.331-0.385,0.528c-0.081,0.197-0.12,0.401-0.12,0.612
				C227.516,26.302,227.555,26.498,227.636,26.689z"/>
			<path display="inline" fill="#FFFFFF" d="M240.688,25.1c0.184-0.307,0.448-0.575,0.792-0.804c0.345-0.229,0.768-0.408,1.27-0.538
				c0.502-0.13,1.066-0.195,1.694-0.195c0.636,0,1.202,0.065,1.7,0.195c0.497,0.13,0.919,0.309,1.264,0.538
				c0.345,0.229,0.609,0.496,0.792,0.804c0.184,0.307,0.276,0.64,0.276,0.999c0,0.35-0.092,0.676-0.276,0.978
				c-0.184,0.303-0.448,0.566-0.792,0.79c-0.345,0.224-0.766,0.4-1.264,0.528c-0.498,0.128-1.064,0.192-1.7,0.192
				c-0.628,0-1.192-0.064-1.694-0.192c-0.502-0.128-0.925-0.304-1.27-0.528c-0.345-0.224-0.608-0.487-0.792-0.79
				c-0.184-0.303-0.276-0.629-0.276-0.978C240.412,25.74,240.504,25.407,240.688,25.1z M242.338,26.689
				c0.08,0.191,0.208,0.362,0.385,0.515c0.176,0.152,0.406,0.275,0.688,0.366c0.283,0.092,0.628,0.138,1.033,0.138
				c0.406,0,0.749-0.046,1.033-0.138c0.283-0.092,0.513-0.214,0.688-0.366c0.175-0.153,0.305-0.324,0.385-0.515
				c0.08-0.191,0.12-0.387,0.12-0.588c0-0.211-0.04-0.415-0.12-0.612c-0.08-0.197-0.209-0.373-0.385-0.528
				c-0.176-0.155-0.405-0.278-0.688-0.37c-0.284-0.092-0.627-0.138-1.033-0.138c-0.405,0-0.75,0.046-1.033,0.138
				c-0.283,0.092-0.513,0.215-0.688,0.37c-0.176,0.155-0.305,0.331-0.385,0.528c-0.08,0.197-0.12,0.401-0.12,0.612
				C242.218,26.302,242.258,26.498,242.338,26.689z"/>
			<path display="inline" fill="#FFFFFF" d="M257.271,23.678v3.915h4.004v0.889h-5.809v-4.804H257.271z"/>
		</g>
	</g>
	<text transform="matrix(1.1444 0 0 1 92.0298 27.665)" fill="#FFFFFF" font-family="'Myriad-Roman'" font-size="4.6385">Apex Cougar Club - Supporting Apex High School Athletics</text>
</g>
</svg>
