<?xml version="1.0" encoding="utf-8"?>
<!-- Generator: Adobe Illustrator 18.0.0, SVG Export Plug-In . SVG Version: 6.00 Build 0)  -->
<!DOCTYPE svg PUBLIC "-//W3C//DTD SVG 1.1//EN" "http://www.w3.org/Graphics/SVG/1.1/DTD/svg11.dtd">
<svg version="1.1" xmlns="http://www.w3.org/2000/svg" xmlns:xlink="http://www.w3.org/1999/xlink" x="0px" y="0px"
	 viewBox="0 0 320 50" enable-background="new 0 0 320 50" xml:space="preserve">
<g id="Background">
	<rect x="0" y="0" fill="#FFFFFF" width="320" height="50"/>
	<text transform="matrix(1 0 0 1 50.0708 21.3218)"><tspan x="0" y="0" font-family="'Raavi'" font-size="18">Advertise Your Business Here</tspan><tspan x="49.6" y="21.6" font-family="'Raavi'" font-size="18">Click For Details</tspan></text>
</g>
<g id="Logo_Left">
	<g>
		<g>
			<path d="M44.5,38.7v7H28.4v-7h3l-2-7.1H18.7l-2.2,7.1h3.1v7H5.5v-7h3.3l8.1-27.3h-2.9v-7h21.8v7h-2.9l8.7,27.3H44.5z M27.7,25.5
				l-3.4-12.4l-3.7,12.4H27.7z"/>
			<path d="M12.1,2.5v10.7c0,0,2.2,0,2.3,0c-1.1,3.7-6.3,21.5-7,23.7c-0.9,0-3.7,0-3.7,0v10.7h17.7V36.8c0,0-2.3,0-2.5,0
				c0.5-1.5,0.8-2.4,1.1-3.4c1.8,0,6.2,0,8,0c0.3,1.1,0.5,1.9,1,3.4c-0.2,0-2.4,0-2.4,0v10.7h19.7V36.8c0,0-2.7,0-3.5,0
				c-0.7-2.1-6.3-19.9-7.5-23.7c0.1,0,2.2,0,2.2,0V2.5H12.1z M33.9,6.2c0,1.3,0,2.1,0,3.3c-0.5,0-3.6,0-3.6,0l9.8,31
				c0,0,1.9,0,2.5,0c0,1.3,0,2.1,0,3.3c-2.5,0-9.9,0-12.4,0c0-1.3,0-2.1,0-3.3c0.6,0,3.6,0,3.6,0l-3-10.7H17.3L14,40.5
				c0,0,3.1,0,3.8,0c0,1.3,0,2.1,0,3.3c-2.4,0-8.1,0-10.4,0c0-1.3,0-2.1,0-3.3c0.7,0,2.8,0,2.8,0l9.1-31c0,0-3,0-3.6,0
				c0-1.3,0-2.1,0-3.3C18.5,6.2,31.1,6.2,33.9,6.2z"/>
			<path d="M18.1,27.3h12L24.3,6.5L18.1,27.3z M24.2,19.7c0.6,2,0.8,2.8,1.1,4c-1,0-1.3,0-2.3,0C23.4,22.5,23.6,21.7,24.2,19.7z"/>
		</g>
		<g>
			<path fill="#FDB913" d="M44.5,38.7v7H28.4v-7h3l-2-7.1H18.7l-2.2,7.1h3.1v7H5.5v-7h3.3l8.1-27.3h-2.9v-7h21.8v7h-2.9l8.7,27.3
				H44.5z M27.7,25.5l-3.4-12.4l-3.7,12.4H27.7z"/>
			<path fill="#FFFFFF" d="M13.4,3.8v8.1c0,0,1.9,0,2.8,0c-0.4,1.3-7.5,25.5-7.7,26.2c-0.6,0-3.4,0-3.4,0v8.1h15.2v-8.1
				c0,0-2.1,0-2.9,0c0.3-1.1,1.7-5.4,1.9-6c0.7,0,9.2,0,9.9,0c0.2,0.6,1.4,4.9,1.7,6c-0.8,0-2.8,0-2.8,0v8.1H45v-8.1
				c0,0-2.5,0-3.1,0c-0.2-0.7-7.9-24.9-8.3-26.2c0.8,0,2.7,0,2.7,0V3.8H13.4z M35.2,4.9c0,0.9,0,5.1,0,5.9c-0.7,0-3.1,0-3.1,0
				l9,28.4c0,0,2.1,0,2.8,0c0,0.9,0,5.1,0,5.9c-1,0-14,0-15,0c0-0.9,0-5.1,0-5.9c0.7,0,3.2,0,3.2,0L29.8,31H18.3l-2.5,8.2
				c0,0,2.6,0,3.3,0c0,0.9,0,5.1,0,5.9c-1,0-12,0-13,0c0-0.9,0-5.1,0-5.9c0.8,0,3.2,0,3.2,0l8.4-28.4c0,0-2.4,0-3.1,0
				c0-0.9,0-5.1,0-5.9C15.5,4.9,34.1,4.9,35.2,4.9z"/>
			<path fill="#FFFFFF" d="M19.8,26.1h8.6l-4.1-15L19.8,26.1z M24.3,15.1c0.7,2.5,2.5,8.9,2.7,9.9c-1,0-4.7,0-5.7,0
				C21.6,23.9,23.5,17.5,24.3,15.1z"/>
		</g>
		<g>
			<path d="M16.6,27.2c0,0,0.3-0.3,0.3-0.3c0.1,0,0.1,0,0.1,0.2l0,0c0.7-0.6,1.1-1.2,1.1-1.4c0-0.1-0.1-0.2-0.2-0.1
				c-0.1,0-0.9,0.1-2.4,1.8c-0.5,0.6-0.8,1.3-0.8,1.8c0,0.5,0.2,0.8,0.7,0.8c0.9,0,2.4-1.1,3-1.7c0,0.3-0.1,0.4-0.3,0.7
				c-1.3,1.3-2.5,1.7-3.1,1.7c-0.8,0-1.3-0.5-1.3-1.3c0-1,0.8-2.1,1.5-2.7c0.6-0.6,2-1.6,2.8-1.6c0.4,0,0.7,0.2,0.7,0.6
				c0,0.9-1.7,2.7-2.6,2.8c-0.2,0-0.4-0.1-0.4-0.3c0-0.2,0.2-0.4,0.3-0.5L16.6,27.2z"/>
			<path d="M21.4,28.8c-0.3,0.4-0.6,0.6-1.1,0.6c-0.3,0.3-0.6,0.5-1.1,0.5c-0.4,0-0.7-0.4-0.7-1c0-0.5,0.2-0.9,0.6-1.1
				c0.4-0.3,0.9-0.5,1.3-0.5c0.2,0,0.4,0.1,0.4,0.2c0,0.1-0.1,0.1-0.2,0.2c0.2,0.1,0.2,0.2,0.2,0.4c0,0.3-0.1,0.5-0.3,0.8
				c0.3,0.1,0.5-0.2,0.7-0.4L21.4,28.8z M19.3,28.5c-0.2,0.2-0.3,0.4-0.3,0.6c0,0.2,0.1,0.3,0.3,0.3c0.2,0,0.4-0.1,0.5-0.3
				c0-0.1-0.1-0.2-0.1-0.3c0-0.4,0.3-0.8,0.3-0.8C19.8,28.1,19.5,28.3,19.3,28.5z"/>
			<path d="M23.2,28c0.1-0.1,0.8-0.8,1-0.8c0.1,0,0.1,0,0.2,0.4c0,0.2-0.2,0.3-0.3,0.4c-0.2,0.2-0.7,0.7-0.7,1
				c0,0.1,0.1,0.2,0.2,0.2c0.3,0,0.8-0.5,1.1-0.6l0,0.3c-0.3,0.3-1.1,1.1-1.6,1.1c-0.3,0-0.4-0.2-0.4-0.5c0-0.2,0.1-0.4,0.1-0.6l0,0
				c-0.3,0.2-0.7,0.8-1.1,0.8c-0.3,0-0.5-0.4-0.5-0.7c0-0.7,0.5-1.3,0.9-1.6c0.1-0.1,0.2-0.1,0.3-0.1c0.1,0,0.4-0.1,0.4,0.1
				c0,0.1-0.2,0.3-0.3,0.4c-0.2,0.2-0.3,0.3-0.5,0.5c-0.2,0.2-0.4,0.3-0.4,0.6c0,0,0,0.1,0.1,0.1c0.1,0,0.5-0.2,0.8-0.5L23.2,28z"/>
			<path d="M26.4,28.8L26.4,28.8c-0.3,0.3-1,0.9-1.4,0.9c-0.4,0-0.5-0.5-0.5-0.8c0-0.9,1.5-1.6,2-1.7c0.1,0,0.4,0,0.4,0.2
				c0,0.1-0.1,0.2-0.2,0.3l-0.8,0.4c-0.4,0.2-0.9,0.4-0.9,0.9c0,0.1,0,0.1,0.1,0.1c0.2,0,0.6-0.1,0.9-0.4l0.7-0.8
				c0.1-0.1,0.2-0.2,0.3-0.2c0.1,0,0.3,0.2,0.3,0.3c0,0.1-0.1,0.3-0.1,0.3l-0.5,1l0,0l1-0.7l0,0.3L26.2,30c-0.7,1.1-1.3,1.6-1.6,1.6
				c-0.1,0-0.2-0.1-0.2-0.2c0-0.5,1-1.4,1.4-1.6L26.4,28.8z"/>
			<path d="M28.7,29.3c-0.1,0.1-0.6,0.5-0.7,0.5c-0.2,0-0.6-0.5-0.6-0.8c0-0.9,1.7-1.7,2.5-1.7c0.3,0,0.4,0.2,0.4,0.3
				s-0.2,0.2-0.2,0.2c0.1,0.1,0.2,0.1,0.2,0.3c0,0.2-0.6,0.7-0.6,1c0,0.1,0.1,0.2,0.2,0.2c0.3,0,0.7-0.3,1-0.5l0.1,0.3
				c-0.3,0.3-1.2,1.1-1.5,1.1c-0.2,0-0.3-0.2-0.3-0.4c0-0.2,0.2-0.6,0.3-0.8l0,0L28.7,29.3z M27.9,29.2c0,0,0,0.2,0.1,0.1
				c0.1,0,0.3,0,1.7-1.4l0,0C28.1,28.4,27.9,28.8,27.9,29.2z"/>
			<path d="M31.4,28.3c-0.2,0.4-0.5,0.6-0.8,0.8l0-0.3c0.2-0.1,0.3-0.3,0.5-0.5c-0.1,0-0.2-0.1-0.2-0.2c0-0.5,0.7-1,0.9-1
				c0.1,0,0.1,0.1,0.1,0.1c0,0.1,0,0.1,0,0.2c0.6-0.1,1-0.2,1.1-0.1c0.1,0.1,0.2,0.2,0.2,0.4c0,0.2-0.1,0.3-0.3,0.4
				c-0.2,0.2-0.5,0.5-0.5,0.8c0,0.1,0.1,0.2,0.2,0.2c0.3,0,0.7-0.4,0.9-0.6l0,0.3c-0.3,0.3-1,1.1-1.4,1.1c-0.3,0-0.5-0.3-0.5-0.5
				c0-0.5,0.4-0.8,0.6-1.2l0,0L31.4,28.3z"/>
			<path d="M35.6,28.6l0.1,0.3c-0.4,0.4-1.2,1-1.7,1c-0.5,0-1-0.3-1.1-0.8c0,0-0.1,0.1-0.2,0.1c-0.1,0-0.1-0.1-0.1-0.1
				c0-0.1,0.1-0.2,0.2-0.2l1.5-1.4c0-0.2,0.1-0.4,0.4-0.4c0.2,0,0.2,0.1,0.3,0.3c0,0.3,0.1,0.5,0.1,0.8c0,0.6-0.5,1-0.9,1.2
				c0.4,0.1,0.7-0.1,1-0.4L35.6,28.6z M33.3,28.8c0.3,0,0.4,0.2,0.5,0.4c0.4-0.3,0.5-0.4,0.5-0.8c0-0.1,0-0.3-0.1-0.6L33.3,28.8z"/>
		</g>
	</g>
</g>
<g id="Logo_Right">
	<g>
		<g>
			<path d="M314.5,38.7v7h-16.1v-7h3l-2-7.1h-10.7l-2.2,7.1h3.1v7h-14.1v-7h3.3l8.1-27.3h-2.9v-7h21.8v7h-2.9l8.7,27.3H314.5z
				 M297.7,25.5l-3.4-12.4l-3.7,12.4H297.7z"/>
			<path d="M282.1,2.5v10.7c0,0,2.2,0,2.3,0c-1.1,3.7-6.3,21.5-7,23.7c-0.9,0-3.7,0-3.7,0v10.7h17.7V36.8c0,0-2.3,0-2.5,0
				c0.5-1.5,0.8-2.4,1.1-3.4c1.8,0,6.2,0,8,0c0.3,1.1,0.5,1.9,1,3.4c-0.2,0-2.4,0-2.4,0v10.7h19.7V36.8c0,0-2.7,0-3.5,0
				c-0.7-2.1-6.3-19.9-7.5-23.7c0.1,0,2.2,0,2.2,0V2.5H282.1z M303.9,6.2c0,1.3,0,2.1,0,3.3c-0.5,0-3.6,0-3.6,0l9.8,31
				c0,0,1.9,0,2.5,0c0,1.3,0,2.1,0,3.3c-2.5,0-9.9,0-12.4,0c0-1.3,0-2.1,0-3.3c0.6,0,3.6,0,3.6,0l-3-10.7h-13.5L284,40.5
				c0,0,3.1,0,3.8,0c0,1.3,0,2.1,0,3.3c-2.4,0-8.1,0-10.4,0c0-1.3,0-2.1,0-3.3c0.7,0,2.8,0,2.8,0l9.1-31c0,0-3,0-3.6,0
				c0-1.3,0-2.1,0-3.3C288.5,6.2,301.1,6.2,303.9,6.2z"/>
			<path d="M288.1,27.3h12l-5.8-20.9L288.1,27.3z M294.2,19.7c0.6,2,0.8,2.8,1.1,4c-1,0-1.3,0-2.3,0
				C293.4,22.5,293.6,21.7,294.2,19.7z"/>
		</g>
		<g>
			<path fill="#FDB913" d="M314.5,38.7v7h-16.1v-7h3l-2-7.1h-10.7l-2.2,7.1h3.1v7h-14.1v-7h3.3l8.1-27.3h-2.9v-7h21.8v7h-2.9
				l8.7,27.3H314.5z M297.7,25.5l-3.4-12.4l-3.7,12.4H297.7z"/>
			<path fill="#FFFFFF" d="M283.4,3.8v8.1c0,0,1.9,0,2.8,0c-0.4,1.3-7.5,25.5-7.7,26.2c-0.6,0-3.4,0-3.4,0v8.1h15.2v-8.1
				c0,0-2.1,0-2.9,0c0.3-1.1,1.7-5.4,1.9-6c0.7,0,9.2,0,9.9,0c0.2,0.6,1.4,4.9,1.7,6c-0.8,0-2.8,0-2.8,0v8.1H315v-8.1
				c0,0-2.5,0-3.1,0c-0.2-0.7-7.9-24.9-8.3-26.2c0.8,0,2.7,0,2.7,0V3.8H283.4z M305.2,4.9c0,0.9,0,5.1,0,5.9c-0.7,0-3.1,0-3.1,0
				l9,28.4c0,0,2.1,0,2.8,0c0,0.9,0,5.1,0,5.9c-1,0-14,0-15,0c0-0.9,0-5.1,0-5.9c0.7,0,3.2,0,3.2,0l-2.3-8.2h-11.6l-2.5,8.2
				c0,0,2.6,0,3.3,0c0,0.9,0,5.1,0,5.9c-1,0-12,0-13,0c0-0.9,0-5.1,0-5.9c0.8,0,3.2,0,3.2,0l8.4-28.4c0,0-2.4,0-3.1,0
				c0-0.9,0-5.1,0-5.9C285.5,4.9,304.1,4.9,305.2,4.9z"/>
			<path fill="#FFFFFF" d="M289.8,26.1h8.6l-4.1-15L289.8,26.1z M294.3,15.1c0.7,2.5,2.5,8.9,2.7,9.9c-1,0-4.7,0-5.7,0
				C291.6,23.9,293.5,17.5,294.3,15.1z"/>
		</g>
		<g>
			<path d="M286.6,27.2c0,0,0.3-0.3,0.3-0.3c0.1,0,0.1,0,0.1,0.2l0,0c0.7-0.6,1.1-1.2,1.1-1.4c0-0.1-0.1-0.2-0.2-0.1
				c-0.1,0-0.9,0.1-2.4,1.8c-0.5,0.6-0.8,1.3-0.8,1.8c0,0.5,0.2,0.8,0.7,0.8c0.9,0,2.4-1.1,3-1.7c0,0.3-0.1,0.4-0.3,0.7
				c-1.3,1.3-2.5,1.7-3.1,1.7c-0.8,0-1.3-0.5-1.3-1.3c0-1,0.8-2.1,1.5-2.7c0.6-0.6,2-1.6,2.8-1.6c0.4,0,0.7,0.2,0.7,0.6
				c0,0.9-1.7,2.7-2.6,2.8c-0.2,0-0.4-0.1-0.4-0.3c0-0.2,0.2-0.4,0.3-0.5L286.6,27.2z"/>
			<path d="M291.4,28.8c-0.3,0.4-0.6,0.6-1.1,0.6c-0.3,0.3-0.6,0.5-1.1,0.5c-0.4,0-0.7-0.4-0.7-1c0-0.5,0.2-0.9,0.6-1.1
				c0.4-0.3,0.9-0.5,1.3-0.5c0.2,0,0.4,0.1,0.4,0.2c0,0.1-0.1,0.1-0.2,0.2c0.2,0.1,0.2,0.2,0.2,0.4c0,0.3-0.1,0.5-0.3,0.8
				c0.3,0.1,0.5-0.2,0.7-0.4L291.4,28.8z M289.3,28.5c-0.2,0.2-0.3,0.4-0.3,0.6c0,0.2,0.1,0.3,0.3,0.3c0.2,0,0.4-0.1,0.5-0.3
				c0-0.1-0.1-0.2-0.1-0.3c0-0.4,0.3-0.8,0.3-0.8C289.8,28.1,289.5,28.3,289.3,28.5z"/>
			<path d="M293.2,28c0.1-0.1,0.8-0.8,1-0.8c0.1,0,0.1,0,0.2,0.4c0,0.2-0.2,0.3-0.3,0.4c-0.2,0.2-0.7,0.7-0.7,1
				c0,0.1,0.1,0.2,0.2,0.2c0.3,0,0.8-0.5,1.1-0.6l0,0.3c-0.3,0.3-1.1,1.1-1.6,1.1c-0.3,0-0.4-0.2-0.4-0.5c0-0.2,0.1-0.4,0.1-0.6l0,0
				c-0.3,0.2-0.7,0.8-1.1,0.8c-0.3,0-0.5-0.4-0.5-0.7c0-0.7,0.5-1.3,0.9-1.6c0.1-0.1,0.2-0.1,0.3-0.1c0.1,0,0.4-0.1,0.4,0.1
				c0,0.1-0.2,0.3-0.3,0.4c-0.2,0.2-0.3,0.3-0.5,0.5c-0.2,0.2-0.4,0.3-0.4,0.6c0,0,0,0.1,0.1,0.1c0.1,0,0.5-0.2,0.8-0.5L293.2,28z"
				/>
			<path d="M296.4,28.8L296.4,28.8c-0.3,0.3-1,0.9-1.4,0.9c-0.4,0-0.5-0.5-0.5-0.8c0-0.9,1.5-1.6,2-1.7c0.1,0,0.4,0,0.4,0.2
				c0,0.1-0.1,0.2-0.2,0.3l-0.8,0.4c-0.4,0.2-0.9,0.4-0.9,0.9c0,0.1,0,0.1,0.1,0.1c0.2,0,0.6-0.1,0.9-0.4l0.7-0.8
				c0.1-0.1,0.2-0.2,0.3-0.2c0.1,0,0.3,0.2,0.3,0.3c0,0.1-0.1,0.3-0.1,0.3l-0.5,1l0,0l1-0.7l0,0.3l-1.4,1.1
				c-0.7,1.1-1.3,1.6-1.6,1.6c-0.1,0-0.2-0.1-0.2-0.2c0-0.5,1-1.4,1.4-1.6L296.4,28.8z"/>
			<path d="M298.7,29.3c-0.1,0.1-0.6,0.5-0.7,0.5c-0.2,0-0.6-0.5-0.6-0.8c0-0.9,1.7-1.7,2.5-1.7c0.3,0,0.4,0.2,0.4,0.3
				s-0.2,0.2-0.2,0.2c0.1,0.1,0.2,0.1,0.2,0.3c0,0.2-0.6,0.7-0.6,1c0,0.1,0.1,0.2,0.2,0.2c0.3,0,0.7-0.3,1-0.5l0.1,0.3
				c-0.3,0.3-1.2,1.1-1.5,1.1c-0.2,0-0.3-0.2-0.3-0.4c0-0.2,0.2-0.6,0.3-0.8l0,0L298.7,29.3z M297.9,29.2c0,0,0,0.2,0.1,0.1
				c0.1,0,0.3,0,1.7-1.4l0,0C298.1,28.4,297.9,28.8,297.9,29.2z"/>
			<path d="M301.4,28.3c-0.2,0.4-0.5,0.6-0.8,0.8l0-0.3c0.2-0.1,0.3-0.3,0.5-0.5c-0.1,0-0.2-0.1-0.2-0.2c0-0.5,0.7-1,0.9-1
				c0.1,0,0.1,0.1,0.1,0.1c0,0.1,0,0.1,0,0.2c0.6-0.1,1-0.2,1.1-0.1c0.1,0.1,0.2,0.2,0.2,0.4c0,0.2-0.1,0.3-0.3,0.4
				c-0.2,0.2-0.5,0.5-0.5,0.8c0,0.1,0.1,0.2,0.2,0.2c0.3,0,0.7-0.4,0.9-0.6l0,0.3c-0.3,0.3-1,1.1-1.4,1.1c-0.3,0-0.5-0.3-0.5-0.5
				c0-0.5,0.4-0.8,0.6-1.2l0,0L301.4,28.3z"/>
			<path d="M305.6,28.6l0.1,0.3c-0.4,0.4-1.2,1-1.7,1c-0.5,0-1-0.3-1.1-0.8c0,0-0.1,0.1-0.2,0.1c-0.1,0-0.1-0.1-0.1-0.1
				c0-0.1,0.1-0.2,0.2-0.2l1.5-1.4c0-0.2,0.1-0.4,0.4-0.4c0.2,0,0.2,0.1,0.3,0.3c0,0.3,0.1,0.5,0.1,0.8c0,0.6-0.5,1-0.9,1.2
				c0.4,0.1,0.7-0.1,1-0.4L305.6,28.6z M303.3,28.8c0.3,0,0.4,0.2,0.5,0.4c0.4-0.3,0.5-0.4,0.5-0.8c0-0.1,0-0.3-0.1-0.6L303.3,28.8z
				"/>
		</g>
	</g>
</g>
</svg>
