<?xml version="1.0" encoding="utf-8"?>
<!-- Generator: Adobe Illustrator 18.0.0, SVG Export Plug-In . SVG Version: 6.00 Build 0)  -->
<!DOCTYPE svg PUBLIC "-//W3C//DTD SVG 1.1//EN" "http://www.w3.org/Graphics/SVG/1.1/DTD/svg11.dtd">
<svg version="1.1" xmlns="http://www.w3.org/2000/svg" xmlns:xlink="http://www.w3.org/1999/xlink" x="0px" y="0px"
	 viewBox="0 0 320 50" enable-background="new 0 0 320 50" xml:space="preserve">
<g id="Background">
	<rect x="0" y="0" fill="#FFFFFF" width="320" height="50"/>
</g>
<g id="Logo_Left" display="none">
	<g display="inline">
		<g>
			<path d="M44.47,38.671v7.003H28.395v-7.003h2.985l-1.962-7.094H18.687l-2.2,7.094h3.109v7.003H5.53v-7.003h3.288l8.056-27.341
				h-2.941V4.327h21.769v7.003h-2.895l8.68,27.341H44.47z M27.724,25.518l-3.449-12.435l-3.717,12.435H27.724z"/>
			<path d="M12.106,2.5v10.656c0,0,2.185,0,2.325,0c-1.094,3.712-6.343,21.525-6.98,23.687c-0.933,0-3.749,0-3.749,0V47.5h17.72
				V36.844c0,0-2.253,0-2.457,0c0.475-1.53,0.75-2.419,1.067-3.441c1.754,0,6.192,0,7.995,0c0.292,1.054,0.533,1.928,0.951,3.441
				c-0.184,0-2.411,0-2.411,0V47.5h19.729V36.844c0,0-2.659,0-3.474,0c-0.668-2.105-6.325-19.923-7.52-23.687
				c0.095,0,2.225,0,2.225,0V2.5H12.106z M33.875,6.154c0,1.292,0,2.058,0,3.349c-0.498,0-3.565,0-3.565,0l9.84,30.995
				c0,0,1.944,0,2.494,0c0,1.291,0,2.058,0,3.349c-2.502,0-9.92,0-12.422,0c0-1.292,0-2.058,0-3.349c0.55,0,3.559,0,3.559,0
				L30.808,29.75H17.34l-3.332,10.748c0,0,3.14,0,3.761,0c0,1.291,0,2.058,0,3.349c-2.353,0-8.059,0-10.413,0
				c0-1.292,0-2.058,0-3.349c0.722,0,2.827,0,2.827,0l9.133-30.995c0,0-3.033,0-3.557,0c0-1.292,0-2.058,0-3.349
				C18.545,6.154,31.09,6.154,33.875,6.154z"/>
			<path d="M18.106,27.344h12.021l-5.786-20.86L18.106,27.344z M24.21,19.681c0.556,2.004,0.775,2.795,1.112,4.01
				c-1.03,0-1.27,0-2.311,0C23.379,22.462,23.611,21.685,24.21,19.681z"/>
		</g>
		<g>
			<path fill="#FDB913" d="M44.47,38.671v7.003H28.395v-7.003h2.985l-1.962-7.094H18.687l-2.2,7.094h3.109v7.003H5.53v-7.003h3.288
				l8.056-27.341h-2.941V4.327h21.769v7.003h-2.895l8.68,27.341H44.47z M27.724,25.518l-3.449-12.435l-3.717,12.435H27.724z"/>
			<path fill="#FFFFFF" d="M13.385,3.779v8.099c0,0,1.93,0,2.756,0c-0.387,1.315-7.514,25.501-7.733,26.245
				c-0.628,0-3.426,0-3.426,0v8.099h15.162v-8.099c0,0-2.052,0-2.913,0c0.335-1.081,1.668-5.381,1.86-5.998c0.718,0,9.17,0,9.911,0
				c0.177,0.641,1.366,4.939,1.659,5.998c-0.829,0-2.813,0-2.813,0v8.099h17.172v-8.099c0,0-2.53,0-3.131,0
				c-0.23-0.724-7.908-24.91-8.332-26.245c0.823,0,2.694,0,2.694,0V3.779H13.385z M35.154,4.875c0,0.852,0,5.054,0,5.907
				c-0.72,0-3.096,0-3.096,0l9.028,28.437c0,0,2.107,0,2.837,0c0,0.852,0,5.054,0,5.907c-0.986,0-13.993,0-14.98,0
				c0-0.852,0-5.055,0-5.907c0.731,0,3.157,0,3.157,0l-2.265-8.19H18.283l-2.54,8.19c0,0,2.561,0,3.305,0c0,0.852,0,5.054,0,5.907
				c-0.971,0-11.999,0-12.97,0c0-0.852,0-5.055,0-5.907c0.761,0,3.15,0,3.15,0l8.379-28.437c0,0-2.4,0-3.126,0
				c0-0.852,0-5.054,0-5.907C15.496,4.875,34.139,4.875,35.154,4.875z"/>
			<path fill="#FFFFFF" d="M19.823,26.066h8.622l-4.15-14.963L19.823,26.066z M24.256,15.062c0.691,2.49,2.458,8.863,2.748,9.907
				c-1.033,0-4.657,0-5.709,0C21.611,23.91,23.515,17.541,24.256,15.062z"/>
		</g>
		<g>
			<path d="M16.592,27.206c0.048-0.048,0.273-0.266,0.348-0.266c0.068,0,0.102,0.048,0.068,0.157l0.014,0.014
				c0.662-0.573,1.091-1.187,1.091-1.412c0-0.116-0.075-0.164-0.184-0.136c-0.123,0.034-0.9,0.061-2.428,1.848
				c-0.477,0.559-0.825,1.316-0.825,1.835c0,0.484,0.232,0.771,0.723,0.771c0.859,0,2.36-1.118,3.008-1.691
				c0.02,0.348-0.088,0.443-0.348,0.689c-1.33,1.282-2.462,1.691-3.103,1.691c-0.757,0-1.303-0.471-1.303-1.255
				c0-1.003,0.839-2.08,1.541-2.742c0.58-0.552,2.012-1.644,2.823-1.644c0.409,0,0.675,0.218,0.696,0.648
				c0.048,0.921-1.712,2.667-2.571,2.796c-0.198,0.027-0.382-0.109-0.382-0.327c0-0.205,0.184-0.409,0.327-0.532L16.592,27.206z"/>
			<path d="M21.372,28.789c-0.307,0.389-0.607,0.552-1.105,0.552c-0.286,0.293-0.621,0.511-1.05,0.511
				c-0.354,0-0.682-0.355-0.709-0.975c-0.014-0.512,0.239-0.853,0.621-1.146c0.368-0.3,0.859-0.484,1.275-0.505
				c0.15-0.007,0.375,0.061,0.375,0.246c0,0.102-0.082,0.143-0.157,0.184c0.205,0.055,0.245,0.198,0.245,0.402
				c0,0.3-0.136,0.539-0.266,0.805c0.3,0.055,0.491-0.205,0.702-0.361L21.372,28.789z M19.292,28.468
				c-0.15,0.15-0.28,0.416-0.28,0.627c0,0.198,0.13,0.259,0.3,0.259c0.225,0,0.368-0.13,0.525-0.273
				c-0.048-0.109-0.082-0.198-0.082-0.314c0-0.355,0.32-0.784,0.293-0.798C19.818,28.107,19.497,28.27,19.292,28.468z"/>
			<path d="M23.227,27.997c0.143-0.13,0.812-0.777,0.982-0.777c0.055,0,0.13,0.02,0.157,0.375c0.014,0.164-0.171,0.321-0.28,0.416
				c-0.218,0.198-0.702,0.737-0.702,1.044c0,0.109,0.061,0.15,0.171,0.15c0.259,0,0.846-0.477,1.05-0.641l0.041,0.293
				c-0.348,0.334-1.071,1.118-1.575,1.118c-0.252,0-0.402-0.211-0.402-0.45c0-0.205,0.075-0.396,0.143-0.573l-0.014-0.014
				c-0.266,0.232-0.723,0.846-1.098,0.846c-0.334,0-0.518-0.382-0.518-0.675c0-0.662,0.511-1.344,0.948-1.63
				c0.096-0.061,0.184-0.075,0.3-0.075c0.095,0,0.443-0.061,0.416,0.143c-0.014,0.109-0.198,0.3-0.273,0.361
				c-0.211,0.239-0.252,0.3-0.518,0.491c-0.211,0.15-0.375,0.3-0.375,0.587c0,0.034,0.007,0.102,0.054,0.102
				c0.123,0,0.498-0.198,0.818-0.484L23.227,27.997z"/>
			<path d="M26.371,28.823l-0.014-0.014c-0.245,0.273-0.961,0.893-1.337,0.893c-0.382,0-0.511-0.498-0.511-0.798
				c0-0.893,1.487-1.616,2.012-1.664c0.095-0.007,0.361,0.02,0.361,0.17c0,0.123-0.136,0.218-0.225,0.28l-0.778,0.423
				c-0.43,0.232-0.934,0.423-0.873,0.921c0.007,0.055,0.048,0.068,0.109,0.068c0.191,0.021,0.607-0.143,0.866-0.423l0.73-0.805
				c0.068-0.075,0.15-0.191,0.259-0.191c0.136,0,0.259,0.232,0.259,0.348c0,0.102-0.095,0.259-0.143,0.348l-0.511,0.955l0.014,0.014
				l1.037-0.743l0.034,0.286l-1.439,1.078c-0.716,1.139-1.316,1.575-1.582,1.575c-0.095,0-0.157-0.075-0.157-0.164
				c0-0.491,1.037-1.35,1.412-1.623L26.371,28.823z"/>
			<path d="M28.683,29.348c-0.129,0.102-0.566,0.457-0.723,0.457c-0.191,0-0.587-0.45-0.6-0.805
				c-0.027-0.853,1.746-1.725,2.537-1.746c0.314-0.007,0.443,0.246,0.443,0.327s-0.177,0.15-0.239,0.17
				c0.13,0.055,0.198,0.13,0.198,0.28c0,0.218-0.593,0.696-0.593,1.016c0,0.116,0.102,0.164,0.211,0.164
				c0.286,0,0.675-0.348,0.968-0.546l0.055,0.252c-0.293,0.334-1.207,1.064-1.541,1.064c-0.225,0-0.327-0.164-0.327-0.361
				c0-0.218,0.164-0.58,0.252-0.764l-0.014-0.014L28.683,29.348z M27.858,29.17c0.007,0.034,0.034,0.157,0.137,0.136
				c0.136-0.027,0.348-0.007,1.698-1.371l-0.014-0.014C28.056,28.42,27.858,28.836,27.858,29.17z"/>
			<path d="M31.37,28.332c-0.239,0.375-0.525,0.552-0.818,0.846l-0.027-0.3c0.177-0.143,0.32-0.314,0.45-0.498
				c-0.143-0.014-0.184-0.068-0.184-0.211c0-0.491,0.696-0.982,0.859-0.982c0.068,0,0.123,0.055,0.123,0.116
				c0,0.068-0.02,0.13-0.048,0.191c0.641-0.089,1.016-0.17,1.084-0.089c0.102,0.13,0.15,0.239,0.164,0.361
				c0,0.211-0.13,0.314-0.286,0.443c-0.198,0.171-0.532,0.505-0.532,0.778c0,0.109,0.109,0.191,0.211,0.191
				c0.293,0,0.723-0.443,0.948-0.614l0.048,0.252c-0.259,0.293-1.043,1.05-1.432,1.05c-0.286,0-0.464-0.266-0.464-0.525
				c0-0.464,0.354-0.825,0.627-1.153l-0.014-0.014L31.37,28.332z"/>
			<path d="M35.64,28.639l0.068,0.259c-0.416,0.416-1.159,1.037-1.705,1.009c-0.457-0.02-0.961-0.28-1.084-0.778
				c-0.041,0.041-0.089,0.089-0.15,0.089c-0.068,0-0.116-0.068-0.116-0.13c0-0.089,0.109-0.184,0.164-0.239l1.48-1.357
				c0.014-0.225,0.143-0.443,0.389-0.443c0.205,0,0.245,0.061,0.266,0.252c0.027,0.259,0.13,0.491,0.13,0.791
				c0,0.559-0.45,0.975-0.887,1.241c0.436,0.075,0.702-0.13,1.037-0.382L35.64,28.639z M33.321,28.782
				c0.252,0.014,0.402,0.225,0.532,0.402c0.409-0.252,0.518-0.368,0.539-0.764c-0.02-0.143-0.048-0.327-0.089-0.559L33.321,28.782z"
				/>
		</g>
	</g>
</g>
<g id="Logo_Right" display="none">
	<g display="inline">
		<g>
			<path d="M314.47,38.671v7.003h-16.076v-7.003h2.985l-1.962-7.094h-10.731l-2.2,7.094h3.109v7.003H275.53v-7.003h3.288
				l8.056-27.341h-2.941V4.327h21.769v7.003h-2.895l8.68,27.341H314.47z M297.724,25.518l-3.449-12.435l-3.717,12.435H297.724z"/>
			<path d="M282.106,2.5v10.656c0,0,2.185,0,2.325,0c-1.094,3.712-6.343,21.525-6.98,23.687c-0.933,0-3.749,0-3.749,0V47.5h17.72
				V36.844c0,0-2.253,0-2.457,0c0.475-1.53,0.75-2.419,1.067-3.441c1.754,0,6.192,0,7.995,0c0.292,1.054,0.533,1.928,0.951,3.441
				c-0.184,0-2.411,0-2.411,0V47.5h19.729V36.844c0,0-2.659,0-3.474,0c-0.668-2.105-6.325-19.923-7.52-23.687
				c0.095,0,2.225,0,2.225,0V2.5H282.106z M303.875,6.154c0,1.292,0,2.058,0,3.349c-0.498,0-3.565,0-3.565,0l9.84,30.995
				c0,0,1.944,0,2.494,0c0,1.291,0,2.058,0,3.349c-2.502,0-9.92,0-12.422,0c0-1.292,0-2.058,0-3.349c0.55,0,3.559,0,3.559,0
				l-2.972-10.748H287.34l-3.332,10.748c0,0,3.14,0,3.761,0c0,1.291,0,2.058,0,3.349c-2.353,0-8.059,0-10.413,0
				c0-1.292,0-2.058,0-3.349c0.722,0,2.827,0,2.827,0l9.133-30.995c0,0-3.033,0-3.557,0c0-1.292,0-2.058,0-3.349
				C288.545,6.154,301.09,6.154,303.875,6.154z"/>
			<path d="M288.106,27.344h12.021l-5.786-20.86L288.106,27.344z M294.21,19.681c0.556,2.004,0.775,2.795,1.112,4.01
				c-1.03,0-1.27,0-2.311,0C293.379,22.462,293.611,21.685,294.21,19.681z"/>
		</g>
		<g>
			<path fill="#FDB913" d="M314.47,38.671v7.003h-16.076v-7.003h2.985l-1.962-7.094h-10.731l-2.2,7.094h3.109v7.003H275.53v-7.003
				h3.288l8.056-27.341h-2.941V4.327h21.769v7.003h-2.895l8.68,27.341H314.47z M297.724,25.518l-3.449-12.435l-3.717,12.435H297.724
				z"/>
			<path fill="#FFFFFF" d="M283.385,3.779v8.099c0,0,1.93,0,2.756,0c-0.387,1.315-7.514,25.501-7.733,26.245
				c-0.628,0-3.426,0-3.426,0v8.099h15.162v-8.099c0,0-2.052,0-2.913,0c0.335-1.081,1.668-5.381,1.86-5.998c0.718,0,9.17,0,9.911,0
				c0.177,0.641,1.366,4.939,1.659,5.998c-0.829,0-2.813,0-2.813,0v8.099h17.172v-8.099c0,0-2.53,0-3.131,0
				c-0.23-0.724-7.908-24.91-8.332-26.245c0.823,0,2.694,0,2.694,0V3.779H283.385z M305.154,4.875c0,0.852,0,5.054,0,5.907
				c-0.72,0-3.096,0-3.096,0l9.028,28.437c0,0,2.107,0,2.837,0c0,0.852,0,5.054,0,5.907c-0.986,0-13.993,0-14.98,0
				c0-0.852,0-5.055,0-5.907c0.731,0,3.157,0,3.157,0l-2.265-8.19h-11.552l-2.54,8.19c0,0,2.561,0,3.305,0c0,0.852,0,5.054,0,5.907
				c-0.971,0-11.999,0-12.97,0c0-0.852,0-5.055,0-5.907c0.761,0,3.15,0,3.15,0l8.379-28.437c0,0-2.4,0-3.126,0
				c0-0.852,0-5.054,0-5.907C285.496,4.875,304.139,4.875,305.154,4.875z"/>
			<path fill="#FFFFFF" d="M289.823,26.066h8.622l-4.15-14.963L289.823,26.066z M294.256,15.062c0.691,2.49,2.458,8.863,2.748,9.907
				c-1.033,0-4.657,0-5.709,0C291.611,23.91,293.515,17.541,294.256,15.062z"/>
		</g>
		<g>
			<path d="M286.592,27.206c0.048-0.048,0.273-0.266,0.348-0.266c0.068,0,0.102,0.048,0.068,0.157l0.014,0.014
				c0.661-0.573,1.091-1.187,1.091-1.412c0-0.116-0.075-0.164-0.184-0.136c-0.123,0.034-0.9,0.061-2.428,1.848
				c-0.477,0.559-0.825,1.316-0.825,1.835c0,0.484,0.232,0.771,0.723,0.771c0.859,0,2.36-1.118,3.008-1.691
				c0.02,0.348-0.089,0.443-0.348,0.689c-1.33,1.282-2.462,1.691-3.103,1.691c-0.757,0-1.303-0.471-1.303-1.255
				c0-1.003,0.839-2.08,1.541-2.742c0.58-0.552,2.012-1.644,2.823-1.644c0.409,0,0.675,0.218,0.696,0.648
				c0.048,0.921-1.712,2.667-2.571,2.796c-0.198,0.027-0.382-0.109-0.382-0.327c0-0.205,0.184-0.409,0.327-0.532L286.592,27.206z"/>
			<path d="M291.372,28.789c-0.307,0.389-0.607,0.552-1.105,0.552c-0.286,0.293-0.621,0.511-1.05,0.511
				c-0.354,0-0.682-0.355-0.709-0.975c-0.014-0.512,0.239-0.853,0.621-1.146c0.368-0.3,0.859-0.484,1.275-0.505
				c0.15-0.007,0.375,0.061,0.375,0.246c0,0.102-0.082,0.143-0.157,0.184c0.205,0.055,0.245,0.198,0.245,0.402
				c0,0.3-0.136,0.539-0.266,0.805c0.3,0.055,0.491-0.205,0.702-0.361L291.372,28.789z M289.292,28.468
				c-0.15,0.15-0.28,0.416-0.28,0.627c0,0.198,0.13,0.259,0.3,0.259c0.225,0,0.368-0.13,0.525-0.273
				c-0.048-0.109-0.082-0.198-0.082-0.314c0-0.355,0.32-0.784,0.293-0.798C289.818,28.107,289.497,28.27,289.292,28.468z"/>
			<path d="M293.227,27.997c0.143-0.13,0.812-0.777,0.982-0.777c0.055,0,0.13,0.02,0.157,0.375c0.014,0.164-0.171,0.321-0.28,0.416
				c-0.218,0.198-0.702,0.737-0.702,1.044c0,0.109,0.061,0.15,0.171,0.15c0.259,0,0.846-0.477,1.05-0.641l0.041,0.293
				c-0.348,0.334-1.071,1.118-1.575,1.118c-0.252,0-0.402-0.211-0.402-0.45c0-0.205,0.075-0.396,0.143-0.573l-0.014-0.014
				c-0.266,0.232-0.723,0.846-1.098,0.846c-0.334,0-0.518-0.382-0.518-0.675c0-0.662,0.511-1.344,0.948-1.63
				c0.096-0.061,0.184-0.075,0.3-0.075c0.095,0,0.443-0.061,0.416,0.143c-0.014,0.109-0.198,0.3-0.273,0.361
				c-0.211,0.239-0.252,0.3-0.518,0.491c-0.211,0.15-0.375,0.3-0.375,0.587c0,0.034,0.007,0.102,0.054,0.102
				c0.123,0,0.498-0.198,0.819-0.484L293.227,27.997z"/>
			<path d="M296.371,28.823l-0.014-0.014c-0.245,0.273-0.961,0.893-1.337,0.893c-0.382,0-0.511-0.498-0.511-0.798
				c0-0.893,1.487-1.616,2.012-1.664c0.095-0.007,0.361,0.02,0.361,0.17c0,0.123-0.136,0.218-0.225,0.28l-0.778,0.423
				c-0.43,0.232-0.934,0.423-0.873,0.921c0.007,0.055,0.048,0.068,0.109,0.068c0.191,0.021,0.607-0.143,0.866-0.423l0.73-0.805
				c0.068-0.075,0.15-0.191,0.259-0.191c0.136,0,0.259,0.232,0.259,0.348c0,0.102-0.095,0.259-0.143,0.348l-0.511,0.955l0.014,0.014
				l1.037-0.743l0.034,0.286l-1.439,1.078c-0.716,1.139-1.316,1.575-1.582,1.575c-0.095,0-0.157-0.075-0.157-0.164
				c0-0.491,1.037-1.35,1.412-1.623L296.371,28.823z"/>
			<path d="M298.683,29.348c-0.129,0.102-0.566,0.457-0.723,0.457c-0.191,0-0.587-0.45-0.6-0.805
				c-0.027-0.853,1.746-1.725,2.537-1.746c0.314-0.007,0.443,0.246,0.443,0.327s-0.177,0.15-0.239,0.17
				c0.13,0.055,0.198,0.13,0.198,0.28c0,0.218-0.593,0.696-0.593,1.016c0,0.116,0.102,0.164,0.211,0.164
				c0.286,0,0.675-0.348,0.968-0.546l0.055,0.252c-0.293,0.334-1.207,1.064-1.541,1.064c-0.225,0-0.327-0.164-0.327-0.361
				c0-0.218,0.164-0.58,0.252-0.764l-0.014-0.014L298.683,29.348z M297.858,29.17c0.007,0.034,0.034,0.157,0.137,0.136
				c0.136-0.027,0.348-0.007,1.698-1.371l-0.014-0.014C298.056,28.42,297.858,28.836,297.858,29.17z"/>
			<path d="M301.37,28.332c-0.239,0.375-0.525,0.552-0.818,0.846l-0.027-0.3c0.177-0.143,0.32-0.314,0.45-0.498
				c-0.143-0.014-0.184-0.068-0.184-0.211c0-0.491,0.696-0.982,0.859-0.982c0.068,0,0.123,0.055,0.123,0.116
				c0,0.068-0.02,0.13-0.048,0.191c0.641-0.089,1.016-0.17,1.084-0.089c0.102,0.13,0.15,0.239,0.164,0.361
				c0,0.211-0.13,0.314-0.286,0.443c-0.198,0.171-0.532,0.505-0.532,0.778c0,0.109,0.109,0.191,0.211,0.191
				c0.293,0,0.723-0.443,0.948-0.614l0.048,0.252c-0.259,0.293-1.043,1.05-1.432,1.05c-0.286,0-0.464-0.266-0.464-0.525
				c0-0.464,0.354-0.825,0.627-1.153l-0.014-0.014L301.37,28.332z"/>
			<path d="M305.64,28.639l0.068,0.259c-0.416,0.416-1.159,1.037-1.705,1.009c-0.457-0.02-0.961-0.28-1.084-0.778
				c-0.041,0.041-0.089,0.089-0.15,0.089c-0.068,0-0.116-0.068-0.116-0.13c0-0.089,0.109-0.184,0.164-0.239l1.48-1.357
				c0.014-0.225,0.143-0.443,0.389-0.443c0.205,0,0.245,0.061,0.266,0.252c0.027,0.259,0.13,0.491,0.13,0.791
				c0,0.559-0.45,0.975-0.887,1.241c0.436,0.075,0.702-0.13,1.037-0.382L305.64,28.639z M303.321,28.782
				c0.252,0.014,0.402,0.225,0.532,0.402c0.409-0.252,0.518-0.368,0.539-0.764c-0.02-0.143-0.048-0.327-0.089-0.559L303.321,28.782z
				"/>
		</g>
	</g>
</g>
<g id="Layer_4">
	<g>
		<g>
			<path fill="#131C4E" d="M126.376,17.097c-0.052,0.017-0.017,0.121,0.034,0.138c0.845,0.379,2.121,1.172,2.121,2.845
				c0,1.224-0.552,2.017-1.379,2.569c-0.828,0.586-2.224,0.793-3.086,0.793c-0.483,0-2.138-0.069-2.931-0.069
				c-0.396,0-0.81,0.018-1.103,0.018c-0.258,0-0.5-0.069-0.5-0.225c0-0.138,0.242-0.241,0.431-0.276
				c1.224-0.224,1.224-0.448,1.293-1.052c0.052-0.362,0.138-2.224,0.138-5.655c0-1.483-0.052-2.465-0.103-2.724
				c-0.086-0.38-0.138-0.569-1.086-0.69c-0.224-0.035-0.448-0.138-0.448-0.276c0-0.138,0.224-0.224,0.466-0.224h1.155
				c0.552,0,2.034-0.121,2.741-0.121c1.017,0,1.914,0.172,2.431,0.5c0.845,0.517,1.224,1.397,1.224,2.173
				C127.772,16.166,126.979,16.77,126.376,17.097z M125.479,18.011c-0.466-0.241-1.19-0.327-1.828-0.327
				c-0.397,0-0.724,0.086-0.759,0.121c-0.034,0.052-0.086,0.121-0.121,0.5c-0.052,0.621-0.017,2.862,0.069,3.465
				c0.017,0.121,0.103,0.414,0.276,0.569c0.362,0.396,0.948,0.586,1.172,0.586c1.448,0,2.62-1.018,2.62-2.672
				C126.91,19.218,126.307,18.425,125.479,18.011z M123.807,12.684c-0.103,0-0.552,0.069-0.741,0.138
				c-0.034,0.017-0.19,0.206-0.207,0.276c-0.034,0.276-0.103,1.052-0.103,3.828c0,0.086,0.034,0.224,0.19,0.224
				c0.759,0,2-0.155,2.431-0.431c0.552-0.362,0.948-1.052,0.948-1.776C126.324,13.545,125.41,12.684,123.807,12.684z"/>
			<path fill="#131C4E" d="M147.287,17.666c0,2.414-1.19,4.103-2.448,5c-1.086,0.758-2.517,1-3.396,1
				c-1.759,0-3.431-0.759-4.483-1.965c-0.914-1.018-1.431-2.414-1.431-3.897c0-2.12,0.931-3.586,2.241-4.638
				c0.845-0.69,2.328-1.207,3.534-1.207C144.615,11.959,147.287,14.39,147.287,17.666z M138.546,13.511
				c-0.759,0.741-1.345,2.034-1.345,4.052c0,2.569,1.897,5.517,4.655,5.517c1.431,0,2.086-0.621,2.276-0.828
				c0.69-0.621,1.465-2.017,1.465-4.069c0-1.879-0.81-3.69-2.086-4.724c-0.707-0.569-1.793-0.931-2.586-0.931
				C140.201,12.528,139.149,12.908,138.546,13.511z"/>
			<path fill="#131C4E" d="M153.457,12.183c0.345,0,0.966,0.086,1.81,0.086c0.603,0,1.31-0.035,1.707-0.035
				c0.224,0,0.414,0.086,0.414,0.207c0,0.121-0.086,0.259-0.414,0.31c-0.914,0.172-0.879,0.552-0.81,0.828
				c0.293,0.897,2.155,5.724,2.776,7.207c0.034,0.035,0.121,0.138,0.172,0.017c0.138-0.362,2.017-4.793,2.793-6.655
				c0.414-0.966-0.052-1.173-0.793-1.397c-0.241-0.069-0.379-0.207-0.379-0.31c0-0.121,0.224-0.207,0.5-0.207
				c0.397,0,0.793,0.035,1.379,0.035c0.5,0,1.19-0.069,1.552-0.069c0.241,0,0.5,0.069,0.5,0.224c0,0.138-0.207,0.242-0.448,0.293
				c-0.759,0.189-1.138,0.603-1.5,1.362c-0.793,1.724-1.224,2.465-2.276,5.069c-1,2.431-1.224,2.862-1.621,4.172
				c-0.069,0.19-0.19,0.397-0.362,0.397c-0.103,0-0.241-0.138-0.276-0.327c-0.104-0.5-0.397-1.552-0.896-2.811
				c-0.586-1.569-2.224-5.741-2.483-6.362c-0.345-0.862-0.707-1.293-1.466-1.517c-0.207-0.069-0.397-0.138-0.397-0.293
				C152.94,12.27,153.198,12.183,153.457,12.183z"/>
			<path fill="#131C4E" d="M175.609,12.27c0.569,0,1.327-0.017,1.586-0.052c0.052-0.017,0.138,0.103,0.155,0.19
				c0,0.793,0.034,1.293,0.034,1.638c0,0.241-0.104,0.448-0.258,0.448c-0.155,0-0.242-0.241-0.276-0.414
				c-0.224-0.914-0.603-1.086-1.155-1.172c-0.448-0.069-1.69-0.103-2.448-0.069c-0.034,0-0.224,0.086-0.259,0.483
				c-0.034,0.431-0.086,3.672-0.052,3.931c0.017,0.069,0.034,0.172,0.121,0.172h1.12c1.621,0,1.69-0.069,2-0.862
				c0.103-0.259,0.207-0.362,0.31-0.362c0.121,0,0.155,0.241,0.138,0.379c-0.035,0.483-0.052,0.828-0.052,1.242
				c0,0.466,0.034,0.707,0.052,1.052c0.017,0.31-0.069,0.5-0.19,0.5c-0.121,0-0.241-0.189-0.293-0.379
				c-0.241-0.793-0.31-0.845-1.362-0.897c-0.552-0.035-1.241-0.035-1.707-0.035c-0.069,0-0.155,0.121-0.155,0.155
				c-0.069,0.362-0.052,1.966-0.052,2.707c0,0.5,0.069,1.155,0.173,1.431c0.069,0.207,0.207,0.345,0.327,0.379
				c0.293,0.052,0.879,0.121,1.569,0.121c0.207,0,1.259-0.017,1.638-0.121c0.552-0.138,1.017-0.466,1.431-1.276
				c0.19-0.379,0.293-0.483,0.396-0.483c0.121,0,0.173,0.276,0.138,0.466c-0.017,0.138-0.5,1.69-0.621,1.845
				c-0.052,0.069-0.207,0.207-0.293,0.207c-0.19,0-2.793-0.138-5.603-0.138c-0.914,0-1.293,0.086-1.948,0.086
				c-0.327,0-0.517-0.035-0.517-0.224c0-0.121,0.207-0.207,0.483-0.276c0.862-0.207,1.19-0.327,1.259-1.259
				c0.052-0.724,0.138-2.758,0.138-4.896c0-2.052,0.017-2.414-0.017-2.914c-0.034-0.759-0.207-0.966-0.965-1.138
				c-0.362-0.086-0.5-0.155-0.5-0.293c0-0.155,0.241-0.241,0.483-0.241c0.81,0,1.483,0.069,2.638,0.069H175.609z"/>
			<path fill="#131C4E" d="M184.659,12.218c0.379,0,1.224,0.052,2.103,0.052c0.103,0,0.258,0.121,0.362,0.224
				c0.259,0.31,0.69,0.828,1.362,1.707c0.776,0.982,4.569,5.12,5.724,6.379c0.103,0.103,0.173-0.069,0.173-0.121
				c0.086-0.552,0.034-2.414,0.034-4.896c0-0.586-0.034-1.19-0.086-1.724c-0.017-0.362-0.138-0.776-1.086-1.052
				c-0.345-0.103-0.465-0.242-0.465-0.379c0-0.121,0.241-0.155,0.448-0.155c0.448,0,0.931,0.017,1.483,0.017
				c0.621,0,1.172-0.069,1.621-0.069c0.293,0,0.396,0.052,0.396,0.189c0,0.103-0.103,0.259-0.414,0.345
				c-0.741,0.172-1.052,0.328-1.103,1.259c-0.034,0.621-0.19,4.017-0.19,6.983c0,0.724,0.121,2.017,0.121,2.293
				c0,0.173-0.086,0.362-0.241,0.362c-0.241,0-0.62-0.345-0.776-0.551c-0.293-0.362-0.603-0.811-1.069-1.379
				c-1.621-1.931-4.603-5.293-6.155-7.155c-0.069-0.086-0.19-0.052-0.19,0.035c-0.017,0.466-0.069,0.948-0.086,2.293
				c0,1.551-0.052,4.207-0.017,4.741c0.069,0.793,0.259,1.052,1.086,1.293c0.362,0.086,0.431,0.207,0.431,0.31
				c0,0.173-0.224,0.224-0.552,0.224c-0.5,0-1.224-0.086-1.845-0.086c-0.379,0-0.827,0.035-1.12,0.035
				c-0.242,0-0.448-0.018-0.448-0.19c0-0.138,0.173-0.242,0.345-0.293c0.81-0.276,1.138-0.345,1.207-1.62
				c0.086-1.397,0.327-5.535,0.327-6.965c0-0.621-0.086-0.776-0.121-0.828c-0.483-0.569-0.672-0.586-1.448-0.793
				c-0.19-0.052-0.379-0.138-0.379-0.276C184.09,12.287,184.263,12.218,184.659,12.218z"/>
			<path fill="#131C4E" d="M204.26,13.959c-0.052-0.793-0.052-1.052-1.017-1.224c-0.379-0.069-0.483-0.19-0.483-0.31
				c0-0.138,0.19-0.207,0.431-0.207c0.448,0,1.31,0.052,1.879,0.052c0.845,0,1.241-0.052,1.845-0.052
				c0.276,0,0.431,0.069,0.431,0.207c0,0.138-0.173,0.242-0.448,0.293c-1,0.206-0.983,0.638-1.052,1.103
				c-0.086,0.569-0.103,1.69-0.103,5.069c0,0.948,0.017,2.017,0.052,2.569c0.052,0.931,0.138,1.259,1.259,1.483
				c0.31,0.052,0.448,0.172,0.448,0.293c0,0.138-0.258,0.224-0.465,0.224c-0.879,0-2.103-0.103-2.569-0.103
				c-0.517,0-0.673,0.035-1.31,0.035c-0.327,0-0.448-0.121-0.448-0.242c0-0.121,0.173-0.224,0.517-0.293
				c0.862-0.189,0.931-0.448,1-1.258c0.052-0.604,0.086-2.397,0.086-3.862C204.311,16.666,204.294,14.528,204.26,13.959z"/>
			<path fill="#131C4E" d="M222.12,12.218c0.207-0.035,0.293,0.017,0.293,0.086c0,0.069-0.034,0.224-0.207,0.431
				c-0.224,0.224-0.776,1.052-1.517,2.103c-1.759,2.621-4.396,6.793-4.845,7.482c-0.052,0.069-0.017,0.173,0.069,0.224
				c0.172,0.103,1.552,0.189,2.569,0.189c0.603,0,1.879,0,2.19-0.052c0.827-0.103,1.086-0.189,2.138-1.655
				c0.207-0.276,0.293-0.448,0.448-0.448c0.103,0,0.155,0.155,0.155,0.379c0,0.276-0.362,1.086-0.862,2.19
				c-0.086,0.155-0.259,0.293-1,0.293c-1.362,0-5.345-0.069-6.138-0.069c-0.758,0-1.431,0-1.638,0c-0.121,0-0.293-0.103-0.293-0.241
				c0-0.138,0.362-0.552,0.741-1.086c0.638-0.828,5.397-8.051,5.81-8.81c0.086-0.121,0-0.224-0.069-0.241
				c-0.673-0.069-2.431-0.086-3.121-0.086c-0.293,0-1.017,0.035-1.259,0.086c-0.517,0.121-1.052,0.396-1.552,1.31
				c-0.138,0.276-0.293,0.379-0.379,0.379c-0.103,0-0.242-0.155-0.103-0.586c0.052-0.172,0.517-1.293,0.69-2.035
				c0.017-0.138,0.121-0.224,0.224-0.224c0.052,0,0.207,0.069,0.276,0.155c0.19,0.189,0.396,0.224,0.862,0.259
				c0.465,0.017,1.638,0.052,2.724,0.052C219.62,12.304,221.74,12.27,222.12,12.218z"/>
			<path fill="#131C4E" d="M234.979,12.27c0.569,0,1.327-0.017,1.586-0.052c0.052-0.017,0.138,0.103,0.155,0.19
				c0,0.793,0.034,1.293,0.034,1.638c0,0.241-0.104,0.448-0.258,0.448c-0.155,0-0.242-0.241-0.276-0.414
				c-0.224-0.914-0.603-1.086-1.155-1.172c-0.448-0.069-1.69-0.103-2.448-0.069c-0.034,0-0.224,0.086-0.259,0.483
				c-0.034,0.431-0.086,3.672-0.052,3.931c0.017,0.069,0.034,0.172,0.121,0.172h1.12c1.621,0,1.69-0.069,2-0.862
				c0.103-0.259,0.207-0.362,0.31-0.362c0.121,0,0.155,0.241,0.138,0.379c-0.035,0.483-0.052,0.828-0.052,1.242
				c0,0.466,0.034,0.707,0.052,1.052c0.017,0.31-0.069,0.5-0.19,0.5c-0.121,0-0.241-0.189-0.293-0.379
				c-0.241-0.793-0.31-0.845-1.362-0.897c-0.552-0.035-1.241-0.035-1.707-0.035c-0.069,0-0.155,0.121-0.155,0.155
				c-0.069,0.362-0.052,1.966-0.052,2.707c0,0.5,0.069,1.155,0.173,1.431c0.069,0.207,0.207,0.345,0.327,0.379
				c0.293,0.052,0.879,0.121,1.569,0.121c0.207,0,1.259-0.017,1.638-0.121c0.552-0.138,1.017-0.466,1.431-1.276
				c0.19-0.379,0.293-0.483,0.396-0.483c0.121,0,0.173,0.276,0.138,0.466c-0.017,0.138-0.5,1.69-0.621,1.845
				c-0.052,0.069-0.207,0.207-0.293,0.207c-0.19,0-2.793-0.138-5.603-0.138c-0.914,0-1.293,0.086-1.948,0.086
				c-0.327,0-0.517-0.035-0.517-0.224c0-0.121,0.207-0.207,0.483-0.276c0.862-0.207,1.19-0.327,1.259-1.259
				c0.052-0.724,0.138-2.758,0.138-4.896c0-2.052,0.017-2.414-0.017-2.914c-0.034-0.759-0.207-0.966-0.965-1.138
				c-0.362-0.086-0.5-0.155-0.5-0.293c0-0.155,0.241-0.241,0.483-0.241c0.81,0,1.483,0.069,2.638,0.069H234.979z"/>
			<path fill="#131C4E" d="M250.529,17.476c-0.086,0.052-0.414,0.207-0.534,0.293c-0.052,0.034-0.103,0.189-0.069,0.259
				c0.172,0.413,1.621,2.741,2.672,3.913c0.465,0.552,0.931,0.862,1.689,1.017c0.138,0.035,0.276,0.173,0.276,0.242
				c0,0.104-0.138,0.172-0.241,0.224c-0.207,0.086-0.586,0.121-0.948,0.121c-0.81,0-1.793-0.483-2.293-1.121
				c-0.603-0.827-1.483-2.155-2.172-3.241c-0.241-0.362-0.586-0.793-0.69-0.862c-0.069-0.069-0.707-0.224-1.224-0.224
				c-0.121,0-0.207,0.155-0.207,0.207c-0.017,0.293,0.017,2.483,0.069,3.483c0.034,0.724,0.224,0.966,1.034,1.155
				c0.293,0.086,0.414,0.207,0.414,0.293c0,0.172-0.327,0.224-0.414,0.224c-0.724,0-1.052-0.103-2.224-0.103
				c-0.31,0-1.207,0.069-1.396,0.069c-0.224,0-0.448-0.069-0.448-0.241c0-0.138,0.155-0.173,0.379-0.259
				c0.759-0.242,1.069-0.345,1.121-1c0.034-0.534,0.103-2.362,0.103-3.397c0-2.655-0.035-4.224-0.103-4.896
				c-0.069-0.638-0.224-0.673-1-0.862c-0.259-0.069-0.414-0.155-0.414-0.293c0-0.121,0.086-0.207,0.466-0.207
				c0.534,0,0.603,0,0.965,0c0.638,0,1.862-0.086,2.793-0.086c1.19,0,2.121,0.155,2.81,0.724c0.569,0.466,0.983,1.327,0.983,2.155
				C251.926,15.994,251.374,16.959,250.529,17.476z M249.615,13.373c-0.414-0.397-1.155-0.655-1.707-0.655
				c-0.086,0-0.638,0.034-0.827,0.121c-0.086,0.035-0.207,0.293-0.207,0.362c-0.052,0.603-0.103,3.931-0.052,4.224
				c0.034,0.138,0.172,0.259,0.276,0.259c1,0,1.914-0.293,2.155-0.448c0.466-0.293,1.138-1.052,1.138-2.138
				C250.391,14.683,250.115,13.873,249.615,13.373z"/>
		</g>
		<g>
			<path fill="#131C4E" d="M126.078,34.162c0,1.609-0.793,2.735-1.632,3.332c-0.724,0.506-1.678,0.667-2.264,0.667
				c-1.172,0-2.287-0.506-2.988-1.31c-0.609-0.678-0.954-1.609-0.954-2.597c0-1.413,0.621-2.39,1.494-3.091
				c0.563-0.46,1.551-0.804,2.356-0.804C124.297,30.359,126.078,31.979,126.078,34.162z M120.252,31.393
				c-0.506,0.494-0.896,1.356-0.896,2.7c0,1.712,1.264,3.677,3.103,3.677c0.954,0,1.39-0.413,1.517-0.551
				c0.46-0.414,0.977-1.345,0.977-2.712c0-1.253-0.54-2.459-1.39-3.149c-0.471-0.379-1.195-0.62-1.724-0.62
				C121.355,30.738,120.654,30.991,120.252,31.393z"/>
			<path fill="#131C4E" d="M135.537,34.036c-0.058,0.034-0.276,0.138-0.356,0.195c-0.034,0.023-0.069,0.126-0.046,0.172
				c0.115,0.276,1.08,1.827,1.781,2.609c0.31,0.368,0.62,0.575,1.126,0.678c0.092,0.023,0.184,0.115,0.184,0.161
				c0,0.069-0.092,0.115-0.161,0.149c-0.138,0.058-0.391,0.081-0.632,0.081c-0.54,0-1.195-0.322-1.528-0.747
				c-0.402-0.551-0.988-1.436-1.448-2.16c-0.161-0.242-0.391-0.529-0.46-0.575c-0.046-0.046-0.471-0.149-0.816-0.149
				c-0.081,0-0.138,0.104-0.138,0.138c-0.011,0.195,0.012,1.655,0.046,2.321c0.023,0.483,0.149,0.644,0.689,0.77
				c0.195,0.058,0.276,0.138,0.276,0.195c0,0.115-0.218,0.149-0.276,0.149c-0.482,0-0.701-0.069-1.482-0.069
				c-0.207,0-0.804,0.046-0.931,0.046c-0.149,0-0.299-0.046-0.299-0.161c0-0.092,0.103-0.115,0.253-0.173
				c0.506-0.161,0.713-0.23,0.747-0.666c0.023-0.356,0.069-1.574,0.069-2.264c0-1.77-0.023-2.815-0.069-3.263
				c-0.046-0.426-0.15-0.448-0.667-0.575c-0.172-0.046-0.276-0.104-0.276-0.195c0-0.081,0.057-0.138,0.31-0.138
				c0.356,0,0.402,0,0.644,0c0.425,0,1.241-0.057,1.862-0.057c0.793,0,1.413,0.103,1.873,0.483c0.379,0.31,0.655,0.885,0.655,1.436
				C136.468,33.047,136.1,33.691,135.537,34.036z M134.928,31.3c-0.276-0.264-0.77-0.436-1.138-0.436
				c-0.058,0-0.425,0.023-0.552,0.08c-0.057,0.023-0.138,0.196-0.138,0.242c-0.034,0.402-0.069,2.62-0.034,2.815
				c0.023,0.092,0.115,0.172,0.184,0.172c0.667,0,1.276-0.195,1.436-0.299c0.31-0.195,0.758-0.701,0.758-1.425
				C135.445,32.174,135.261,31.634,134.928,31.3z"/>
			<path fill="#131C4E" d="M147.765,30.554c0.414-0.023,0.621-0.092,0.782-0.207c0.08-0.046,0.115-0.069,0.161-0.069
				c0.058,0,0.103,0.103,0.046,0.264c-0.115,0.356-0.184,0.713-0.253,1.31c-0.011,0.104-0.103,0.218-0.195,0.218
				c-0.081,0-0.126-0.081-0.161-0.368c-0.069-0.598-0.218-0.655-0.931-0.69c-0.195-0.012-1.471-0.012-1.609,0.023
				c-0.058,0.011-0.103,0.126-0.103,0.149c0,0.54,0,1.815,0,2.815c0,1.333,0,2.425,0.046,2.85c0.058,0.517,0.115,0.655,0.827,0.816
				c0.149,0.035,0.31,0.126,0.31,0.207c0,0.126-0.207,0.138-0.322,0.138c-0.092,0-0.805-0.058-1.31-0.058
				c-0.574,0-1.161,0.081-1.31,0.081c-0.23,0-0.345-0.069-0.345-0.138c0-0.081,0.115-0.172,0.218-0.195
				c0.804-0.184,0.827-0.379,0.862-1.241c0.023-0.678,0.08-3.022,0.08-3.907c0-0.655,0-0.874,0-1.367
				c0-0.092-0.057-0.149-0.092-0.149c-0.23-0.035-1.241-0.058-1.425-0.058c-0.437,0-0.678,0.069-0.85,0.264
				c-0.046,0.034-0.184,0.218-0.379,0.597c-0.103,0.242-0.173,0.23-0.218,0.23c-0.069,0-0.115-0.149-0.115-0.264
				c0-0.218,0.218-0.839,0.218-1.517c0-0.081,0.103-0.184,0.172-0.184c0.058,0,0.058,0.081,0.184,0.184
				c0.034,0.035,0.218,0.207,0.391,0.219c0.299,0.034,1.218,0.069,2.689,0.069C145.731,30.577,147.294,30.565,147.765,30.554z"/>
			<path fill="#131C4E" d="M155.534,33.967c0.678,0,2.241-0.034,4.275-0.034c0.069,0,0.103-0.069,0.126-0.299
				c0.011-0.149,0.011-1.654-0.023-2.103c-0.035-0.425-0.115-0.517-0.632-0.655c-0.161-0.046-0.287-0.115-0.287-0.218
				c0-0.081,0.115-0.126,0.356-0.126c0.149,0,0.885,0.023,1.172,0.023c0.391,0,0.919-0.035,1.046-0.035
				c0.184,0,0.322,0.046,0.322,0.138c0,0.057-0.092,0.138-0.333,0.195c-0.483,0.115-0.575,0.322-0.598,0.655
				c-0.057,0.586-0.092,1.839-0.092,3.792c0,0.506,0.046,1.528,0.046,1.701c0.023,0.448,0.138,0.494,0.655,0.643
				c0.161,0.058,0.264,0.138,0.264,0.219c0,0.092-0.103,0.126-0.322,0.126c-0.184,0-0.598-0.035-0.954-0.035
				c-0.253,0-1.115,0.069-1.345,0.069c-0.172,0-0.287-0.023-0.287-0.126s0.126-0.172,0.253-0.207
				c0.621-0.184,0.678-0.31,0.712-1.126c0.023-0.483,0.046-1.276,0.046-1.85c0-0.207-0.046-0.242-0.138-0.242
				c-1.781,0-4.045-0.034-4.275-0.011c-0.034,0-0.126,0.103-0.126,0.195c-0.023,0.299,0,1.77,0,2.103
				c0.011,0.54,0.138,0.747,0.621,0.896c0.253,0.069,0.333,0.115,0.345,0.23c0.012,0.092-0.184,0.115-0.333,0.115
				c-0.081,0-0.781-0.046-1.195-0.046c-0.264,0-0.747,0.046-1.138,0.046c-0.253,0-0.345-0.046-0.345-0.115
				c0-0.115,0.138-0.184,0.264-0.219c0.586-0.149,0.678-0.264,0.724-0.713c0.034-0.471,0.103-1.77,0.103-3.643
				c0-0.207,0.023-1.264,0-1.77c-0.023-0.391-0.092-0.551-0.575-0.655c-0.241-0.046-0.322-0.126-0.322-0.219
				c0-0.081,0.149-0.126,0.333-0.126c0.322,0,0.747,0.023,1.046,0.023c0.483,0,0.827-0.023,1.092-0.023
				c0.241,0,0.368,0.058,0.368,0.126c0,0.115-0.092,0.172-0.333,0.219c-0.54,0.104-0.575,0.276-0.609,0.758
				c-0.034,0.379-0.046,1.896-0.034,2.091C155.419,33.955,155.454,33.967,155.534,33.967z"/>
			<path fill="#131C4E" d="M174.784,34.162c0,1.609-0.793,2.735-1.632,3.332c-0.724,0.506-1.678,0.667-2.264,0.667
				c-1.172,0-2.287-0.506-2.988-1.31c-0.609-0.678-0.954-1.609-0.954-2.597c0-1.413,0.621-2.39,1.494-3.091
				c0.563-0.46,1.551-0.804,2.356-0.804C173.002,30.359,174.784,31.979,174.784,34.162z M168.957,31.393
				c-0.506,0.494-0.896,1.356-0.896,2.7c0,1.712,1.264,3.677,3.103,3.677c0.954,0,1.39-0.413,1.517-0.551
				c0.46-0.414,0.977-1.345,0.977-2.712c0-1.253-0.54-2.459-1.39-3.149c-0.471-0.379-1.195-0.62-1.724-0.62
				C170.061,30.738,169.36,30.991,168.957,31.393z"/>
			<path fill="#131C4E" d="M186.426,31.576c0.621,0.598,1.046,1.632,1.046,2.54c0,1.667-1.034,2.873-1.839,3.321
				c-0.678,0.391-1.632,0.644-2.735,0.644c-0.471,0-1.494-0.035-2.252-0.092c-0.218-0.012-0.425-0.012-0.609-0.012
				c-0.264,0-0.368-0.081-0.368-0.172s0.115-0.149,0.253-0.161c0.793-0.092,0.85-0.31,0.885-1.218
				c0.023-0.54,0.034-0.896,0.034-1.574c0-0.655-0.023-2.011-0.057-2.953c-0.023-0.735-0.035-0.897-0.735-1
				c-0.126-0.023-0.264-0.104-0.264-0.184c0-0.092,0.103-0.149,0.276-0.149h0.322c0.575,0,1.873-0.103,2.862-0.103
				C184.852,30.461,185.966,31.151,186.426,31.576z M181.944,30.91c-0.081,0.057-0.103,0.081-0.115,0.149
				c-0.023,0.138-0.046,1.161-0.046,2.183v1.666c0,0.804,0.011,1.483,0.046,1.988c0.034,0.356,0.218,0.517,0.253,0.54
				c0.218,0.161,0.69,0.299,0.942,0.299c0.529,0,1.505-0.207,2.149-0.747c0.69-0.586,1.184-1.586,1.184-2.873
				c0-0.988-0.494-2.068-1.23-2.62c-0.575-0.426-1.54-0.678-2.39-0.678C182.323,30.818,182.048,30.852,181.944,30.91z"/>
			<path fill="#131C4E" d="M200.538,34.162c0,1.609-0.793,2.735-1.632,3.332c-0.724,0.506-1.678,0.667-2.264,0.667
				c-1.172,0-2.287-0.506-2.988-1.31c-0.609-0.678-0.954-1.609-0.954-2.597c0-1.413,0.621-2.39,1.494-3.091
				c0.563-0.46,1.551-0.804,2.356-0.804C198.757,30.359,200.538,31.979,200.538,34.162z M194.712,31.393
				c-0.506,0.494-0.896,1.356-0.896,2.7c0,1.712,1.264,3.677,3.103,3.677c0.954,0,1.39-0.413,1.517-0.551
				c0.46-0.414,0.977-1.345,0.977-2.712c0-1.253-0.54-2.459-1.39-3.149c-0.471-0.379-1.195-0.62-1.724-0.62
				C195.815,30.738,195.114,30.991,194.712,31.393z"/>
			<path fill="#131C4E" d="M205.665,30.531c0.253,0,0.816,0.034,1.402,0.034c0.069,0,0.172,0.081,0.241,0.149
				c0.172,0.207,0.46,0.552,0.908,1.138c0.517,0.655,3.045,3.413,3.815,4.252c0.069,0.069,0.115-0.046,0.115-0.081
				c0.058-0.367,0.023-1.609,0.023-3.263c0-0.391-0.023-0.793-0.058-1.149c-0.011-0.241-0.092-0.517-0.724-0.701
				c-0.23-0.069-0.31-0.161-0.31-0.253c0-0.081,0.161-0.103,0.299-0.103c0.299,0,0.621,0.011,0.988,0.011
				c0.414,0,0.782-0.046,1.08-0.046c0.195,0,0.264,0.035,0.264,0.126c0,0.069-0.069,0.172-0.276,0.23
				c-0.494,0.115-0.701,0.219-0.735,0.839c-0.023,0.414-0.126,2.677-0.126,4.654c0,0.482,0.08,1.345,0.08,1.528
				c0,0.115-0.057,0.242-0.161,0.242c-0.161,0-0.414-0.23-0.517-0.368c-0.195-0.241-0.402-0.54-0.713-0.919
				c-1.08-1.287-3.068-3.528-4.102-4.769c-0.046-0.058-0.126-0.035-0.126,0.023c-0.011,0.31-0.046,0.632-0.058,1.528
				c0,1.035-0.034,2.804-0.011,3.16c0.046,0.529,0.173,0.701,0.724,0.862c0.241,0.058,0.287,0.138,0.287,0.207
				c0,0.115-0.149,0.149-0.368,0.149c-0.333,0-0.816-0.058-1.23-0.058c-0.253,0-0.551,0.023-0.747,0.023
				c-0.161,0-0.299-0.011-0.299-0.126c0-0.092,0.115-0.161,0.23-0.195c0.54-0.184,0.758-0.23,0.804-1.08
				c0.058-0.931,0.218-3.689,0.218-4.643c0-0.413-0.057-0.517-0.081-0.551c-0.322-0.379-0.448-0.39-0.965-0.529
				c-0.126-0.035-0.253-0.092-0.253-0.184C205.285,30.577,205.4,30.531,205.665,30.531z"/>
			<path fill="#131C4E" d="M224.581,30.554c0.414-0.023,0.62-0.092,0.782-0.207c0.08-0.046,0.115-0.069,0.161-0.069
				c0.058,0,0.103,0.103,0.046,0.264c-0.115,0.356-0.184,0.713-0.253,1.31c-0.011,0.104-0.103,0.218-0.195,0.218
				c-0.081,0-0.126-0.081-0.161-0.368c-0.069-0.598-0.218-0.655-0.931-0.69c-0.195-0.012-1.471-0.012-1.609,0.023
				c-0.058,0.011-0.103,0.126-0.103,0.149c0,0.54,0,1.815,0,2.815c0,1.333,0,2.425,0.046,2.85c0.058,0.517,0.115,0.655,0.827,0.816
				c0.149,0.035,0.31,0.126,0.31,0.207c0,0.126-0.207,0.138-0.322,0.138c-0.092,0-0.805-0.058-1.31-0.058
				c-0.574,0-1.161,0.081-1.31,0.081c-0.23,0-0.345-0.069-0.345-0.138c0-0.081,0.115-0.172,0.218-0.195
				c0.804-0.184,0.827-0.379,0.862-1.241c0.023-0.678,0.08-3.022,0.08-3.907c0-0.655,0-0.874,0-1.367
				c0-0.092-0.057-0.149-0.092-0.149c-0.23-0.035-1.241-0.058-1.425-0.058c-0.437,0-0.678,0.069-0.85,0.264
				c-0.046,0.034-0.184,0.218-0.379,0.597c-0.103,0.242-0.173,0.23-0.218,0.23c-0.069,0-0.115-0.149-0.115-0.264
				c0-0.218,0.218-0.839,0.218-1.517c0-0.081,0.103-0.184,0.172-0.184c0.058,0,0.058,0.081,0.184,0.184
				c0.034,0.035,0.218,0.207,0.391,0.219c0.299,0.034,1.218,0.069,2.689,0.069C222.547,30.577,224.11,30.565,224.581,30.554z"/>
			<path fill="#131C4E" d="M231.224,31.691c-0.035-0.529-0.035-0.701-0.678-0.816c-0.253-0.046-0.322-0.126-0.322-0.207
				c0-0.092,0.126-0.138,0.287-0.138c0.299,0,0.873,0.034,1.253,0.034c0.563,0,0.827-0.034,1.23-0.034
				c0.184,0,0.287,0.046,0.287,0.138c0,0.092-0.115,0.161-0.299,0.196c-0.666,0.138-0.655,0.425-0.701,0.735
				c-0.057,0.379-0.069,1.126-0.069,3.378c0,0.632,0.011,1.345,0.034,1.712c0.034,0.62,0.092,0.839,0.839,0.988
				c0.207,0.035,0.299,0.115,0.299,0.195c0,0.092-0.172,0.149-0.31,0.149c-0.586,0-1.402-0.069-1.712-0.069
				c-0.345,0-0.448,0.023-0.873,0.023c-0.218,0-0.299-0.081-0.299-0.161c0-0.08,0.115-0.149,0.345-0.195
				c0.575-0.126,0.62-0.299,0.667-0.839c0.034-0.402,0.057-1.597,0.057-2.574C231.258,33.496,231.247,32.071,231.224,31.691z"/>
			<path fill="#131C4E" d="M244.015,30.542c0.299,0.046,0.701,0.196,0.874,0.219c0.057,0,0.172,0.08,0.172,0.345
				c0,0.242,0.057,0.747,0.081,1c0.011,0.241-0.081,0.379-0.173,0.379c-0.057,0-0.126-0.126-0.184-0.299
				c-0.103-0.402-0.322-0.747-0.471-0.862c-0.632-0.471-1.218-0.597-1.839-0.597c-1.85,0-3.034,1.529-3.034,3.263
				c0,0.77,0.149,1.39,0.402,1.896c0.644,1.321,1.977,1.838,2.907,1.838c0.218,0,0.782-0.035,1.253-0.31
				c0.506-0.264,0.793-0.632,1.069-1.115c0.149-0.241,0.195-0.299,0.241-0.299c0.115,0,0.126,0.253,0.104,0.379
				c-0.034,0.287-0.299,0.897-0.46,1.161c-0.046,0.103-0.241,0.242-0.356,0.299c-0.184,0.08-1.115,0.322-2.091,0.322
				c-1.62,0-2.804-0.804-3.263-1.345c-0.437-0.506-0.965-1.333-0.965-2.643c0-1.31,0.781-2.356,1.264-2.758
				c0.988-0.804,2.057-1.057,3.114-1.057C243.061,30.359,243.578,30.439,244.015,30.542z"/>
			<path fill="#131C4E" d="M254.645,30.565c0.069,0.023,0.138,0.196,0.138,0.219c0.023,0.218,0.115,0.885,0.115,0.931
				c0,0.195,0,0.31-0.081,0.31c-0.092,0-0.23-0.081-0.276-0.242c-0.138-0.413-0.448-0.758-0.563-0.827
				c-0.207-0.161-0.483-0.265-0.816-0.265c-0.77,0-1.322,0.575-1.322,1.345c0,0.816,0.586,1.172,1.597,1.85
				c0.885,0.598,1.586,1.195,1.586,2.23c0,0.574-0.322,1.218-0.942,1.62c-0.368,0.241-1.046,0.413-1.563,0.413
				c-0.368,0-1.149-0.126-1.505-0.299c-0.115-0.069-0.264-0.322-0.264-0.367c-0.057-0.391-0.172-0.897-0.172-1.08
				c0-0.046,0.115-0.218,0.161-0.218c0.092,0,0.264,0.299,0.425,0.655c0.299,0.632,1.057,0.919,1.494,0.919
				c0.793,0,1.39-0.563,1.39-1.39c0-0.483-0.23-1-1.436-1.77c-0.977-0.632-1.666-1.298-1.666-2.275c0-0.54,0.241-1.057,0.632-1.402
				c0.356-0.322,0.896-0.563,1.701-0.563C253.841,30.359,254.439,30.531,254.645,30.565z"/>
		</g>
		<g>
			<rect x="122.472" y="26.718" fill="#131C4E" stroke="#131C4E" stroke-miterlimit="10" width="128.287" height="0.23"/>
		</g>
	</g>
	<g>
		<g>
			<path fill="#131C4E" d="M91.041,28.116c0.343-0.137,0.68-0.283,1.012-0.435c-0.112-0.428-0.225-0.788-0.316-1.057
				c-1.567,1.037-3.79,1.394-5.136,1.532c0.066,0.449,0.15,0.87,0.24,1.252c0.407-0.093,0.812-0.194,1.216-0.303
				c-0.021-0.398-0.008-0.802,0.047-1.096c0.032,0.376,0.109,0.723,0.201,1.028c0.801-0.224,1.592-0.482,2.361-0.775
				c-0.207-0.421-0.396-0.672-0.396-0.672s0.347-0.175,0.527-0.169C90.893,27.563,90.976,27.817,91.041,28.116z"/>
			<path fill="#131C4E" d="M86.415,28.173c-0.035,0.003-0.072,0.007-0.105,0.01c-0.156-0.27-0.074-0.716-0.067-0.719
				c0.082-0.004,0.16-0.011,0.241-0.016c0.007-0.042,0.012-0.086,0.02-0.126c0.004,0.042,0.008,0.083,0.012,0.124
				c2.355-0.152,3.929-0.614,5.13-1.083c-0.065-0.177-0.105-0.275-0.105-0.275s0.279-0.125,0.594-0.096
				c0.025,0.042,0.048,0.091,0.071,0.143c0.1-0.042,0.199-0.085,0.294-0.126c-0.08,0.081-0.166,0.156-0.253,0.231
				c0.117,0.31,0.207,0.742,0.267,1.225c0.391-0.191,0.773-0.391,1.142-0.604c-0.572-2.645-2.186-4.443-4.511-4.443
				c-2.689,0-4.175,2.193-4.175,6.121c0,0.423,0.023,0.834,0.067,1.231c0.465-0.08,0.933-0.17,1.401-0.271
				C86.404,29.052,86.396,28.594,86.415,28.173z"/>
			<path fill="#131C4E" d="M92.405,29.432c-0.055-0.391-0.123-0.761-0.198-1.104c-0.346,0.164-0.701,0.317-1.063,0.461
				c0.037,0.369,0.045,0.738,0.011,1.014c-0.049-0.338-0.134-0.65-0.231-0.927c-0.775,0.298-1.579,0.552-2.398,0.765
				c0.171,0.395,0.328,0.631,0.328,0.631s-0.358,0.153-0.537,0.137c-0.083-0.141-0.149-0.383-0.195-0.667
				c-0.376,0.091-0.755,0.173-1.134,0.248c0.122,0.443,0.242,0.805,0.332,1.058C89.082,30.779,91.458,29.969,92.405,29.432z"/>
			<path fill="#131C4E" d="M92.575,28.15c0.024,0.396,0.028,0.797,0.012,1.171c0.053-0.036,0.099-0.071,0.135-0.103
				c0.012,0.261,0.09,0.365-0.033,0.662c-0.049,0.038-0.104,0.074-0.158,0.11c-0.011,0.081-0.023,0.158-0.037,0.232
				c-0.005-0.065-0.011-0.13-0.017-0.194c-1.111,0.694-3.306,1.03-5.14,1.065c0.083,0.23,0.137,0.359,0.137,0.359
				s-0.278,0.127-0.593,0.097c-0.174-0.295-0.304-0.841-0.384-1.466c-0.464,0.082-0.928,0.151-1.39,0.209
				c0.471,2.912,2.138,4.934,4.605,4.934c2.688,0,4.174-2.193,4.174-6.12c0-0.563-0.04-1.105-0.116-1.621
				C93.386,27.721,92.987,27.943,92.575,28.15z"/>
			<path fill="#131C4E" d="M87.83,6.756c-10.076,0-18.273,8.197-18.273,18.273c0,10.076,8.197,18.273,18.273,18.273
				s18.273-8.197,18.273-18.273C106.103,14.953,97.906,6.756,87.83,6.756z M79.496,14.125c1.203-0.07,3.644-0.248,5.059-0.425
				c0.107,0,0.177,0.071,0.213,0.143v7.883c-1.156,0.643-2.126,1.553-2.83,2.695v-8.809c0-0.496-0.283-0.672-0.743-0.672
				c-0.495,0-1.096,0.034-1.663,0.106C79.283,14.974,79.248,14.196,79.496,14.125z M83.352,35.862l-3.431,0.106
				c-0.213-0.035-0.213-0.849-0.036-0.884c0.353,0,0.848-0.035,1.308-0.071c0.53-0.07,0.743-0.212,0.743-0.814V33.49
				c0.654,1.022,1.549,1.862,2.637,2.469C84.11,35.897,83.681,35.862,83.352,35.862z M97.068,28.61c0,4.776-3.467,7.748-7.783,7.748
				c-3.946,0-6.746-2.429-7.369-5.85c-1.384,0.014-2.684-0.081-3.815-0.273c1.126,0.056,2.404,0.036,3.76-0.07
				c-0.05-0.367-0.076-0.745-0.076-1.131c0-4.776,3.467-7.748,7.783-7.748c3.071,0,5.446,1.471,6.643,3.735
				c0.497-0.453,0.951-0.938,1.347-1.459c-0.32,0.636-0.724,1.223-1.196,1.763C96.82,26.302,97.068,27.414,97.068,28.61z"/>
		</g>
		<path fill="#131C4E" d="M87.975,3.87c11.651,0,21.13,9.479,21.13,21.13c0,11.651-9.479,21.13-21.13,21.13
			c-11.651,0-21.13-9.479-21.13-21.13C66.845,13.349,76.324,3.87,87.975,3.87 M87.975,2c-12.682,0-23,10.318-23,23s10.318,23,23,23
			c12.682,0,23-10.318,23-23S100.658,2,87.975,2L87.975,2z"/>
		<g>
			<g>
				<path fill="#131C4E" d="M108.117,26.193c-0.188-0.011-0.334-0.17-0.324-0.354c0.009-0.184,0.17-0.33,0.359-0.327
					c0.189,0.004,0.334,0.162,0.324,0.354C108.466,26.057,108.306,26.204,108.117,26.193z"/>
			</g>
			<g>
				<path fill="#131C4E" d="M108.035,27.347c-0.192-0.022-0.307-0.186-0.299-0.371c0.009-0.184,0.169-0.322,0.357-0.307
					c0.188,0.014,0.333,0.182,0.323,0.373C108.408,27.234,108.218,27.369,108.035,27.347z"/>
			</g>
			<g>
				<path fill="#131C4E" d="M107.86,28.492c-0.186-0.033-0.314-0.207-0.286-0.389c0.028-0.182,0.202-0.31,0.389-0.285
					c0.187,0.025,0.315,0.199,0.286,0.389C108.22,28.398,108.046,28.525,107.86,28.492z"/>
			</g>
			<g>
				<path fill="#131C4E" d="M107.634,29.627c-0.184-0.043-0.295-0.223-0.249-0.402c0.053-0.177,0.216-0.298,0.403-0.262
					c0.184,0.035,0.32,0.22,0.265,0.405C108.006,29.555,107.818,29.671,107.634,29.627z"/>
			</g>
			<g>
				<path fill="#131C4E" d="M107.346,30.749c-0.181-0.054-0.291-0.242-0.245-0.421c0.046-0.179,0.231-0.286,0.414-0.239
					c0.183,0.046,0.293,0.235,0.245,0.421C107.712,30.696,107.527,30.803,107.346,30.749z"/>
			</g>
			<g>
				<path fill="#131C4E" d="M106.979,31.847c-0.178-0.064-0.27-0.256-0.207-0.429c0.063-0.173,0.261-0.267,0.441-0.211
					c0.18,0.057,0.273,0.249,0.207,0.429C107.354,31.817,107.156,31.911,106.979,31.847z"/>
			</g>
			<g>
				<path fill="#131C4E" d="M106.58,32.935c-0.173-0.074-0.263-0.275-0.2-0.448c0.063-0.173,0.258-0.259,0.434-0.192
					c0.176,0.067,0.266,0.268,0.2,0.448C106.948,32.923,106.754,33.009,106.58,32.935z"/>
			</g>
			<g>
				<path fill="#131C4E" d="M106.077,33.979c-0.169-0.084-0.241-0.287-0.161-0.453c0.08-0.166,0.285-0.238,0.457-0.161
					c0.172,0.077,0.245,0.28,0.161,0.453C106.451,33.99,106.246,34.063,106.077,33.979z"/>
			</g>
			<g>
				<path fill="#131C4E" d="M105.545,35.006c-0.164-0.094-0.219-0.297-0.123-0.455c0.082-0.165,0.281-0.23,0.449-0.143
					c0.167,0.087,0.237,0.298,0.151,0.47C105.922,35.042,105.709,35.1,105.545,35.006z"/>
			</g>
			<g>
				<path fill="#131C4E" d="M104.943,35.996c-0.158-0.103-0.209-0.314-0.114-0.471c0.096-0.158,0.305-0.207,0.467-0.111
					c0.162,0.096,0.213,0.307,0.114,0.471C105.311,36.049,105.102,36.099,104.943,35.996z"/>
			</g>
			<g>
				<path fill="#131C4E" d="M104.285,36.948c-0.152-0.112-0.186-0.322-0.076-0.469c0.111-0.148,0.327-0.182,0.484-0.076
					c0.157,0.105,0.191,0.316,0.076,0.469C104.654,37.026,104.437,37.06,104.285,36.948z"/>
			</g>
			<g>
				<path fill="#131C4E" d="M103.591,37.876c-0.146-0.12-0.174-0.337-0.064-0.485c0.11-0.148,0.322-0.175,0.472-0.061
					c0.15,0.114,0.179,0.331,0.064,0.485C103.948,37.969,103.737,37.996,103.591,37.876z"/>
			</g>
			<g>
				<path fill="#131C4E" d="M102.818,38.738c-0.139-0.128-0.151-0.343-0.026-0.479c0.124-0.136,0.341-0.148,0.485-0.025
					c0.144,0.123,0.156,0.337,0.026,0.479C103.174,38.855,102.957,38.866,102.818,38.738z"/>
			</g>
			<g>
				<path fill="#131C4E" d="M102.019,39.576c-0.133-0.137-0.123-0.343,0.006-0.474c0.124-0.137,0.335-0.142,0.471-0.011
					c0.136,0.13,0.142,0.351,0.013,0.493C102.375,39.721,102.149,39.71,102.019,39.576z"/>
			</g>
			<g>
				<path fill="#131C4E" d="M101.162,40.355c-0.123-0.143-0.113-0.36,0.024-0.484c0.136-0.124,0.352-0.113,0.48,0.025
					c0.129,0.138,0.118,0.355-0.024,0.484C101.5,40.51,101.285,40.498,101.162,40.355z"/>
			</g>
			<g>
				<path fill="#131C4E" d="M100.265,41.086c-0.115-0.15-0.088-0.361,0.059-0.471c0.147-0.111,0.367-0.081,0.485,0.061
					c0.123,0.148,0.095,0.357-0.058,0.473C100.597,41.264,100.379,41.236,100.265,41.086z"/>
			</g>
			<g>
				<path fill="#131C4E" d="M99.337,41.78c-0.106-0.156-0.073-0.372,0.075-0.483c0.148-0.111,0.358-0.077,0.471,0.075
					c0.112,0.152,0.079,0.368-0.075,0.483C99.654,41.969,99.443,41.936,99.337,41.78z"/>
			</g>
			<g>
				<path fill="#131C4E" d="M98.354,42.392c-0.097-0.162-0.048-0.371,0.11-0.466c0.158-0.096,0.369-0.045,0.473,0.113
					c0.103,0.158,0.054,0.367-0.11,0.466C98.663,42.604,98.451,42.554,98.354,42.392z"/>
			</g>
			<g>
				<path fill="#131C4E" d="M97.353,42.974c-0.09-0.171-0.019-0.358,0.137-0.457c0.158-0.096,0.362-0.041,0.456,0.122
					c0.094,0.164,0.038,0.377-0.126,0.476C97.657,43.219,97.438,43.137,97.353,42.974z"/>
			</g>
			<g>
				<path fill="#131C4E" d="M96.309,43.477c-0.078-0.172-0.007-0.376,0.16-0.456c0.166-0.08,0.37-0.008,0.454,0.161
					c0.085,0.169,0.013,0.373-0.16,0.456C96.591,43.721,96.387,43.649,96.309,43.477z"/>
			</g>
			<g>
				<path fill="#131C4E" d="M95.244,43.928c-0.068-0.176,0.017-0.37,0.191-0.433c0.175-0.058,0.372,0.019,0.445,0.19
					c0.076,0.176-0.004,0.382-0.187,0.443C95.513,44.193,95.312,44.104,95.244,43.928z"/>
			</g>
			<g>
				<path fill="#131C4E" d="M94.156,44.326c-0.058-0.18,0.036-0.377,0.209-0.44c0.173-0.063,0.366,0.029,0.431,0.206
					c0.065,0.177-0.029,0.374-0.209,0.44C94.406,44.598,94.213,44.506,94.156,44.326z"/>
			</g>
			<g>
				<path fill="#131C4E" d="M93.041,44.638c-0.047-0.183,0.059-0.368,0.238-0.414c0.179-0.046,0.368,0.064,0.422,0.244
					c0.055,0.181-0.052,0.366-0.238,0.414C93.277,44.93,93.088,44.821,93.041,44.638z"/>
			</g>
			<g>
				<path fill="#131C4E" d="M91.918,44.921c-0.036-0.181,0.08-0.365,0.258-0.413c0.179-0.046,0.359,0.065,0.403,0.249
					c0.044,0.184-0.071,0.371-0.257,0.419C92.137,45.225,91.955,45.11,91.918,44.921z"/>
			</g>
			<g>
				<path fill="#131C4E" d="M90.772,45.096c-0.026-0.187,0.101-0.361,0.283-0.389c0.182-0.028,0.357,0.1,0.391,0.286
					c0.033,0.186-0.093,0.36-0.283,0.389C90.974,45.411,90.799,45.283,90.772,45.096z"/>
			</g>
			<g>
				<path fill="#131C4E" d="M89.624,45.236c-0.015-0.188,0.122-0.348,0.306-0.357c0.182-0.028,0.349,0.101,0.371,0.289
					c0.023,0.187-0.112,0.363-0.302,0.391C89.807,45.569,89.639,45.424,89.624,45.236z"/>
			</g>
			<g>
				<path fill="#131C4E" d="M88.467,45.295c-0.005-0.189,0.141-0.349,0.325-0.359c0.184-0.009,0.343,0.136,0.356,0.324
					s-0.133,0.349-0.325,0.359C88.631,45.629,88.471,45.483,88.467,45.295z"/>
			</g>
			<g>
				<path fill="#131C4E" d="M87.31,45.295c0.006-0.189,0.16-0.334,0.344-0.325c0.184,0.015,0.335,0.163,0.336,0.349
					c0.002,0.192-0.153,0.35-0.344,0.335C87.454,45.644,87.304,45.483,87.31,45.295z"/>
			</g>
			<g>
				<path fill="#131C4E" d="M86.153,45.236c0.016-0.188,0.179-0.333,0.364-0.324c0.184,0.009,0.326,0.17,0.317,0.358
					c-0.009,0.189-0.172,0.334-0.364,0.324C86.278,45.585,86.136,45.424,86.153,45.236z"/>
			</g>
			<g>
				<path fill="#131C4E" d="M85.004,45.096c0.027-0.187,0.197-0.316,0.379-0.288c0.182,0.028,0.314,0.203,0.294,0.391
					s-0.19,0.317-0.379,0.288C85.108,45.457,84.977,45.282,85.004,45.096z"/>
			</g>
			<g>
				<path fill="#131C4E" d="M83.859,44.921c0.038-0.185,0.216-0.312,0.399-0.285c0.182,0.028,0.305,0.201,0.275,0.388
					c-0.03,0.186-0.209,0.314-0.399,0.285C83.944,45.279,83.821,45.106,83.859,44.921z"/>
			</g>
			<g>
				<path fill="#131C4E" d="M82.735,44.638c0.048-0.182,0.233-0.293,0.411-0.247c0.179,0.046,0.29,0.233,0.249,0.417
					c-0.041,0.184-0.225,0.295-0.411,0.247C82.798,45.007,82.687,44.821,82.735,44.638z"/>
			</g>
			<g>
				<path fill="#131C4E" d="M81.621,44.326c0.06-0.183,0.244-0.265,0.423-0.218c0.179,0.046,0.282,0.23,0.23,0.412
					c-0.052,0.182-0.244,0.29-0.43,0.242C81.658,44.713,81.563,44.502,81.621,44.326z"/>
			</g>
			<g>
				<path fill="#131C4E" d="M80.533,43.928c0.069-0.176,0.266-0.267,0.439-0.203c0.173,0.063,0.263,0.259,0.201,0.438
					c-0.062,0.178-0.258,0.269-0.439,0.203C80.554,44.3,80.464,44.104,80.533,43.928z"/>
			</g>
			<g>
				<path fill="#131C4E" d="M79.467,43.477c0.079-0.171,0.278-0.245,0.444-0.165c0.164,0.085,0.245,0.281,0.174,0.452
					c-0.074,0.178-0.277,0.262-0.448,0.174C79.464,43.855,79.388,43.649,79.467,43.477z"/>
			</g>
			<g>
				<path fill="#131C4E" d="M78.423,42.974c0.089-0.167,0.296-0.237,0.462-0.157s0.234,0.283,0.152,0.453
					c-0.082,0.17-0.289,0.24-0.462,0.157C78.403,43.344,78.334,43.141,78.423,42.974z"/>
			</g>
			<g>
				<path fill="#131C4E" d="M77.422,42.392c0.098-0.161,0.306-0.214,0.463-0.119c0.158,0.096,0.211,0.307,0.119,0.472
					c-0.092,0.165-0.299,0.218-0.463,0.119C77.378,42.765,77.324,42.554,77.422,42.392z"/>
			</g>
			<g>
				<path fill="#131C4E" d="M76.439,41.78c0.107-0.155,0.312-0.189,0.473-0.098c0.158,0.096,0.204,0.303,0.103,0.462
					c-0.101,0.16-0.316,0.208-0.48,0.108C76.368,42.158,76.332,41.936,76.439,41.78z"/>
			</g>
			<g>
				<path fill="#131C4E" d="M75.512,41.086c0.116-0.149,0.33-0.18,0.477-0.07c0.148,0.11,0.178,0.325,0.069,0.478
					c-0.11,0.154-0.324,0.185-0.477,0.07S75.396,41.236,75.512,41.086z"/>
			</g>
			<g>
				<path fill="#131C4E" d="M74.614,40.356c0.124-0.142,0.335-0.157,0.472-0.033c0.132,0.129,0.164,0.328,0.044,0.478
					c-0.116,0.144-0.345,0.18-0.483,0.046C74.505,40.718,74.49,40.498,74.614,40.356z"/>
			</g>
			<g>
				<path fill="#131C4E" d="M73.757,39.577c0.132-0.135,0.35-0.144,0.486-0.02c0.137,0.124,0.145,0.338,0.018,0.478
					c-0.127,0.14-0.344,0.149-0.486,0.02C73.633,39.926,73.625,39.712,73.757,39.577z"/>
			</g>
			<g>
				<path fill="#131C4E" d="M72.958,38.739c0.139-0.127,0.353-0.12,0.477,0.017c0.124,0.137,0.116,0.355-0.019,0.488
					c-0.134,0.133-0.348,0.125-0.477-0.017C72.81,39.084,72.819,38.866,72.958,38.739z"/>
			</g>
			<g>
				<path fill="#131C4E" d="M72.185,37.877c0.143-0.117,0.357-0.098,0.484,0.036c0.124,0.136,0.11,0.348-0.032,0.473
					c-0.142,0.125-0.361,0.111-0.49-0.031C72.016,38.215,72.035,37.998,72.185,37.877z"/>
			</g>
			<g>
				<path fill="#131C4E" d="M71.491,36.949c0.153-0.111,0.367-0.081,0.477,0.067c0.11,0.148,0.08,0.362-0.069,0.479
					c-0.148,0.117-0.362,0.087-0.477-0.067C71.307,37.274,71.338,37.059,71.491,36.949z"/>
			</g>
			<g>
				<path fill="#131C4E" d="M70.833,35.997c0.159-0.102,0.366-0.056,0.461,0.101c0.094,0.159,0.07,0.358-0.089,0.468
					c-0.151,0.105-0.382,0.077-0.48-0.089C70.626,36.314,70.674,36.099,70.833,35.997z"/>
			</g>
			<g>
				<path fill="#131C4E" d="M70.231,35.007c0.165-0.092,0.376-0.04,0.472,0.118c0.096,0.158,0.043,0.366-0.118,0.465
					c-0.161,0.099-0.372,0.046-0.472-0.118C70.014,35.307,70.067,35.099,70.231,35.007z"/>
			</g>
			<g>
				<path fill="#131C4E" d="M69.698,33.979c0.17-0.083,0.372-0.015,0.452,0.151c0.08,0.166,0.01,0.374-0.156,0.463
					c-0.166,0.09-0.368,0.022-0.452-0.151C69.459,34.27,69.529,34.062,69.698,33.979z"/>
			</g>
			<g>
				<path fill="#131C4E" d="M69.196,32.936c0.174-0.073,0.38,0.002,0.46,0.168c0.08,0.166,0.006,0.366-0.165,0.445
					c-0.171,0.08-0.377,0.005-0.46-0.168C68.948,33.208,69.022,33.009,69.196,32.936z"/>
			</g>
			<g>
				<path fill="#131C4E" d="M68.797,31.848c0.178-0.063,0.374,0.027,0.437,0.2c0.063,0.173-0.028,0.37-0.203,0.44
					c-0.175,0.07-0.371-0.019-0.437-0.2C68.528,32.108,68.619,31.911,68.797,31.848z"/>
			</g>
			<g>
				<path fill="#131C4E" d="M68.43,30.75c0.182-0.053,0.364,0.05,0.412,0.228c0.064,0.173-0.03,0.362-0.209,0.422
					c-0.179,0.06-0.378-0.038-0.443-0.218C68.14,30.996,68.249,30.803,68.43,30.75z"/>
			</g>
			<g>
				<path fill="#131C4E" d="M68.142,29.628c0.184-0.042,0.371,0.069,0.417,0.247c0.046,0.179-0.065,0.363-0.247,0.413
					c-0.182,0.049-0.369-0.061-0.416-0.247C67.847,29.855,67.958,29.67,68.142,29.628z"/>
			</g>
			<g>
				<path fill="#131C4E" d="M67.916,28.493c0.186-0.031,0.36,0.091,0.387,0.273c0.027,0.182-0.1,0.362-0.28,0.4
					c-0.19,0.04-0.363-0.083-0.391-0.272C67.602,28.704,67.73,28.525,67.916,28.493z"/>
			</g>
			<g>
				<path fill="#131C4E" d="M67.741,27.348c0.188-0.021,0.362,0.11,0.39,0.293c0.028,0.182-0.101,0.353-0.288,0.381
					c-0.187,0.028-0.361-0.103-0.39-0.293C67.425,27.539,67.553,27.369,67.741,27.348z"/>
			</g>
			<g>
				<path fill="#131C4E" d="M67.658,26.193c0.188-0.01,0.349,0.131,0.358,0.315c0.009,0.184-0.136,0.348-0.324,0.365
					c-0.188,0.017-0.348-0.124-0.358-0.315C67.325,26.367,67.47,26.203,67.658,26.193z"/>
			</g>
			<g>
				<path fill="#131C4E" d="M67.6,25.036c0.189,0.001,0.349,0.15,0.359,0.335c0.009,0.184-0.136,0.339-0.325,0.346
					c-0.189,0.007-0.349-0.143-0.359-0.335C67.266,25.191,67.411,25.036,67.6,25.036z"/>
			</g>
			<g>
				<path fill="#131C4E" d="M67.658,23.879c0.188,0.011,0.334,0.17,0.324,0.354c-0.009,0.184-0.17,0.331-0.359,0.327
					c-0.189-0.004-0.334-0.162-0.324-0.354C67.309,24.014,67.47,23.868,67.658,23.879z"/>
			</g>
			<g>
				<path fill="#131C4E" d="M67.741,22.725c0.192,0.022,0.307,0.186,0.299,0.371c-0.009,0.184-0.169,0.322-0.357,0.307
					c-0.188-0.014-0.333-0.181-0.323-0.373C67.368,22.838,67.558,22.703,67.741,22.725z"/>
			</g>
			<g>
				<path fill="#131C4E" d="M67.916,21.579c0.186,0.033,0.314,0.207,0.286,0.389c-0.028,0.182-0.202,0.31-0.389,0.285
					c-0.187-0.025-0.315-0.199-0.286-0.389C67.555,21.674,67.73,21.547,67.916,21.579z"/>
			</g>
			<g>
				<path fill="#131C4E" d="M68.141,20.444c0.184,0.043,0.295,0.223,0.249,0.401c-0.053,0.177-0.216,0.298-0.403,0.262
					c-0.184-0.035-0.32-0.22-0.265-0.405C67.77,20.517,67.957,20.401,68.141,20.444z"/>
			</g>
			<g>
				<path fill="#131C4E" d="M68.43,19.322c0.181,0.054,0.291,0.242,0.245,0.421c-0.046,0.179-0.231,0.286-0.414,0.239
					s-0.293-0.235-0.245-0.421C68.063,19.376,68.249,19.269,68.43,19.322z"/>
			</g>
			<g>
				<path fill="#131C4E" d="M68.797,18.225c0.178,0.064,0.27,0.256,0.207,0.429c-0.064,0.173-0.261,0.267-0.441,0.211
					c-0.18-0.057-0.273-0.249-0.207-0.429C68.422,18.255,68.619,18.161,68.797,18.225z"/>
			</g>
			<g>
				<path fill="#131C4E" d="M69.195,17.137c0.173,0.074,0.263,0.275,0.2,0.448c-0.063,0.173-0.258,0.259-0.434,0.192
					c-0.176-0.067-0.266-0.268-0.2-0.448C68.827,17.149,69.021,17.063,69.195,17.137z"/>
			</g>
			<g>
				<path fill="#131C4E" d="M69.698,16.093c0.169,0.084,0.241,0.287,0.161,0.453c-0.08,0.166-0.285,0.238-0.457,0.161
					c-0.172-0.077-0.244-0.28-0.161-0.453C69.324,16.081,69.529,16.009,69.698,16.093z"/>
			</g>
			<g>
				<path fill="#131C4E" d="M70.231,15.066c0.164,0.093,0.219,0.297,0.123,0.455c-0.082,0.165-0.281,0.23-0.449,0.143
					c-0.167-0.087-0.237-0.298-0.152-0.47C69.853,15.029,70.067,14.972,70.231,15.066z"/>
			</g>
			<g>
				<path fill="#131C4E" d="M70.832,14.075c0.158,0.103,0.209,0.314,0.113,0.471c-0.096,0.158-0.305,0.207-0.467,0.111
					c-0.162-0.096-0.213-0.307-0.113-0.471C70.464,14.023,70.674,13.973,70.832,14.075z"/>
			</g>
			<g>
				<path fill="#131C4E" d="M71.49,13.124c0.152,0.112,0.186,0.322,0.076,0.469c-0.111,0.148-0.327,0.182-0.484,0.076
					c-0.157-0.105-0.191-0.316-0.076-0.469C71.121,13.046,71.338,13.012,71.49,13.124z"/>
			</g>
			<g>
				<path fill="#131C4E" d="M72.184,12.196c0.146,0.12,0.174,0.337,0.064,0.485c-0.11,0.148-0.322,0.175-0.472,0.061
					c-0.15-0.114-0.179-0.331-0.064-0.485C71.827,12.103,72.038,12.076,72.184,12.196z"/>
			</g>
			<g>
				<path fill="#131C4E" d="M72.957,11.334c0.139,0.128,0.15,0.343,0.026,0.479c-0.124,0.136-0.341,0.148-0.485,0.025
					c-0.144-0.123-0.155-0.337-0.026-0.479C72.602,11.217,72.819,11.205,72.957,11.334z"/>
			</g>
			<g>
				<path fill="#131C4E" d="M73.756,10.496c0.133,0.137,0.123,0.343-0.006,0.474c-0.124,0.137-0.335,0.142-0.471,0.011
					c-0.136-0.13-0.142-0.351-0.013-0.493C73.4,10.351,73.626,10.361,73.756,10.496z"/>
			</g>
			<g>
				<path fill="#131C4E" d="M74.613,9.717c0.123,0.143,0.112,0.36-0.024,0.484c-0.137,0.124-0.352,0.113-0.48-0.025
					c-0.129-0.138-0.118-0.355,0.024-0.484C74.275,9.562,74.49,9.573,74.613,9.717z"/>
			</g>
			<g>
				<path fill="#131C4E" d="M75.511,8.986c0.115,0.15,0.088,0.361-0.059,0.471c-0.147,0.111-0.367,0.081-0.485-0.061
					c-0.123-0.148-0.095-0.357,0.058-0.473C75.178,8.808,75.396,8.836,75.511,8.986z"/>
			</g>
			<g>
				<path fill="#131C4E" d="M76.439,8.292c0.106,0.156,0.073,0.372-0.075,0.483c-0.148,0.111-0.358,0.077-0.471-0.075
					c-0.112-0.152-0.079-0.368,0.075-0.483C76.122,8.103,76.333,8.136,76.439,8.292z"/>
			</g>
			<g>
				<path fill="#131C4E" d="M77.422,7.68c0.097,0.162,0.048,0.371-0.11,0.466c-0.158,0.096-0.369,0.045-0.473-0.113
					c-0.104-0.158-0.054-0.367,0.11-0.466C77.113,7.468,77.325,7.518,77.422,7.68z"/>
			</g>
			<g>
				<path fill="#131C4E" d="M78.422,7.098c0.09,0.171,0.019,0.358-0.137,0.457c-0.158,0.096-0.362,0.041-0.456-0.123
					c-0.094-0.164-0.038-0.377,0.126-0.476C78.118,6.853,78.337,6.935,78.422,7.098z"/>
			</g>
			<g>
				<path fill="#131C4E" d="M79.466,6.595c0.078,0.172,0.007,0.376-0.16,0.456c-0.166,0.08-0.37,0.008-0.454-0.161
					c-0.085-0.169-0.013-0.373,0.16-0.456C79.185,6.351,79.388,6.423,79.466,6.595z"/>
			</g>
			<g>
				<path fill="#131C4E" d="M80.532,6.144c0.068,0.176-0.017,0.37-0.19,0.433c-0.175,0.058-0.372-0.019-0.445-0.19
					C79.82,6.212,79.9,6.006,80.082,5.945C80.263,5.879,80.464,5.968,80.532,6.144z"/>
			</g>
			<g>
				<path fill="#131C4E" d="M81.62,5.746c0.058,0.18-0.036,0.377-0.209,0.44c-0.173,0.063-0.366-0.029-0.431-0.206
					c-0.065-0.177,0.029-0.374,0.209-0.44C81.369,5.474,81.562,5.567,81.62,5.746z"/>
			</g>
			<g>
				<path fill="#131C4E" d="M82.735,5.434c0.047,0.183-0.059,0.368-0.238,0.414c-0.179,0.046-0.368-0.064-0.422-0.244
					c-0.055-0.181,0.052-0.366,0.238-0.414C82.498,5.142,82.687,5.251,82.735,5.434z"/>
			</g>
			<g>
				<path fill="#131C4E" d="M83.858,5.151c0.036,0.181-0.08,0.365-0.258,0.413c-0.179,0.046-0.359-0.066-0.403-0.249
					c-0.044-0.184,0.071-0.371,0.257-0.419C83.639,4.847,83.82,4.962,83.858,5.151z"/>
			</g>
			<g>
				<path fill="#131C4E" d="M85.003,4.977c0.026,0.187-0.101,0.361-0.283,0.389c-0.182,0.028-0.357-0.1-0.391-0.286
					c-0.034-0.186,0.093-0.36,0.283-0.389C84.802,4.662,84.977,4.79,85.003,4.977z"/>
			</g>
			<g>
				<path fill="#131C4E" d="M86.152,4.836c0.015,0.188-0.122,0.348-0.306,0.357c-0.182,0.028-0.349-0.101-0.371-0.289
					c-0.023-0.187,0.112-0.363,0.302-0.391C85.968,4.503,86.136,4.648,86.152,4.836z"/>
			</g>
			<g>
				<path fill="#131C4E" d="M87.309,4.778c0.005,0.189-0.141,0.349-0.325,0.359C86.8,5.145,86.64,5,86.628,4.812
					c-0.012-0.188,0.133-0.349,0.325-0.359C87.145,4.444,87.304,4.589,87.309,4.778z"/>
			</g>
			<g>
				<path fill="#131C4E" d="M88.466,4.777c-0.006,0.189-0.16,0.334-0.344,0.325c-0.184-0.015-0.335-0.163-0.336-0.349
					c-0.001-0.192,0.153-0.35,0.344-0.335C88.321,4.428,88.472,4.589,88.466,4.777z"/>
			</g>
			<g>
				<path fill="#131C4E" d="M89.623,4.836c-0.017,0.188-0.179,0.333-0.364,0.324c-0.184-0.009-0.326-0.17-0.317-0.358
					c0.009-0.189,0.172-0.334,0.364-0.324C89.498,4.487,89.64,4.648,89.623,4.836z"/>
			</g>
			<g>
				<path fill="#131C4E" d="M90.772,4.977c-0.027,0.187-0.197,0.316-0.379,0.288c-0.182-0.028-0.314-0.203-0.294-0.391
					c0.02-0.188,0.19-0.317,0.379-0.288C90.667,4.615,90.799,4.79,90.772,4.977z"/>
			</g>
			<g>
				<path fill="#131C4E" d="M91.917,5.151c-0.038,0.185-0.216,0.312-0.399,0.285c-0.182-0.028-0.305-0.201-0.275-0.388
					c0.03-0.186,0.209-0.314,0.399-0.285C91.832,4.793,91.955,4.966,91.917,5.151z"/>
			</g>
			<g>
				<path fill="#131C4E" d="M93.04,5.434c-0.048,0.182-0.233,0.293-0.411,0.247c-0.179-0.046-0.29-0.233-0.249-0.417
					c0.041-0.184,0.225-0.295,0.411-0.247C92.977,5.065,93.089,5.251,93.04,5.434z"/>
			</g>
			<g>
				<path fill="#131C4E" d="M94.155,5.746c-0.06,0.183-0.244,0.265-0.423,0.218c-0.179-0.046-0.282-0.23-0.23-0.412
					c0.052-0.182,0.244-0.29,0.43-0.242C94.118,5.359,94.213,5.57,94.155,5.746z"/>
			</g>
			<g>
				<path fill="#131C4E" d="M95.243,6.144c-0.069,0.176-0.266,0.267-0.439,0.203c-0.173-0.063-0.263-0.259-0.201-0.438
					c0.062-0.178,0.258-0.269,0.439-0.203C95.222,5.772,95.312,5.968,95.243,6.144z"/>
			</g>
			<g>
				<path fill="#131C4E" d="M96.309,6.595C96.23,6.766,96.031,6.84,95.865,6.76c-0.164-0.085-0.245-0.281-0.174-0.452
					c0.074-0.178,0.277-0.262,0.448-0.174C96.312,6.217,96.388,6.423,96.309,6.595z"/>
			</g>
			<g>
				<path fill="#131C4E" d="M97.352,7.098c-0.089,0.167-0.295,0.237-0.462,0.157c-0.166-0.08-0.234-0.283-0.152-0.453
					c0.082-0.17,0.289-0.24,0.462-0.157C97.373,6.728,97.441,6.931,97.352,7.098z"/>
			</g>
			<g>
				<path fill="#131C4E" d="M98.353,7.68c-0.098,0.161-0.306,0.214-0.463,0.119c-0.158-0.096-0.211-0.307-0.119-0.472
					c0.092-0.165,0.299-0.218,0.463-0.119C98.398,7.307,98.451,7.518,98.353,7.68z"/>
			</g>
			<g>
				<path fill="#131C4E" d="M99.336,8.292c-0.107,0.155-0.312,0.189-0.473,0.098c-0.158-0.096-0.204-0.303-0.103-0.462
					c0.101-0.16,0.316-0.208,0.48-0.108C99.408,7.914,99.444,8.135,99.336,8.292z"/>
			</g>
			<g>
				<path fill="#131C4E" d="M100.264,8.985c-0.116,0.149-0.33,0.18-0.477,0.07c-0.148-0.111-0.178-0.325-0.069-0.478
					c0.11-0.154,0.323-0.185,0.477-0.07C100.349,8.622,100.38,8.836,100.264,8.985z"/>
			</g>
			<g>
				<path fill="#131C4E" d="M101.162,9.716c-0.124,0.142-0.335,0.157-0.472,0.033c-0.132-0.129-0.164-0.328-0.044-0.478
					c0.116-0.144,0.345-0.181,0.483-0.046C101.271,9.354,101.286,9.574,101.162,9.716z"/>
			</g>
			<g>
				<path fill="#131C4E" d="M102.019,10.495c-0.132,0.135-0.35,0.144-0.486,0.02c-0.137-0.124-0.145-0.338-0.018-0.478
					c0.127-0.14,0.344-0.149,0.486-0.02C102.143,10.146,102.151,10.36,102.019,10.495z"/>
			</g>
			<g>
				<path fill="#131C4E" d="M102.818,11.333c-0.139,0.127-0.353,0.12-0.477-0.017c-0.124-0.137-0.116-0.355,0.019-0.488
					c0.134-0.133,0.348-0.125,0.477,0.017C102.965,10.987,102.957,11.206,102.818,11.333z"/>
			</g>
			<g>
				<path fill="#131C4E" d="M103.591,12.195c-0.143,0.117-0.357,0.098-0.484-0.036c-0.124-0.136-0.11-0.348,0.032-0.473
					c0.142-0.125,0.361-0.111,0.49,0.031C103.76,11.857,103.741,12.073,103.591,12.195z"/>
			</g>
			<g>
				<path fill="#131C4E" d="M104.285,13.123c-0.153,0.111-0.367,0.081-0.477-0.067c-0.11-0.148-0.08-0.362,0.069-0.479
					c0.149-0.117,0.362-0.087,0.477,0.067C104.469,12.798,104.438,13.012,104.285,13.123z"/>
			</g>
			<g>
				<path fill="#131C4E" d="M104.943,14.075c-0.159,0.102-0.366,0.056-0.461-0.101c-0.094-0.159-0.07-0.358,0.089-0.468
					c0.151-0.105,0.382-0.077,0.48,0.089C105.15,13.758,105.102,13.973,104.943,14.075z"/>
			</g>
			<g>
				<path fill="#131C4E" d="M105.545,15.065c-0.165,0.092-0.376,0.04-0.472-0.118c-0.096-0.158-0.043-0.366,0.118-0.465
					c0.161-0.099,0.372-0.046,0.472,0.118C105.762,14.764,105.709,14.972,105.545,15.065z"/>
			</g>
			<g>
				<path fill="#131C4E" d="M106.077,16.092c-0.17,0.083-0.372,0.015-0.452-0.151c-0.08-0.166-0.01-0.374,0.156-0.463
					c0.166-0.09,0.369-0.022,0.452,0.151C106.317,15.802,106.247,16.01,106.077,16.092z"/>
			</g>
			<g>
				<path fill="#131C4E" d="M106.58,17.136c-0.174,0.073-0.38-0.002-0.46-0.168c-0.08-0.166-0.006-0.366,0.165-0.445
					c0.171-0.08,0.377-0.005,0.46,0.168C106.828,16.864,106.754,17.063,106.58,17.136z"/>
			</g>
			<g>
				<path fill="#131C4E" d="M106.979,18.224c-0.178,0.063-0.374-0.027-0.437-0.2c-0.063-0.173,0.027-0.37,0.203-0.44
					c0.175-0.07,0.371,0.019,0.437,0.2C107.247,17.964,107.157,18.161,106.979,18.224z"/>
			</g>
			<g>
				<path fill="#131C4E" d="M107.346,19.322c-0.182,0.053-0.364-0.05-0.412-0.228c-0.064-0.173,0.03-0.362,0.209-0.422
					c0.179-0.06,0.378,0.038,0.443,0.218C107.636,19.075,107.526,19.269,107.346,19.322z"/>
			</g>
			<g>
				<path fill="#131C4E" d="M107.634,20.444c-0.184,0.042-0.371-0.069-0.416-0.247c-0.046-0.179,0.065-0.363,0.247-0.413
					c0.182-0.049,0.369,0.061,0.416,0.247C107.929,20.217,107.818,20.402,107.634,20.444z"/>
			</g>
			<g>
				<path fill="#131C4E" d="M107.86,21.579c-0.186,0.031-0.36-0.091-0.387-0.273c-0.028-0.182,0.1-0.362,0.28-0.4
					c0.19-0.04,0.363,0.083,0.391,0.272C108.173,21.368,108.046,21.547,107.86,21.579z"/>
			</g>
			<g>
				<path fill="#131C4E" d="M108.035,22.724c-0.188,0.021-0.362-0.11-0.39-0.293c-0.028-0.182,0.101-0.353,0.288-0.381
					c0.187-0.028,0.361,0.103,0.39,0.293C108.351,22.532,108.222,22.703,108.035,22.724z"/>
			</g>
			<g>
				<path fill="#131C4E" d="M108.117,23.878c-0.189,0.01-0.349-0.131-0.358-0.315c-0.009-0.184,0.136-0.348,0.324-0.365
					c0.188-0.017,0.348,0.124,0.358,0.315S108.306,23.868,108.117,23.878z"/>
			</g>
			<g>
				<path fill="#131C4E" d="M108.176,25.036c-0.189-0.001-0.35-0.15-0.359-0.335c-0.009-0.184,0.136-0.339,0.325-0.346
					c0.189-0.007,0.349,0.143,0.359,0.335C108.51,24.881,108.364,25.036,108.176,25.036z"/>
			</g>
		</g>
	</g>
</g>
</svg>
