<?xml version="1.0" encoding="utf-8"?>
<!-- Generator: Adobe Illustrator 18.0.0, SVG Export Plug-In . SVG Version: 6.00 Build 0)  -->
<!DOCTYPE svg PUBLIC "-//W3C//DTD SVG 1.1//EN" "http://www.w3.org/Graphics/SVG/1.1/DTD/svg11.dtd">
<svg version="1.1" xmlns="http://www.w3.org/2000/svg" xmlns:xlink="http://www.w3.org/1999/xlink" x="0px" y="0px"
	 viewBox="0 0 320 50" enable-background="new 0 0 320 50" xml:space="preserve">
<g id="Background">
	<rect x="0" y="0" fill="#E5E590" width="320" height="50"/>
</g>
<g id="Logo_Left">
	<g>
		<g>
			<path d="M44.47,38.671v7.003H28.395v-7.003h2.985l-1.962-7.094H18.687l-2.2,7.094h3.109v7.003H5.53v-7.003h3.288l8.056-27.341
				h-2.941V4.327h21.769v7.003h-2.895l8.68,27.341H44.47z M27.724,25.518l-3.449-12.435l-3.717,12.435H27.724z"/>
			<path d="M12.106,2.5v10.656c0,0,2.185,0,2.325,0c-1.094,3.712-6.343,21.525-6.98,23.687c-0.933,0-3.749,0-3.749,0V47.5h17.72
				V36.844c0,0-2.253,0-2.457,0c0.475-1.53,0.75-2.419,1.067-3.441c1.754,0,6.192,0,7.995,0c0.292,1.054,0.533,1.928,0.951,3.441
				c-0.184,0-2.411,0-2.411,0V47.5h19.729V36.844c0,0-2.659,0-3.474,0c-0.668-2.105-6.325-19.923-7.52-23.687
				c0.095,0,2.225,0,2.225,0V2.5H12.106z M33.875,6.154c0,1.292,0,2.058,0,3.349c-0.498,0-3.565,0-3.565,0l9.84,30.995
				c0,0,1.944,0,2.494,0c0,1.291,0,2.058,0,3.349c-2.502,0-9.92,0-12.422,0c0-1.292,0-2.058,0-3.349c0.55,0,3.559,0,3.559,0
				L30.808,29.75H17.34l-3.332,10.748c0,0,3.14,0,3.761,0c0,1.291,0,2.058,0,3.349c-2.353,0-8.059,0-10.413,0
				c0-1.292,0-2.058,0-3.349c0.722,0,2.827,0,2.827,0l9.133-30.995c0,0-3.033,0-3.557,0c0-1.292,0-2.058,0-3.349
				C18.545,6.154,31.09,6.154,33.875,6.154z"/>
			<path d="M18.106,27.344h12.021l-5.786-20.86L18.106,27.344z M24.21,19.681c0.556,2.004,0.775,2.795,1.112,4.01
				c-1.03,0-1.27,0-2.311,0C23.379,22.462,23.611,21.685,24.21,19.681z"/>
		</g>
		<g>
			<path fill="#FDB913" d="M44.47,38.671v7.003H28.395v-7.003h2.985l-1.962-7.094H18.687l-2.2,7.094h3.109v7.003H5.53v-7.003h3.288
				l8.056-27.341h-2.941V4.327h21.769v7.003h-2.895l8.68,27.341H44.47z M27.724,25.518l-3.449-12.435l-3.717,12.435H27.724z"/>
			<path fill="#FFFFFF" d="M13.385,3.779v8.099c0,0,1.93,0,2.756,0c-0.387,1.315-7.514,25.501-7.733,26.245
				c-0.628,0-3.426,0-3.426,0v8.099h15.162v-8.099c0,0-2.052,0-2.913,0c0.335-1.081,1.668-5.381,1.86-5.998c0.718,0,9.17,0,9.911,0
				c0.177,0.641,1.366,4.939,1.659,5.998c-0.829,0-2.813,0-2.813,0v8.099h17.172v-8.099c0,0-2.53,0-3.131,0
				c-0.23-0.724-7.908-24.91-8.332-26.245c0.823,0,2.694,0,2.694,0V3.779H13.385z M35.154,4.875c0,0.852,0,5.054,0,5.907
				c-0.72,0-3.096,0-3.096,0l9.028,28.437c0,0,2.107,0,2.837,0c0,0.852,0,5.054,0,5.907c-0.986,0-13.993,0-14.98,0
				c0-0.852,0-5.055,0-5.907c0.731,0,3.157,0,3.157,0l-2.265-8.19H18.283l-2.54,8.19c0,0,2.561,0,3.305,0c0,0.852,0,5.054,0,5.907
				c-0.971,0-11.999,0-12.97,0c0-0.852,0-5.055,0-5.907c0.761,0,3.15,0,3.15,0l8.379-28.437c0,0-2.4,0-3.126,0
				c0-0.852,0-5.054,0-5.907C15.496,4.875,34.139,4.875,35.154,4.875z"/>
			<path fill="#FFFFFF" d="M19.823,26.066h8.622l-4.15-14.963L19.823,26.066z M24.256,15.062c0.691,2.49,2.458,8.863,2.748,9.907
				c-1.033,0-4.657,0-5.709,0C21.611,23.91,23.515,17.541,24.256,15.062z"/>
		</g>
		<g>
			<path d="M16.592,27.206c0.048-0.048,0.273-0.266,0.348-0.266c0.068,0,0.102,0.048,0.068,0.157l0.014,0.014
				c0.662-0.573,1.091-1.187,1.091-1.412c0-0.116-0.075-0.164-0.184-0.136c-0.123,0.034-0.9,0.061-2.428,1.848
				c-0.477,0.559-0.825,1.316-0.825,1.835c0,0.484,0.232,0.771,0.723,0.771c0.859,0,2.36-1.118,3.008-1.691
				c0.02,0.348-0.088,0.443-0.348,0.689c-1.33,1.282-2.462,1.691-3.103,1.691c-0.757,0-1.303-0.471-1.303-1.255
				c0-1.003,0.839-2.08,1.541-2.742c0.58-0.552,2.012-1.644,2.823-1.644c0.409,0,0.675,0.218,0.696,0.648
				c0.048,0.921-1.712,2.667-2.571,2.796c-0.198,0.027-0.382-0.109-0.382-0.327c0-0.205,0.184-0.409,0.327-0.532L16.592,27.206z"/>
			<path d="M21.372,28.789c-0.307,0.389-0.607,0.552-1.105,0.552c-0.286,0.293-0.621,0.511-1.05,0.511
				c-0.354,0-0.682-0.355-0.709-0.975c-0.014-0.512,0.239-0.853,0.621-1.146c0.368-0.3,0.859-0.484,1.275-0.505
				c0.15-0.007,0.375,0.061,0.375,0.246c0,0.102-0.082,0.143-0.157,0.184c0.205,0.055,0.245,0.198,0.245,0.402
				c0,0.3-0.136,0.539-0.266,0.805c0.3,0.055,0.491-0.205,0.702-0.361L21.372,28.789z M19.292,28.468
				c-0.15,0.15-0.28,0.416-0.28,0.627c0,0.198,0.13,0.259,0.3,0.259c0.225,0,0.368-0.13,0.525-0.273
				c-0.048-0.109-0.082-0.198-0.082-0.314c0-0.355,0.32-0.784,0.293-0.798C19.818,28.107,19.497,28.27,19.292,28.468z"/>
			<path d="M23.227,27.997c0.143-0.13,0.812-0.777,0.982-0.777c0.055,0,0.13,0.02,0.157,0.375c0.014,0.164-0.171,0.321-0.28,0.416
				c-0.218,0.198-0.702,0.737-0.702,1.044c0,0.109,0.061,0.15,0.171,0.15c0.259,0,0.846-0.477,1.05-0.641l0.041,0.293
				c-0.348,0.334-1.071,1.118-1.575,1.118c-0.252,0-0.402-0.211-0.402-0.45c0-0.205,0.075-0.396,0.143-0.573l-0.014-0.014
				c-0.266,0.232-0.723,0.846-1.098,0.846c-0.334,0-0.518-0.382-0.518-0.675c0-0.662,0.511-1.344,0.948-1.63
				c0.096-0.061,0.184-0.075,0.3-0.075c0.095,0,0.443-0.061,0.416,0.143c-0.014,0.109-0.198,0.3-0.273,0.361
				c-0.211,0.239-0.252,0.3-0.518,0.491c-0.211,0.15-0.375,0.3-0.375,0.587c0,0.034,0.007,0.102,0.054,0.102
				c0.123,0,0.498-0.198,0.818-0.484L23.227,27.997z"/>
			<path d="M26.371,28.823l-0.014-0.014c-0.245,0.273-0.961,0.893-1.337,0.893c-0.382,0-0.511-0.498-0.511-0.798
				c0-0.893,1.487-1.616,2.012-1.664c0.095-0.007,0.361,0.02,0.361,0.17c0,0.123-0.136,0.218-0.225,0.28l-0.778,0.423
				c-0.43,0.232-0.934,0.423-0.873,0.921c0.007,0.055,0.048,0.068,0.109,0.068c0.191,0.021,0.607-0.143,0.866-0.423l0.73-0.805
				c0.068-0.075,0.15-0.191,0.259-0.191c0.136,0,0.259,0.232,0.259,0.348c0,0.102-0.095,0.259-0.143,0.348l-0.511,0.955l0.014,0.014
				l1.037-0.743l0.034,0.286l-1.439,1.078c-0.716,1.139-1.316,1.575-1.582,1.575c-0.095,0-0.157-0.075-0.157-0.164
				c0-0.491,1.037-1.35,1.412-1.623L26.371,28.823z"/>
			<path d="M28.683,29.348c-0.129,0.102-0.566,0.457-0.723,0.457c-0.191,0-0.587-0.45-0.6-0.805
				c-0.027-0.853,1.746-1.725,2.537-1.746c0.314-0.007,0.443,0.246,0.443,0.327s-0.177,0.15-0.239,0.17
				c0.13,0.055,0.198,0.13,0.198,0.28c0,0.218-0.593,0.696-0.593,1.016c0,0.116,0.102,0.164,0.211,0.164
				c0.286,0,0.675-0.348,0.968-0.546l0.055,0.252c-0.293,0.334-1.207,1.064-1.541,1.064c-0.225,0-0.327-0.164-0.327-0.361
				c0-0.218,0.164-0.58,0.252-0.764l-0.014-0.014L28.683,29.348z M27.858,29.17c0.007,0.034,0.034,0.157,0.137,0.136
				c0.136-0.027,0.348-0.007,1.698-1.371l-0.014-0.014C28.056,28.42,27.858,28.836,27.858,29.17z"/>
			<path d="M31.37,28.332c-0.239,0.375-0.525,0.552-0.818,0.846l-0.027-0.3c0.177-0.143,0.32-0.314,0.45-0.498
				c-0.143-0.014-0.184-0.068-0.184-0.211c0-0.491,0.696-0.982,0.859-0.982c0.068,0,0.123,0.055,0.123,0.116
				c0,0.068-0.02,0.13-0.048,0.191c0.641-0.089,1.016-0.17,1.084-0.089c0.102,0.13,0.15,0.239,0.164,0.361
				c0,0.211-0.13,0.314-0.286,0.443c-0.198,0.171-0.532,0.505-0.532,0.778c0,0.109,0.109,0.191,0.211,0.191
				c0.293,0,0.723-0.443,0.948-0.614l0.048,0.252c-0.259,0.293-1.043,1.05-1.432,1.05c-0.286,0-0.464-0.266-0.464-0.525
				c0-0.464,0.354-0.825,0.627-1.153l-0.014-0.014L31.37,28.332z"/>
			<path d="M35.64,28.639l0.068,0.259c-0.416,0.416-1.159,1.037-1.705,1.009c-0.457-0.02-0.961-0.28-1.084-0.778
				c-0.041,0.041-0.089,0.089-0.15,0.089c-0.068,0-0.116-0.068-0.116-0.13c0-0.089,0.109-0.184,0.164-0.239l1.48-1.357
				c0.014-0.225,0.143-0.443,0.389-0.443c0.205,0,0.245,0.061,0.266,0.252c0.027,0.259,0.13,0.491,0.13,0.791
				c0,0.559-0.45,0.975-0.887,1.241c0.436,0.075,0.702-0.13,1.037-0.382L35.64,28.639z M33.321,28.782
				c0.252,0.014,0.402,0.225,0.532,0.402c0.409-0.252,0.518-0.368,0.539-0.764c-0.02-0.143-0.048-0.327-0.089-0.559L33.321,28.782z"
				/>
		</g>
	</g>
</g>
<g id="Logo_Right">
	<g>
		<g>
			<path d="M314.47,38.671v7.003h-16.076v-7.003h2.985l-1.962-7.094h-10.731l-2.2,7.094h3.109v7.003H275.53v-7.003h3.288
				l8.056-27.341h-2.941V4.327h21.769v7.003h-2.895l8.68,27.341H314.47z M297.724,25.518l-3.449-12.435l-3.717,12.435H297.724z"/>
			<path d="M282.106,2.5v10.656c0,0,2.185,0,2.325,0c-1.094,3.712-6.343,21.525-6.98,23.687c-0.933,0-3.749,0-3.749,0V47.5h17.72
				V36.844c0,0-2.253,0-2.457,0c0.475-1.53,0.75-2.419,1.067-3.441c1.754,0,6.192,0,7.995,0c0.292,1.054,0.533,1.928,0.951,3.441
				c-0.184,0-2.411,0-2.411,0V47.5h19.729V36.844c0,0-2.659,0-3.474,0c-0.668-2.105-6.325-19.923-7.52-23.687
				c0.095,0,2.225,0,2.225,0V2.5H282.106z M303.875,6.154c0,1.292,0,2.058,0,3.349c-0.498,0-3.565,0-3.565,0l9.84,30.995
				c0,0,1.944,0,2.494,0c0,1.291,0,2.058,0,3.349c-2.502,0-9.92,0-12.422,0c0-1.292,0-2.058,0-3.349c0.55,0,3.559,0,3.559,0
				l-2.972-10.748H287.34l-3.332,10.748c0,0,3.14,0,3.761,0c0,1.291,0,2.058,0,3.349c-2.353,0-8.059,0-10.413,0
				c0-1.292,0-2.058,0-3.349c0.722,0,2.827,0,2.827,0l9.133-30.995c0,0-3.033,0-3.557,0c0-1.292,0-2.058,0-3.349
				C288.545,6.154,301.09,6.154,303.875,6.154z"/>
			<path d="M288.106,27.344h12.021l-5.786-20.86L288.106,27.344z M294.21,19.681c0.556,2.004,0.775,2.795,1.112,4.01
				c-1.03,0-1.27,0-2.311,0C293.379,22.462,293.611,21.685,294.21,19.681z"/>
		</g>
		<g>
			<path fill="#FDB913" d="M314.47,38.671v7.003h-16.076v-7.003h2.985l-1.962-7.094h-10.731l-2.2,7.094h3.109v7.003H275.53v-7.003
				h3.288l8.056-27.341h-2.941V4.327h21.769v7.003h-2.895l8.68,27.341H314.47z M297.724,25.518l-3.449-12.435l-3.717,12.435H297.724
				z"/>
			<path fill="#FFFFFF" d="M283.385,3.779v8.099c0,0,1.93,0,2.756,0c-0.387,1.315-7.514,25.501-7.733,26.245
				c-0.628,0-3.426,0-3.426,0v8.099h15.162v-8.099c0,0-2.052,0-2.913,0c0.335-1.081,1.668-5.381,1.86-5.998c0.718,0,9.17,0,9.911,0
				c0.177,0.641,1.366,4.939,1.659,5.998c-0.829,0-2.813,0-2.813,0v8.099h17.172v-8.099c0,0-2.53,0-3.131,0
				c-0.23-0.724-7.908-24.91-8.332-26.245c0.823,0,2.694,0,2.694,0V3.779H283.385z M305.154,4.875c0,0.852,0,5.054,0,5.907
				c-0.72,0-3.096,0-3.096,0l9.028,28.437c0,0,2.107,0,2.837,0c0,0.852,0,5.054,0,5.907c-0.986,0-13.993,0-14.98,0
				c0-0.852,0-5.055,0-5.907c0.731,0,3.157,0,3.157,0l-2.265-8.19h-11.552l-2.54,8.19c0,0,2.561,0,3.305,0c0,0.852,0,5.054,0,5.907
				c-0.971,0-11.999,0-12.97,0c0-0.852,0-5.055,0-5.907c0.761,0,3.15,0,3.15,0l8.379-28.437c0,0-2.4,0-3.126,0
				c0-0.852,0-5.054,0-5.907C285.496,4.875,304.139,4.875,305.154,4.875z"/>
			<path fill="#FFFFFF" d="M289.823,26.066h8.622l-4.15-14.963L289.823,26.066z M294.256,15.062c0.691,2.49,2.458,8.863,2.748,9.907
				c-1.033,0-4.657,0-5.709,0C291.611,23.91,293.515,17.541,294.256,15.062z"/>
		</g>
		<g>
			<path d="M286.592,27.206c0.048-0.048,0.273-0.266,0.348-0.266c0.068,0,0.102,0.048,0.068,0.157l0.014,0.014
				c0.661-0.573,1.091-1.187,1.091-1.412c0-0.116-0.075-0.164-0.184-0.136c-0.123,0.034-0.9,0.061-2.428,1.848
				c-0.477,0.559-0.825,1.316-0.825,1.835c0,0.484,0.232,0.771,0.723,0.771c0.859,0,2.36-1.118,3.008-1.691
				c0.02,0.348-0.089,0.443-0.348,0.689c-1.33,1.282-2.462,1.691-3.103,1.691c-0.757,0-1.303-0.471-1.303-1.255
				c0-1.003,0.839-2.08,1.541-2.742c0.58-0.552,2.012-1.644,2.823-1.644c0.409,0,0.675,0.218,0.696,0.648
				c0.048,0.921-1.712,2.667-2.571,2.796c-0.198,0.027-0.382-0.109-0.382-0.327c0-0.205,0.184-0.409,0.327-0.532L286.592,27.206z"/>
			<path d="M291.372,28.789c-0.307,0.389-0.607,0.552-1.105,0.552c-0.286,0.293-0.621,0.511-1.05,0.511
				c-0.354,0-0.682-0.355-0.709-0.975c-0.014-0.512,0.239-0.853,0.621-1.146c0.368-0.3,0.859-0.484,1.275-0.505
				c0.15-0.007,0.375,0.061,0.375,0.246c0,0.102-0.082,0.143-0.157,0.184c0.205,0.055,0.245,0.198,0.245,0.402
				c0,0.3-0.136,0.539-0.266,0.805c0.3,0.055,0.491-0.205,0.702-0.361L291.372,28.789z M289.292,28.468
				c-0.15,0.15-0.28,0.416-0.28,0.627c0,0.198,0.13,0.259,0.3,0.259c0.225,0,0.368-0.13,0.525-0.273
				c-0.048-0.109-0.082-0.198-0.082-0.314c0-0.355,0.32-0.784,0.293-0.798C289.818,28.107,289.497,28.27,289.292,28.468z"/>
			<path d="M293.227,27.997c0.143-0.13,0.812-0.777,0.982-0.777c0.055,0,0.13,0.02,0.157,0.375c0.014,0.164-0.171,0.321-0.28,0.416
				c-0.218,0.198-0.702,0.737-0.702,1.044c0,0.109,0.061,0.15,0.171,0.15c0.259,0,0.846-0.477,1.05-0.641l0.041,0.293
				c-0.348,0.334-1.071,1.118-1.575,1.118c-0.252,0-0.402-0.211-0.402-0.45c0-0.205,0.075-0.396,0.143-0.573l-0.014-0.014
				c-0.266,0.232-0.723,0.846-1.098,0.846c-0.334,0-0.518-0.382-0.518-0.675c0-0.662,0.511-1.344,0.948-1.63
				c0.096-0.061,0.184-0.075,0.3-0.075c0.095,0,0.443-0.061,0.416,0.143c-0.014,0.109-0.198,0.3-0.273,0.361
				c-0.211,0.239-0.252,0.3-0.518,0.491c-0.211,0.15-0.375,0.3-0.375,0.587c0,0.034,0.007,0.102,0.054,0.102
				c0.123,0,0.498-0.198,0.819-0.484L293.227,27.997z"/>
			<path d="M296.371,28.823l-0.014-0.014c-0.245,0.273-0.961,0.893-1.337,0.893c-0.382,0-0.511-0.498-0.511-0.798
				c0-0.893,1.487-1.616,2.012-1.664c0.095-0.007,0.361,0.02,0.361,0.17c0,0.123-0.136,0.218-0.225,0.28l-0.778,0.423
				c-0.43,0.232-0.934,0.423-0.873,0.921c0.007,0.055,0.048,0.068,0.109,0.068c0.191,0.021,0.607-0.143,0.866-0.423l0.73-0.805
				c0.068-0.075,0.15-0.191,0.259-0.191c0.136,0,0.259,0.232,0.259,0.348c0,0.102-0.095,0.259-0.143,0.348l-0.511,0.955l0.014,0.014
				l1.037-0.743l0.034,0.286l-1.439,1.078c-0.716,1.139-1.316,1.575-1.582,1.575c-0.095,0-0.157-0.075-0.157-0.164
				c0-0.491,1.037-1.35,1.412-1.623L296.371,28.823z"/>
			<path d="M298.683,29.348c-0.129,0.102-0.566,0.457-0.723,0.457c-0.191,0-0.587-0.45-0.6-0.805
				c-0.027-0.853,1.746-1.725,2.537-1.746c0.314-0.007,0.443,0.246,0.443,0.327s-0.177,0.15-0.239,0.17
				c0.13,0.055,0.198,0.13,0.198,0.28c0,0.218-0.593,0.696-0.593,1.016c0,0.116,0.102,0.164,0.211,0.164
				c0.286,0,0.675-0.348,0.968-0.546l0.055,0.252c-0.293,0.334-1.207,1.064-1.541,1.064c-0.225,0-0.327-0.164-0.327-0.361
				c0-0.218,0.164-0.58,0.252-0.764l-0.014-0.014L298.683,29.348z M297.858,29.17c0.007,0.034,0.034,0.157,0.137,0.136
				c0.136-0.027,0.348-0.007,1.698-1.371l-0.014-0.014C298.056,28.42,297.858,28.836,297.858,29.17z"/>
			<path d="M301.37,28.332c-0.239,0.375-0.525,0.552-0.818,0.846l-0.027-0.3c0.177-0.143,0.32-0.314,0.45-0.498
				c-0.143-0.014-0.184-0.068-0.184-0.211c0-0.491,0.696-0.982,0.859-0.982c0.068,0,0.123,0.055,0.123,0.116
				c0,0.068-0.02,0.13-0.048,0.191c0.641-0.089,1.016-0.17,1.084-0.089c0.102,0.13,0.15,0.239,0.164,0.361
				c0,0.211-0.13,0.314-0.286,0.443c-0.198,0.171-0.532,0.505-0.532,0.778c0,0.109,0.109,0.191,0.211,0.191
				c0.293,0,0.723-0.443,0.948-0.614l0.048,0.252c-0.259,0.293-1.043,1.05-1.432,1.05c-0.286,0-0.464-0.266-0.464-0.525
				c0-0.464,0.354-0.825,0.627-1.153l-0.014-0.014L301.37,28.332z"/>
			<path d="M305.64,28.639l0.068,0.259c-0.416,0.416-1.159,1.037-1.705,1.009c-0.457-0.02-0.961-0.28-1.084-0.778
				c-0.041,0.041-0.089,0.089-0.15,0.089c-0.068,0-0.116-0.068-0.116-0.13c0-0.089,0.109-0.184,0.164-0.239l1.48-1.357
				c0.014-0.225,0.143-0.443,0.389-0.443c0.205,0,0.245,0.061,0.266,0.252c0.027,0.259,0.13,0.491,0.13,0.791
				c0,0.559-0.45,0.975-0.887,1.241c0.436,0.075,0.702-0.13,1.037-0.382L305.64,28.639z M303.321,28.782
				c0.252,0.014,0.402,0.225,0.532,0.402c0.409-0.252,0.518-0.368,0.539-0.764c-0.02-0.143-0.048-0.327-0.089-0.559L303.321,28.782z
				"/>
		</g>
	</g>
</g>
<g id="Apex_Lions_Club" display="none">
	<text transform="matrix(1 0 0 1 99.62 20.9043)" display="inline"><tspan x="0" y="0" font-family="'Myriad-Roman'" font-size="18">Apex Lions Club</tspan><tspan x="-11.979" y="21.6" font-family="'Myriad-Roman'" font-size="18">www.apexlions.org</tspan></text>
</g>
<g id="Apex_Rotary_Club" display="none">
	<text transform="matrix(1 0 0 1 95.1917 20.9043)" display="inline"><tspan x="0" y="0" font-family="'Myriad-Roman'" font-size="18">Apex Rotary Club</tspan><tspan x="-12.222" y="21.6" font-family="'Myriad-Roman'" font-size="18">www.apexrotary.org</tspan></text>
</g>
<g id="Bo_Jangles" display="none">
	<text transform="matrix(1 0 0 1 120.4002 20.9043)" display="inline"><tspan x="0" y="0" font-family="'Myriad-Roman'" font-size="18">Bo Jangles</tspan><tspan x="-33.704" y="21.6" font-family="'Myriad-Roman'" font-size="18">www.bojangles.org</tspan></text>
</g>
<g id="Bradley_Flooring" display="none">
	<text transform="matrix(1 0 0 1 98.5575 20.9043)" display="inline"><tspan x="0" y="0" font-family="'Myriad-Roman'" font-size="18">Bradley Flooring</tspan><tspan x="-34.451" y="21.6" font-family="'Myriad-Roman'" font-size="18">www.bradleyscarpet.com</tspan></text>
</g>
<g id="Bradley_Flooring_copy" display="none">
	<text transform="matrix(1 0 0 1 98.5575 20.9043)" display="inline"><tspan x="0" y="0" font-family="'Myriad-Roman'" font-size="18">Bradley Flooring</tspan><tspan x="-34.451" y="21.6" font-family="'Myriad-Roman'" font-size="18">www.bradleyscarpet.com</tspan></text>
</g>
<g id="Cat_Kearns_-_REMAX_United" display="none">
	<text transform="matrix(1 0 0 1 59.2015 20.9043)" display="inline"><tspan x="0" y="0" font-family="'Myriad-Roman'" font-size="18">Cat Kearns - REMAX United</tspan><tspan x="-0.639" y="21.6" font-family="'Myriad-Roman'" font-size="18">catkearns.remaxagent.com</tspan></text>
</g>
<g id="Chick-Fil-A_of_Apex">
	<text transform="matrix(1 0 0 1 89.1078 20.9043)"><tspan x="0" y="0" font-family="'Myriad-Roman'" font-size="18">Chick-Fil-A of Apex</tspan><tspan x="-5.247" y="21.6" font-family="'Myriad-Roman'" font-size="18">www.chick-fil-a.com</tspan></text>
</g>
<g id="Cici_x27_s_of_Apex" display="none">
	<text transform="matrix(1 0 0 1 109.2318 20.9043)" display="inline"><tspan x="0" y="0" font-family="'Myriad-Roman'" font-size="18">CiCi’s of Apex</tspan><tspan x="-24.417" y="21.6" font-family="'Myriad-Roman'" font-size="18">www.cicispizza.com</tspan></text>
</g>
<g id="Beavers_Denistry" display="none">
	<text transform="matrix(1 0 0 1 95.8309 20.9043)" display="inline"><tspan x="0" y="0" font-family="'Myriad-Roman'" font-size="18">Beaver’s Denistry</tspan><tspan x="-38.609" y="21.6" font-family="'Myriad-Roman'" font-size="18">www.beaversdentistry.com</tspan></text>
</g>
<g id="Cici_x27_s_of_Apex_copy_2" display="none">
	<text transform="matrix(1 0 0 1 88.0907 20.9043)" display="inline"><tspan x="0" y="0" font-family="'Myriad-Roman'" font-size="18">Fresh Coat Painters</tspan><tspan x="-29.654" y="21.6" font-family="'Myriad-Roman'" font-size="18">www.freshcoatpainters.net</tspan></text>
</g>
</svg>
