<?xml version="1.0" encoding="utf-8"?>
<!-- Generator: Adobe Illustrator 18.0.0, SVG Export Plug-In . SVG Version: 6.00 Build 0)  -->
<!DOCTYPE svg PUBLIC "-//W3C//DTD SVG 1.1//EN" "http://www.w3.org/Graphics/SVG/1.1/DTD/svg11.dtd">
<svg version="1.1" xmlns="http://www.w3.org/2000/svg" xmlns:xlink="http://www.w3.org/1999/xlink" x="0px" y="0px"
	 viewBox="0 0 320 50" enable-background="new 0 0 320 50" xml:space="preserve">
<g id="Background">
	<rect x="0" y="0" fill="none" width="320" height="50"/>
	<rect y="0" fill="#FFFFFF" width="320" height="50"/>
</g>
<g id="LG_Jordan_Oil_Co">
	<text transform="matrix(1 0 0 1 61.8789 15.3218)" font-family="'Raavi'" font-size="16">L.G. Jordan Oil Co., Inc</text>
</g>
<g id="Text_copy">
	<text transform="matrix(1 0 0 1 64.0715 30.6551)"><tspan x="0" y="0" font-family="'Raavi'" font-size="12">314 N. Hughes St.</tspan><tspan x="6.1" y="14.4" font-family="'Raavi'" font-size="12">919-362-8388</tspan></text>
</g>
<g id="Foodmart__x23_1" display="none">
	<text transform="matrix(1 0 0 1 165.6001 34.2417)" display="inline"><tspan x="0" y="0" font-family="'Raavi'" font-size="9">A&amp;K Foodmart #1</tspan><tspan x="-4.1" y="10.8" font-family="'Raavi'" font-size="9">1305 E. Williams St.</tspan></text>
</g>
<g id="Foodmart__x23_2" display="none">
	<text transform="matrix(1 0 0 1 244.9542 34.2416)" display="inline"><tspan x="0" y="0" font-family="'Raavi'" font-size="9">A&amp;K Foodmart #2</tspan><tspan x="-1.2" y="10.8" font-family="'Raavi'" font-size="9">601 E. Williams St.</tspan></text>
</g>
<g id="Slogan">
	<text transform="matrix(1 0 0 1 172.5754 28.9886)"><tspan x="0" y="0" font-family="'Raavi'" font-size="11">Gasoline, Fuel Oil, LP Gas</tspan><tspan x="-0.5" y="13.2" font-family="'Raavi'" font-size="11">Heaters, Gas Logs &amp; Grills</tspan></text>
</g>
<g id="Shell_Logo">
	<g id="layer1" transform="translate(-14.828488,-233.63904)">
		<g id="g2384" transform="matrix(0.2326949,0,0,0.2326949,0.4836773,190.36074)">
			<path id="Red_part" fill="#ED1C24" d="M190.6,396.6c-8,0-12.1-5.2-12.1-5.2c-6.5-0.3-57.7-0.1-57.7-0.1l-5-42.1
				c0,0-31.5-22.2-34.1-24.8c-15.1-68.6,39.6-134.1,108.9-134.1s124,65.4,108.9,134.1c-2.6,2.6-34.1,24.8-34.1,24.8l-5,42.1
				c0,0-51.2-0.1-57.7,0.1C202.6,391.4,198.5,396.6,190.6,396.6z"/>
			<path id="Yellow_part" fill="#FFD500" d="M190.6,332.6l-4.8-121.4c-5.8-1.2-20.7,0.2-28.7,6.2l23.2,115.7l-31.7-110.9
				c-7.6-0.1-22.9,12.7-24,16.5l46.2,98.4l-51.9-90c-5.1,1.9-16.3,22.5-14.5,24.9l57.8,70.8l-59.5-60.5c0,0-7.7,11.8-2.7,31.7
				l33.6,24.3l4.2,33.2h41.2c0,0,6.7,6.4,11.5,6.4s11.5-6.4,11.5-6.4h41.2l4.2-33.2l33.6-24.3c5-20-2.7-31.7-2.7-31.7L219,342.8
				l57.8-70.8c1.8-2.4-9.4-23-14.5-24.9l-51.9,90l46.2-98.4c-1.1-3.8-16.5-16.6-24-16.5l-31.7,110.9l23.2-115.7
				c-8-6-22.9-7.4-28.7-6.2L190.6,332.6z"/>
		</g>
	</g>
</g>
</svg>
