<?xml version="1.0" encoding="utf-8"?>
<!-- Generator: Adobe Illustrator 18.0.0, SVG Export Plug-In . SVG Version: 6.00 Build 0)  -->
<!DOCTYPE svg PUBLIC "-//W3C//DTD SVG 1.1//EN" "http://www.w3.org/Graphics/SVG/1.1/DTD/svg11.dtd">
<svg version="1.1" xmlns="http://www.w3.org/2000/svg" xmlns:xlink="http://www.w3.org/1999/xlink" x="0px" y="0px"
	 viewBox="0 0 320 50" enable-background="new 0 0 320 50" xml:space="preserve">
<g id="Background">
	<rect x="0" y="0" fill="#FFFFFF" width="320" height="50"/>
</g>
<g id="Perfect_Promotions">
	<g>
		<g>
			<path fill-rule="evenodd" clip-rule="evenodd" d="M141.1,48.2H139v-4.9h-1.4v-1.9h1.4v-1.8c0-1,0.8-1.9,2.1-1.9h1.8v1.8h-1.2
				c-0.6,0-0.6,0.1-0.6,0.5l0,1.4h1.8l-0.2,1.9h-1.6V48.2L141.1,48.2z M132.2,35.8c-0.4,0-0.7,0.3-0.7,0.7v11.9
				c0,0.4,0.3,0.7,0.7,0.7h11.9c0.4,0,0.7-0.3,0.7-0.7V36.4c0-0.4-0.3-0.7-0.7-0.7H132.2L132.2,35.8z"/>
			<rect x="132.5" y="46.1" opacity="0.6" fill="#8A8A8A" width="6.6" height="2"/>
			<rect x="141.1" y="46.1" opacity="0.6" fill="#8A8A8A" width="2.7" height="2"/>
		</g>
		<g>
			<g>
				<path d="M148.9,39.8h0.7l-1.3,5.2h-0.7L148.9,39.8z"/>
				<path d="M150,46.3v-5.1h1.3v0.5c0.2-0.2,0.3-0.4,0.5-0.5c0.2-0.1,0.4-0.2,0.7-0.2c0.5,0,0.9,0.2,1.1,0.6
					c0.3,0.4,0.4,0.8,0.4,1.4c0,0.6-0.1,1.1-0.4,1.4c-0.3,0.3-0.7,0.5-1.1,0.5c-0.2,0-0.4,0-0.6-0.1c-0.2-0.1-0.3-0.2-0.5-0.3v1.7
					H150z M151.4,43.1c0,0.3,0.1,0.5,0.2,0.6c0.1,0.1,0.3,0.2,0.5,0.2c0.2,0,0.3-0.1,0.4-0.2c0.1-0.1,0.2-0.4,0.2-0.7
					c0-0.3-0.1-0.5-0.2-0.7c-0.1-0.1-0.3-0.2-0.4-0.2c-0.2,0-0.3,0.1-0.4,0.2C151.5,42.5,151.4,42.8,151.4,43.1z"/>
				<path d="M154.7,41.2h1.3v0.6c0.1-0.3,0.3-0.4,0.4-0.5c0.1-0.1,0.3-0.1,0.5-0.1c0.2,0,0.4,0.1,0.7,0.2l-0.4,1
					c-0.2-0.1-0.3-0.1-0.4-0.1c-0.2,0-0.3,0.1-0.4,0.2c-0.1,0.2-0.2,0.6-0.2,1.2v1.2h-1.4V41.2z"/>
				<path d="M157.8,43.1c0-0.6,0.2-1,0.6-1.4c0.4-0.4,0.9-0.5,1.5-0.5c0.7,0,1.3,0.2,1.7,0.6c0.3,0.3,0.5,0.8,0.5,1.3
					c0,0.6-0.2,1-0.6,1.4c-0.4,0.4-0.9,0.5-1.5,0.5c-0.6,0-1.1-0.1-1.4-0.4C158,44.2,157.8,43.7,157.8,43.1z M159.2,43.1
					c0,0.3,0.1,0.6,0.2,0.7c0.1,0.2,0.3,0.2,0.5,0.2c0.2,0,0.4-0.1,0.5-0.2c0.1-0.2,0.2-0.4,0.2-0.7c0-0.3-0.1-0.6-0.2-0.7
					c-0.1-0.2-0.3-0.2-0.5-0.2c-0.2,0-0.4,0.1-0.5,0.2C159.3,42.5,159.2,42.7,159.2,43.1z"/>
				<path d="M162.7,41.2h1.3v0.5c0.2-0.2,0.4-0.4,0.6-0.5c0.2-0.1,0.4-0.1,0.7-0.1c0.3,0,0.5,0.1,0.7,0.2c0.2,0.1,0.3,0.3,0.4,0.5
					c0.2-0.2,0.4-0.4,0.6-0.5c0.2-0.1,0.4-0.1,0.7-0.1c0.4,0,0.7,0.1,0.9,0.3c0.2,0.2,0.3,0.6,0.3,1.1v2.3h-1.4v-2.1
					c0-0.2,0-0.3-0.1-0.4c-0.1-0.1-0.2-0.2-0.4-0.2c-0.2,0-0.3,0.1-0.4,0.2c-0.1,0.1-0.2,0.3-0.2,0.6v1.9h-1.4v-2c0-0.2,0-0.3,0-0.3
					c0-0.1-0.1-0.2-0.2-0.2c-0.1-0.1-0.2-0.1-0.3-0.1c-0.2,0-0.3,0.1-0.4,0.2c-0.1,0.1-0.2,0.3-0.2,0.6v1.9h-1.4V41.2z"/>
				<path d="M169.6,43.1c0-0.6,0.2-1,0.6-1.4c0.4-0.4,0.9-0.5,1.5-0.5c0.7,0,1.3,0.2,1.7,0.6c0.3,0.3,0.5,0.8,0.5,1.3
					c0,0.6-0.2,1-0.6,1.4c-0.4,0.4-0.9,0.5-1.5,0.5c-0.6,0-1.1-0.1-1.4-0.4C169.8,44.2,169.6,43.7,169.6,43.1z M171,43.1
					c0,0.3,0.1,0.6,0.2,0.7c0.1,0.2,0.3,0.2,0.5,0.2c0.2,0,0.4-0.1,0.5-0.2c0.1-0.2,0.2-0.4,0.2-0.7c0-0.3-0.1-0.6-0.2-0.7
					c-0.1-0.2-0.3-0.2-0.5-0.2c-0.2,0-0.4,0.1-0.5,0.2C171,42.5,171,42.7,171,43.1z"/>
				<path d="M174.2,43.9l1.4-0.1c0.1,0.2,0.1,0.3,0.2,0.4c0.1,0.1,0.2,0.1,0.4,0.1c0.2,0,0.3,0,0.4-0.1c0.1-0.1,0.1-0.1,0.1-0.2
					c0-0.1-0.1-0.2-0.2-0.2c-0.1,0-0.3-0.1-0.6-0.1c-0.5-0.1-0.8-0.2-1-0.2c-0.2-0.1-0.3-0.2-0.5-0.4c-0.1-0.2-0.2-0.4-0.2-0.6
					c0-0.2,0.1-0.4,0.2-0.6c0.1-0.2,0.3-0.3,0.6-0.4c0.2-0.1,0.6-0.1,1-0.1c0.4,0,0.8,0,1,0.1c0.2,0.1,0.4,0.2,0.5,0.3
					c0.1,0.1,0.3,0.3,0.3,0.6l-1.3,0.1c0-0.1-0.1-0.2-0.2-0.3c-0.1-0.1-0.2-0.1-0.4-0.1c-0.2,0-0.3,0-0.3,0.1
					c-0.1,0.1-0.1,0.1-0.1,0.2c0,0.1,0,0.2,0.1,0.2c0.1,0,0.3,0.1,0.6,0.1c0.5,0.1,0.8,0.1,1,0.2c0.2,0.1,0.4,0.2,0.5,0.4
					c0.1,0.2,0.2,0.4,0.2,0.6c0,0.2-0.1,0.4-0.2,0.6c-0.1,0.2-0.3,0.4-0.6,0.5c-0.3,0.1-0.6,0.2-1.1,0.2c-0.7,0-1.1-0.1-1.4-0.3
					C174.5,44.5,174.3,44.2,174.2,43.9z"/>
				<path d="M180,42.4l-1.3-0.1c0.1-0.2,0.1-0.4,0.2-0.6c0.1-0.1,0.2-0.3,0.4-0.3c0.1-0.1,0.3-0.1,0.5-0.2c0.2,0,0.5-0.1,0.7-0.1
					c0.4,0,0.8,0,1,0.1c0.3,0,0.5,0.1,0.6,0.3c0.1,0.1,0.2,0.3,0.3,0.4c0.1,0.2,0.1,0.4,0.1,0.5v1.6c0,0.2,0,0.3,0,0.4
					c0,0.1,0.1,0.2,0.1,0.4h-1.3c-0.1-0.1-0.1-0.2-0.1-0.2c0-0.1,0-0.1,0-0.2c-0.2,0.2-0.4,0.3-0.5,0.4c-0.2,0.1-0.5,0.2-0.9,0.2
					c-0.4,0-0.8-0.1-1-0.3c-0.2-0.2-0.3-0.5-0.3-0.7c0-0.3,0.1-0.5,0.2-0.7c0.2-0.2,0.5-0.3,0.9-0.4c0.5-0.1,0.9-0.2,1-0.2
					c0.2,0,0.3-0.1,0.5-0.2c0-0.2,0-0.3-0.1-0.4c-0.1-0.1-0.2-0.1-0.4-0.1c-0.2,0-0.4,0-0.5,0.1C180.2,42.2,180.1,42.3,180,42.4z
					 M181.3,43.2c-0.2,0.1-0.4,0.1-0.6,0.2c-0.3,0.1-0.5,0.1-0.5,0.2c-0.1,0.1-0.1,0.2-0.1,0.3c0,0.1,0,0.2,0.1,0.3
					c0.1,0.1,0.2,0.1,0.3,0.1c0.2,0,0.3,0,0.4-0.1c0.1-0.1,0.2-0.2,0.3-0.3c0.1-0.1,0.1-0.3,0.1-0.4V43.2z"/>
				<path d="M183.5,41.2h1.3v0.6c0.2-0.2,0.4-0.4,0.6-0.5c0.2-0.1,0.4-0.2,0.7-0.2c0.4,0,0.7,0.1,0.9,0.3c0.2,0.2,0.3,0.6,0.3,1.1
					v2.3h-1.4v-2c0-0.2,0-0.4-0.1-0.5c-0.1-0.1-0.2-0.1-0.4-0.1c-0.2,0-0.3,0.1-0.4,0.2c-0.1,0.1-0.2,0.4-0.2,0.7v1.8h-1.4V41.2z"/>
				<path d="M192,39.8v5.1h-1.3v-0.5c-0.2,0.2-0.4,0.4-0.5,0.5c-0.2,0.1-0.4,0.2-0.7,0.2c-0.5,0-0.9-0.2-1.1-0.6
					c-0.3-0.4-0.4-0.8-0.4-1.4c0-0.6,0.1-1.1,0.4-1.4c0.3-0.3,0.7-0.5,1.1-0.5c0.2,0,0.4,0,0.6,0.1c0.2,0.1,0.3,0.2,0.5,0.3v-1.7
					H192z M190.6,43.1c0-0.3-0.1-0.5-0.2-0.6c-0.1-0.1-0.3-0.2-0.5-0.2c-0.2,0-0.3,0.1-0.4,0.2c-0.1,0.1-0.2,0.4-0.2,0.7
					c0,0.3,0.1,0.5,0.2,0.7c0.1,0.1,0.3,0.2,0.4,0.2c0.2,0,0.3-0.1,0.4-0.2C190.6,43.6,190.6,43.4,190.6,43.1z"/>
				<path d="M192.9,41.2h1.3v0.5c0.2-0.2,0.4-0.4,0.6-0.5c0.2-0.1,0.4-0.1,0.7-0.1c0.3,0,0.5,0.1,0.7,0.2c0.2,0.1,0.3,0.3,0.4,0.5
					c0.2-0.2,0.4-0.4,0.6-0.5c0.2-0.1,0.4-0.1,0.7-0.1c0.4,0,0.7,0.1,0.9,0.3c0.2,0.2,0.3,0.6,0.3,1.1v2.3h-1.4v-2.1
					c0-0.2,0-0.3-0.1-0.4c-0.1-0.1-0.2-0.2-0.4-0.2c-0.2,0-0.3,0.1-0.4,0.2c-0.1,0.1-0.2,0.3-0.2,0.6v1.9h-1.4v-2c0-0.2,0-0.3,0-0.3
					c0-0.1-0.1-0.2-0.2-0.2c-0.1-0.1-0.2-0.1-0.3-0.1c-0.2,0-0.3,0.1-0.4,0.2c-0.1,0.1-0.2,0.3-0.2,0.6v1.9h-1.4V41.2z"/>
				<path d="M199.8,43.1c0-0.6,0.2-1,0.6-1.4c0.4-0.4,0.9-0.5,1.5-0.5c0.7,0,1.3,0.2,1.7,0.6c0.3,0.3,0.5,0.8,0.5,1.3
					c0,0.6-0.2,1-0.6,1.4c-0.4,0.4-0.9,0.5-1.5,0.5c-0.6,0-1.1-0.1-1.4-0.4C200,44.2,199.8,43.7,199.8,43.1z M201.2,43.1
					c0,0.3,0.1,0.6,0.2,0.7c0.1,0.2,0.3,0.2,0.5,0.2c0.2,0,0.4-0.1,0.5-0.2c0.1-0.2,0.2-0.4,0.2-0.7c0-0.3-0.1-0.6-0.2-0.7
					c-0.1-0.2-0.3-0.2-0.5-0.2c-0.2,0-0.4,0.1-0.5,0.2C201.2,42.5,201.2,42.7,201.2,43.1z"/>
				<path d="M204.7,41.2h1.3v0.6c0.1-0.3,0.3-0.4,0.4-0.5c0.1-0.1,0.3-0.1,0.5-0.1c0.2,0,0.4,0.1,0.7,0.2l-0.4,1
					c-0.2-0.1-0.3-0.1-0.4-0.1c-0.2,0-0.3,0.1-0.4,0.2c-0.1,0.2-0.2,0.6-0.2,1.2v1.2h-1.4V41.2z"/>
				<path d="M212,43.4h-2.8c0,0.2,0.1,0.4,0.2,0.5c0.1,0.2,0.3,0.2,0.5,0.2c0.1,0,0.3,0,0.4-0.1c0.1,0,0.2-0.1,0.2-0.2l1.4,0.1
					c-0.2,0.4-0.5,0.6-0.8,0.8c-0.3,0.2-0.7,0.2-1.3,0.2c-0.5,0-0.9-0.1-1.1-0.2c-0.3-0.1-0.5-0.4-0.7-0.7c-0.2-0.3-0.3-0.6-0.3-1
					c0-0.6,0.2-1,0.5-1.4c0.4-0.4,0.9-0.5,1.5-0.5c0.5,0,0.9,0.1,1.2,0.2c0.3,0.2,0.5,0.4,0.7,0.7c0.2,0.3,0.2,0.7,0.2,1.2V43.4z
					 M210.5,42.7c0-0.3-0.1-0.5-0.2-0.6c-0.1-0.1-0.3-0.2-0.5-0.2c-0.2,0-0.4,0.1-0.5,0.3c-0.1,0.1-0.1,0.3-0.2,0.5H210.5z"/>
			</g>
		</g>
	</g>
	<g>
		<path d="M238.4,41.7c-0.5,0.1-1.3,0-1.7-0.2c0.9-0.1,1.4-0.5,1.7-1c-0.3,0.2-1.3,0.4-1.8,0.2c0-0.1-0.1-0.2-0.1-0.4
			c-0.4-1.5-1.8-2.7-3.2-2.5c0.1,0,0.2-0.1,0.4-0.1c0.2-0.1,1.1-0.2,0.9-0.5c-0.1-0.3-1.3,0.2-1.5,0.3c0.3-0.1,0.8-0.3,0.8-0.6
			c-0.4,0.1-0.9,0.3-1.2,0.6c0.1-0.1,0.2-0.3,0.2-0.5c-1.2,0.7-1.8,2.2-2.4,3.7c-0.4-0.4-0.8-0.7-1.2-0.9c-1-0.5-2.1-1.1-3.9-1.7
			c-0.1,0.6,0.3,1.4,1.3,1.9c-0.2,0-0.6,0-0.9,0.1c0.1,0.7,0.6,1.2,1.7,1.5c-0.5,0-0.8,0.2-1,0.4c0.2,0.5,0.8,1,1.9,0.9
			c-1.2,0.5-0.5,1.4,0.5,1.3c-1.6,1.7-4.2,1.6-5.7,0.1c3.8,5.2,12.2,3.1,13.4-1.9C237.5,42.3,238.1,42,238.4,41.7z"/>
		<g>
			<g>
				<path d="M245,41l-0.4,2.7c0,0.1,0,0.1,0,0.1c0,0,0,0.1,0,0.1c0,0,0.1,0,0.1,0c0.1,0,0.2,0,0.4-0.1c0.2-0.1,0.4-0.3,0.5-0.6
					c0.1-0.3,0.2-0.6,0.2-0.9c0-0.6-0.2-1.1-0.5-1.4c-0.3-0.3-0.8-0.5-1.4-0.5c-0.4,0-0.8,0.1-1.2,0.3c-0.4,0.2-0.6,0.5-0.8,0.9
					c-0.2,0.4-0.3,0.8-0.3,1.3c0,0.7,0.2,1.3,0.6,1.7c0.4,0.4,0.9,0.6,1.6,0.6c0.3,0,0.6-0.1,0.9-0.2c0.3-0.1,0.6-0.3,0.9-0.5h0.7
					c-0.2,0.2-0.4,0.4-0.5,0.5c-0.2,0.2-0.5,0.3-0.9,0.5c-0.3,0.1-0.7,0.2-1.1,0.2c-0.5,0-1-0.1-1.4-0.4c-0.4-0.2-0.7-0.6-1-1
					c-0.2-0.5-0.4-0.9-0.4-1.5c0-0.6,0.1-1.1,0.4-1.6c0.2-0.5,0.6-0.8,1-1.1c0.4-0.2,0.9-0.4,1.4-0.4c0.7,0,1.3,0.2,1.8,0.7
					c0.5,0.5,0.7,1,0.7,1.8c0,0.4-0.1,0.8-0.3,1.2c-0.2,0.4-0.4,0.6-0.8,0.8c-0.3,0.2-0.5,0.2-0.7,0.2c-0.1,0-0.2,0-0.3-0.1
					c-0.1-0.1-0.2-0.2-0.2-0.3c-0.2,0.1-0.3,0.3-0.4,0.3c-0.1,0.1-0.3,0.1-0.4,0.1c-0.3,0-0.6-0.1-0.8-0.4c-0.2-0.3-0.3-0.6-0.3-1.1
					c0-0.6,0.1-1.1,0.4-1.5c0.3-0.5,0.6-0.7,1-0.7c0.2,0,0.3,0,0.4,0.1c0.1,0.1,0.3,0.2,0.4,0.4l0.1-0.4H245z M242.7,43.2
					c0,0.3,0.1,0.5,0.2,0.6c0.1,0.1,0.2,0.2,0.3,0.2c0.1,0,0.3-0.1,0.4-0.2c0.1-0.1,0.2-0.4,0.3-0.7c0.1-0.4,0.1-0.7,0.1-1
					c0-0.2,0-0.4-0.1-0.5c-0.1-0.1-0.2-0.2-0.3-0.2c-0.2,0-0.3,0.1-0.4,0.2c-0.2,0.2-0.3,0.4-0.3,0.7
					C242.7,42.7,242.7,43,242.7,43.2z"/>
				<path d="M247.5,39.9h2.6c0.6,0,1,0.1,1.3,0.4c0.3,0.3,0.4,0.6,0.4,1.1c0,0.5-0.2,0.9-0.5,1.2c-0.3,0.3-0.8,0.4-1.4,0.4h-0.8v1.9
					h-1.6V39.9z M249.1,42h0.4c0.3,0,0.5-0.1,0.6-0.2c0.1-0.1,0.2-0.2,0.2-0.4c0-0.2-0.1-0.3-0.2-0.4c-0.1-0.1-0.3-0.2-0.6-0.2h-0.4
					V42z"/>
				<path d="M252.2,41.3h1.3v0.6c0.1-0.3,0.3-0.4,0.4-0.5c0.1-0.1,0.3-0.1,0.5-0.1c0.2,0,0.4,0.1,0.7,0.2l-0.4,1
					c-0.2-0.1-0.3-0.1-0.4-0.1c-0.2,0-0.3,0.1-0.4,0.2c-0.1,0.2-0.2,0.6-0.2,1.2v1.2h-1.4V41.3z"/>
				<path d="M255.1,43.1c0-0.6,0.2-1,0.6-1.4c0.4-0.4,0.9-0.5,1.5-0.5c0.7,0,1.3,0.2,1.7,0.6c0.3,0.3,0.4,0.8,0.4,1.3
					c0,0.6-0.2,1-0.6,1.4c-0.4,0.4-0.9,0.5-1.5,0.5c-0.6,0-1.1-0.1-1.4-0.4C255.3,44.2,255.1,43.7,255.1,43.1z M256.5,43.1
					c0,0.3,0.1,0.6,0.2,0.7c0.1,0.2,0.3,0.2,0.5,0.2c0.2,0,0.4-0.1,0.5-0.2c0.1-0.2,0.2-0.4,0.2-0.7c0-0.3-0.1-0.5-0.2-0.7
					c-0.1-0.2-0.3-0.2-0.5-0.2c-0.2,0-0.4,0.1-0.5,0.2C256.5,42.6,256.5,42.8,256.5,43.1z"/>
				<path d="M259.8,41.3h1.3v0.5c0.2-0.2,0.4-0.4,0.6-0.5c0.2-0.1,0.4-0.1,0.7-0.1c0.3,0,0.5,0.1,0.7,0.2c0.2,0.1,0.3,0.3,0.4,0.5
					c0.2-0.2,0.4-0.4,0.6-0.5c0.2-0.1,0.4-0.1,0.7-0.1c0.4,0,0.7,0.1,0.9,0.3c0.2,0.2,0.3,0.6,0.3,1.1v2.3h-1.4v-2.1
					c0-0.2,0-0.3-0.1-0.4c-0.1-0.1-0.2-0.2-0.3-0.2c-0.2,0-0.3,0.1-0.4,0.2c-0.1,0.1-0.2,0.3-0.2,0.6v1.9h-1.4v-2c0-0.2,0-0.3,0-0.3
					c0-0.1-0.1-0.2-0.2-0.2c-0.1-0.1-0.2-0.1-0.3-0.1c-0.2,0-0.3,0.1-0.4,0.2c-0.1,0.1-0.2,0.3-0.2,0.6v1.9h-1.4V41.3z"/>
				<path d="M266.4,43.1c0-0.6,0.2-1,0.6-1.4c0.4-0.4,0.9-0.5,1.5-0.5c0.7,0,1.3,0.2,1.7,0.6c0.3,0.3,0.4,0.8,0.4,1.3
					c0,0.6-0.2,1-0.6,1.4c-0.4,0.4-0.9,0.5-1.5,0.5c-0.6,0-1.1-0.1-1.4-0.4C266.6,44.2,266.4,43.7,266.4,43.1z M267.8,43.1
					c0,0.3,0.1,0.6,0.2,0.7c0.1,0.2,0.3,0.2,0.5,0.2c0.2,0,0.4-0.1,0.5-0.2c0.1-0.2,0.2-0.4,0.2-0.7c0-0.3-0.1-0.5-0.2-0.7
					c-0.1-0.2-0.3-0.2-0.5-0.2c-0.2,0-0.4,0.1-0.5,0.2C267.9,42.6,267.8,42.8,267.8,43.1z"/>
				<path d="M271,43.9l1.4-0.1c0.1,0.2,0.1,0.3,0.2,0.4c0.1,0.1,0.2,0.1,0.4,0.1c0.2,0,0.3,0,0.4-0.1c0.1-0.1,0.1-0.1,0.1-0.2
					c0-0.1-0.1-0.2-0.2-0.2c-0.1,0-0.3-0.1-0.6-0.1c-0.5-0.1-0.8-0.2-1-0.2c-0.2-0.1-0.3-0.2-0.5-0.4c-0.1-0.2-0.2-0.4-0.2-0.6
					c0-0.2,0.1-0.4,0.2-0.6c0.1-0.2,0.3-0.3,0.6-0.4c0.2-0.1,0.6-0.1,1-0.1c0.4,0,0.8,0,1,0.1c0.2,0.1,0.4,0.2,0.5,0.3
					c0.1,0.1,0.3,0.3,0.3,0.6l-1.3,0.1c0-0.1-0.1-0.2-0.2-0.3c-0.1-0.1-0.2-0.1-0.4-0.1c-0.2,0-0.3,0-0.3,0.1
					c-0.1,0.1-0.1,0.1-0.1,0.2c0,0.1,0,0.2,0.1,0.2c0.1,0,0.3,0.1,0.6,0.1c0.5,0.1,0.8,0.1,1,0.2c0.2,0.1,0.4,0.2,0.5,0.4
					c0.1,0.2,0.2,0.4,0.2,0.6c0,0.2-0.1,0.4-0.2,0.6c-0.1,0.2-0.3,0.4-0.6,0.5c-0.3,0.1-0.6,0.2-1.1,0.2c-0.7,0-1.1-0.1-1.4-0.3
					C271.3,44.5,271.1,44.3,271,43.9z"/>
				<path d="M278.7,44.1H277l-0.2,0.8h-1.6l1.9-5h1.7l1.9,5H279L278.7,44.1z M278.4,43l-0.6-1.8l-0.5,1.8H278.4z"/>
				<path d="M281,41.3h1.3v0.6c0.2-0.2,0.4-0.4,0.6-0.5c0.2-0.1,0.4-0.2,0.7-0.2c0.4,0,0.7,0.1,0.9,0.3c0.2,0.2,0.3,0.6,0.3,1.1v2.3
					h-1.4v-2c0-0.2,0-0.4-0.1-0.5c-0.1-0.1-0.2-0.1-0.4-0.1c-0.2,0-0.3,0.1-0.4,0.2c-0.1,0.1-0.2,0.4-0.2,0.7v1.7H281V41.3z"/>
				<path d="M289.3,39.9v5H288v-0.5c-0.2,0.2-0.3,0.4-0.5,0.5c-0.2,0.1-0.4,0.2-0.7,0.2c-0.5,0-0.9-0.2-1.1-0.6
					c-0.3-0.4-0.4-0.8-0.4-1.4c0-0.6,0.1-1.1,0.4-1.4c0.3-0.3,0.7-0.5,1.1-0.5c0.2,0,0.4,0,0.6,0.1c0.2,0.1,0.3,0.2,0.5,0.3v-1.7
					H289.3z M287.9,43.1c0-0.3-0.1-0.5-0.2-0.6c-0.1-0.1-0.3-0.2-0.5-0.2c-0.2,0-0.3,0.1-0.4,0.2c-0.1,0.1-0.2,0.4-0.2,0.7
					c0,0.3,0.1,0.5,0.2,0.7c0.1,0.1,0.3,0.2,0.4,0.2c0.2,0,0.3-0.1,0.4-0.2C287.9,43.6,287.9,43.4,287.9,43.1z"/>
				<path d="M290.4,39.9h2l0.8,3.1l0.8-3.1h2v5h-1.3v-3.8l-1,3.8h-1.2l-1-3.8v3.8h-1.3V39.9z"/>
				<path d="M296.6,43.1c0-0.6,0.2-1,0.6-1.4c0.4-0.4,0.9-0.5,1.5-0.5c0.7,0,1.3,0.2,1.6,0.6c0.3,0.3,0.4,0.8,0.4,1.3
					c0,0.6-0.2,1-0.6,1.4c-0.4,0.4-0.9,0.5-1.5,0.5c-0.6,0-1.1-0.1-1.4-0.4C296.8,44.2,296.6,43.7,296.6,43.1z M298,43.1
					c0,0.3,0.1,0.6,0.2,0.7c0.1,0.2,0.3,0.2,0.5,0.2c0.2,0,0.4-0.1,0.5-0.2c0.1-0.2,0.2-0.4,0.2-0.7c0-0.3-0.1-0.5-0.2-0.7
					c-0.1-0.2-0.3-0.2-0.5-0.2c-0.2,0-0.4,0.1-0.5,0.2C298,42.6,298,42.8,298,43.1z"/>
				<path d="M301.2,41.3h1.3v0.6c0.1-0.3,0.3-0.4,0.4-0.5c0.1-0.1,0.3-0.1,0.5-0.1c0.2,0,0.4,0.1,0.7,0.2l-0.4,1
					c-0.2-0.1-0.3-0.1-0.4-0.1c-0.2,0-0.3,0.1-0.4,0.2c-0.1,0.2-0.2,0.6-0.2,1.2v1.2h-1.4V41.3z"/>
				<path d="M308.5,43.4h-2.8c0,0.2,0.1,0.4,0.2,0.5c0.1,0.2,0.3,0.2,0.5,0.2c0.1,0,0.3,0,0.4-0.1c0.1,0,0.2-0.1,0.2-0.2l1.4,0.1
					c-0.2,0.4-0.5,0.6-0.8,0.8c-0.3,0.2-0.7,0.2-1.3,0.2c-0.5,0-0.9-0.1-1.1-0.2c-0.3-0.1-0.5-0.4-0.7-0.6c-0.2-0.3-0.3-0.6-0.3-1
					c0-0.6,0.2-1,0.5-1.4c0.4-0.4,0.9-0.5,1.5-0.5c0.5,0,0.9,0.1,1.2,0.2c0.3,0.2,0.5,0.4,0.7,0.7c0.2,0.3,0.2,0.7,0.2,1.2V43.4z
					 M307.1,42.8c0-0.3-0.1-0.5-0.2-0.6c-0.1-0.1-0.3-0.2-0.5-0.2c-0.2,0-0.4,0.1-0.5,0.3c-0.1,0.1-0.1,0.3-0.2,0.5H307.1z"/>
			</g>
		</g>
	</g>
	<g>
		<path d="M182.7,33.6l0.1-0.4c0.8,0,1.5-0.2,2.1-0.5c0.6-0.3,1-0.6,1.4-1.1c0.4-0.5,0.7-1.1,1-1.9c-0.3,0.2-0.5,0.4-0.8,0.5
			c-0.3,0.1-0.6,0.2-0.8,0.2c-0.6,0-1-0.2-1.3-0.6c-0.3-0.4-0.5-1-0.5-1.7c0-1,0.3-1.8,0.9-2.5c0.5-0.6,1.2-0.9,2-0.9
			c0.7,0,1.2,0.3,1.7,0.8c0.4,0.5,0.6,1.2,0.6,2.1c0,1.1-0.3,2.1-0.8,3.1c-0.6,1-1.3,1.7-2.2,2.2C184.9,33.3,183.9,33.6,182.7,33.6z
			 M187.4,29.1c0.1-0.8,0.2-1.4,0.2-1.9c0-0.8-0.1-1.3-0.4-1.7c-0.2-0.3-0.5-0.5-0.9-0.5c-0.4,0-0.7,0.2-0.9,0.5
			c-0.3,0.5-0.4,1.2-0.4,2.1c0,0.8,0.1,1.3,0.3,1.6c0.2,0.3,0.5,0.5,0.8,0.5c0.2,0,0.4-0.1,0.6-0.2
			C186.9,29.5,187.2,29.3,187.4,29.1z"/>
		<path d="M194.5,24.6h0.2l-1,3.9l-0.8,3.7c-0.1,0.3-0.1,0.5-0.1,0.6c0,0.1,0,0.1,0.1,0.2c0.1,0.1,0.3,0.1,0.6,0.1
			c0.2,0,0.4,0,0.6,0.1l-0.1,0.4c-1-0.1-1.8-0.2-2.2-0.2c-0.6,0-1.3,0.1-2,0.2l0.1-0.4c0.3-0.1,0.5-0.1,0.9-0.2
			c0.3-0.1,0.5-0.2,0.7-0.3c0.2-0.2,0.3-0.6,0.5-1.2l0.8-3c0.3-1.1,0.4-1.8,0.4-1.9c0-0.2-0.1-0.3-0.2-0.3c-0.1,0-0.6,0.2-1.5,0.6
			l-0.1-0.4c1.3-0.6,2-1,2.3-1.2C193.9,25.1,194.2,24.9,194.5,24.6z"/>
		<path d="M195.9,33.6l0.1-0.4c0.8,0,1.5-0.2,2.1-0.5c0.6-0.3,1-0.6,1.4-1.1c0.4-0.5,0.7-1.1,1-1.9c-0.3,0.2-0.5,0.4-0.8,0.5
			c-0.3,0.1-0.6,0.2-0.8,0.2c-0.6,0-1-0.2-1.3-0.6c-0.3-0.4-0.5-1-0.5-1.7c0-1,0.3-1.8,0.9-2.5c0.5-0.6,1.2-0.9,2-0.9
			c0.7,0,1.2,0.3,1.7,0.8c0.4,0.5,0.6,1.2,0.6,2.1c0,1.1-0.3,2.1-0.8,3.1c-0.6,1-1.3,1.7-2.2,2.2C198.1,33.3,197.1,33.6,195.9,33.6z
			 M200.6,29.1c0.1-0.8,0.2-1.4,0.2-1.9c0-0.8-0.1-1.3-0.4-1.7c-0.2-0.3-0.5-0.5-0.9-0.5c-0.4,0-0.7,0.2-0.9,0.5
			c-0.3,0.5-0.4,1.2-0.4,2.1c0,0.8,0.1,1.3,0.3,1.6c0.2,0.3,0.5,0.5,0.8,0.5c0.2,0,0.4-0.1,0.6-0.2
			C200.1,29.5,200.3,29.3,200.6,29.1z"/>
		<path d="M202.8,30h3.4l-0.2,0.7h-3.4L202.8,30z"/>
		<path d="M208.7,26.4l-0.3-0.2c0.5-0.6,0.9-0.9,1.1-1.1c0.4-0.3,0.9-0.4,1.3-0.4c0.4,0,0.8,0.1,1.1,0.3c0.3,0.2,0.4,0.5,0.4,0.9
			c0,0.8-0.6,1.6-1.7,2.4c0.4,0,0.7,0.1,0.9,0.2c0.2,0.1,0.4,0.3,0.5,0.6c0.1,0.3,0.2,0.5,0.2,0.9c0,0.9-0.5,1.8-1.4,2.6
			c-0.8,0.7-1.6,1-2.5,1c-0.4,0-0.7-0.1-1-0.3c-0.3-0.2-0.5-0.4-0.5-0.6c0-0.1,0-0.2,0.1-0.3c0.1-0.1,0.2-0.1,0.3-0.1
			c0.1,0,0.3,0.1,0.5,0.3c0.2,0.2,0.4,0.4,0.6,0.4c0.2,0.1,0.3,0.1,0.5,0.1c0.4,0,0.8-0.2,1.3-0.7c0.7-0.7,1-1.4,1-2.2
			c0-0.4-0.1-0.7-0.3-0.9c-0.2-0.2-0.5-0.4-0.8-0.4c-0.2,0-0.5,0.1-0.8,0.2l0.1-0.5c0.6-0.2,1.2-0.6,1.7-1.2
			c0.3-0.4,0.5-0.8,0.5-1.2c0-0.3-0.1-0.5-0.2-0.7c-0.2-0.2-0.4-0.3-0.6-0.3C209.7,25.4,209.2,25.8,208.7,26.4z"/>
		<path d="M217.3,24.7c0.7,0,1.3,0.3,1.7,0.8c0.4,0.5,0.6,1.3,0.6,2.3c0,1.4-0.4,2.8-1.1,4c-0.7,1.2-1.6,1.9-2.6,1.9
			c-0.6,0-1.1-0.3-1.5-0.8c-0.4-0.5-0.6-1.3-0.6-2.2c0-1.1,0.2-2.1,0.6-3.2c0.4-1,0.9-1.8,1.4-2.2C216.2,24.9,216.8,24.7,217.3,24.7
			z M217.1,25.1c-0.3,0-0.6,0.2-0.9,0.6c-0.3,0.4-0.6,1.1-0.9,2.2C215.1,29,215,30,215,31c0,0.8,0.1,1.3,0.3,1.7
			c0.2,0.4,0.5,0.5,0.8,0.5c0.3,0,0.5-0.1,0.8-0.4c0.4-0.4,0.7-1.1,1-2.2c0.3-1.1,0.5-2.1,0.5-3.2c0-0.8-0.1-1.5-0.4-1.9
			C217.7,25.2,217.5,25.1,217.1,25.1z"/>
		<path d="M221.8,26.4l-0.3-0.2c0.5-0.6,0.9-0.9,1.1-1.1c0.4-0.3,0.9-0.4,1.3-0.4c0.4,0,0.8,0.1,1.1,0.3c0.3,0.2,0.4,0.5,0.4,0.9
			c0,0.8-0.6,1.6-1.7,2.4c0.4,0,0.7,0.1,0.9,0.2c0.2,0.1,0.4,0.3,0.5,0.6c0.1,0.3,0.2,0.5,0.2,0.9c0,0.9-0.5,1.8-1.4,2.6
			c-0.8,0.7-1.6,1-2.5,1c-0.4,0-0.7-0.1-1-0.3c-0.3-0.2-0.5-0.4-0.5-0.6c0-0.1,0-0.2,0.1-0.3c0.1-0.1,0.2-0.1,0.3-0.1
			c0.1,0,0.3,0.1,0.5,0.3c0.2,0.2,0.4,0.4,0.6,0.4c0.2,0.1,0.3,0.1,0.5,0.1c0.4,0,0.8-0.2,1.3-0.7c0.7-0.7,1-1.4,1-2.2
			c0-0.4-0.1-0.7-0.3-0.9c-0.2-0.2-0.5-0.4-0.8-0.4c-0.2,0-0.5,0.1-0.8,0.2l0.1-0.5c0.6-0.2,1.2-0.6,1.7-1.2
			c0.4-0.4,0.5-0.8,0.5-1.2c0-0.3-0.1-0.5-0.2-0.7c-0.2-0.2-0.4-0.3-0.6-0.3C222.9,25.4,222.3,25.8,221.8,26.4z"/>
		<path d="M226.7,30h3.4l-0.2,0.7h-3.4L226.7,30z"/>
		<path d="M235.7,24.6h0.2l-1,3.9l-0.8,3.7c-0.1,0.3-0.1,0.5-0.1,0.6c0,0.1,0,0.1,0.1,0.2c0.1,0.1,0.3,0.1,0.6,0.1
			c0.2,0,0.4,0,0.6,0.1l-0.1,0.4c-1-0.1-1.8-0.2-2.2-0.2c-0.6,0-1.3,0.1-2,0.2l0.1-0.4c0.3-0.1,0.5-0.1,0.9-0.2
			c0.3-0.1,0.5-0.2,0.7-0.3c0.2-0.2,0.3-0.6,0.5-1.2l0.8-3c0.3-1.1,0.4-1.8,0.4-1.9c0-0.2-0.1-0.3-0.2-0.3c-0.1,0-0.6,0.2-1.5,0.6
			l-0.1-0.4c1.3-0.6,2-1,2.3-1.2C235.1,25.1,235.4,24.9,235.7,24.6z"/>
		<path d="M239.2,26.7h-0.4c0-0.1,0.1-0.3,0.2-0.6c0.2-0.6,0.3-1,0.4-1.4c0.5,0.1,1.4,0.1,2.6,0.1c0.8,0,1.6,0,2.3,0
			c-1.6,2.1-2.6,3.4-3.1,4c-0.7,1.1-1.2,1.9-1.5,2.5c-0.1,0.3-0.2,0.7-0.3,1.2c-0.1,0.5-0.2,0.8-0.3,1c-0.1,0.1-0.2,0.2-0.4,0.2
			c-0.2,0-0.3-0.1-0.4-0.2c-0.1-0.1-0.2-0.3-0.2-0.5c0-0.5,0.2-1,0.5-1.6c0.5-0.9,1.6-2.4,3.3-4.5l0.9-1.2h-2.7
			c-0.3,0-0.5,0-0.7,0.1C239.5,26,239.4,26.3,239.2,26.7z"/>
		<path d="M245.7,26.4l-0.3-0.2c0.5-0.6,0.9-0.9,1.1-1.1c0.4-0.3,0.9-0.4,1.3-0.4c0.4,0,0.8,0.1,1.1,0.3c0.3,0.2,0.4,0.5,0.4,0.9
			c0,0.8-0.6,1.6-1.7,2.4c0.4,0,0.7,0.1,0.9,0.2c0.2,0.1,0.4,0.3,0.5,0.6c0.1,0.3,0.2,0.5,0.2,0.9c0,0.9-0.5,1.8-1.4,2.6
			c-0.8,0.7-1.6,1-2.5,1c-0.4,0-0.7-0.1-1-0.3c-0.3-0.2-0.5-0.4-0.5-0.6c0-0.1,0-0.2,0.1-0.3c0.1-0.1,0.2-0.1,0.3-0.1
			c0.1,0,0.3,0.1,0.5,0.3c0.2,0.2,0.4,0.4,0.6,0.4c0.2,0.1,0.3,0.1,0.5,0.1c0.4,0,0.8-0.2,1.3-0.7c0.7-0.7,1-1.4,1-2.2
			c0-0.4-0.1-0.7-0.3-0.9c-0.2-0.2-0.5-0.4-0.8-0.4c-0.2,0-0.5,0.1-0.8,0.2l0.1-0.5c0.6-0.2,1.2-0.6,1.7-1.2
			c0.4-0.4,0.5-0.8,0.5-1.2c0-0.3-0.1-0.5-0.2-0.7c-0.2-0.2-0.4-0.3-0.6-0.3C246.8,25.4,246.2,25.8,245.7,26.4z"/>
		<path d="M250.3,33.6l0.1-0.4c0.8,0,1.5-0.2,2.1-0.5c0.6-0.3,1-0.6,1.4-1.1c0.4-0.5,0.7-1.1,1-1.9c-0.3,0.2-0.5,0.4-0.8,0.5
			c-0.3,0.1-0.6,0.2-0.8,0.2c-0.6,0-1-0.2-1.3-0.6c-0.3-0.4-0.5-1-0.5-1.7c0-1,0.3-1.8,0.9-2.5c0.5-0.6,1.2-0.9,2-0.9
			c0.7,0,1.2,0.3,1.7,0.8c0.4,0.5,0.6,1.2,0.6,2.1c0,1.1-0.3,2.1-0.8,3.1c-0.6,1-1.3,1.7-2.2,2.2C252.5,33.3,251.4,33.6,250.3,33.6z
			 M255,29.1c0.1-0.8,0.2-1.4,0.2-1.9c0-0.8-0.1-1.3-0.4-1.7c-0.2-0.3-0.5-0.5-0.9-0.5c-0.4,0-0.7,0.2-0.9,0.5
			c-0.3,0.5-0.4,1.2-0.4,2.1c0,0.8,0.1,1.3,0.3,1.6c0.2,0.3,0.5,0.5,0.8,0.5c0.2,0,0.4-0.1,0.6-0.2C254.5,29.5,254.7,29.3,255,29.1z
			"/>
	</g>
	<g>
		<path d="M164.7,14.5c0.2-0.1,0.3-0.2,0.4-0.2c0.1,0,0.1,0,0.2,0.1c0.1,0.1,0.1,0.1,0.1,0.2c0,0.2-0.1,0.3-0.4,0.3l-0.5,0.9
			c-0.1,0.3-0.2,0.5-0.3,0.8c-0.1,0.3-0.1,0.5-0.1,0.8c0,0.3,0.1,0.9,0.2,1.6c0.6-0.4,1.2-1,1.7-1.7c0-0.2,0-0.3,0-0.4
			c0-0.9,0.1-1.6,0.4-2.1c0.2-0.3,0.4-0.5,0.6-0.5c0.1,0,0.2,0.1,0.3,0.2c0.1,0.1,0.1,0.3,0.1,0.5c0,0.2,0,0.4-0.1,0.6
			c-0.1,0.4-0.2,0.7-0.4,1c0,1,0.1,1.8,0.2,2.4c0.5-0.3,1-0.8,1.4-1.3c0.3-0.4,0.6-0.8,0.8-1.1c0.2-0.4,0.3-0.7,0.3-1
			c0-0.1,0-0.3-0.1-0.5c-0.1-0.2-0.2-0.4-0.2-0.5c0-0.1,0-0.2,0.1-0.3c0.1-0.1,0.2-0.1,0.3-0.1c0.1,0,0.2,0.1,0.3,0.2
			c0.1,0.1,0.1,0.4,0.1,0.7c0,0.8-0.4,1.7-1.1,2.6c-0.7,0.9-1.6,1.6-2.7,2.1c-0.1-0.4-0.2-1.1-0.4-2c-0.5,0.6-0.9,0.9-1,1
			c-0.3,0.2-0.5,0.4-0.8,0.6c-0.2,0.2-0.5,0.3-0.8,0.4c0-0.2-0.1-0.6-0.2-1.1c-0.1-0.7-0.2-1.2-0.2-1.6c0-0.4,0.1-0.8,0.3-1.2
			c0.2-0.4,0.5-0.8,0.9-1.1c-0.7,0-1.3,0.1-1.6,0.3c-0.2,0.1-0.3,0.2-0.3,0.4c0,0.1,0,0.1,0.1,0.3c0,0.1,0.1,0.2,0.1,0.2
			c0,0.1,0,0.1-0.1,0.2c-0.1,0.1-0.1,0.1-0.2,0.1c-0.1,0-0.2,0-0.3-0.1c-0.1-0.1-0.1-0.2-0.1-0.4c0-0.3,0.1-0.6,0.4-0.8
			C162.9,14.6,163.6,14.5,164.7,14.5z"/>
		<path d="M173.1,14.5c0.2-0.1,0.3-0.2,0.4-0.2c0.1,0,0.1,0,0.2,0.1c0,0.1,0.1,0.1,0.1,0.2c0,0.2-0.1,0.3-0.4,0.3l-0.5,0.9
			c-0.1,0.3-0.2,0.5-0.3,0.8c-0.1,0.3-0.1,0.5-0.1,0.8c0,0.3,0.1,0.9,0.2,1.6c0.6-0.4,1.2-1,1.7-1.7c0-0.2,0-0.3,0-0.4
			c0-0.9,0.1-1.6,0.4-2.1c0.2-0.3,0.4-0.5,0.6-0.5c0.1,0,0.2,0.1,0.3,0.2c0.1,0.1,0.1,0.3,0.1,0.5c0,0.2,0,0.4-0.1,0.6
			c-0.1,0.4-0.2,0.7-0.4,1c0,1,0.1,1.8,0.2,2.4c0.5-0.3,1-0.8,1.4-1.3c0.3-0.4,0.6-0.8,0.8-1.1c0.2-0.4,0.3-0.7,0.3-1
			c0-0.1,0-0.3-0.1-0.5c-0.1-0.2-0.2-0.4-0.2-0.5c0-0.1,0-0.2,0.1-0.3c0.1-0.1,0.2-0.1,0.3-0.1c0.1,0,0.2,0.1,0.3,0.2
			c0.1,0.1,0.1,0.4,0.1,0.7c0,0.8-0.4,1.7-1.1,2.6c-0.7,0.9-1.6,1.6-2.7,2.1c-0.1-0.4-0.2-1.1-0.4-2c-0.5,0.6-0.9,0.9-1,1
			c-0.3,0.2-0.5,0.4-0.8,0.6c-0.2,0.2-0.5,0.3-0.8,0.4c0-0.2-0.1-0.6-0.2-1.1c-0.1-0.7-0.2-1.2-0.2-1.6c0-0.4,0.1-0.8,0.3-1.2
			c0.2-0.4,0.5-0.8,0.9-1.1c-0.7,0-1.3,0.1-1.6,0.3c-0.2,0.1-0.3,0.2-0.3,0.4c0,0.1,0,0.1,0.1,0.3c0,0.1,0.1,0.2,0.1,0.2
			c0,0.1,0,0.1-0.1,0.2c-0.1,0.1-0.1,0.1-0.2,0.1c-0.1,0-0.2,0-0.3-0.1c-0.1-0.1-0.1-0.2-0.1-0.4c0-0.3,0.1-0.6,0.4-0.8
			C171.3,14.6,172.1,14.5,173.1,14.5z"/>
		<path d="M181.6,14.5c0.2-0.1,0.3-0.2,0.4-0.2c0.1,0,0.1,0,0.2,0.1c0,0.1,0.1,0.1,0.1,0.2c0,0.2-0.1,0.3-0.4,0.3l-0.5,0.9
			c-0.1,0.3-0.2,0.5-0.3,0.8c-0.1,0.3-0.1,0.5-0.1,0.8c0,0.3,0.1,0.9,0.2,1.6c0.6-0.4,1.2-1,1.7-1.7c0-0.2,0-0.3,0-0.4
			c0-0.9,0.1-1.6,0.4-2.1c0.2-0.3,0.4-0.5,0.6-0.5c0.1,0,0.2,0.1,0.3,0.2c0.1,0.1,0.1,0.3,0.1,0.5c0,0.2,0,0.4-0.1,0.6
			c-0.1,0.4-0.2,0.7-0.4,1c0,1,0.1,1.8,0.2,2.4c0.5-0.3,1-0.8,1.4-1.3c0.3-0.4,0.6-0.8,0.8-1.1c0.2-0.4,0.3-0.7,0.3-1
			c0-0.1,0-0.3-0.1-0.5c-0.1-0.2-0.2-0.4-0.2-0.5c0-0.1,0-0.2,0.1-0.3c0.1-0.1,0.2-0.1,0.3-0.1c0.1,0,0.2,0.1,0.3,0.2
			c0.1,0.1,0.1,0.4,0.1,0.7c0,0.8-0.4,1.7-1.1,2.6c-0.7,0.9-1.6,1.6-2.7,2.1c-0.1-0.4-0.3-1.1-0.4-2c-0.5,0.6-0.9,0.9-1,1
			c-0.3,0.2-0.5,0.4-0.8,0.6c-0.2,0.2-0.5,0.3-0.8,0.4c0-0.2-0.1-0.6-0.2-1.1c-0.1-0.7-0.2-1.2-0.2-1.6c0-0.4,0.1-0.8,0.3-1.2
			c0.2-0.4,0.5-0.8,0.9-1.1c-0.7,0-1.3,0.1-1.6,0.3c-0.2,0.1-0.3,0.2-0.3,0.4c0,0.1,0,0.1,0.1,0.3c0,0.1,0.1,0.2,0.1,0.2
			c0,0.1,0,0.1-0.1,0.2c-0.1,0.1-0.1,0.1-0.2,0.1c-0.1,0-0.2,0-0.3-0.1c-0.1-0.1-0.1-0.2-0.1-0.4c0-0.3,0.1-0.6,0.4-0.8
			C179.8,14.6,180.5,14.5,181.6,14.5z"/>
		<path d="M188,18.1c0.2,0,0.3,0.1,0.4,0.2c0.1,0.1,0.2,0.3,0.2,0.4c0,0.3-0.1,0.5-0.2,0.6c-0.1,0.1-0.3,0.2-0.5,0.2
			c-0.2,0-0.3-0.1-0.4-0.2c-0.1-0.1-0.2-0.3-0.2-0.4c0-0.3,0.1-0.5,0.2-0.7C187.7,18.2,187.8,18.1,188,18.1z"/>
		<path d="M193,13.6l0.1-0.3c0.6-0.1,1.1-0.1,1.5-0.2c-0.1,0.3-0.2,0.7-0.3,1.1l-0.5,1.7l0.6,0c0.3,0,0.5-0.1,0.8-0.2
			c0.3-0.1,0.6-0.4,0.8-0.7c0.2-0.4,0.4-0.7,0.4-1.2c0-0.4-0.1-0.7-0.4-1c-0.3-0.2-0.7-0.4-1.3-0.4c-0.7,0-1.4,0.2-2,0.5
			c-0.7,0.3-1.2,0.8-1.5,1.3c-0.4,0.5-0.5,1.1-0.5,1.6c0,0.3,0,0.5,0.1,0.7c0.1,0.2,0.3,0.4,0.5,0.6c0.2,0.1,0.3,0.3,0.3,0.4
			c0,0.1,0,0.2-0.1,0.2c-0.1,0.1-0.1,0.1-0.2,0.1c-0.2,0-0.5-0.2-0.7-0.5c-0.2-0.3-0.3-0.7-0.3-1.2c0-0.9,0.4-1.8,1.1-2.5
			c0.9-1,2.2-1.5,3.7-1.5c0.6,0,1.1,0.1,1.5,0.2c0.4,0.2,0.7,0.4,0.8,0.6c0.2,0.3,0.3,0.6,0.3,0.9c0,0.4-0.1,0.8-0.4,1.2
			c-0.3,0.4-0.7,0.7-1.2,0.9c-0.5,0.2-1.1,0.4-1.7,0.4c-0.1,0-0.2,0-0.5,0l-0.5,1.9c-0.1,0.3-0.2,0.6-0.3,0.9
			c0.3,0.1,0.6,0.1,0.8,0.1c0.3,0,0.6-0.1,1-0.2l-0.1,0.3c-0.3,0.1-0.6,0.1-0.8,0.1c-0.2,0-0.5,0-0.9-0.1c-0.3,0-0.6-0.1-0.8-0.1
			c-0.4,0-0.8,0-1.2,0.1l0.1-0.3c0.4-0.1,0.7-0.2,0.9-0.3c0.2-0.2,0.4-0.6,0.5-1.1l0.9-3.6c0-0.2,0.1-0.3,0.1-0.4
			c0-0.1,0-0.1-0.1-0.2c-0.1-0.1-0.1-0.1-0.2-0.1C193.1,13.6,193,13.6,193,13.6z"/>
		<path d="M200.1,17.9l0.2,0.3c-1,0.9-1.8,1.4-2.5,1.4c-0.3,0-0.5-0.1-0.7-0.3c-0.2-0.2-0.2-0.5-0.2-0.9c0-0.9,0.3-1.7,0.8-2.6
			c0.6-1,1.3-1.5,2.1-1.5c0.3,0,0.5,0.1,0.7,0.2c0.2,0.1,0.2,0.3,0.2,0.6c0,0.3-0.1,0.5-0.3,0.8c-0.2,0.3-0.5,0.5-1,0.8
			c-0.2,0.1-0.7,0.4-1.5,0.7c0,0.2-0.1,0.4-0.1,0.6c0,0.3,0,0.5,0.1,0.6c0.1,0.1,0.2,0.2,0.4,0.2c0.2,0,0.3,0,0.5-0.1
			C199.2,18.5,199.6,18.3,200.1,17.9z M198,17c0.7-0.3,1.1-0.6,1.5-0.9c0.2-0.2,0.3-0.5,0.3-0.7c0-0.2,0-0.3-0.1-0.4
			c-0.1-0.1-0.2-0.2-0.4-0.2c-0.2,0-0.3,0.1-0.4,0.2c-0.2,0.1-0.3,0.4-0.5,0.7C198.2,16.1,198.1,16.5,198,17z"/>
		<path d="M202.3,19.4h-0.9l0.4-1.6c0.2-0.8,0.4-1.6,0.5-2.3c0-0.2,0.1-0.3,0.1-0.3c0-0.1,0-0.1-0.1-0.1c-0.1,0-0.2,0-0.3,0.1
			c-0.1,0.1-0.4,0.3-0.7,0.6l-0.2-0.2c0.4-0.4,0.8-0.7,1.2-0.9c0.4-0.2,0.7-0.3,0.9-0.3c0.1,0,0.1,0,0.2,0.1c0,0,0.1,0.1,0.1,0.1
			c0,0.1,0,0.2-0.1,0.4l-0.3,1.1c0.4-0.6,0.9-1.2,1.4-1.6c0.2-0.2,0.5-0.3,0.6-0.3c0.1,0,0.2,0,0.3,0.1c0.1,0.1,0.1,0.2,0.1,0.3
			c0,0.1,0,0.2-0.1,0.3c-0.1,0.1-0.3,0.2-0.6,0.3c-0.3,0.1-0.5,0.2-0.7,0.4c-0.2,0.1-0.4,0.4-0.6,0.7c-0.2,0.3-0.4,0.5-0.5,0.8
			c-0.1,0.2-0.2,0.7-0.4,1.5L202.3,19.4z"/>
		<path d="M205.1,14.7h1.5c0.2-1,0.5-1.8,0.8-2.3c0.3-0.5,0.7-0.9,1.2-1.2c0.5-0.3,1-0.4,1.4-0.4c0.2,0,0.4,0,0.6,0.1
			c0.1,0.1,0.2,0.2,0.2,0.3c0,0.1,0,0.2-0.1,0.3c-0.1,0.1-0.2,0.1-0.3,0.1c-0.1,0-0.4,0-0.8-0.1c-0.2,0-0.3-0.1-0.5-0.1
			c-0.3,0-0.5,0.2-0.7,0.5c-0.2,0.3-0.4,0.8-0.5,1.3l-0.3,1.3h1.6l-0.1,0.4h-1.6l-1,3.9c-0.3,1.2-0.8,2.1-1.4,2.7
			c-0.7,0.6-1.4,0.9-2.1,0.9c-0.3,0-0.4-0.1-0.6-0.1c-0.1-0.1-0.2-0.2-0.2-0.4c0-0.1,0-0.2,0.1-0.3c0.1-0.1,0.2-0.1,0.4-0.1
			c0.1,0,0.2,0,0.4,0c0.3,0,0.6,0.1,0.8,0.1c0.4,0,0.7-0.1,0.9-0.3c0.2-0.2,0.4-0.7,0.5-1.4l1.2-5H205L205.1,14.7z"/>
		<path d="M212,17.9l0.2,0.3c-1,0.9-1.8,1.4-2.5,1.4c-0.3,0-0.5-0.1-0.7-0.3c-0.2-0.2-0.2-0.5-0.2-0.9c0-0.9,0.3-1.7,0.8-2.6
			c0.6-1,1.3-1.5,2.1-1.5c0.3,0,0.5,0.1,0.7,0.2c0.2,0.1,0.2,0.3,0.2,0.6c0,0.3-0.1,0.5-0.3,0.8c-0.2,0.3-0.5,0.5-1,0.8
			c-0.2,0.1-0.7,0.4-1.5,0.7c0,0.2-0.1,0.4-0.1,0.6c0,0.3,0,0.5,0.1,0.6c0.1,0.1,0.2,0.2,0.4,0.2c0.2,0,0.3,0,0.5-0.1
			C211.1,18.5,211.5,18.3,212,17.9z M209.9,17c0.7-0.3,1.1-0.6,1.5-0.9c0.2-0.2,0.3-0.5,0.3-0.7c0-0.2,0-0.3-0.1-0.4
			c-0.1-0.1-0.2-0.2-0.4-0.2c-0.2,0-0.3,0.1-0.4,0.2c-0.2,0.1-0.4,0.4-0.5,0.7C210.1,16.1,210,16.5,209.9,17z"/>
		<path d="M216.4,18.1l0.1,0.3c-1,0.8-1.8,1.1-2.5,1.1c-0.4,0-0.6-0.1-0.8-0.4c-0.2-0.2-0.2-0.6-0.2-1c0-0.6,0.2-1.3,0.5-2
			c0.3-0.7,0.8-1.2,1.2-1.6c0.4-0.3,0.8-0.4,1.3-0.4c0.3,0,0.5,0.1,0.7,0.2c0.2,0.1,0.2,0.3,0.2,0.4c0,0.1,0,0.2-0.1,0.3
			c-0.1,0.1-0.2,0.1-0.3,0.1c-0.1,0-0.3-0.1-0.5-0.2c-0.2-0.1-0.4-0.2-0.6-0.2c-0.2,0-0.4,0.1-0.6,0.3c-0.2,0.2-0.4,0.5-0.6,1
			c-0.2,0.5-0.3,1-0.3,1.6c0,0.4,0.1,0.7,0.2,0.9c0.1,0.2,0.3,0.2,0.5,0.2C215.2,18.9,215.8,18.7,216.4,18.1z"/>
		<path d="M219,13.4l1-0.4l-0.4,1.7h1.3l-0.1,0.4h-1.2l-0.5,2c-0.2,0.6-0.3,1-0.3,1.3c0,0.1,0,0.2,0.1,0.2c0,0,0.1,0.1,0.2,0.1
			c0.1,0,0.3-0.1,0.6-0.2c0.3-0.2,0.7-0.4,1-0.7l0.2,0.3c-0.9,0.7-1.5,1.1-1.8,1.2c-0.3,0.1-0.5,0.2-0.7,0.2c-0.1,0-0.3-0.1-0.4-0.2
			c-0.1-0.1-0.1-0.3-0.1-0.5c0-0.3,0.1-0.7,0.2-1.3l0.6-2.4h-1l0.1-0.4h1L219,13.4z"/>
		<path d="M221.4,16.6h2.8l-0.1,0.6h-2.8L221.4,16.6z"/>
		<path d="M227.5,13.6l0.1-0.3c0.6-0.1,1.1-0.1,1.5-0.2c-0.1,0.3-0.2,0.7-0.3,1.1l-0.5,1.7l0.6,0c0.3,0,0.5-0.1,0.8-0.2
			c0.3-0.1,0.6-0.4,0.8-0.7c0.2-0.4,0.4-0.7,0.4-1.2c0-0.4-0.1-0.7-0.4-1c-0.3-0.2-0.7-0.4-1.3-0.4c-0.7,0-1.4,0.2-2,0.5
			c-0.7,0.3-1.2,0.8-1.5,1.3c-0.4,0.5-0.5,1.1-0.5,1.6c0,0.3,0,0.5,0.1,0.7c0.1,0.2,0.3,0.4,0.5,0.6c0.2,0.1,0.3,0.3,0.3,0.4
			c0,0.1,0,0.2-0.1,0.2c-0.1,0.1-0.1,0.1-0.2,0.1c-0.2,0-0.5-0.2-0.7-0.5c-0.2-0.3-0.3-0.7-0.3-1.2c0-0.9,0.3-1.8,1.1-2.5
			c0.9-1,2.2-1.5,3.7-1.5c0.6,0,1.1,0.1,1.5,0.2c0.4,0.2,0.7,0.4,0.9,0.6c0.2,0.3,0.3,0.6,0.3,0.9c0,0.4-0.1,0.8-0.4,1.2
			c-0.3,0.4-0.7,0.7-1.2,0.9c-0.5,0.2-1.1,0.4-1.7,0.4c-0.1,0-0.2,0-0.5,0l-0.5,1.9c-0.1,0.3-0.2,0.6-0.3,0.9
			c0.3,0.1,0.6,0.1,0.8,0.1c0.3,0,0.6-0.1,0.9-0.2l-0.1,0.3c-0.3,0.1-0.6,0.1-0.8,0.1c-0.2,0-0.5,0-0.9-0.1c-0.3,0-0.6-0.1-0.8-0.1
			c-0.4,0-0.8,0-1.2,0.1l0.1-0.3c0.4-0.1,0.7-0.2,0.9-0.3c0.2-0.2,0.4-0.6,0.5-1.1l0.9-3.6c0-0.2,0.1-0.3,0.1-0.4
			c0-0.1,0-0.1-0.1-0.2c0-0.1-0.1-0.1-0.2-0.1C227.6,13.6,227.5,13.6,227.5,13.6z"/>
		<path d="M232.6,19.4h-0.9l0.4-1.6c0.2-0.8,0.4-1.6,0.5-2.3c0-0.2,0.1-0.3,0.1-0.3c0-0.1,0-0.1-0.1-0.1c-0.1,0-0.2,0-0.3,0.1
			c-0.1,0.1-0.4,0.3-0.7,0.6l-0.2-0.2c0.4-0.4,0.8-0.7,1.2-0.9c0.4-0.2,0.7-0.3,0.9-0.3c0.1,0,0.1,0,0.2,0.1c0,0,0.1,0.1,0.1,0.1
			c0,0.1,0,0.2-0.1,0.4l-0.3,1.1c0.4-0.6,0.9-1.2,1.4-1.6c0.2-0.2,0.5-0.3,0.6-0.3c0.1,0,0.2,0,0.3,0.1c0.1,0.1,0.1,0.2,0.1,0.3
			c0,0.1,0,0.2-0.1,0.3c-0.1,0.1-0.3,0.2-0.6,0.3c-0.3,0.1-0.5,0.2-0.7,0.4c-0.2,0.1-0.4,0.4-0.6,0.7c-0.2,0.3-0.4,0.5-0.5,0.8
			c-0.1,0.2-0.2,0.7-0.4,1.5L232.6,19.4z"/>
		<path d="M238.2,14.3c0.4,0,0.7,0.2,1,0.5c0.3,0.3,0.4,0.8,0.4,1.3c0,0.9-0.3,1.7-0.9,2.4c-0.6,0.7-1.3,1.1-2,1.1
			c-0.4,0-0.8-0.1-1-0.4c-0.3-0.3-0.4-0.7-0.4-1.2c0-0.8,0.2-1.6,0.7-2.4C236.5,14.8,237.3,14.3,238.2,14.3z M237.7,14.8
			c-0.3,0-0.7,0.2-1,0.7c-0.3,0.5-0.5,1.2-0.5,2c0,0.5,0.1,0.9,0.3,1.2c0.1,0.2,0.3,0.3,0.6,0.3c0.3,0,0.6-0.2,0.9-0.6
			c0.4-0.5,0.5-1.2,0.5-2c0-0.6-0.1-1-0.2-1.3C238.1,14.9,237.9,14.8,237.7,14.8z"/>
		<path d="M240.3,15.7l-0.2-0.2c0.4-0.4,0.8-0.7,1.1-0.9c0.4-0.2,0.6-0.3,0.9-0.3c0.1,0,0.2,0,0.2,0.1c0,0,0.1,0.1,0.1,0.2
			c0,0.1,0,0.2-0.1,0.5c-0.1,0.3-0.2,0.6-0.2,0.8c1-1,1.7-1.5,2.2-1.5c0.1,0,0.2,0,0.3,0.1c0.1,0.1,0.1,0.2,0.1,0.4
			c0,0.2-0.1,0.5-0.2,0.9c0.5-0.5,0.9-0.8,1.2-1c0.3-0.2,0.6-0.3,0.8-0.3c0.2,0,0.3,0.1,0.4,0.1c0.1,0.1,0.1,0.2,0.1,0.4
			c0,0.1,0,0.3-0.1,0.4c0,0.2-0.2,0.7-0.4,1.5c-0.3,1-0.5,1.7-0.5,1.9c0,0.1,0.1,0.2,0.2,0.2c0.1,0,0.2,0,0.2-0.1
			c0.2-0.2,0.5-0.4,0.7-0.6l0.2,0.2c-0.1,0.1-0.2,0.2-0.5,0.4c-0.3,0.3-0.5,0.5-0.7,0.5c-0.2,0.1-0.4,0.2-0.6,0.2
			c-0.1,0-0.2-0.1-0.3-0.2c-0.1-0.1-0.1-0.3-0.1-0.5c0-0.2,0-0.4,0.1-0.7c0.1-0.3,0.2-0.8,0.5-1.8c0.2-0.7,0.3-1.1,0.3-1.2
			c0-0.1-0.1-0.2-0.2-0.2c-0.1,0-0.2,0-0.4,0.1c-0.3,0.2-0.6,0.5-0.9,0.8c-0.2,0.2-0.3,0.5-0.4,1c-0.3,1-0.5,1.8-0.6,2.4h-0.9
			l0.9-3.7c0.1-0.3,0.1-0.4,0.1-0.5c0-0.1,0-0.1,0-0.1c0,0-0.1,0-0.1,0c-0.1,0-0.3,0.1-0.5,0.3c-0.4,0.3-0.7,0.6-0.9,0.8
			c-0.2,0.3-0.3,0.7-0.5,1.2l-0.5,2h-0.9l0.7-2.9c0.2-0.8,0.3-1.3,0.3-1.4c0-0.1,0-0.1-0.1-0.1C241.1,15,240.8,15.3,240.3,15.7z"/>
		<path d="M250.9,14.3c0.4,0,0.7,0.2,1,0.5c0.3,0.3,0.4,0.8,0.4,1.3c0,0.9-0.3,1.7-0.9,2.4c-0.6,0.7-1.3,1.1-2,1.1
			c-0.4,0-0.8-0.1-1-0.4c-0.3-0.3-0.4-0.7-0.4-1.2c0-0.8,0.2-1.6,0.7-2.4C249.2,14.8,249.9,14.3,250.9,14.3z M250.3,14.8
			c-0.3,0-0.7,0.2-1,0.7c-0.3,0.5-0.5,1.2-0.5,2c0,0.5,0.1,0.9,0.3,1.2c0.1,0.2,0.3,0.3,0.6,0.3c0.3,0,0.6-0.2,0.9-0.6
			c0.4-0.5,0.5-1.2,0.5-2c0-0.6-0.1-1-0.2-1.3C250.8,14.9,250.6,14.8,250.3,14.8z"/>
		<path d="M255.5,14.3c0.4,0,0.6,0.1,0.8,0.2c0.2,0.1,0.3,0.3,0.3,0.5c0,0.1,0,0.2-0.1,0.3c-0.1,0.1-0.2,0.1-0.3,0.1
			c-0.1,0-0.1,0-0.2-0.1c-0.1,0-0.1-0.1-0.2-0.3c-0.2-0.3-0.4-0.4-0.6-0.4c-0.2,0-0.3,0.1-0.4,0.2c-0.1,0.1-0.2,0.3-0.2,0.5
			c0,0.2,0,0.3,0.1,0.5c0.1,0.2,0.3,0.4,0.6,0.8c0.4,0.5,0.7,0.9,0.7,1.4c0,0.4-0.2,0.8-0.5,1.1c-0.4,0.3-0.8,0.5-1.4,0.5
			c-0.5,0-0.8-0.1-1.1-0.3c-0.2-0.2-0.4-0.4-0.4-0.7c0-0.1,0-0.3,0.1-0.4c0.1-0.1,0.2-0.1,0.3-0.1c0.1,0,0.2,0,0.3,0.1
			c0.1,0.1,0.1,0.2,0.1,0.3c0,0,0,0.1,0,0.2c0,0.1,0,0.1,0,0.1c0,0.1,0.1,0.2,0.2,0.3c0.1,0.1,0.3,0.1,0.4,0.1c0.2,0,0.4,0,0.6-0.1
			c0.2-0.1,0.3-0.2,0.4-0.3c0.1-0.1,0.1-0.3,0.1-0.5c0-0.1,0-0.3-0.1-0.4c-0.1-0.1-0.3-0.4-0.6-0.7c-0.4-0.5-0.6-0.9-0.6-1.3
			c0-0.4,0.2-0.7,0.5-1C254.6,14.5,255,14.3,255.5,14.3z"/>
		<path d="M257.3,18.1c0.2,0,0.3,0.1,0.4,0.2c0.1,0.1,0.2,0.3,0.2,0.4c0,0.3-0.1,0.5-0.2,0.6c-0.1,0.1-0.3,0.2-0.5,0.2
			c-0.2,0-0.3-0.1-0.4-0.2c-0.1-0.1-0.2-0.3-0.2-0.4c0-0.3,0.1-0.5,0.2-0.7C257,18.2,257.1,18.1,257.3,18.1z"/>
		<path d="M262.9,18.1l0.1,0.3c-1,0.8-1.8,1.1-2.4,1.1c-0.4,0-0.6-0.1-0.8-0.4c-0.2-0.2-0.2-0.6-0.2-1c0-0.6,0.2-1.3,0.5-2
			c0.3-0.7,0.8-1.2,1.2-1.6c0.4-0.3,0.8-0.4,1.3-0.4c0.3,0,0.5,0.1,0.7,0.2c0.2,0.1,0.2,0.3,0.2,0.4c0,0.1,0,0.2-0.1,0.3
			c-0.1,0.1-0.2,0.1-0.3,0.1c-0.1,0-0.3-0.1-0.5-0.2c-0.2-0.1-0.4-0.2-0.6-0.2c-0.2,0-0.4,0.1-0.6,0.3c-0.2,0.2-0.4,0.5-0.6,1
			c-0.2,0.5-0.3,1-0.3,1.6c0,0.4,0.1,0.7,0.2,0.9c0.1,0.2,0.3,0.2,0.5,0.2C261.6,18.9,262.2,18.7,262.9,18.1z"/>
		<path d="M266.7,14.3c0.4,0,0.7,0.2,1,0.5c0.3,0.3,0.4,0.8,0.4,1.3c0,0.9-0.3,1.7-0.9,2.4c-0.6,0.7-1.3,1.1-2,1.1
			c-0.4,0-0.8-0.1-1-0.4c-0.3-0.3-0.4-0.7-0.4-1.2c0-0.8,0.2-1.6,0.7-2.4C265.1,14.8,265.8,14.3,266.7,14.3z M266.2,14.8
			c-0.3,0-0.7,0.2-1,0.7c-0.3,0.5-0.5,1.2-0.5,2c0,0.5,0.1,0.9,0.3,1.2c0.1,0.2,0.3,0.3,0.6,0.3c0.3,0,0.6-0.2,0.9-0.6
			c0.4-0.5,0.5-1.2,0.5-2c0-0.6-0.1-1-0.2-1.3C266.7,14.9,266.5,14.8,266.2,14.8z"/>
		<path d="M268.9,15.7l-0.2-0.2c0.4-0.4,0.8-0.7,1.1-0.9c0.4-0.2,0.6-0.3,0.9-0.3c0.1,0,0.2,0,0.2,0.1c0,0,0.1,0.1,0.1,0.2
			c0,0.1,0,0.2-0.1,0.5c-0.1,0.3-0.2,0.6-0.2,0.8c1-1,1.7-1.5,2.2-1.5c0.1,0,0.2,0,0.3,0.1c0.1,0.1,0.1,0.2,0.1,0.4
			c0,0.2-0.1,0.5-0.2,0.9c0.5-0.5,0.9-0.8,1.2-1c0.3-0.2,0.6-0.3,0.8-0.3c0.2,0,0.3,0.1,0.4,0.1c0.1,0.1,0.1,0.2,0.1,0.4
			c0,0.1,0,0.3-0.1,0.4c0,0.2-0.2,0.7-0.4,1.5c-0.3,1-0.5,1.7-0.5,1.9c0,0.1,0.1,0.2,0.2,0.2c0.1,0,0.2,0,0.2-0.1
			c0.2-0.2,0.5-0.4,0.7-0.6l0.2,0.2c-0.1,0.1-0.2,0.2-0.5,0.4c-0.3,0.3-0.5,0.5-0.7,0.5c-0.2,0.1-0.4,0.2-0.6,0.2
			c-0.1,0-0.2-0.1-0.3-0.2c-0.1-0.1-0.1-0.3-0.1-0.5c0-0.2,0-0.4,0.1-0.7c0.1-0.3,0.2-0.8,0.5-1.8c0.2-0.7,0.3-1.1,0.3-1.2
			c0-0.1-0.1-0.2-0.2-0.2c-0.1,0-0.2,0-0.4,0.1c-0.3,0.2-0.6,0.5-0.9,0.8c-0.2,0.2-0.3,0.5-0.4,1c-0.3,1-0.5,1.8-0.6,2.4h-0.9
			l0.9-3.7c0.1-0.3,0.1-0.4,0.1-0.5c0-0.1,0-0.1-0.1-0.1c0,0-0.1,0-0.1,0c-0.1,0-0.3,0.1-0.5,0.3c-0.4,0.3-0.7,0.6-0.9,0.8
			c-0.2,0.3-0.3,0.7-0.5,1.2l-0.5,2H269l0.7-2.9c0.2-0.8,0.3-1.3,0.3-1.4c0-0.1,0-0.1-0.1-0.1C269.7,15,269.4,15.3,268.9,15.7z"/>
	</g>
	<g>
		<g>
			<g>
				<path d="M145.2,6.8h-1l1-4.8h2c0.4,0,0.6,0,0.8,0.1c0.2,0.1,0.4,0.2,0.5,0.4c0.1,0.2,0.2,0.4,0.2,0.7c0,0.2,0,0.5-0.1,0.7
					c-0.1,0.2-0.2,0.4-0.3,0.6c-0.1,0.1-0.3,0.2-0.4,0.3c-0.2,0.1-0.4,0.1-0.6,0.2c-0.2,0-0.5,0-0.9,0h-0.6L145.2,6.8z M145.8,4.1
					h0.3c0.5,0,0.9,0,1.1-0.1c0.2-0.1,0.3-0.2,0.4-0.3c0.1-0.1,0.2-0.3,0.2-0.5c0-0.1,0-0.2-0.1-0.3c-0.1-0.1-0.1-0.1-0.2-0.2
					c-0.1,0-0.3-0.1-0.6-0.1h-0.7L145.8,4.1z"/>
				<path d="M149.4,3.3h0.9l-0.1,0.7c0.3-0.5,0.7-0.8,1.1-0.8c0.1,0,0.3,0,0.4,0.1l-0.4,0.8c-0.1,0-0.2,0-0.3,0
					c-0.2,0-0.3,0.1-0.5,0.2c-0.2,0.1-0.3,0.3-0.4,0.5c-0.1,0.2-0.2,0.5-0.3,1l-0.2,1.1h-0.9L149.4,3.3z"/>
				<path d="M151.5,5.3c0-0.7,0.2-1.2,0.6-1.6c0.4-0.4,0.8-0.6,1.4-0.6c0.5,0,0.9,0.1,1.2,0.4c0.3,0.3,0.4,0.7,0.4,1.2
					c0,0.6-0.2,1.1-0.5,1.5c-0.4,0.4-0.9,0.6-1.5,0.6c-0.3,0-0.6-0.1-0.9-0.2c-0.3-0.1-0.4-0.3-0.6-0.6
					C151.6,5.9,151.5,5.6,151.5,5.3z M154.2,4.6c0-0.2-0.1-0.4-0.2-0.5c-0.1-0.1-0.3-0.2-0.5-0.2c-0.2,0-0.4,0.1-0.5,0.2
					c-0.2,0.1-0.3,0.3-0.4,0.6c-0.1,0.2-0.1,0.5-0.1,0.7c0,0.3,0.1,0.5,0.2,0.6c0.1,0.1,0.3,0.2,0.5,0.2c0.3,0,0.5-0.1,0.7-0.3
					C154.1,5.5,154.2,5.1,154.2,4.6z"/>
				<path d="M158.7,6.8h-0.9l0.1-0.4c-0.2,0.2-0.3,0.3-0.5,0.4c-0.2,0.1-0.4,0.1-0.6,0.1c-0.4,0-0.7-0.1-0.9-0.4
					c-0.2-0.2-0.3-0.6-0.3-1.1c0-0.6,0.2-1.1,0.5-1.5c0.3-0.5,0.7-0.7,1.3-0.7c0.5,0,0.8,0.2,1.1,0.6l0.4-1.8h0.9L158.7,6.8z
					 M156.5,5.3c0,0.3,0.1,0.4,0.2,0.6c0.1,0.1,0.3,0.2,0.5,0.2c0.2,0,0.3-0.1,0.5-0.2c0.2-0.1,0.3-0.3,0.4-0.5
					c0.1-0.2,0.1-0.5,0.1-0.7c0-0.3-0.1-0.5-0.2-0.6c-0.1-0.2-0.3-0.2-0.5-0.2c-0.3,0-0.5,0.2-0.7,0.5C156.6,4.6,156.5,5,156.5,5.3z
					"/>
				<path d="M160.4,3.3h0.9l-0.5,2.1c-0.1,0.2-0.1,0.4-0.1,0.5c0,0.1,0,0.2,0.1,0.3c0.1,0.1,0.2,0.1,0.3,0.1c0.1,0,0.2,0,0.2,0
					c0.1,0,0.1-0.1,0.2-0.1c0.1-0.1,0.1-0.1,0.2-0.2c0.1-0.1,0.1-0.2,0.2-0.3c0-0.1,0.1-0.3,0.1-0.5l0.4-1.7h0.9l-0.8,3.5h-0.9
					l0.1-0.5c-0.4,0.4-0.7,0.5-1.2,0.5c-0.3,0-0.5-0.1-0.6-0.2c-0.2-0.2-0.2-0.4-0.2-0.7c0-0.1,0-0.4,0.1-0.7L160.4,3.3z"/>
				<path d="M166.1,5.4l0.9,0.1c-0.2,0.4-0.4,0.7-0.7,0.9c-0.3,0.2-0.6,0.3-1,0.3c-0.4,0-0.8-0.1-1.1-0.4c-0.3-0.3-0.4-0.6-0.4-1.1
					c0-0.4,0.1-0.7,0.2-1.1c0.2-0.3,0.4-0.6,0.7-0.8c0.3-0.2,0.7-0.3,1-0.3c0.4,0,0.7,0.1,1,0.3c0.2,0.2,0.4,0.5,0.4,0.9l-0.9,0.1
					c0-0.2-0.1-0.3-0.2-0.4c-0.1-0.1-0.2-0.1-0.4-0.1c-0.2,0-0.4,0.1-0.5,0.2c-0.2,0.1-0.3,0.3-0.4,0.6c-0.1,0.3-0.1,0.5-0.1,0.8
					c0,0.2,0,0.4,0.1,0.5c0.1,0.1,0.2,0.2,0.4,0.2c0.2,0,0.3-0.1,0.4-0.2C166,5.8,166.1,5.7,166.1,5.4z"/>
				<path d="M167.8,4l0.1-0.7h0.5l0.1-0.6l1.1-0.7l-0.2,1.2h0.6L169.8,4h-0.6l-0.3,1.5c-0.1,0.3-0.1,0.4-0.1,0.5
					c0,0.1,0,0.1,0.1,0.2c0,0,0.1,0.1,0.3,0.1c0,0,0.1,0,0.3,0l-0.1,0.7c-0.2,0-0.3,0-0.5,0c-0.3,0-0.6-0.1-0.7-0.2
					c-0.2-0.1-0.2-0.3-0.2-0.5c0-0.1,0-0.4,0.1-0.7l0.3-1.4H167.8z"/>
				<path d="M169.7,5.8l0.9-0.1c0.1,0.2,0.2,0.3,0.3,0.4c0.1,0.1,0.3,0.1,0.5,0.1c0.2,0,0.4,0,0.5-0.1C172,6,172,5.9,172,5.8
					c0-0.1,0-0.1-0.1-0.2c0,0-0.2-0.1-0.4-0.2c-0.6-0.2-0.9-0.3-1.1-0.5c-0.2-0.2-0.3-0.4-0.3-0.7c0-0.3,0.1-0.5,0.3-0.7
					c0.3-0.3,0.7-0.4,1.3-0.4c0.5,0,0.8,0.1,1,0.2c0.2,0.2,0.4,0.4,0.4,0.7l-0.9,0.2c0-0.1-0.1-0.2-0.2-0.3
					c-0.1-0.1-0.3-0.1-0.5-0.1c-0.2,0-0.3,0-0.4,0.1c-0.1,0.1-0.1,0.1-0.1,0.2c0,0.1,0,0.2,0.1,0.2c0.1,0,0.2,0.1,0.5,0.2
					c0.5,0.1,0.8,0.3,0.9,0.4c0.2,0.2,0.3,0.4,0.3,0.7c0,0.3-0.1,0.6-0.4,0.9c-0.3,0.2-0.7,0.4-1.2,0.4c-0.5,0-0.9-0.1-1.2-0.3
					C170,6.4,169.8,6.1,169.7,5.8z"/>
				<path d="M177.8,6.8h-1l0.4-1.9l-1.3-3h1.1l0.6,1.4c0.1,0.3,0.2,0.6,0.3,0.7c0.1-0.1,0.2-0.3,0.3-0.5l0.5-0.6l0.7-1h1.2L178.1,5
					L177.8,6.8z"/>
				<path d="M179.7,5.3c0-0.7,0.2-1.2,0.6-1.6c0.4-0.4,0.8-0.6,1.4-0.6c0.5,0,0.9,0.1,1.2,0.4c0.3,0.3,0.4,0.7,0.4,1.2
					c0,0.6-0.2,1.1-0.5,1.5c-0.4,0.4-0.8,0.6-1.5,0.6c-0.3,0-0.6-0.1-0.9-0.2c-0.3-0.1-0.4-0.3-0.6-0.6
					C179.8,5.9,179.7,5.6,179.7,5.3z M182.4,4.6c0-0.2-0.1-0.4-0.2-0.5c-0.1-0.1-0.3-0.2-0.5-0.2c-0.2,0-0.4,0.1-0.5,0.2
					c-0.2,0.1-0.3,0.3-0.4,0.6c-0.1,0.2-0.1,0.5-0.1,0.7c0,0.3,0.1,0.5,0.2,0.6c0.1,0.1,0.3,0.2,0.5,0.2c0.3,0,0.5-0.1,0.7-0.3
					C182.3,5.5,182.4,5.1,182.4,4.6z"/>
				<path d="M184.5,3.3h0.9L185,5.3c-0.1,0.2-0.1,0.4-0.1,0.5c0,0.1,0,0.2,0.1,0.3c0.1,0.1,0.2,0.1,0.3,0.1c0.1,0,0.1,0,0.2,0
					c0.1,0,0.2-0.1,0.2-0.1c0.1-0.1,0.1-0.1,0.2-0.2c0.1-0.1,0.1-0.2,0.2-0.3c0-0.1,0.1-0.3,0.1-0.5l0.4-1.7h0.9l-0.8,3.5h-0.9
					l0.1-0.5c-0.4,0.4-0.7,0.5-1.2,0.5c-0.3,0-0.5-0.1-0.6-0.2c-0.2-0.2-0.2-0.4-0.2-0.7c0-0.1,0-0.4,0.1-0.7L184.5,3.3z"/>
				<path d="M188.8,1.9h1l-0.2,0.8c-0.1,0.4-0.2,0.7-0.4,0.9c-0.2,0.2-0.5,0.3-0.8,0.3l0.1-0.4c0.2,0,0.3-0.1,0.4-0.2
					c0.1-0.1,0.1-0.2,0.2-0.4h-0.4L188.8,1.9z"/>
				<path d="M190.4,3.3h0.9l-0.1,0.7c0.3-0.5,0.7-0.8,1.1-0.8c0.1,0,0.3,0,0.4,0.1l-0.4,0.8c-0.1,0-0.2,0-0.3,0
					c-0.2,0-0.3,0.1-0.5,0.2c-0.2,0.1-0.3,0.3-0.4,0.5c-0.1,0.2-0.2,0.5-0.3,1l-0.2,1.1h-0.9L190.4,3.3z"/>
				<path d="M195.8,5.3h-2.4c0,0,0,0.1,0,0.1c0,0.2,0.1,0.4,0.2,0.6c0.1,0.1,0.3,0.2,0.5,0.2c0.3,0,0.6-0.2,0.7-0.5l0.9,0.1
					c-0.2,0.3-0.4,0.6-0.7,0.8c-0.3,0.2-0.6,0.3-0.9,0.3c-0.5,0-0.9-0.1-1.2-0.4c-0.3-0.3-0.4-0.7-0.4-1.2c0-0.5,0.1-0.9,0.4-1.3
					c0.4-0.5,0.9-0.8,1.6-0.8c0.4,0,0.8,0.1,1,0.4c0.3,0.3,0.4,0.6,0.4,1.1C195.8,4.9,195.8,5.1,195.8,5.3z M195,4.7
					C195,4.7,195,4.7,195,4.7c0-0.4-0.1-0.6-0.2-0.7c-0.1-0.1-0.3-0.2-0.5-0.2c-0.2,0-0.4,0.1-0.5,0.2c-0.2,0.1-0.3,0.4-0.3,0.7H195
					z"/>
				<path fill="#FBED1F" d="M199,6.8h-1l1-4.8h2c0.4,0,0.6,0,0.8,0.1c0.2,0.1,0.4,0.2,0.5,0.4c0.1,0.2,0.2,0.4,0.2,0.7
					c0,0.2,0,0.5-0.1,0.7c-0.1,0.2-0.2,0.4-0.3,0.6c-0.1,0.1-0.3,0.2-0.4,0.3c-0.2,0.1-0.4,0.1-0.6,0.2c-0.2,0-0.4,0-0.9,0h-0.6
					L199,6.8z M199.6,4.1h0.3c0.5,0,0.9,0,1.1-0.1c0.2-0.1,0.3-0.2,0.4-0.3c0.1-0.1,0.2-0.3,0.2-0.5c0-0.1,0-0.2-0.1-0.3
					c-0.1-0.1-0.1-0.1-0.2-0.2c-0.1,0-0.3-0.1-0.6-0.1h-0.7L199.6,4.1z"/>
				<path fill="#FBED1F" d="M203.2,3.3h0.9L204,3.9c0.3-0.5,0.7-0.8,1.1-0.8c0.1,0,0.3,0,0.4,0.1l-0.4,0.8c-0.1,0-0.2,0-0.3,0
					c-0.2,0-0.3,0.1-0.5,0.2c-0.2,0.1-0.3,0.3-0.4,0.5c-0.1,0.2-0.2,0.5-0.3,1l-0.2,1.1h-0.9L203.2,3.3z"/>
				<path fill="#FBED1F" d="M205.3,5.3c0-0.7,0.2-1.2,0.6-1.6c0.4-0.4,0.8-0.6,1.4-0.6c0.5,0,0.9,0.1,1.2,0.4
					c0.3,0.3,0.4,0.7,0.4,1.2c0,0.6-0.2,1.1-0.5,1.5c-0.4,0.4-0.9,0.6-1.5,0.6c-0.3,0-0.6-0.1-0.9-0.2c-0.3-0.1-0.4-0.3-0.6-0.6
					C205.4,5.9,205.3,5.6,205.3,5.3z M208,4.6c0-0.2-0.1-0.4-0.2-0.5c-0.1-0.1-0.3-0.2-0.5-0.2c-0.2,0-0.4,0.1-0.5,0.2
					c-0.2,0.1-0.3,0.3-0.4,0.6c-0.1,0.2-0.1,0.5-0.1,0.7c0,0.3,0.1,0.5,0.2,0.6c0.1,0.1,0.3,0.2,0.5,0.2c0.3,0,0.5-0.1,0.7-0.3
					C207.9,5.5,208,5.1,208,4.6z"/>
				<path fill="#FBED1F" d="M210.1,3.3h1l-0.5,2.1c-0.1,0.2-0.1,0.4-0.1,0.5c0,0.1,0,0.2,0.1,0.3c0.1,0.1,0.2,0.1,0.3,0.1
					c0.1,0,0.1,0,0.2,0c0.1,0,0.1-0.1,0.2-0.1c0.1-0.1,0.1-0.1,0.2-0.2c0.1-0.1,0.1-0.2,0.2-0.3c0-0.1,0.1-0.3,0.1-0.5l0.4-1.7h0.9
					l-0.8,3.5h-0.9l0.1-0.5c-0.4,0.4-0.7,0.5-1.2,0.5c-0.3,0-0.5-0.1-0.6-0.2c-0.2-0.2-0.2-0.4-0.2-0.7c0-0.1,0-0.4,0.1-0.7
					L210.1,3.3z"/>
				<path fill="#FBED1F" d="M216.7,6.8h-0.9l0.1-0.4c-0.2,0.2-0.3,0.3-0.5,0.4c-0.2,0.1-0.4,0.1-0.6,0.1c-0.4,0-0.7-0.1-0.9-0.4
					c-0.2-0.2-0.3-0.6-0.3-1.1c0-0.6,0.2-1.1,0.5-1.5c0.3-0.5,0.7-0.7,1.3-0.7c0.5,0,0.8,0.2,1.1,0.6l0.4-1.8h0.9L216.7,6.8z
					 M214.5,5.3c0,0.3,0.1,0.4,0.2,0.6c0.1,0.1,0.3,0.2,0.5,0.2c0.2,0,0.3-0.1,0.5-0.2c0.1-0.1,0.3-0.3,0.4-0.5
					c0.1-0.2,0.1-0.5,0.1-0.7c0-0.3-0.1-0.5-0.2-0.6c-0.1-0.2-0.3-0.2-0.5-0.2c-0.3,0-0.5,0.2-0.7,0.5C214.6,4.6,214.5,5,214.5,5.3z
					"/>
				<path d="M221.6,6.8h-1l0.8-4H220l0.2-0.8h3.8l-0.2,0.8h-1.4L221.6,6.8z"/>
				<path d="M223.5,5.3c0-0.7,0.2-1.2,0.5-1.6c0.4-0.4,0.8-0.6,1.4-0.6c0.5,0,0.9,0.1,1.2,0.4c0.3,0.3,0.4,0.7,0.4,1.2
					c0,0.6-0.2,1.1-0.5,1.5c-0.4,0.4-0.9,0.6-1.5,0.6c-0.3,0-0.6-0.1-0.9-0.2c-0.3-0.1-0.4-0.3-0.6-0.6
					C223.5,5.9,223.5,5.6,223.5,5.3z M226.2,4.6c0-0.2-0.1-0.4-0.2-0.5c-0.1-0.1-0.3-0.2-0.5-0.2c-0.2,0-0.4,0.1-0.5,0.2
					c-0.2,0.1-0.3,0.3-0.4,0.6c-0.1,0.2-0.1,0.5-0.1,0.7c0,0.3,0.1,0.5,0.2,0.6c0.1,0.1,0.3,0.2,0.5,0.2c0.3,0,0.5-0.1,0.7-0.3
					C226,5.5,226.2,5.1,226.2,4.6z"/>
				<path d="M230.3,6.8h-1l1-4.8h2c0.4,0,0.6,0,0.8,0.1c0.2,0.1,0.4,0.2,0.5,0.4c0.1,0.2,0.2,0.4,0.2,0.7c0,0.2,0,0.5-0.1,0.7
					c-0.1,0.2-0.2,0.4-0.3,0.6c-0.1,0.1-0.3,0.2-0.4,0.3c-0.2,0.1-0.4,0.1-0.6,0.2c-0.2,0-0.4,0-0.9,0h-0.6L230.3,6.8z M230.9,4.1
					h0.3c0.5,0,0.9,0,1.1-0.1c0.2-0.1,0.3-0.2,0.4-0.3c0.1-0.1,0.2-0.3,0.2-0.5c0-0.1,0-0.2-0.1-0.3c-0.1-0.1-0.1-0.1-0.2-0.2
					c-0.1,0-0.3-0.1-0.6-0.1h-0.7L230.9,4.1z"/>
				<path d="M234.6,3.3h1l-0.5,2.1c-0.1,0.2-0.1,0.4-0.1,0.5c0,0.1,0,0.2,0.1,0.3c0.1,0.1,0.2,0.1,0.3,0.1c0.1,0,0.1,0,0.2,0
					c0.1,0,0.2-0.1,0.2-0.1c0.1-0.1,0.1-0.1,0.2-0.2c0.1-0.1,0.1-0.2,0.2-0.3c0-0.1,0.1-0.3,0.1-0.5l0.4-1.7h0.9l-0.8,3.5H236
					l0.1-0.5c-0.4,0.4-0.7,0.5-1.2,0.5c-0.3,0-0.5-0.1-0.6-0.2c-0.2-0.2-0.2-0.4-0.2-0.7c0-0.1,0-0.4,0.1-0.7L234.6,3.3z"/>
				<path d="M238.2,4l0.1-0.7h0.5l0.1-0.6L240,2l-0.2,1.2h0.6L240.2,4h-0.6l-0.3,1.5c-0.1,0.3-0.1,0.4-0.1,0.5c0,0.1,0,0.1,0.1,0.2
					c0,0,0.1,0.1,0.3,0.1c0,0,0.1,0,0.3,0l-0.1,0.7c-0.2,0-0.3,0-0.5,0c-0.3,0-0.6-0.1-0.7-0.2c-0.2-0.1-0.2-0.3-0.2-0.5
					c0-0.1,0-0.4,0.1-0.7l0.3-1.4H238.2z"/>
				<path d="M244.5,6.8h-1l0.4-1.9l-1.3-3h1.1l0.6,1.4c0.1,0.3,0.2,0.6,0.3,0.7c0.1-0.1,0.2-0.3,0.3-0.5l0.5-0.6l0.7-1h1.2L244.8,5
					L244.5,6.8z"/>
				<path d="M246.4,5.3c0-0.7,0.2-1.2,0.5-1.6c0.4-0.4,0.8-0.6,1.4-0.6c0.5,0,0.9,0.1,1.2,0.4c0.3,0.3,0.4,0.7,0.4,1.2
					c0,0.6-0.2,1.1-0.5,1.5c-0.4,0.4-0.8,0.6-1.5,0.6c-0.3,0-0.6-0.1-0.9-0.2c-0.3-0.1-0.4-0.3-0.6-0.6
					C246.5,5.9,246.4,5.6,246.4,5.3z M249.1,4.6c0-0.2-0.1-0.4-0.2-0.5c-0.1-0.1-0.3-0.2-0.5-0.2c-0.2,0-0.4,0.1-0.5,0.2
					c-0.2,0.1-0.3,0.3-0.4,0.6c-0.1,0.2-0.1,0.5-0.1,0.7c0,0.3,0.1,0.5,0.2,0.6c0.1,0.1,0.3,0.2,0.5,0.2c0.3,0,0.5-0.1,0.7-0.3
					C249,5.5,249.1,5.1,249.1,4.6z"/>
				<path d="M251.2,3.3h1l-0.5,2.1c-0.1,0.2-0.1,0.4-0.1,0.5c0,0.1,0,0.2,0.1,0.3c0.1,0.1,0.2,0.1,0.3,0.1c0.1,0,0.2,0,0.2,0
					c0.1,0,0.1-0.1,0.2-0.1c0.1-0.1,0.1-0.1,0.2-0.2c0.1-0.1,0.1-0.2,0.2-0.3c0-0.1,0.1-0.3,0.1-0.5l0.4-1.7h0.9l-0.8,3.5h-0.9
					l0.1-0.5c-0.4,0.4-0.8,0.5-1.2,0.5c-0.3,0-0.5-0.1-0.6-0.2c-0.2-0.2-0.2-0.4-0.2-0.7c0-0.1,0-0.4,0.1-0.7L251.2,3.3z"/>
				<path d="M255.2,3.3h0.9L256,3.9c0.3-0.5,0.7-0.8,1.1-0.8c0.1,0,0.3,0,0.4,0.1l-0.4,0.8c-0.1,0-0.2,0-0.3,0
					c-0.2,0-0.3,0.1-0.5,0.2c-0.2,0.1-0.3,0.3-0.4,0.5c-0.1,0.2-0.2,0.5-0.3,1l-0.2,1.1h-0.9L255.2,3.3z"/>
				<path d="M262.9,6.8H262l-1.3-3.3L260,6.8h-0.9l1-4.8h0.9l1.3,3.2l0.7-3.2h0.9L262.9,6.8z"/>
				<path d="M265.3,4.2l-0.9-0.1c0.1-0.3,0.3-0.6,0.6-0.7c0.3-0.2,0.6-0.3,1-0.3c0.5,0,0.8,0.1,1,0.3c0.2,0.2,0.3,0.4,0.3,0.7
					c0,0.1,0,0.2,0,0.3c0,0.1-0.1,0.4-0.2,0.9c-0.1,0.4-0.1,0.7-0.1,0.9c0,0.1,0,0.3,0.1,0.5h-0.9c0-0.1-0.1-0.3-0.1-0.4
					c-0.1,0.2-0.3,0.3-0.5,0.4c-0.2,0.1-0.4,0.1-0.5,0.1c-0.3,0-0.5-0.1-0.7-0.3c-0.2-0.2-0.3-0.4-0.3-0.7c0-0.3,0.1-0.6,0.3-0.8
					c0.2-0.2,0.6-0.3,1.1-0.4c0.5,0,0.8-0.1,0.9-0.1c0-0.1,0.1-0.2,0.1-0.3c0-0.1,0-0.2-0.1-0.3c-0.1-0.1-0.2-0.1-0.4-0.1
					c-0.2,0-0.3,0-0.4,0.1C265.4,4,265.3,4.1,265.3,4.2z M266.2,5.1c-0.1,0-0.1,0-0.2,0c-0.5,0.1-0.8,0.1-0.9,0.3
					c-0.1,0.1-0.2,0.2-0.2,0.3c0,0.1,0,0.2,0.1,0.3c0.1,0.1,0.2,0.1,0.3,0.1c0.1,0,0.3,0,0.4-0.1c0.1-0.1,0.2-0.2,0.3-0.3
					c0.1-0.1,0.1-0.3,0.2-0.5L266.2,5.1z"/>
				<path d="M268.4,3.3h0.9l-0.1,0.4c0.3-0.3,0.7-0.5,1.1-0.5c0.3,0,0.5,0.1,0.6,0.2c0.1,0.1,0.2,0.3,0.3,0.5
					c0.1-0.2,0.3-0.3,0.5-0.4c0.2-0.1,0.5-0.2,0.7-0.2c0.3,0,0.5,0.1,0.7,0.2c0.2,0.2,0.2,0.4,0.2,0.6c0,0.1,0,0.3-0.1,0.6l-0.5,2.1
					h-0.9l0.5-2.1c0.1-0.3,0.1-0.4,0.1-0.5c0-0.1,0-0.2-0.1-0.2c-0.1-0.1-0.2-0.1-0.3-0.1c-0.2,0-0.5,0.1-0.6,0.4
					c-0.1,0.2-0.3,0.5-0.3,1l-0.3,1.6h-0.9l0.4-2.1c0.1-0.2,0.1-0.4,0.1-0.5c0-0.1,0-0.2-0.1-0.2c-0.1-0.1-0.1-0.1-0.3-0.1
					c-0.1,0-0.2,0-0.3,0.1c-0.1,0.1-0.2,0.1-0.3,0.3c-0.1,0.1-0.2,0.2-0.2,0.4c0,0.1-0.1,0.3-0.1,0.5l-0.3,1.6h-0.9L268.4,3.3z"/>
				<path d="M277.2,5.3h-2.4c0,0,0,0.1,0,0.1c0,0.2,0.1,0.4,0.2,0.6c0.1,0.1,0.3,0.2,0.5,0.2c0.3,0,0.6-0.2,0.7-0.5l0.9,0.1
					c-0.2,0.3-0.4,0.6-0.7,0.8c-0.3,0.2-0.6,0.3-0.9,0.3c-0.5,0-0.9-0.1-1.2-0.4c-0.3-0.3-0.4-0.7-0.4-1.2c0-0.5,0.1-0.9,0.4-1.3
					c0.4-0.5,0.9-0.8,1.6-0.8c0.4,0,0.8,0.1,1,0.4c0.3,0.3,0.4,0.6,0.4,1.1C277.2,4.9,277.2,5.1,277.2,5.3z M276.4,4.7
					C276.4,4.7,276.4,4.7,276.4,4.7c0-0.4-0.1-0.6-0.2-0.7c-0.1-0.1-0.3-0.2-0.5-0.2c-0.2,0-0.4,0.1-0.5,0.2
					c-0.2,0.1-0.3,0.4-0.3,0.7H276.4z"/>
				<path d="M279.7,4.9c0-0.3,0-0.6,0.1-0.9c0.1-0.4,0.3-0.8,0.5-1.1c0.2-0.3,0.5-0.6,0.9-0.7c0.4-0.2,0.8-0.3,1.2-0.3
					c0.6,0,1.1,0.2,1.5,0.6c0.4,0.4,0.6,0.9,0.6,1.5c0,0.5-0.1,1-0.4,1.5c-0.2,0.5-0.6,0.8-1,1.1c-0.4,0.3-0.9,0.4-1.4,0.4
					c-0.5,0-0.8-0.1-1.1-0.3c-0.3-0.2-0.5-0.5-0.7-0.8C279.8,5.5,279.7,5.2,279.7,4.9z M280.7,4.8c0,0.3,0.1,0.6,0.3,0.8
					c0.2,0.2,0.5,0.3,0.8,0.3c0.3,0,0.5-0.1,0.8-0.3c0.2-0.2,0.5-0.4,0.6-0.8c0.2-0.4,0.2-0.7,0.2-1.1c0-0.4-0.1-0.7-0.3-0.9
					c-0.2-0.2-0.5-0.3-0.8-0.3c-0.5,0-0.9,0.2-1.2,0.7C280.8,3.8,280.7,4.3,280.7,4.8z"/>
				<path d="M285.4,3.3h0.9l-0.1,0.5c0.2-0.2,0.4-0.3,0.6-0.4c0.2-0.1,0.4-0.1,0.6-0.1c0.3,0,0.5,0.1,0.7,0.2
					c0.2,0.2,0.2,0.4,0.2,0.7c0,0.1,0,0.4-0.1,0.7l-0.4,2h-0.9l0.4-2c0.1-0.3,0.1-0.5,0.1-0.5c0-0.1,0-0.2-0.1-0.3
					c-0.1-0.1-0.2-0.1-0.3-0.1c-0.1,0-0.3,0.1-0.5,0.2c-0.2,0.1-0.3,0.3-0.4,0.5c-0.1,0.1-0.2,0.4-0.2,0.8l-0.3,1.4h-0.9L285.4,3.3z
					"/>
			</g>
		</g>
		<g>
			<path d="M289.8,2.9V1.3h-0.6V1h1.5v0.3h-0.6v1.6H289.8z"/>
			<path d="M291,2.9V1h0.6l0.3,1.3l0.3-1.3h0.6v1.9h-0.4V1.4l-0.4,1.5h-0.4l-0.4-1.5v1.5H291z"/>
		</g>
	</g>
	<g>
		<ellipse fill="#FBED1F" cx="68" cy="42.6" rx="4.4" ry="4.3"/>
		<path fill-rule="evenodd" clip-rule="evenodd" d="M20.1,11.2l0.3-1c2.1-0.2,3.9-0.5,5.4-0.9c-0.4,1-0.8,2.4-1.2,4L23,19.5l2,0.1
			c0.9,0,1.9-0.2,3.1-0.7c1.1-0.5,2.1-1.4,2.9-2.7c0.9-1.3,1.3-2.7,1.3-4.2c0-1.5-0.5-2.6-1.6-3.5c-1.1-0.9-2.7-1.3-4.8-1.3
			c-2.5,0-4.9,0.6-7.3,1.8c-2.4,1.2-4.2,2.8-5.5,4.7c-1.3,1.9-1.9,3.8-1.9,5.7c0,0.9,0.2,1.7,0.5,2.4c0.3,0.7,0.9,1.3,1.8,2
			c0.7,0.5,1.1,1,1.1,1.5c0,0.3-0.1,0.6-0.4,0.8c-0.2,0.2-0.5,0.3-0.8,0.3c-0.9,0-1.7-0.6-2.5-1.8c-0.8-1.2-1.2-2.7-1.2-4.5
			c0-3.3,1.3-6.3,3.8-9.1c3.3-3.6,7.8-5.4,13.4-5.4c2.1,0,3.9,0.3,5.2,0.8c1.4,0.6,2.4,1.3,3.1,2.3c0.7,1,1,2,1,3.1
			c0,1.4-0.5,2.8-1.4,4.2c-1,1.4-2.4,2.5-4.2,3.3c-1.9,0.8-3.9,1.3-6.2,1.3c-0.3,0-0.9,0-1.6-0.1l-1.7,6.8c-0.3,1.2-0.6,2.3-1,3.4
			c1.1,0.3,2.1,0.4,3,0.4c1.1,0,2.2-0.2,3.4-0.6l-0.3,1.2c-1.1,0.3-2.1,0.5-2.9,0.5c-0.8,0-1.9-0.1-3.3-0.2
			c-1.2-0.1-2.1-0.2-2.8-0.2c-1.4,0-2.9,0.2-4.4,0.5l0.3-1.2c1.5-0.2,2.6-0.6,3.1-1.1c0.8-0.7,1.4-2,1.9-4l3.3-13.1
			c0.1-0.6,0.2-1,0.2-1.3c0-0.2-0.1-0.4-0.3-0.6c-0.2-0.2-0.4-0.3-0.7-0.3C20.4,11.2,20.3,11.2,20.1,11.2L20.1,11.2z"/>
		<path fill-rule="evenodd" clip-rule="evenodd" d="M44.3,13.5l0.4,0.5c-1.8,1.7-3.3,2.5-4.5,2.5c-0.5,0-0.9-0.2-1.2-0.5
			c-0.3-0.3-0.4-0.9-0.4-1.7c0-1.5,0.5-3.1,1.4-4.6c1-1.7,2.3-2.6,3.8-2.6c0.5,0,0.9,0.1,1.2,0.4c0.3,0.3,0.4,0.6,0.4,1
			c0,0.5-0.2,0.9-0.5,1.4c-0.3,0.5-0.9,0.9-1.7,1.4c-0.4,0.2-1.3,0.7-2.7,1.3c-0.1,0.4-0.1,0.8-0.1,1.1c0,0.5,0.1,0.9,0.2,1.1
			c0.2,0.2,0.4,0.3,0.7,0.3c0.3,0,0.6-0.1,1-0.2C42.7,14.6,43.4,14.1,44.3,13.5L44.3,13.5z M40.5,11.9c1.2-0.5,2-1.1,2.6-1.7
			c0.4-0.4,0.6-0.8,0.6-1.2c0-0.3-0.1-0.6-0.2-0.7C43.3,8.1,43.1,8,42.8,8c-0.3,0-0.5,0.1-0.8,0.3c-0.3,0.3-0.6,0.7-0.8,1.2
			C40.9,10.3,40.7,11.1,40.5,11.9L40.5,11.9z"/>
		<path fill-rule="evenodd" clip-rule="evenodd" d="M48.1,16.2h-1.6l0.8-2.9c0.4-1.4,0.7-2.8,1-4c0.1-0.3,0.1-0.5,0.1-0.6
			c0-0.2-0.1-0.3-0.2-0.3c-0.1,0-0.3,0.1-0.5,0.2c-0.2,0.1-0.6,0.5-1.2,1.1L46,9.3c0.7-0.7,1.4-1.3,2.1-1.7c0.7-0.4,1.2-0.6,1.6-0.6
			c0.1,0,0.2,0,0.3,0.1c0.1,0.1,0.1,0.1,0.1,0.2c0,0.1,0,0.3-0.1,0.7l-0.5,1.9C50.2,8.9,51,8,51.9,7.2c0.4-0.4,0.8-0.6,1.1-0.6
			c0.2,0,0.4,0.1,0.5,0.2c0.1,0.1,0.2,0.3,0.2,0.5c0,0.2-0.1,0.4-0.2,0.5c-0.1,0.1-0.5,0.3-1,0.5c-0.5,0.2-1,0.4-1.3,0.6
			c-0.3,0.3-0.7,0.6-1.1,1.2c-0.4,0.5-0.7,1-0.8,1.3c-0.2,0.4-0.4,1.3-0.7,2.7L48.1,16.2L48.1,16.2z"/>
		<path fill-rule="evenodd" clip-rule="evenodd" d="M54.4,7.8H57c0.4-1.8,0.9-3.1,1.4-4C59,3,59.7,2.3,60.6,1.8
			C61.5,1.3,62.3,1,63.1,1c0.4,0,0.8,0.1,1,0.3c0.2,0.2,0.3,0.4,0.3,0.6c0,0.2-0.1,0.4-0.2,0.5c-0.1,0.1-0.3,0.2-0.6,0.2
			c-0.3,0-0.7-0.1-1.4-0.2c-0.3-0.1-0.6-0.1-0.8-0.1c-0.5,0-0.9,0.3-1.3,0.9c-0.4,0.6-0.7,1.4-0.9,2.4l-0.5,2.3h2.8l-0.2,0.8h-2.9
			l-1.7,6.9c-0.5,2.1-1.4,3.7-2.5,4.7c-1.1,1.1-2.4,1.6-3.7,1.6c-0.5,0-0.8-0.1-1-0.3c-0.2-0.2-0.4-0.4-0.4-0.6
			c0-0.2,0.1-0.4,0.2-0.5c0.2-0.1,0.4-0.2,0.7-0.2c0.1,0,0.4,0,0.7,0.1c0.5,0.1,1,0.1,1.4,0.1c0.7,0,1.2-0.2,1.5-0.5
			c0.3-0.3,0.6-1.1,1-2.4l2.2-8.8h-2.6L54.4,7.8L54.4,7.8z"/>
		<path fill-rule="evenodd" clip-rule="evenodd" d="M66.7,13.5l0.4,0.5c-1.8,1.7-3.3,2.5-4.5,2.5c-0.5,0-0.9-0.2-1.2-0.5
			C61.2,15.6,61,15,61,14.3c0-1.5,0.5-3.1,1.4-4.6c1-1.7,2.3-2.6,3.7-2.6c0.5,0,0.9,0.1,1.2,0.4c0.3,0.3,0.4,0.6,0.4,1
			c0,0.5-0.2,0.9-0.5,1.4c-0.3,0.5-0.9,0.9-1.7,1.4c-0.4,0.2-1.3,0.7-2.7,1.3c-0.1,0.4-0.1,0.8-0.1,1.1c0,0.5,0.1,0.9,0.2,1.1
			c0.2,0.2,0.4,0.3,0.7,0.3c0.3,0,0.6-0.1,1-0.2C65.1,14.6,65.8,14.1,66.7,13.5L66.7,13.5z M63,11.9c1.1-0.5,2-1.1,2.6-1.7
			C66,9.8,66.2,9.4,66.2,9c0-0.3-0.1-0.6-0.2-0.7C65.8,8.1,65.6,8,65.3,8c-0.3,0-0.5,0.1-0.8,0.3c-0.3,0.3-0.6,0.7-0.8,1.2
			C63.4,10.3,63.1,11.1,63,11.9L63,11.9z"/>
		<path fill-rule="evenodd" clip-rule="evenodd" d="M74.5,13.8l0.2,0.6c-1.7,1.3-3.1,2-4.3,2c-0.6,0-1.1-0.2-1.4-0.7
			c-0.3-0.4-0.4-1-0.4-1.7c0-1.1,0.3-2.3,0.9-3.5c0.6-1.2,1.3-2.1,2.2-2.7c0.7-0.5,1.4-0.7,2.3-0.7c0.5,0,0.9,0.1,1.2,0.3
			c0.3,0.2,0.4,0.4,0.4,0.7c0,0.2-0.1,0.4-0.2,0.5c-0.1,0.1-0.3,0.2-0.6,0.2c-0.2,0-0.6-0.1-1-0.3c-0.4-0.2-0.7-0.4-1-0.4
			c-0.3,0-0.7,0.2-1,0.5c-0.3,0.3-0.7,0.9-1,1.9c-0.3,0.9-0.5,1.8-0.5,2.8c0,0.7,0.1,1.2,0.4,1.6c0.2,0.3,0.5,0.4,0.8,0.4
			C72.3,15.3,73.3,14.8,74.5,13.8L74.5,13.8z"/>
		<path fill-rule="evenodd" clip-rule="evenodd" d="M79.1,5.5l1.7-0.7l-0.8,3h2.2l-0.2,0.8h-2.2l-0.9,3.6c-0.3,1.1-0.4,1.8-0.4,2.3
			c0,0.2,0,0.3,0.1,0.4c0.1,0.1,0.2,0.1,0.3,0.1c0.2,0,0.6-0.1,1-0.4c0.6-0.3,1.2-0.7,1.7-1.2l0.4,0.5c-1.6,1.2-2.6,1.9-3.1,2.2
			c-0.5,0.3-1,0.4-1.3,0.4c-0.3,0-0.5-0.1-0.6-0.3c-0.2-0.2-0.2-0.5-0.2-0.9c0-0.5,0.1-1.3,0.4-2.4l1.1-4.3h-1.7l0.2-0.8h1.7
			L79.1,5.5L79.1,5.5z"/>
		<path fill-rule="evenodd" clip-rule="evenodd" d="M31.1,32.4h-1.5l0.7-2.7c0.3-1.3,0.6-2.6,0.9-3.8c0.1-0.3,0.1-0.5,0.1-0.6
			c0-0.2-0.1-0.2-0.2-0.2c-0.1,0-0.3,0.1-0.5,0.2c-0.2,0.1-0.6,0.5-1.1,1l-0.3-0.4c0.7-0.7,1.3-1.2,1.9-1.6c0.6-0.3,1.1-0.5,1.5-0.5
			c0.1,0,0.2,0,0.3,0.1c0.1,0.1,0.1,0.1,0.1,0.2c0,0.1,0,0.3-0.1,0.7l-0.4,1.8c0.7-1.1,1.5-2,2.3-2.8c0.4-0.4,0.8-0.5,1-0.5
			c0.2,0,0.4,0.1,0.5,0.2c0.1,0.1,0.2,0.3,0.2,0.5c0,0.2-0.1,0.3-0.2,0.5c-0.1,0.1-0.5,0.3-1,0.5c-0.5,0.2-0.9,0.4-1.2,0.6
			c-0.3,0.2-0.7,0.6-1,1.1c-0.4,0.5-0.6,0.9-0.8,1.3c-0.1,0.4-0.4,1.2-0.7,2.5L31.1,32.4L31.1,32.4z"/>
		<path fill-rule="evenodd" clip-rule="evenodd" d="M40.4,23.9c0.7,0,1.2,0.3,1.6,0.8c0.4,0.5,0.7,1.3,0.7,2.2c0,1.5-0.5,2.8-1.6,4
			c-1.1,1.2-2.2,1.8-3.3,1.8c-0.7,0-1.3-0.2-1.7-0.7c-0.4-0.5-0.7-1.1-0.7-1.9c0-1.4,0.4-2.7,1.2-3.9C37.6,24.6,38.9,23.9,40.4,23.9
			L40.4,23.9z M39.6,24.6c-0.6,0-1.1,0.4-1.7,1.2c-0.5,0.8-0.8,2-0.8,3.4c0,0.9,0.2,1.6,0.5,2.1c0.2,0.4,0.6,0.6,1,0.6
			c0.6,0,1.1-0.3,1.5-1.1c0.6-0.9,0.9-2,0.9-3.4c0-1-0.1-1.7-0.4-2.2C40.3,24.8,40,24.6,39.6,24.6L39.6,24.6z"/>
		<path fill-rule="evenodd" clip-rule="evenodd" d="M44,26.2l-0.3-0.4c0.7-0.7,1.3-1.2,1.9-1.5c0.6-0.3,1.1-0.5,1.4-0.5
			c0.1,0,0.2,0,0.3,0.1c0.1,0.1,0.1,0.1,0.1,0.3c0,0.1-0.1,0.4-0.2,0.8c-0.2,0.6-0.3,1-0.3,1.3c1.6-1.6,2.9-2.5,3.7-2.5
			c0.2,0,0.4,0.1,0.5,0.2c0.1,0.1,0.2,0.3,0.2,0.6c0,0.3-0.1,0.8-0.3,1.5c0.8-0.8,1.4-1.4,2-1.7c0.6-0.3,1-0.5,1.3-0.5
			c0.3,0,0.5,0.1,0.7,0.2c0.2,0.2,0.2,0.4,0.2,0.7c0,0.2,0,0.4-0.1,0.7c-0.1,0.3-0.3,1.1-0.7,2.5c-0.5,1.7-0.8,2.8-0.8,3.1
			c0,0.2,0.1,0.3,0.3,0.3c0.1,0,0.3,0,0.4-0.1c0.4-0.3,0.8-0.6,1.2-1.1l0.3,0.4c-0.1,0.1-0.4,0.4-0.8,0.7c-0.5,0.5-0.9,0.8-1.1,0.9
			c-0.4,0.2-0.7,0.3-1,0.3c-0.2,0-0.4-0.1-0.5-0.3c-0.2-0.2-0.2-0.5-0.2-0.8c0-0.3,0-0.7,0.1-1.1c0.1-0.4,0.4-1.4,0.8-2.9
			c0.3-1.1,0.5-1.8,0.5-2.1c0-0.2-0.1-0.3-0.3-0.3c-0.2,0-0.4,0.1-0.7,0.3c-0.6,0.3-1.1,0.8-1.5,1.3c-0.3,0.3-0.5,0.9-0.7,1.7
			c-0.5,1.7-0.8,3-1,4.1H48l1.5-6.2c0.1-0.4,0.2-0.7,0.2-0.8c0-0.1,0-0.2-0.1-0.2c-0.1-0.1-0.1-0.1-0.2-0.1c-0.2,0-0.5,0.1-0.9,0.4
			c-0.7,0.5-1.1,0.9-1.4,1.4c-0.3,0.4-0.5,1.1-0.8,2.1l-0.8,3.4h-1.4l1.1-4.8c0.3-1.4,0.5-2.2,0.5-2.3c0-0.2-0.1-0.2-0.2-0.2
			C45.3,25,44.8,25.4,44,26.2L44,26.2z"/>
		<path fill-rule="evenodd" clip-rule="evenodd" d="M61.6,23.9c0.7,0,1.2,0.3,1.7,0.8c0.4,0.5,0.7,1.3,0.7,2.2c0,1.5-0.5,2.8-1.6,4
			c-1.1,1.2-2.2,1.8-3.3,1.8c-0.7,0-1.3-0.2-1.7-0.7c-0.4-0.5-0.7-1.1-0.7-1.9c0-1.4,0.4-2.7,1.2-3.9C58.8,24.6,60.1,23.9,61.6,23.9
			L61.6,23.9z M60.7,24.6c-0.6,0-1.1,0.4-1.7,1.2c-0.5,0.8-0.8,2-0.8,3.4c0,0.9,0.2,1.6,0.5,2.1c0.2,0.4,0.6,0.6,1,0.6
			c0.6,0,1.1-0.3,1.6-1.1c0.6-0.9,0.9-2,0.9-3.4c0-1-0.1-1.7-0.4-2.2C61.5,24.8,61.1,24.6,60.7,24.6L60.7,24.6z"/>
		<path fill-rule="evenodd" clip-rule="evenodd" d="M67.7,22.3l1.6-0.6l-0.7,2.8h2.1l-0.2,0.7h-2.1l-0.9,3.4c-0.3,1-0.4,1.7-0.4,2.1
			c0,0.2,0,0.3,0.1,0.4c0.1,0.1,0.2,0.1,0.3,0.1c0.2,0,0.5-0.1,1-0.4c0.6-0.3,1.1-0.7,1.6-1.1l0.4,0.5c-1.5,1.1-2.5,1.8-3,2
			c-0.5,0.2-0.9,0.4-1.2,0.4c-0.3,0-0.5-0.1-0.6-0.3c-0.1-0.2-0.2-0.5-0.2-0.9c0-0.5,0.1-1.2,0.4-2.2l1-4h-1.6l0.2-0.7h1.6
			L67.7,22.3L67.7,22.3z"/>
		<path fill-rule="evenodd" clip-rule="evenodd" d="M75.6,19.5c0.2,0,0.4,0.1,0.5,0.2c0.1,0.1,0.2,0.3,0.2,0.5
			c0,0.3-0.1,0.6-0.3,0.8c-0.2,0.2-0.4,0.3-0.7,0.3c-0.2,0-0.4-0.1-0.5-0.2c-0.1-0.1-0.2-0.3-0.2-0.6c0-0.3,0.1-0.6,0.3-0.8
			C75,19.6,75.3,19.5,75.6,19.5L75.6,19.5z M71.6,26.2l-0.4-0.3c0.7-0.7,1.3-1.3,1.8-1.6c0.6-0.3,1-0.5,1.4-0.5c0.2,0,0.4,0,0.5,0.1
			c0.1,0.1,0.2,0.2,0.2,0.4c0,0.2-0.2,1-0.7,2.5c-0.7,2.4-1.1,3.8-1.1,4.3c0,0.1,0,0.2,0.1,0.2c0,0.1,0.1,0.1,0.2,0.1
			c0.2,0,0.8-0.4,1.7-1.3l0.4,0.4c-0.9,0.9-1.6,1.4-2,1.7c-0.4,0.2-0.8,0.4-1,0.4c-0.2,0-0.4-0.1-0.6-0.2c-0.1-0.1-0.2-0.4-0.2-0.6
			c0-0.8,0.5-2.9,1.5-6.2c0-0.2,0.1-0.3,0.1-0.4c0-0.1-0.1-0.2-0.2-0.2c-0.1,0-0.3,0.1-0.5,0.2C72.5,25.3,72.2,25.6,71.6,26.2
			L71.6,26.2z"/>
		<path fill-rule="evenodd" clip-rule="evenodd" d="M81.5,23.9c0.7,0,1.2,0.3,1.6,0.8c0.4,0.5,0.7,1.3,0.7,2.2c0,1.5-0.5,2.8-1.6,4
			c-1.1,1.2-2.2,1.8-3.3,1.8c-0.7,0-1.3-0.2-1.7-0.7c-0.4-0.5-0.7-1.1-0.7-1.9c0-1.4,0.4-2.7,1.2-3.9C78.7,24.6,80,23.9,81.5,23.9
			L81.5,23.9z M80.6,24.6c-0.6,0-1.1,0.4-1.7,1.2c-0.5,0.8-0.8,2-0.8,3.4c0,0.9,0.2,1.6,0.5,2.1c0.2,0.4,0.6,0.6,1,0.6
			c0.6,0,1.1-0.3,1.5-1.1c0.6-0.9,0.9-2,0.9-3.4c0-1-0.1-1.7-0.4-2.2C81.4,24.8,81,24.6,80.6,24.6L80.6,24.6z"/>
		<path fill-rule="evenodd" clip-rule="evenodd" d="M85.1,26.2l-0.3-0.4c0.9-0.8,1.6-1.4,2.1-1.6c0.5-0.3,0.9-0.4,1.3-0.4
			c0.1,0,0.3,0,0.3,0.1c0.1,0.1,0.1,0.1,0.1,0.2c0,0.1,0,0.2-0.1,0.3l-0.5,2c0.7-0.8,1.6-1.5,2.6-2.1c0.6-0.3,1-0.5,1.4-0.5
			c0.3,0,0.5,0.1,0.6,0.3c0.1,0.2,0.2,0.4,0.2,0.7c0,0.2,0,0.4-0.1,0.7c-0.1,0.4-0.4,1.4-0.9,2.9c-0.4,1.4-0.6,2.3-0.6,2.7
			c0,0.1,0,0.2,0.1,0.3c0,0.1,0.1,0.1,0.2,0.1c0.2,0,0.5-0.2,0.9-0.6c0.3-0.3,0.6-0.5,0.9-0.8l0.3,0.4c-0.6,0.7-1.3,1.2-1.9,1.7
			c-0.4,0.3-0.8,0.4-1.1,0.4c-0.3,0-0.5-0.1-0.6-0.3c-0.1-0.2-0.2-0.5-0.2-0.9c0-0.6,0.4-2.1,1.1-4.5c0.2-0.9,0.3-1.3,0.3-1.5
			c0-0.2-0.1-0.3-0.4-0.3c-0.3,0-0.6,0.1-1,0.4c-0.6,0.4-1.2,0.9-1.6,1.5c-0.3,0.4-0.5,0.9-0.7,1.7l-0.8,3.5h-1.5
			c0.3-1,0.5-2,0.7-2.9l0.9-3.8c0-0.2,0.1-0.3,0.1-0.3c0-0.2-0.1-0.3-0.2-0.3c-0.1,0-0.3,0.1-0.5,0.2C85.8,25.5,85.4,25.8,85.1,26.2
			L85.1,26.2z"/>
		<path fill-rule="evenodd" clip-rule="evenodd" d="M98.8,23.9c0.6,0,1.1,0.1,1.4,0.4c0.3,0.2,0.5,0.5,0.5,0.8
			c0,0.2-0.1,0.3-0.2,0.5c-0.1,0.1-0.3,0.2-0.5,0.2c-0.1,0-0.2,0-0.3-0.1c-0.1-0.1-0.2-0.2-0.4-0.4c-0.3-0.4-0.7-0.7-1-0.7
			c-0.3,0-0.5,0.1-0.7,0.3c-0.2,0.2-0.3,0.5-0.3,0.8c0,0.3,0.1,0.5,0.2,0.8c0.1,0.3,0.5,0.7,1,1.3c0.7,0.8,1.1,1.6,1.1,2.3
			c0,0.7-0.3,1.3-0.9,1.9c-0.6,0.5-1.4,0.8-2.4,0.8c-0.8,0-1.4-0.2-1.8-0.5c-0.4-0.3-0.6-0.7-0.6-1.2c0-0.2,0.1-0.4,0.2-0.6
			c0.1-0.2,0.3-0.2,0.5-0.2c0.2,0,0.3,0.1,0.5,0.2c0.1,0.1,0.2,0.3,0.2,0.4c0,0.1,0,0.2,0,0.3c0,0.1,0,0.2,0,0.2
			c0,0.2,0.1,0.4,0.3,0.6C95.8,32,96,32,96.3,32c0.4,0,0.7-0.1,1-0.2c0.3-0.1,0.5-0.3,0.6-0.6c0.2-0.3,0.2-0.5,0.2-0.8
			c0-0.2-0.1-0.5-0.2-0.7c-0.1-0.2-0.5-0.6-1-1.2c-0.7-0.8-1.1-1.5-1.1-2.3c0-0.7,0.3-1.2,0.8-1.7C97.3,24.1,97.9,23.9,98.8,23.9
			L98.8,23.9z"/>
		<path fill-rule="evenodd" clip-rule="evenodd" d="M52,40.6l-0.3-0.4c0.6-0.6,1.2-1.1,1.8-1.4c0.6-0.3,1-0.5,1.4-0.5
			c0.1,0,0.2,0,0.3,0.1c0.1,0.1,0.1,0.1,0.1,0.2c0,0.1-0.1,0.4-0.2,0.7c-0.1,0.5-0.2,1-0.3,1.3c1.5-1.6,2.7-2.4,3.5-2.4
			c0.2,0,0.4,0.1,0.5,0.2c0.1,0.1,0.2,0.3,0.2,0.5c0,0.3-0.1,0.7-0.3,1.4c0.7-0.8,1.4-1.3,1.9-1.6c0.5-0.3,1-0.5,1.3-0.5
			c0.3,0,0.5,0.1,0.6,0.2c0.1,0.2,0.2,0.4,0.2,0.7c0,0.2,0,0.4-0.1,0.7c-0.1,0.3-0.3,1.1-0.7,2.4c-0.5,1.7-0.8,2.7-0.8,3
			c0,0.2,0.1,0.3,0.3,0.3c0.1,0,0.2,0,0.4-0.1c0.4-0.3,0.8-0.6,1.2-1l0.3,0.3c-0.1,0.1-0.4,0.3-0.8,0.7c-0.5,0.5-0.9,0.8-1.1,0.9
			c-0.4,0.2-0.7,0.3-0.9,0.3c-0.2,0-0.4-0.1-0.5-0.3c-0.1-0.2-0.2-0.5-0.2-0.8c0-0.3,0-0.7,0.1-1.1c0.1-0.4,0.4-1.3,0.8-2.8
			c0.3-1.1,0.5-1.7,0.5-2c0-0.2-0.1-0.3-0.3-0.3c-0.2,0-0.4,0.1-0.6,0.2c-0.6,0.3-1,0.7-1.4,1.2c-0.3,0.3-0.5,0.9-0.7,1.6
			c-0.4,1.6-0.8,2.9-1,3.9h-1.4l1.4-5.9c0.1-0.4,0.2-0.7,0.2-0.7c0-0.1,0-0.2-0.1-0.2c-0.1-0.1-0.1-0.1-0.2-0.1
			c-0.2,0-0.4,0.1-0.8,0.4c-0.6,0.5-1.1,0.9-1.4,1.3c-0.3,0.4-0.5,1.1-0.7,2l-0.7,3.3h-1.4l1.1-4.6c0.3-1.3,0.5-2.1,0.5-2.2
			c0-0.1-0.1-0.2-0.2-0.2C53.3,39.5,52.8,39.9,52,40.6L52,40.6z"/>
		<path fill-rule="evenodd" clip-rule="evenodd" d="M74.5,46.5H73l0.7-2.6c0.3-1.3,0.6-2.5,0.9-3.6c0.1-0.3,0.1-0.5,0.1-0.5
			c0-0.2-0.1-0.2-0.2-0.2c-0.1,0-0.2,0.1-0.4,0.2c-0.2,0.1-0.6,0.5-1.1,1l-0.3-0.3c0.6-0.7,1.2-1.2,1.8-1.5c0.6-0.3,1.1-0.5,1.4-0.5
			c0.1,0,0.2,0,0.3,0.1c0.1,0.1,0.1,0.1,0.1,0.2c0,0.1,0,0.3-0.1,0.7L75.7,41c0.6-1,1.4-1.9,2.2-2.6c0.4-0.3,0.7-0.5,1-0.5
			c0.2,0,0.4,0.1,0.5,0.2c0.1,0.1,0.2,0.3,0.2,0.4c0,0.2-0.1,0.3-0.2,0.4c-0.1,0.1-0.4,0.3-0.9,0.4c-0.5,0.2-0.9,0.4-1.2,0.6
			c-0.3,0.2-0.6,0.6-1,1c-0.4,0.5-0.6,0.9-0.7,1.2c-0.1,0.3-0.4,1.1-0.6,2.4L74.5,46.5L74.5,46.5z"/>
		<path fill-rule="evenodd" clip-rule="evenodd" d="M83.7,44.1l0.3,0.4c-1.6,1.5-2.9,2.2-4.1,2.2c-0.5,0-0.8-0.2-1-0.5
			c-0.2-0.3-0.4-0.8-0.4-1.5c0-1.4,0.4-2.7,1.3-4.1c0.9-1.5,2.1-2.3,3.4-2.3c0.5,0,0.8,0.1,1,0.3c0.2,0.2,0.4,0.5,0.4,0.9
			c0,0.4-0.1,0.8-0.4,1.2c-0.3,0.4-0.8,0.8-1.6,1.3c-0.4,0.2-1.2,0.6-2.4,1.1c-0.1,0.4-0.1,0.7-0.1,1c0,0.5,0.1,0.8,0.2,1
			c0.1,0.2,0.4,0.3,0.6,0.3c0.3,0,0.6-0.1,0.9-0.2C82.2,45.1,82.8,44.7,83.7,44.1L83.7,44.1z M80.3,42.7c1-0.5,1.8-1,2.3-1.5
			c0.4-0.4,0.5-0.7,0.5-1.1c0-0.3-0.1-0.5-0.2-0.7c-0.1-0.2-0.3-0.2-0.6-0.2c-0.2,0-0.5,0.1-0.7,0.3c-0.3,0.2-0.6,0.6-0.8,1.1
			C80.6,41.2,80.4,41.9,80.3,42.7L80.3,42.7z"/>
		<path fill-rule="evenodd" clip-rule="evenodd" d="M36.6,39.1c-0.6-0.8-1-1.4-1.2-1.8c-0.2-0.4-0.3-0.7-0.3-1.1
			c0-0.6,0.2-1.1,0.7-1.5c0.5-0.4,1.2-0.7,2.1-0.7c0.8,0,1.5,0.2,1.9,0.6c0.5,0.4,0.7,0.9,0.7,1.6c0,0.6-0.1,1.1-0.4,1.5
			c-0.3,0.4-0.8,0.8-1.5,1.1c0.2,0.3,0.6,0.8,1.1,1.4c0.2,0.2,0.3,0.3,0.4,0.5l1.7,2.1c0.6-0.6,1-1.2,1.2-1.8
			c0.3-0.5,0.4-0.9,0.4-1.2c0-0.2-0.1-0.4-0.2-0.5c-0.1-0.1-0.3-0.2-0.6-0.3c0-0.1,0-0.1,0-0.2l0-0.1l1.1-0.1c0.2,0,0.6-0.1,1-0.1
			c0.4,0,1-0.1,1.8-0.1l0,0.1c0,0,0,0.1,0,0.2c-0.5,0.2-0.9,0.4-1.2,0.7c-0.3,0.3-0.8,0.8-1.5,1.6c-0.7,0.8-1.2,1.5-1.7,2.2
			c0.9,1,1.5,1.6,1.8,1.8c0.3,0.2,0.7,0.3,1.1,0.3c0.4,0,0.8-0.1,1.1-0.4c0.2-0.2,0.4-0.3,0.5-0.3c0,0,0.1,0,0.2,0
			c-0.1,0.6-0.3,1-0.4,1.1c-0.5,0.4-1.1,0.6-1.7,0.6c-0.4,0-0.7-0.1-1-0.2c-0.3-0.1-0.7-0.3-1-0.5c-0.2-0.1-0.5-0.4-1-0.9
			c-0.3-0.3-0.5-0.5-0.6-0.6c-0.5,0.5-0.9,0.9-1.2,1.1c-0.5,0.3-1,0.6-1.5,0.8c-0.5,0.2-1.2,0.3-1.9,0.3c-0.9,0-1.6-0.2-2.1-0.5
			c-0.6-0.4-1-0.8-1.2-1.4c-0.3-0.6-0.4-1.1-0.4-1.6c0-0.4,0.1-0.8,0.2-1.2c0.1-0.4,0.3-0.7,0.6-1c0.2-0.3,0.6-0.5,1-0.8
			c0.1-0.1,0.5-0.3,1-0.6C35.8,39.3,36.2,39.2,36.6,39.1L36.6,39.1z M38.2,38.5c0.4-0.2,0.7-0.4,0.9-0.8c0.2-0.4,0.3-0.8,0.3-1.2
			c0-0.6-0.2-1.1-0.5-1.4c-0.3-0.3-0.7-0.5-1.1-0.5c-0.4,0-0.7,0.1-1,0.4c-0.3,0.2-0.4,0.5-0.4,0.9c0,0.4,0.1,0.7,0.4,1.2
			C37.3,37.5,37.7,38,38.2,38.5L38.2,38.5z M40.8,43.9l-0.1-0.1l0,0l-2.2-2.6c-0.3-0.3-0.8-0.9-1.5-1.7c-0.8,0.3-1.5,0.8-1.9,1.4
			c-0.4,0.6-0.6,1.2-0.6,1.8c0,0.2,0.1,0.4,0.2,0.8c0.1,0.3,0.3,0.6,0.6,0.9c0.3,0.3,0.7,0.5,1.1,0.7c0.4,0.2,0.9,0.3,1.5,0.2
			c0.7,0,1.2-0.1,1.8-0.4C40.1,44.6,40.5,44.3,40.8,43.9L40.8,43.9z"/>
		<polygon fill-rule="evenodd" clip-rule="evenodd" points="66.8,42 66.9,42 67,41.9 67,41.7 67.1,41.4 67,41.2 67,41.1 66.9,40.9 
			66.7,40.9 66.6,40.9 66.5,41.1 66.4,41.3 66.4,41.5 66.4,41.7 66.5,41.9 66.6,42 66.8,42 		"/>
		<polygon fill-rule="evenodd" clip-rule="evenodd" points="69.1,42 69,42 68.9,41.9 68.8,41.7 68.8,41.4 68.8,41.2 68.9,41.1 
			69,40.9 69.1,40.9 69.2,40.9 69.3,41.1 69.4,41.3 69.4,41.5 69.4,41.7 69.3,41.9 69.2,42 69.1,42 		"/>
		<polygon fill-rule="evenodd" clip-rule="evenodd" points="64.7,42.3 64.8,42.9 65,43.5 65.3,44 65.7,44.5 66.2,44.8 66.7,45.1 
			67.3,45.3 67.9,45.3 68.2,45.3 68.5,45.2 68.8,45.1 69.1,45.1 69.4,44.9 69.6,44.7 69.9,44.5 70.1,44.3 70.3,44.1 70.5,43.8 
			70.6,43.6 70.7,43.3 70.8,43 70.9,42.7 70.9,42.4 70.9,42.1 70.9,42 70.9,42 70.8,42 70.8,41.9 70.7,42 70.6,42 70.6,42 
			70.6,42.1 70.6,42.4 70.6,42.6 70.5,42.9 70.4,43.2 70.3,43.4 70.2,43.7 70,43.9 69.9,44.1 69.7,44.3 69.4,44.5 69.2,44.6 
			69,44.8 68.7,44.9 68.5,44.9 68.2,45 67.9,45 67.4,45 66.8,44.8 66.3,44.6 65.9,44.2 65.6,43.8 65.3,43.4 65.1,42.8 65,42.3 
			65,42.2 65,42.2 64.9,42.2 64.9,42.1 64.8,42.2 64.7,42.2 64.7,42.2 64.7,42.3 		"/>
		<polygon fill-rule="evenodd" clip-rule="evenodd" points="66.8,42 66.9,42 67,41.9 67,41.7 67.1,41.4 67,41.2 67,41.1 66.9,40.9 
			66.7,40.9 66.6,40.9 66.5,41.1 66.4,41.3 66.4,41.5 66.4,41.7 66.5,41.9 66.6,42 66.8,42 		"/>
		<polygon fill-rule="evenodd" clip-rule="evenodd" points="69.1,42 69,42 68.9,41.9 68.8,41.7 68.8,41.4 68.8,41.2 68.9,41.1 
			69,40.9 69.1,40.9 69.2,40.9 69.3,41.1 69.4,41.3 69.4,41.5 69.4,41.7 69.3,41.9 69.2,42 69.1,42 		"/>
		<polygon fill-rule="evenodd" clip-rule="evenodd" points="64.7,42.3 64.8,42.9 65,43.5 65.3,44 65.7,44.5 66.2,44.8 66.7,45.1 
			67.3,45.3 67.9,45.3 68.2,45.3 68.5,45.2 68.8,45.1 69.1,45.1 69.4,44.9 69.6,44.7 69.9,44.5 70.1,44.3 70.3,44.1 70.5,43.8 
			70.6,43.6 70.7,43.3 70.8,43 70.9,42.7 70.9,42.4 70.9,42.1 70.9,42 70.9,42 70.8,42 70.8,41.9 70.7,42 70.6,42 70.6,42 
			70.6,42.1 70.6,42.4 70.6,42.6 70.5,42.9 70.4,43.2 70.3,43.4 70.2,43.7 70,43.9 69.9,44.1 69.7,44.3 69.4,44.5 69.2,44.6 
			69,44.8 68.7,44.9 68.5,44.9 68.2,45 67.9,45 67.4,45 66.8,44.8 66.3,44.6 65.9,44.2 65.6,43.8 65.3,43.4 65.1,42.8 65,42.3 
			65,42.2 65,42.2 64.9,42.2 64.9,42.1 64.8,42.2 64.7,42.2 64.7,42.2 64.7,42.3 		"/>
		<g>
			<path d="M63.3,42.7c0,2.5,2.1,4.5,4.7,4.5c2.6,0,4.7-2,4.7-4.5c0-2.5-2.1-4.5-4.7-4.5C65.4,38.2,63.3,40.2,63.3,42.7z M63.8,42.7
				c0-2.2,1.9-3.9,4.2-3.9c2.3,0,4.2,1.8,4.2,3.9c0,2.2-1.9,3.9-4.2,3.9C65.7,46.6,63.8,44.8,63.8,42.7z"/>
		</g>
		<path d="M84.5,49l-0.2-0.5c0.5-0.4,0.9-0.8,1.1-1.1c0.2-0.2,0.3-0.5,0.3-0.6c0-0.2-0.1-0.4-0.2-0.6c-0.1-0.2-0.2-0.5-0.2-0.6
			c0-0.2,0.1-0.4,0.2-0.5c0.1-0.2,0.3-0.2,0.5-0.2c0.2,0,0.4,0.1,0.6,0.3c0.2,0.2,0.2,0.4,0.2,0.7c0,0.3-0.1,0.6-0.2,1
			c-0.2,0.4-0.4,0.7-0.7,1.1C85.5,48.3,85,48.7,84.5,49z"/>
		<path d="M96.1,36.8L96,37.2c-0.6,0-1,0.1-1.2,0.2c-0.1,0.1-0.2,0.2-0.3,0.3C94.3,38,94,39,93.5,40.9c-0.2,0.6-0.6,2.3-1.2,5.1
			c0.4,0.1,0.9,0.2,1.5,0.2l-0.1,0.4c-0.2,0-0.5,0-1.1-0.1c-0.4,0-0.8-0.1-1.3-0.1c-0.7,0-1.3,0.1-1.9,0.2l0.1-0.4
			c0.6-0.1,1.1-0.2,1.4-0.4c0.1,0,0.1-0.1,0.2-0.1c0.1-0.1,0.2-0.3,0.3-0.6c0.1-0.3,0.4-1.5,1-3.7c0.2-0.6,0.5-2,1-4
			c-0.4,0-0.8,0-1.4,0.2l0.2-0.5c0.2-0.1,0.5-0.1,0.7-0.1c0.2,0,0.8,0,1.6-0.1C95.1,36.9,95.7,36.8,96.1,36.8z"/>
		<path d="M95.7,41.5l-0.3-0.3c0.7-0.7,1.3-1.1,1.7-1.3c0.4-0.2,0.8-0.3,1.1-0.3c0.1,0,0.2,0,0.3,0.1c0.1,0,0.1,0.1,0.1,0.2
			c0,0,0,0.1,0,0.3l-0.4,1.7c0.6-0.6,1.3-1.2,2.1-1.7c0.4-0.3,0.8-0.4,1.1-0.4c0.2,0,0.4,0.1,0.5,0.2c0.1,0.1,0.2,0.3,0.2,0.6
			c0,0.2,0,0.4-0.1,0.6c-0.1,0.4-0.3,1.1-0.7,2.3c-0.3,1.1-0.5,1.9-0.5,2.2c0,0.1,0,0.2,0.1,0.2c0,0.1,0.1,0.1,0.1,0.1
			c0.2,0,0.4-0.2,0.7-0.5c0.2-0.2,0.5-0.4,0.7-0.6l0.2,0.3c-0.5,0.6-1,1-1.6,1.3c-0.3,0.2-0.6,0.3-0.9,0.3c-0.2,0-0.4-0.1-0.5-0.2
			c-0.1-0.1-0.2-0.4-0.2-0.7c0-0.5,0.3-1.7,0.9-3.6c0.2-0.7,0.3-1.1,0.3-1.2c0-0.2-0.1-0.3-0.3-0.3c-0.2,0-0.5,0.1-0.8,0.3
			c-0.5,0.3-0.9,0.7-1.3,1.2c-0.2,0.3-0.4,0.8-0.5,1.4l-0.7,2.9h-1.2c0.2-0.8,0.4-1.6,0.6-2.4l0.7-3.1c0-0.1,0-0.2,0-0.3
			c0-0.1-0.1-0.2-0.2-0.2c-0.1,0-0.2,0.1-0.4,0.2C96.3,40.9,96,41.2,95.7,41.5z"/>
		<path d="M107.7,44.7l0.2,0.5c-1.3,1-2.4,1.5-3.3,1.5c-0.5,0-0.8-0.2-1-0.5c-0.2-0.3-0.3-0.8-0.3-1.3c0-0.9,0.2-1.8,0.7-2.7
			c0.5-0.9,1-1.6,1.7-2.1c0.5-0.4,1.1-0.6,1.7-0.6c0.4,0,0.7,0.1,0.9,0.2c0.2,0.2,0.3,0.3,0.3,0.6c0,0.2-0.1,0.3-0.2,0.4
			c-0.1,0.1-0.3,0.2-0.5,0.2c-0.2,0-0.4-0.1-0.7-0.3c-0.3-0.2-0.6-0.3-0.8-0.3c-0.3,0-0.5,0.1-0.8,0.4c-0.3,0.2-0.5,0.7-0.8,1.4
			c-0.2,0.7-0.4,1.4-0.4,2.1c0,0.5,0.1,0.9,0.3,1.2c0.1,0.2,0.4,0.3,0.6,0.3C106.1,45.8,106.8,45.4,107.7,44.7z"/>
		<path d="M109.6,44.7c0.2,0,0.4,0.1,0.5,0.2c0.1,0.2,0.2,0.4,0.2,0.6c0,0.4-0.1,0.6-0.3,0.8c-0.2,0.2-0.4,0.3-0.6,0.3
			c-0.2,0-0.4-0.1-0.5-0.2c-0.1-0.1-0.2-0.3-0.2-0.6c0-0.3,0.1-0.6,0.3-0.9C109.2,44.8,109.4,44.7,109.6,44.7z"/>
	</g>
</g>
</svg>
