<?xml version="1.0" encoding="utf-8"?>
<!-- Generator: Adobe Illustrator 18.0.0, SVG Export Plug-In . SVG Version: 6.00 Build 0)  -->
<!DOCTYPE svg PUBLIC "-//W3C//DTD SVG 1.1//EN" "http://www.w3.org/Graphics/SVG/1.1/DTD/svg11.dtd">
<svg version="1.1" xmlns="http://www.w3.org/2000/svg" xmlns:xlink="http://www.w3.org/1999/xlink" x="0px" y="0px"
	 viewBox="0 0 320 50" enable-background="new 0 0 320 50" xml:space="preserve">
<g id="Background">
	<rect x="0" y="0" fill="#FFFFFF" width="320" height="50"/>
</g>
<g id="SC_Logo">
	<g>
		<g>
			<path fill="#EC1E24" d="M91.987,37.655h3.785v1.946H95.15v5.454h0.622V47h-3.785v-1.946h0.609v-5.454h-0.609V37.655z"/>
		</g>
		<g>
			<path fill="#EC1E24" d="M104.377,37.655v3.454h-1.801v-1.508h-0.941v5.454h0.609V47h-3.759v-1.946h0.609v-5.454h-0.939v1.508
				h-1.801v-3.454H104.377z"/>
		</g>
		<g>
			<path fill="#EC1E24" d="M105.776,42.253v-0.976c0.707-0.069,1.06-0.493,1.06-1.273v-0.123h-1.06v-2.185h2.16v2.03
				c0,0.624-0.068,1.112-0.198,1.463c-0.131,0.352-0.365,0.616-0.699,0.796C106.707,42.163,106.284,42.253,105.776,42.253z"/>
		</g>
		<g>
			<path fill="#EC1E24" d="M115.88,37.655v2.753h-2.264v-0.807h-1.43v1.707h1.708c0.515,0.014,1.112,0.014,1.588,0.332
				c0.674,0.436,0.674,1.151,0.674,1.694v1.496c-0.011,0.636-0.011,1.483-0.86,1.933C114.862,47,114.423,47,113.959,47h-4.183
				v-2.859h2.409v0.914h1.43v-1.88h-1.867c-0.543-0.013-1.124-0.013-1.602-0.503c-0.463-0.463-0.489-0.993-0.502-1.522v-1.548
				c0.013-0.503,0.026-0.993,0.448-1.429c0.491-0.503,1.14-0.516,1.67-0.516H115.88z"/>
		</g>
		<g>
			<path fill="#EC1E24" d="M127.011,37.642v2.727h-2.301v-0.782h-1.457v5.467h1.457v-1.761h-0.767v-1.945h3.176V47h-4.209
				c-0.504,0-1.031,0-1.535-0.331c-0.662-0.437-0.703-1.085-0.703-1.88v-4.844c0-0.529,0-1.152,0.305-1.615
				c0.463-0.688,1.258-0.688,2.013-0.688H127.011z"/>
		</g>
		<g>
			<path fill="#EC1E24" d="M132.48,37.655c0.887,0,1.721,0.039,2.158,0.808c0.277,0.489,0.277,1.111,0.277,1.879v3.865
				c0,0.529,0,1.098-0.118,1.548C134.465,46.987,133.38,47,132.573,47h-1.695c-0.583,0-1.351-0.013-1.866-0.437
				c-0.583-0.49-0.583-1.205-0.583-1.814v-4.567c0-0.543,0-1.085,0.197-1.548c0.399-0.979,1.325-0.979,2.026-0.979H132.48z
				 M132.374,39.601h-1.389v5.454h1.389V39.601z"/>
		</g>
		<g>
			<path fill="#EC1E24" d="M140.197,37.655c0.886,0,1.722,0.039,2.158,0.808c0.277,0.489,0.277,1.111,0.277,1.879v3.865
				c0,0.529,0,1.098-0.118,1.548c-0.331,1.232-1.419,1.245-2.225,1.245h-1.694c-0.581,0-1.349-0.013-1.866-0.437
				c-0.584-0.49-0.584-1.205-0.584-1.814v-4.567c0-0.543,0-1.085,0.2-1.548c0.398-0.979,1.324-0.979,2.027-0.979H140.197z
				 M140.092,39.601h-1.391v5.454h1.391V39.601z"/>
		</g>
		<g>
			<path fill="#EC1E24" d="M143.56,37.655h4.738c0.489,0,1.033,0,1.456,0.225c0.862,0.451,0.874,1.443,0.874,2.21v4.368
				c0,0.57-0.013,1.138-0.225,1.602c-0.41,0.927-1.284,0.94-2.039,0.94h-4.805v-1.946h0.595v-5.454h-0.595V37.655z M148.087,39.601
				h-1.391v5.454h1.391V39.601z"/>
		</g>
		<g>
			<path fill="#EC1E24" d="M162.818,37.655v3.454h-1.799v-1.508h-0.939v5.454h0.609V47h-3.76v-1.946h0.61v-5.454h-0.942v1.508H154.8
				v-3.454H162.818z"/>
		</g>
		<g>
			<path fill="#EC1E24" d="M167.492,37.655c0.889,0,1.721,0.039,2.158,0.808c0.279,0.489,0.279,1.111,0.279,1.879v3.865
				c0,0.529,0,1.098-0.12,1.548c-0.33,1.232-1.415,1.245-2.223,1.245h-1.695c-0.582,0-1.349-0.013-1.866-0.437
				c-0.582-0.49-0.582-1.205-0.582-1.814v-4.567c0-0.543,0-1.085,0.198-1.548c0.396-0.979,1.322-0.979,2.026-0.979H167.492z
				 M167.387,39.601h-1.39v5.454h1.39V39.601z"/>
		</g>
		<g>
			<path fill="#EC1E24" d="M174.139,37.655h4.633c0.767,0,1.694,0,2.169,0.595c0.318,0.397,0.358,0.966,0.358,1.628
				c0,1.403-0.185,2.065-1.429,2.291c1.284,0.357,1.429,0.926,1.429,2.038c0,1.311-0.094,1.893-0.45,2.29
				C180.384,47,179.631,47,178.799,47h-4.66v-1.946h0.622v-5.454h-0.622V37.655z M177.275,39.601v1.76h1.483v-1.76H177.275z
				 M177.275,43.082v1.973h1.483v-1.973H177.275z"/>
		</g>
		<g>
			<path fill="#EC1E24" d="M182.439,37.655h6.591v3.057h-2.131v-1.112h-1.351v1.774h1.906v1.721h-1.906v1.959h1.351V43.85h2.275V47
				h-6.735v-1.946h0.607v-5.454h-0.607V37.655z"/>
		</g>
		<g>
			<path fill="#EC1E24" d="M194.987,37.655h4.064l1.31,7.399h0.633V47h-2.87l-0.332-2.277h-1.574L195.899,47h-2.885v-1.946h0.69
				L194.987,37.655z M197.011,39.19l-0.595,3.918h1.178L197.011,39.19z"/>
		</g>
		<g>
			<path fill="#EC1E24" d="M211.389,37.642v2.727h-2.304v-0.782h-1.456v5.467h1.456v-1.761h-0.768v-1.945h3.177V47h-4.211
				c-0.503,0-1.031,0-1.535-0.331c-0.663-0.437-0.702-1.085-0.702-1.88v-4.844c0-0.529,0-1.152,0.303-1.615
				c0.463-0.688,1.258-0.688,2.014-0.688H211.389z"/>
		</g>
		<g>
			<path fill="#EC1E24" d="M212.791,37.655h3.164v7.399h1.31v-7.399h3.15v1.946h-0.607v4.871c0,0.582,0.013,1.309-0.345,1.826
				c-0.463,0.688-1.23,0.702-1.828,0.702h-2.183c-0.503-0.013-1.059-0.027-1.522-0.424c-0.502-0.437-0.529-1.006-0.529-1.827v-5.149
				h-0.609V37.655z"/>
		</g>
		<g>
			<path fill="#EC1E24" d="M220.879,37.655h2.489l0.901,2.461c0.105,0.344,0.131,0.451,0.185,0.768
				c0.08-0.411,0.105-0.516,0.251-0.901l0.926-2.329h2.382v2.025h-0.7l-1.629,3.521v1.853h0.65V47h-3.773v-1.946h0.65v-1.853
				l-1.668-3.521h-0.662V37.655z"/>
		</g>
	</g>
	<g>
		<g>
			<path fill="#FFFFFF" d="M195.772,31.424c0,1.371-1.301,2.496-2.897,2.496h-72.177c-1.601,0-2.902-1.125-2.902-2.496v-5.07
				c0-1.377,1.3-2.499,2.902-2.499h72.177c1.595,0,2.897,1.121,2.897,2.499V31.424L195.772,31.424z"/>
		</g>
		<g>
			<path fill="#231F20" d="M192.876,34.136h-72.177c-1.719,0-3.118-1.217-3.118-2.712v-5.07c0-1.497,1.399-2.715,3.118-2.715h72.177
				c1.717,0,3.113,1.218,3.113,2.715v5.07C195.988,32.92,194.592,34.136,192.876,34.136z M120.699,24.071
				c-1.481,0-2.686,1.024-2.686,2.283v5.07c0,1.257,1.205,2.28,2.686,2.28h72.177c1.478,0,2.68-1.023,2.68-2.28v-5.07
				c0-1.259-1.202-2.283-2.68-2.283H120.699z"/>
		</g>
		<g>
			<polygon fill="#231F20" points="121.347,31.935 121.347,25.754 122.534,25.754 122.534,28.293 127.193,28.293 127.193,25.754 
				128.385,25.754 128.385,31.935 127.193,31.935 127.193,29.022 122.534,29.022 122.534,31.935 121.347,31.935 			"/>
		</g>
		<g>
			<path fill="#231F20" d="M133.153,29.406h3.073l-0.946-1.716c-0.278-0.519-0.496-0.953-0.643-1.289
				c-0.123,0.395-0.285,0.786-0.491,1.178L133.153,29.406L133.153,29.406z M130.59,31.935l3.413-6.181h1.309l3.658,6.181h-1.349
				l-1.043-1.871h-3.755l-0.975,1.871H130.59L130.59,31.935z"/>
		</g>
		<g>
			<polygon fill="#231F20" points="141.386,31.935 141.386,25.754 142.574,25.754 142.574,31.935 141.386,31.935 			"/>
		</g>
		<g>
			<path fill="#231F20" d="M147.111,28.47h2.542c0.539,0,0.966-0.034,1.271-0.112c0.303-0.077,0.54-0.198,0.7-0.367
				c0.158-0.172,0.235-0.36,0.235-0.551c0-0.293-0.152-0.534-0.462-0.718c-0.309-0.186-0.795-0.281-1.457-0.281h-2.829V28.47
				L147.111,28.47z M145.917,31.935v-6.181h3.973c0.799,0,1.407,0.053,1.822,0.166c0.411,0.108,0.744,0.305,0.995,0.589
				c0.247,0.279,0.372,0.591,0.372,0.932c0,0.439-0.206,0.806-0.618,1.101c-0.409,0.305-1.049,0.495-1.907,0.579
				c0.317,0.101,0.551,0.206,0.713,0.304c0.351,0.22,0.672,0.497,0.981,0.827l1.552,1.683h-1.479l-1.186-1.286
				c-0.343-0.373-0.627-0.657-0.851-0.852c-0.225-0.201-0.43-0.337-0.607-0.418c-0.176-0.077-0.356-0.135-0.541-0.163
				c-0.134-0.021-0.35-0.027-0.658-0.027h-1.369v2.746H145.917L145.917,31.935z"/>
		</g>
		<g>
			<path fill="#231F20" d="M162.574,29.759l1.185,0.209c-0.248,0.666-0.691,1.18-1.342,1.535c-0.647,0.352-1.437,0.528-2.372,0.528
				c-0.969,0-1.752-0.136-2.359-0.406c-0.603-0.273-1.069-0.662-1.383-1.176c-0.32-0.516-0.479-1.07-0.479-1.66
				c0-0.643,0.182-1.202,0.536-1.68c0.36-0.485,0.867-0.846,1.525-1.094c0.66-0.249,1.385-0.372,2.18-0.372
				c0.895,0,1.65,0.157,2.261,0.468c0.615,0.317,1.042,0.761,1.28,1.332l-1.173,0.188c-0.206-0.447-0.511-0.775-0.909-0.981
				c-0.392-0.206-0.891-0.307-1.492-0.307c-0.687,0-1.266,0.113-1.732,0.341c-0.457,0.23-0.782,0.535-0.97,0.916
				c-0.189,0.386-0.284,0.776-0.284,1.19c0,0.519,0.11,0.981,0.33,1.369c0.224,0.394,0.573,0.687,1.04,0.883
				c0.471,0.194,0.977,0.286,1.525,0.286c0.666,0,1.232-0.13,1.694-0.395C162.097,30.666,162.407,30.278,162.574,29.759
				L162.574,29.759z"/>
		</g>
		<g>
			<path fill="#231F20" d="M172.343,25.754h1.19v3.564c0,0.622-0.104,1.111-0.309,1.481c-0.205,0.366-0.571,0.664-1.102,0.891
				c-0.533,0.229-1.231,0.342-2.097,0.342c-0.844,0-1.527-0.102-2.06-0.298c-0.537-0.201-0.917-0.491-1.146-0.865
				c-0.229-0.38-0.342-0.894-0.342-1.55v-3.564h1.19v3.555c0,0.541,0.071,0.933,0.218,1.19c0.143,0.247,0.392,0.446,0.743,0.586
				c0.351,0.137,0.785,0.204,1.297,0.204c0.866,0,1.491-0.136,1.86-0.405c0.371-0.276,0.557-0.799,0.557-1.575V25.754
				L172.343,25.754z"/>
		</g>
		<g>
			<polygon fill="#231F20" points="179.015,31.935 179.015,26.483 176.063,26.483 176.063,25.754 183.153,25.754 183.153,26.483 
				180.205,26.483 180.205,31.935 179.015,31.935 			"/>
		</g>
		<g>
			<path fill="#231F20" d="M185.233,29.942l1.111-0.067c0.054,0.309,0.173,0.564,0.368,0.76c0.192,0.202,0.491,0.362,0.894,0.482
				c0.405,0.123,0.862,0.184,1.369,0.184c0.452,0,0.849-0.04,1.194-0.135c0.342-0.094,0.596-0.221,0.765-0.384
				c0.17-0.161,0.254-0.336,0.254-0.528c0-0.192-0.081-0.36-0.242-0.505c-0.162-0.142-0.427-0.264-0.799-0.361
				c-0.242-0.069-0.774-0.167-1.588-0.302c-0.817-0.137-1.391-0.268-1.722-0.391c-0.427-0.152-0.742-0.345-0.954-0.572
				c-0.209-0.234-0.312-0.49-0.312-0.774c0-0.314,0.127-0.601,0.384-0.876c0.251-0.272,0.627-0.477,1.12-0.618
				c0.489-0.144,1.035-0.21,1.635-0.21c0.663,0,1.244,0.071,1.751,0.218c0.508,0.148,0.897,0.363,1.167,0.652
				c0.274,0.288,0.42,0.607,0.442,0.97l-1.145,0.054c-0.06-0.385-0.265-0.676-0.614-0.872c-0.351-0.194-0.869-0.297-1.554-0.297
				c-0.71,0-1.228,0.093-1.555,0.273c-0.33,0.184-0.488,0.397-0.488,0.655c0,0.221,0.113,0.403,0.346,0.548
				c0.227,0.146,0.82,0.291,1.776,0.439c0.957,0.152,1.616,0.284,1.971,0.392c0.517,0.17,0.905,0.38,1.15,0.632
				c0.249,0.252,0.375,0.543,0.375,0.875c0,0.326-0.138,0.637-0.408,0.931c-0.274,0.286-0.667,0.514-1.172,0.676
				c-0.509,0.16-1.085,0.241-1.719,0.241c-0.806,0-1.483-0.081-2.028-0.241c-0.548-0.165-0.978-0.409-1.283-0.735
				C185.411,30.727,185.249,30.357,185.233,29.942L185.233,29.942z"/>
		</g>
	</g>
	<g>
		<path fill="#231F20" d="M205.265,17.418c1.735,0,2.622-1.349,2.622-3.097c0-1.795-0.771-3.089-2.638-3.089
			c-1.853,0-2.643,1.146-2.643,3.089C202.605,16.244,203.396,17.418,205.265,17.418L205.265,17.418z M197.785,7.416h4.666v1.62
			h0.036c0.869-1.292,2.199-1.993,4.337-1.993c3.125,0,6.001,2.218,6.001,7.277c0,5.061-2.875,7.281-6.001,7.281
			c-1.964,0-3.353-0.622-4.181-1.917h-0.038v6.255h-4.82V7.416L197.785,7.416z"/>
	</g>
	<g>
		<path fill="#231F20" d="M191.3,7.416h4.822v13.638H191.3V7.416L191.3,7.416z M191.3,2.631h4.822v3.438H191.3V2.631L191.3,2.631z"
			/>
	</g>
	<g>
		<path fill="#231F20" d="M217.092,15.645c-2.799-0.374-3.606-1.82-3.606-4.186c0-3.219,2.31-4.589,7.018-4.589
			c3.275,0,6.881,0.772,6.976,4.636h-5.433c0-0.349-0.097-0.647-0.369-0.848c-0.268-0.2-0.711-0.348-1.424-0.348
			c-1.447,0-1.718,0.421-1.718,0.947c0,0.349,0.249,0.718,1.294,0.849l4.587,0.521c2.601,0.302,3.587,1.796,3.587,4.116
			c0,3.514-2.351,4.859-7.443,4.859c-5.008,0-7.189-1.345-7.347-4.783h5.667c0.062,0.546,0.269,0.894,0.603,1.097
			c0.347,0.197,0.828,0.246,1.367,0.246c1.233,0,1.602-0.423,1.602-1.045c0-0.401-0.152-0.776-0.656-0.85L217.092,15.645
			L217.092,15.645z"/>
	</g>
	<g>
		<g>
			<path fill="#EC1E24" d="M118.176,17.241c1.732,0,2.62-1.35,2.62-3.098c0-1.795-0.771-3.089-2.642-3.089
				c-1.85,0-2.639,1.147-2.639,3.089C115.515,16.067,116.304,17.241,118.176,17.241L118.176,17.241z M110.695,7.24h4.664v1.62h0.042
				c0.866-1.293,2.2-1.993,4.336-1.993c3.121,0,5.996,2.219,5.996,7.277c0,5.061-2.875,7.28-5.996,7.28
				c-1.963,0-3.353-0.62-4.184-1.917h-0.038v6.369h-4.82V7.24L110.695,7.24z"/>
		</g>
		<g>
			<path fill="#EC1E24" d="M95.945,12.872c-2.662-0.525-3.763-2.52-3.763-5.012c0-4.612,3.49-5.86,7.964-5.86
				c6.129,0,8.654,2.073,8.847,5.837h-6.324c0-0.724-0.329-1.174-0.831-1.424c-0.485-0.272-1.097-0.372-1.692-0.372
				c-1.62,0-2.182,0.521-2.182,1.27c0,0.499,0.175,0.822,0.716,0.924l6.494,1.247c2.739,0.52,4.435,2.172,4.435,5.187
				c0,4.335-2.741,6.378-8.85,6.378c-4.183,0-8.753-0.744-8.772-5.982h6.558c0.018,0.6,0.188,0.997,0.577,1.274
				c0.404,0.246,1.003,0.376,1.854,0.376c1.694,0,2.157-0.601,2.157-1.45c0-0.521-0.251-1.046-0.981-1.194L95.945,12.872
				L95.945,12.872z"/>
		</g>
		<g>
			<path fill="#EC1E24" d="M134.697,17.387c1.943,0,2.758-1.148,2.758-3.341c0-2.145-0.815-3.312-2.758-3.312
				c-1.929,0-2.758,1.167-2.758,3.312C131.939,16.239,132.768,17.387,134.697,17.387L134.697,17.387z M134.697,6.693
				c5.435,0,7.809,2.342,7.809,7.352c0,5.035-2.375,7.378-7.809,7.378c-5.435,0-7.807-2.343-7.807-7.378
				C126.89,9.035,129.262,6.693,134.697,6.693L134.697,6.693z"/>
		</g>
		<g>
			<path fill="#EC1E24" d="M143.593,7.24h4.666v2.619h0.036c1.259-2.118,2.835-2.992,4.493-2.992c0.519,0,1.061,0.053,1.581,0.15
				v5.582c-0.849-0.27-1.563-0.492-2.411-0.492c-1.712,0-3.545,0.722-3.545,3.662v5.109h-4.82V7.24L143.593,7.24z"/>
		</g>
		<g>
			<path fill="#EC1E24" d="M154.753,7.24h2.238V2.851h4.817V7.24h2.603v3.889h-2.603v4.817c0,1.269,0.407,1.344,1.448,1.344
				c0.387,0,0.83-0.026,1.292-0.047v3.636c-0.848,0.149-2.004,0.298-3.509,0.298c-2.93,0-4.048-0.72-4.048-4.438v-5.609h-2.238V7.24
				L154.753,7.24z"/>
		</g>
	</g>
	<g>
		<path fill="#231F20" d="M183.708,14.123c-0.345,2.345-0.965,4.237-2.317,5.534c-1.335,1.3-3.411,2.019-6.726,2.019
			c-3.301,0-9.41-0.299-9.41-9.522s6.109-9.523,9.41-9.523c3.278,0,8.331,0.551,9.043,7.606h-6.134
			c-0.152-1.277-0.81-3.118-2.909-3.118c-2.221,0-3.623,1.42-3.623,5.036c0,3.614,1.366,5.034,3.351,5.034
			c1.716,0,2.739-0.921,3.18-3.065H183.708L183.708,14.123z"/>
	</g>
	<g>
		<polygon fill="#231F20" points="184.818,2.631 189.635,2.631 189.635,21.054 184.818,21.054 184.818,2.631 		"/>
	</g>
	<g>
		<g>
			<path fill="#231F20" d="M226.791,4.668c0.665,0,1.222,0.543,1.222,1.223c0,0.69-0.561,1.221-1.222,1.221
				c-0.66,0-1.222-0.537-1.222-1.221C225.569,5.211,226.126,4.668,226.791,4.668z M226.791,6.868c0.52,0,0.959-0.428,0.959-0.977
				c0-0.539-0.433-0.978-0.959-0.978c-0.519,0-0.959,0.428-0.959,0.978C225.831,6.452,226.278,6.868,226.791,6.868z M226.413,5.2
				h0.367c0.104,0,0.452,0,0.452,0.397c0,0.232-0.104,0.299-0.189,0.348l0.244,0.6h-0.269l-0.213-0.551h-0.141v0.551h-0.25V5.2z
				 M226.663,5.786h0.117c0.061,0,0.201,0,0.201-0.19c0-0.189-0.14-0.189-0.208-0.189h-0.109V5.786z"/>
		</g>
	</g>
</g>
</svg>
