<?xml version="1.0" encoding="utf-8"?>
<!-- Generator: Adobe Illustrator 18.0.0, SVG Export Plug-In . SVG Version: 6.00 Build 0)  -->
<!DOCTYPE svg PUBLIC "-//W3C//DTD SVG 1.1//EN" "http://www.w3.org/Graphics/SVG/1.1/DTD/svg11.dtd">
<svg version="1.1" id="Layer_1" xmlns="http://www.w3.org/2000/svg" xmlns:xlink="http://www.w3.org/1999/xlink" x="0px" y="0px"
	 viewBox="146 371 320 50" enable-background="new 146 371 320 50" xml:space="preserve">
<g id="Layer_2">
	<rect x="146" y="371" width="320" height="50"/>
</g>
<g id="Layer_1_1_">
	<g>
		<path fill="#FFFFFF" d="M202.9,404.5L202.9,404.5l0.3,0.3l-0.2,0.5l-0.3-0.2L202.9,404.5l-0.2,0.1L202.9,404.5
			C202.8,404.5,202.9,404.5,202.9,404.5z M203.1,409.2l-0.2,0.3v0.1l0.1-0.1h0.1l0.5,0.1v0.2c-0.3,0-0.4,0.1-0.4,0.2l-0.5-0.2v-0.5
			L203.1,409.2z M202.8,413.5l0.2,0.2l-0.2,0.2l-0.1-0.2L202.8,413.5L202.8,413.5L202.8,413.5z M202.8,410.3h0.2v0.3L202.8,410.3
			L202.8,410.3z M203.2,405.2L203.2,405.2l0.1,0.3h-0.1l-0.2-0.2L203.2,405.2L203.2,405.2z M203.1,414l0.4,0.3v0.3h-0.4V414
			L203.1,414z M203.2,404.3l0.3,0.1l-0.1,0.1v0.1l0.1,0.1h-0.2L203.2,404.3z M203.2,404.8h0.2v0.2h-0.2V404.8z M203.3,413.6
			c0.2,0.1,0.4,0.3,0.4,0.6h-0.1C203.4,414.1,203.3,413.9,203.3,413.6z M203.5,402.2L203.5,402.2l0.4,0.3l-0.3,0.2h-0.1l0.2-0.3
			h-0.2V402.2z M203.5,404.8L203.5,404.8l0.4,0.3h0.1v0.1h-0.3L203.5,404.8C203.5,404.9,203.5,404.8,203.5,404.8z M203.6,410.1
			L203.6,410.1l0.1,0.2h-0.1V410.1z M203.9,413.8h0.2v0.3h-0.2V413.8z M204.1,414.3L204.1,414.3l0.3,0.2v0.1h-0.5v-0.1L204.1,414.3z
			 M204,410.2h0.3v0.1L204,410.2L204,410.2z M204.3,404.8L204.3,404.8l0.3,0.2v0.1L204.3,404.8z M204.8,402.5L204.8,402.5l0.3,0.2
			v0.6h-0.5l-0.2-0.2v-0.4L204.8,402.5z M217.5,379.6h2.2c4.1,0,7.3,1.7,9.7,5.1c0.4,0,0.6,0.3,0.6,1c0.9,1.6,1.5,3.3,1.9,5.1h-0.2
			c-0.6-2.1-1.8-4.2-3.6-6.2l-0.4-0.3v0.1c2.2,3.2,3.3,6.8,3.3,10.8c0,6.3-2.2,11-6.5,14c-1.5,0.9-2.8,1.3-4.1,1.4v-3.9l-0.1-0.4
			l0.1-0.4v-1.1l-0.2-0.3c0.4-0.5,0.7-0.7,0.8-0.7l0-0.3h-0.1h-0.2v-0.3h0.5v0.5c0.1,0,0.2-0.1,0.2-0.4l0.1,0.1h0.1l0.4-0.7h-0.3
			c0-0.3,0.2-0.4,0.6-0.4c0.8-1.7,1.2-4.2,1.2-7.5c0-2-0.2-3.6-0.6-4.7c-0.1,0-0.4,0.3-0.7,1l-0.1,0.1H222V391c0.3-0.7,0.6-1,0.9-1
			c0-0.2-0.1-0.3-0.3-0.3l0.1-0.5h-0.2v-0.1l0.1-0.1c-0.9-2.4-2.5-3.6-4.7-3.6c-3.8,0-5.6,3.3-5.6,10c0,4.6,1,7.7,3,9.1h0.1
			c-0.6-1.5-1-2.5-1-2.9h0.2l0.3,0.7v0.1h0.2v-0.2h0.2v0.2h0.1v-0.2l-0.1-0.1h0.2v0.4c0,0.1-0.1,0.2-0.3,0.2v0.2h0.2l-0.1,0.1v0.1
			c0.3,0.1,0.4,0.3,0.4,0.7v7c-2,0-4.2-1.1-6.6-3.2c-1-1.2-1.6-2-1.6-2.3l-0.4,0.2v-0.2l0.2-0.2c-1.7-2.8-2.5-5.9-2.5-9.3v-1.5
			c0-5.3,2.1-9.6,6.2-12.9C212.9,380.2,215.2,379.6,217.5,379.6z M204.6,403.8l0.2,0.2h-0.2V403.8z M204.8,414.4L204.8,414.4
			L204.8,414.4l-0.1,0.3h-0.1v-0.1L204.8,414.4z M204.9,402.2h0.2v0.1L204.9,402.2L204.9,402.2z M205.4,403.5v0.2
			c-0.2,0-0.3,0.1-0.3,0.2h-0.2v-0.3L205.4,403.5z M205,404.7h0.2v0.2H205V404.7z M205.5,409.4L205.5,409.4L205.5,409.4v0.2l0.1,0.1
			v0.1h-0.1l-0.2-0.2L205.5,409.4z M205.6,403L205.6,403l0.1,0.2l-0.3,0.3v-0.3L205.6,403z M205.5,403.7h0.2v0.3h-0.2V403.7z
			 M205.8,409.9h0.2v0.4l-0.1,0.1l0,0l-0.3-0.1v-0.1L205.8,409.9z M205.8,404.3h0.2l0.1,0.4l-0.2,0.2v0.1l0.1-0.1h0.2v0.3H206
			l-0.3-0.4v-0.1L205.8,404.3z M205.7,414.5h0.2v0.1L205.7,414.5L205.7,414.5z M205.8,403.9L205.8,403.9l0.1,0.2h-0.1V403.9z
			 M206,405.2L206,405.2l0.1,0.2l-0.1,0.1h-0.1l-0.1-0.1v-0.1L206,405.2L206,405.2z M206.5,404.5L206.5,404.5l0.3,0.2v0.1h-0.3
			V404.5z M206.8,413.4L206.8,413.4l0.1,0.2l-0.1,0.1h-0.1l-0.1-0.1v-0.1L206.8,413.4L206.8,413.4z M206.9,414.3L206.9,414.3
			L206.9,414.3l-0.1,0.3h-0.1v-0.1L206.9,414.3z M207.3,414.4L207.3,414.4c0.5,0.2,0.7,0.4,0.7,0.7h-0.2l-0.4-0.4h-0.1V414.4z
			 M207.6,407h0.2v0.2h-0.2V407z M207.8,413.8h0.2v0.2h-0.2V413.8z M208.1,413L208.1,413l0.1,0.2h-0.1V413z M208.2,414.8h0.2v0.1
			L208.2,414.8L208.2,414.8z M208.4,412.3h0.2v0.1L208.4,412.3L208.4,412.3z M209,412h0.2l-0.2,0.6l0.1,0.1v0.1l-0.6,0.3V413
			C208.7,412.4,208.8,412.1,209,412z M208.6,414.3L208.6,414.3l0.4,0.1v0.2h-0.1l-0.3-0.1C208.6,414.5,208.6,414.3,208.6,414.3z
			 M209.2,414.8v0.2l-0.5,0.1v-0.2L209.2,414.8z M209.2,412.1L209.2,412.1l0.6,0.3v0.2l-0.2,0.3l0.1,0.1v0.1h-0.2l-0.1-0.3l0.1-0.1
			v-0.2h-0.1v0.2h-0.3v-0.1l0.2-0.2l-0.1-0.1V412.1z M209.6,414.7l0.2,0.2l-0.2,0.2l-0.2-0.2L209.6,414.7z M209.6,414.3L209.6,414.3
			l0.1,0.2h-0.1V414.3z M210,412.7L210,412.7L210,412.7h0.3v0.3l-0.1,0.1v0.1c0.2,0,0.3,0.1,0.3,0.2v0.1h-0.2l-0.5-0.7L210,412.7
			C209.9,412.7,210,412.7,210,412.7z M209.9,413.7L209.9,413.7l0.1,0.2h-0.1V413.7z M210,414.9h0.2v0.1l-0.1,0.1v0.1l-0.3-0.1
			L210,414.9z M210.5,414l-0.3,0.3l-0.1-0.1v-0.1L210.5,414z M212.2,414.3L212.2,414.3l0.4,0.1v0.2h-0.2L212.2,414.3L212.2,414.3z
			 M215.8,400.8h0.2l-0.2,0.2V400.8z M215.9,403.4h0.2l0,0H215.9L215.9,403.4z M215.9,412.1L215.9,412.1l0.1,0.2h-0.1V412.1z
			 M216.3,412.6h0.2c0,0.1,0.1,0.2,0.3,0.2l0.1,0.1v0.1l-0.2,0.1v0.1h0.3v0.1l-0.5,0.1l-0.3-0.5L216.3,412.6L216.3,412.6z
			 M216.3,403.1c0.3,0,0.5,0.1,0.5,0.2l-0.1,0.5h-0.3l0.1-0.1v-0.2h-0.2V403.1z M217.1,402.4L217.1,402.4l0.1,0.2l-0.1,0.7l0.1,0.1
			l-0.1,0H217l-0.2-0.5l0.1-0.1h-0.3v-0.2C216.6,402.6,216.8,402.5,217.1,402.4z M217.2,401.5h0.3v0.3h-0.3V401.5z M217.2,413.4
			L217.2,413.4l0.3,0.2v0.1h-0.1L217.2,413.4L217.2,413.4L217.2,413.4z M217.3,403.4h0.2v0.3L217.3,403.4L217.3,403.4z M217.7,403.3
			L217.7,403.3l0.1,0.3l-0.1,0.4h-0.3v-0.2L217.7,403.3z M217.8,401.7h0.2v0.1l-0.3,0.3l-0.2-0.2L217.8,401.7z M217.6,413L217.6,413
			l0.4,0.3l-0.1,0.3h-0.1l-0.2-0.2V413z M217.7,404.1h0.2v0.2h-0.2V404.1z M218,403.7h0.3v0.3H218V403.7z M218.4,404.5L218.4,404.5
			L218.4,404.5l-0.2,0.4h-0.1v-0.1L218.4,404.5z M218.2,402.3l0.5,0.1v0.3l-0.2,0.2l-0.3-0.4V402.3z M218.6,403.4v0.2h-0.2
			L218.6,403.4z M218.4,410.6h0.2l0.5,0.4v0.1C218.7,411,218.4,410.8,218.4,410.6z M218.9,392.2h0.2l-0.2,1h-0.2v-0.3L218.9,392.2z
			 M218.9,403h0.4v0.3l-0.6,0.1v-0.2L218.9,403z M218.7,404.6h0.2v0.2h-0.2V404.6z M218.8,402.6h0.2v0.2h-0.2V402.6z M218.8,403.4
			h0.2v0.2h-0.2V403.4z M219.2,405.1h0.3l0.1,0.5v0.1c-0.5,0-0.7-0.1-0.7-0.2L219.2,405.1z M219.3,408.4h0.2l0.2,0.2v0.2h-0.1
			l-0.1-0.1h-0.1v0.2h-0.1l-0.2-0.2v-0.1L219.3,408.4z M219.2,402.4L219.2,402.4l0.1,0.2h-0.1V402.4z M219.7,403.4L219.7,403.4
			l0.1,0.2h-0.1v0.1l0.1,0.3l-0.1,0.1l0,0l-0.5-0.4v-0.2L219.7,403.4z M219.7,408.8h0.2v0.2h-0.2V408.8z M219.7,395.4h0.2l-0.2,0.2
			V395.4z M219.7,406.6l0.4,0.2v0.1l-0.2,0.2h-0.2V406.6z M219.7,411.5h0.2v0.1L219.7,411.5L219.7,411.5z M219.7,415.3h0.2v0.1
			L219.7,415.3L219.7,415.3z M220,405.5L220,405.5l0.1,0.2l-0.2,0.2l-0.1-0.1v-0.1L220,405.5z M219.8,412.1L219.8,412.1l0.3,0.2H220
			L219.8,412.1z M220,406.2L220,406.2l0.4,0.3h-0.2L220,406.2L220,406.2L220,406.2z M221.9,391l0.2,0.2c-0.2,1-0.7,2.2-1.7,3.6h-0.3
			l0.2-0.2l-0.1-0.1v-0.3h0.3l-0.1-0.1v-0.3l0.8-0.8l-0.2-0.2c-0.3,0.1-0.4,0.3-0.4,0.5h-0.2v-0.1c0.5-0.4,0.7-0.8,0.7-1
			c0.1-0.3,0.4-0.7,0.8-1V391L221.9,391z M220.2,407.1h0.2v0.1L220.2,407.1L220.2,407.1z M220.4,402.1L220.4,402.1l0.1,0.2h-0.1
			V402.1z M220.9,402l0.2,0.2v0.1l-0.4,0.1l-0.1-0.1v-0.1L220.9,402z M221.1,414.8l0.2,0.2h-0.2V414.8z M221.6,387.7L221.6,387.7
			v0.5h-0.2v-0.3L221.6,387.7z M221.4,388.7h0.2v0.2h-0.2V388.7z M221.4,415.3L221.4,415.3l0.1,0.2h-0.1V415.3z M221.5,391.9v0.2
			h0.1L221.5,391.9L221.5,391.9z M221.6,414.9h0.2v0.1L221.6,414.9L221.6,414.9z M222,387.8v0.2l-0.1,0.5h-0.2v-0.4L222,387.8z
			 M223.7,412.1l0.2,0.2v0.1l-0.1-0.1h-0.1l-0.2,0.2l-0.1-0.1v-0.1L223.7,412.1z M226.5,378.2h0.3c-0.1,0.5-0.3,0.7-0.7,0.7
			l-0.2-0.4l0.1-0.1h0.1l0.1,0.1h0.1C226.3,378.3,226.4,378.2,226.5,378.2z M228.4,380.3c0,0.1,0.1,0.2,0.3,0.2l0.1,0.1v0.1
			c-0.1,0-0.2,0.1-0.2,0.3l-0.4-0.4v-0.1L228.4,380.3z M228.5,380l0.2,0.1v0.2h-0.1L228.5,380L228.5,380L228.5,380z M229.2,380.3
			L229.2,380.3c0.5,0.3,0.7,0.9,0.7,1.8v0.1c-0.3,0.4-0.6,0.7-1.2,0.7l-0.3-0.3l0.2-0.3l0.3,0.1l-0.1-0.1v-0.1h0.1l-0.1-0.1v-0.2
			c0.2,0,0.4-0.1,0.6-0.4l0,0l-0.1,0.1h-0.2l-0.1-0.5l0.2-0.3V380.3z M229.2,380.9v0.2h0.1L229.2,380.9L229.2,380.9z M230.8,384.6
			L230.8,384.6l0.3,0.2l-0.2,0.2h-0.1V384.6z M232.7,384.8h0.2v0.2h-0.2V384.8z M233.4,382.3l0.2,0.6l-0.2,0.2l-0.2-0.2v-0.4
			L233.4,382.3z M234.3,384.8l0.2,0.3l-0.2,0.2h-0.2v-0.1l0.1-0.1V385l-0.1-0.1L234.3,384.8C234.2,384.8,234.3,384.8,234.3,384.8z
			 M235.3,382.8h0.2v0.1L235.3,382.8L235.3,382.8z M236.4,382.8h0.2v0.2h-0.2V382.8z M238.9,382.6L238.9,382.6l0.1,0.4h-0.1
			l-0.2-0.2L238.9,382.6z"/>
		<path fill="#FFFFFF" d="M261.3,379.7h6l0.2,0.2v5.9l-0.2,0.2h-6l-0.2-0.2v-6L261.3,379.7z M269.2,379.7h16.7l0.2,0.2v1.3l0.2,0.3
			l-0.4,0.3h-1.3v4l-0.2,0.2h-7.7v5.5c0,0.1-0.1,0.2-0.3,0.2v0.3c0,0.4,0.1,0.7,0.4,1.1v5.4l-0.1,0.6l0.1,0.5v0.7l-0.2,0.2l0.2,0.2
			l-0.2,0.4l0.2,0.2v0.5c0,0.1-0.2,0.2-0.5,0.2v0.1l0.1,0.1c0,0.2-0.1,0.3-0.3,0.3v0.2l0.8,0.5l-0.1,0.5v2.5l-0.1,0.1l0.1,0.1v4.5
			l-0.2,0.2h-5.1l-0.1-0.1h-0.1l0.1-0.1v-0.1l-0.1-1.2l-0.1,0.1h-0.1l0.1,0.1l-0.2,1.1l0.1,0.1L271,411h-1.8v-0.1l0.2-0.3v-0.4
			l-0.3-0.4v-3.6l0.3-0.4l-0.2-0.4l0.2-0.5h-0.1l-0.2-0.2v-0.9l0.2-0.3l-0.2-0.3V401l0.1-0.1l-0.1-0.1v-0.4c0-0.1,0.2-0.3,0.6-0.4
			l-0.1-0.6l0.2-0.2l-0.5-0.2v0.5h-0.1l-0.1-0.5v-0.4l0.2-0.2c0.1,0,0.2,0.1,0.2,0.3c0.2,0,0.3,0.1,0.3,0.3c0.3,0,0.5,0.3,0.6,0.8
			c0.5,0,0.7,0.2,0.7,0.7l-0.7,0.3l-0.1-0.1v0.5l-0.1-0.1h-0.1l-0.1,0.1v0.2h0.3v0.3l-0.1,0.1v0.1l1,0.5h0.3c0.1,0,0.2-0.2,0.3-0.5
			l-0.4-1.4l0.1-0.3l-0.2-1.4h0.1l-0.1-0.1v-1.1h-0.2c0,0.3-0.1,0.5-0.4,0.5l-0.3-0.1l-0.2,0.2h-0.4c-0.5-0.3-0.7-0.6-0.7-1V393
			c0-0.1,0.1-0.2,0.3-0.2c0.9,0.7,1.6,1.1,1.9,1.1l0.1-0.1v-0.4c0-0.3-0.5-0.5-1.4-0.8c-0.6-0.6-0.9-1.3-0.9-2.2L269.2,379.7
			L269.2,379.7z M269.3,401.2L269.3,401.2l0.3,0.1v-0.1H269.3z M269.6,387.8L269.6,387.8c0.2,0.6,0.5,0.9,0.8,0.9l0.2-0.4l-0.2-0.7
			h-0.1L269.6,387.8z M270,390.3L270,390.3l0.2,0.1v-0.1H270z M270,400.4L270,400.4l0.1,0.2l0.3-0.1v-0.1H270z M270.4,390.1
			l-0.1,0.5v0.7l0.2,0.2h0.2v-1.2L270.4,390.1L270.4,390.1z M270.2,400.1L270.2,400.1l0.2,0.1v-0.1H270.2z M270.5,400.4v0.2l0.2-0.2
			H270.5z M270.8,391.5v0.2h0.2L270.8,391.5z M270.8,405.7c0.4,0.7,0.6,1.1,0.6,1.4l-0.4,0.1v0.5h0.1l0.6-0.8v-0.6
			c0-0.5-0.2-0.8-0.5-0.8L270.8,405.7z M271.2,392.1v0.3h0.1L271.2,392.1L271.2,392.1z M271.6,400v0.2l0.2-0.2H271.6z M271.6,400.3
			L271.6,400.3l-0.1,0.3h0.1l0.3-0.1v-0.1L271.6,400.3z M271.6,394.9L271.6,394.9l0.2,0.1v-0.1H271.6z M271.6,399.3L271.6,399.3
			l0.2,0.1v-0.1H271.6z M271.6,405.2v0.3h0.3v-0.2h0.2v0.2l0.2-0.2v-0.4L271.6,405.2z M271.6,401v0.2h0.1l0.2-0.2H271.6z M273,388.5
			c0,0.3-0.1,0.4-0.2,0.4l0.1,0.1v0.8c-0.2,0.3-0.4,0.7-0.6,1.5l-0.3,0.5c0.4,0.2,0.6,0.5,0.6,1l0.3,0.3h0.1c0.3,0,0.5-0.1,0.7-0.4
			l-0.3-1.6l0.2-0.4C273.5,389.4,273.3,388.6,273,388.5z M272,390.3v0.2h0.1L272,390.3L272,390.3z M272,390.9v0.2h0.1L272,390.9
			L272,390.9z M272,400l0.2,0.2l0.1-0.1V400H272z M272,400.4L272,400.4l-0.1,0.4l0.2,0.3l-0.1,0.4l0.5,0.1v-0.1l-0.1-0.4
			c0-0.3,0.1-0.4,0.3-0.4v-0.1l-0.4-0.1l-0.1,0.1L272,400.4z M272.3,398.4L272.3,398.4l0.2,0.1v-0.1H272.3z M272.4,400.2v0.2h0.2
			v-0.2H272.4z M272.6,394.8l-0.1,0.3c0.2,0,0.3,0.3,0.3,0.9l0.1-0.1h0.1l-0.1-0.3l0.1-0.1v-0.1l-0.1-0.4l0.1-0.1L272.6,394.8z
			 M272.6,404.9l-0.1,0.3v0.2h0.1V404.9L272.6,404.9L272.6,404.9z M272.8,400.2v0.3h0.1L272.8,400.2L272.8,400.2z M272.8,396.1v0.2
			h0.1l0.2-0.2H272.8z M272.8,398.5L272.8,398.5l0.2,0.1v-0.1H272.8z M273,394.2v0.2l0.2-0.2H273z M273,397.9v0.3h0.1L273,397.9
			L273,397.9z M273,403.2v0.4l0.5,0.1v-0.4L273,403.2z M273.1,400.5v0.3h0.1L273.1,400.5L273.1,400.5z M273.2,401.5L273.2,401.5
			l0.1,0.3h-0.2v0.1h0.6v-0.4C273.7,401.5,273.2,401.5,273.2,401.5z M273.4,405.5v0.9c0.4-0.1,0.6-0.2,0.6-0.3
			c0-0.2-0.1-0.3-0.4-0.3L273.4,405.5C273.5,405.5,273.4,405.5,273.4,405.5z M273.4,408v0.5h0.1L273.4,408L273.4,408z M273.5,395.1
			v0.2h0.1L273.5,395.1L273.5,395.1z M273.8,400.4v0.2h0.1L273.8,400.4L273.8,400.4z M274,393.3L274,393.3h0.5l-0.2-0.2h-0.1
			L274,393.3z M274,401v0.4l0.2,0.2l0.2-0.2v-0.2L274,401z M274.2,396.2L274.2,396.2l0.2,0.1v-0.1H274.2z M275.3,397.7
			c0,0.1-0.3,0.4-0.8,0.8h-0.3v0.1c0.5,0,0.8,0.2,0.8,0.6l0.1,1.1H275l0.1,0.1l0,0l-0.1,0.1c0.2,1.1,0.4,1.6,0.6,1.7l0.1-0.3
			l-0.1-0.1v-0.1l0.2-0.4l-0.1-0.5l0.1-0.6l-0.2-0.2l-0.1-2.2L275.3,397.7L275.3,397.7z M274.4,386.8l-0.1,0.8
			c0.4,0.6,0.6,1.1,0.6,1.6h0.4V389l-0.2-0.8v-0.9L274.4,386.8L274.4,386.8z M274.4,391.1L274.4,391.1l0.7,0.9
			c0.3-0.4,0.5-0.6,0.7-0.6v-0.1c-0.5-0.6-0.8-0.9-0.9-0.9C274.5,390.6,274.4,390.8,274.4,391.1z M274.4,392L274.4,392l0.2,0.1V392
			H274.4z M274.6,392.3v0.3h0.1L274.6,392.3L274.6,392.3z M274.6,393.9c0.2,0.5,0.3,0.8,0.4,0.8h0.1l0.1-0.5l-0.1-0.4L274.6,393.9z
			 M274.8,395.2l-0.1,0.3c0,0.3,0.2,0.6,0.5,0.8h0.2v-0.2l-0.4-0.9C275,395.2,274.8,395.2,274.8,395.2z M275,402.6L275,402.6
			l0.4,0.5v-0.5H275z M275.6,405.8l-0.1,0.4c0.1,0,0.2,0.1,0.2,0.3h0.2V406L275.6,405.8L275.6,405.8z M275.7,404.2v0.2h0.1
			L275.7,404.2L275.7,404.2z M275.9,400.4v0.2h0.2L275.9,400.4z M277,403.2h0.2v0.1L277,403.2L277,403.2z M277.5,402.7L277.5,402.7
			l0.3,0.2v0.2l-0.1,0.1v0.1l0.1,0.1l-0.1,0.1h-0.1l-0.3-0.3h-0.1v-0.1L277.5,402.7L277.5,402.7L277.5,402.7z M277.8,402.1l0.2,0.2
			v0.6l-0.3-0.3L277.8,402.1z M278,375.9L278,375.9l0.1,0.2H278V375.9z M278.5,377.8L278.5,377.8l0.1,0.2h-0.1V377.8z M278.6,403.1
			h0.3v0.1l-0.1,0.5h-0.1c-0.1,0-0.2-0.1-0.2-0.3L278.6,403.1z M278.6,395.9h0.2v0.5h-0.2V395.9z M278.6,399.3L278.6,399.3l0.3,0.2
			v0.1h-0.2L278.6,399.3z M278.8,375.9L278.8,375.9l0.2,0.1l0.3-0.1l-0.2,0.2l0.1,0.1v0.2H279v-0.3h-0.1l-0.1,0.1h-0.1v-0.1
			L278.8,375.9L278.8,375.9L278.8,375.9z M278.9,377.3h0.2v0.1L278.9,377.3L278.9,377.3z M279.6,403.1L279.6,403.1l0.3,0.2l-0.1,0.1
			v0.1l0.1,0.1l-0.1,0.1h-0.1l0.1,0.1v0.3h-0.2c-0.1,0-0.2-0.1-0.2-0.3h-0.2v0.2c0.2,0,0.3,0.1,0.3,0.2v0.1h-0.4l-0.2-0.2
			C279.1,403.5,279.4,403.1,279.6,403.1z M279.2,399l0.2,0.2l-0.2,0.2l0.1,0.1v0.1l-0.2,0.2H279v-0.6L279.2,399z M279.7,375.8
			l0.1,0.3l0.1-0.1h0.1v0.2l-0.3,0.8l0.3,0.8c0.3,0,0.5-0.2,0.5-0.5l0.3-0.1l0.1,0.1v0.1h-0.2v0.2h0.3v0.5h-0.1v-0.3h-0.3
			c0,0.3-0.1,0.4-0.2,0.4h-0.1c0-0.2-0.1-0.3-0.2-0.3L280,378l-0.1-0.1h-0.2l-0.5,0.1l-0.1-0.1v-0.2c0.3,0,0.5-0.1,0.5-0.3l-0.1-0.1
			v-0.1l-0.1,0.1h-0.3v-0.1l0.2-0.2l0.1,0.1h0.1l0.2-0.6l-0.2-0.2l0.2-0.2V376h-0.2L279.7,375.8z M279.3,394.3L279.3,394.3l0.1,0.3
			l-0.3-0.1L279.3,394.3z M279.3,378.2h0.2v0.1L279.3,378.2L279.3,378.2z M280.2,395.6l0.7,0.1v0.1l-0.1,0.1v0.1h0.2v0.1
			c-0.1,0.3-0.3,0.5-0.4,0.5l-0.2-0.2l-0.1,0.1l-0.1-0.1v-0.1l0.1-0.1h-0.1l-0.3,0.1l-0.1-0.1l-0.2,0.2h-0.2v-0.1
			C279.7,395.9,280,395.6,280.2,395.6z M279.6,378.2h0.2l-0.2,0.2V378.2z M279.8,378.5L279.8,378.5l0.1,0.2l-0.1,0.1h-0.2v-0.1
			L279.8,378.5z M279.9,376.5h0.2v0.3h-0.2l0.1-0.1L279.9,376.5L279.9,376.5z M280.2,406.4c0.1,0,0.2,0.2,0.3,0.6l-0.1,0.1h-0.1
			l-0.4-0.1c0-0.1,0.1-0.2,0.4-0.2v-0.1c-0.2,0-0.3-0.1-0.3-0.2L280.2,406.4L280.2,406.4z M280,407.6L280,407.6l0.1,0.2H280V407.6z
			 M280.2,376.2h0.3l-0.2,0.2L280.2,376.2L280.2,376.2z M280.2,395.9L280.2,395.9l0.5,0.1v-0.2L280.2,395.9z M280.2,407.3
			L280.2,407.3l0.1,0.2h-0.1V407.3z M280.5,406L280.5,406L280.5,406l-0.1,0.3h-0.1v-0.1L280.5,406z M280.7,375.8
			c0,0.1,0.1,0.2,0.3,0.2v0.3h-0.3l0.1-0.1v-0.1h-0.3V376L280.7,375.8z M280.7,406.5L280.7,406.5l0.3,0.2l0.1,0.4h-0.3l-0.1-0.1
			h-0.1L280.7,406.5z M281.2,398.7L281.2,398.7l0.1,0.2h-0.1V398.7z M281.4,396.1L281.4,396.1l0.1,0.2h-0.1V396.1z M281.5,403.4h0.3
			l0.1,0.4h-0.1L281.5,403.4L281.5,403.4z M281.6,377.4L281.6,377.4l0.1,0.2h-0.1V377.4z M281.6,377.8L281.6,377.8l0.1,0.2h-0.1
			V377.8z M281.8,394.6L281.8,394.6l0.1,0.2h-0.1V394.6z M282.1,393.6h0.2v0.2h-0.2V393.6z M282.2,389.8L282.2,389.8l0.1,0.2h-0.1
			V389.8z M282.9,376.2L282.9,376.2l0.1,0.2l-0.3,0.2h-0.2v-0.3L282.9,376.2z M282.6,394.5h0.2l0.1,0.3h-0.1L282.6,394.5
			L282.6,394.5z M282.8,377.2l0.2,0.2l-0.1,0.1h-0.1L282.8,377.2L282.8,377.2z M283.1,393.9v0.3h-0.2v-0.1L283.1,393.9z M283,390.6
			h0.2v0.2H283V390.6z M283.3,394.6l0.1,0.4h-0.1l-0.3-0.3l0.1-0.1H283.3z M283.1,377.7h0.2v0.2h0.1v-0.2c0.4,0,0.6,0.1,0.7,0.4
			l-0.1,0.1h-0.2V378h-0.4l-0.1,0.1h-0.1l-0.1-0.1L283.1,377.7L283.1,377.7z M283.5,394.2L283.5,394.2L283.5,394.2l-0.1,0.3h-0.1
			v-0.1L283.5,394.2z M283.5,390.5L283.5,390.5l0.1,0.2h-0.1V390.5z M283.8,396.3L283.8,396.3l0.1,0.2h-0.1V396.3z M283.9,403.8
			L283.9,403.8l0.1,0.2h-0.1V403.8z M284.4,376.3v0.2l-0.2,0.2l-0.2-0.3l0.1-0.1C284.1,376.3,284.4,376.3,284.4,376.3z M284,403.4
			L284,403.4l0.3,0.2l-0.1,0.1H284V403.4z M284.5,399L284.5,399l0.3,0.2h-0.5L284.5,399z M284.5,400l0.2,0.2v0.1L284.5,400
			L284.5,400z M284.6,401.9l0.4,0.2l0.3-0.1l-0.1,0.1v0.2h0.1l0.1-0.4h0.1l0.1,0.4l-0.1,0.1l0.1,0.1l-0.4-0.1H285v0.1h0.4v0.2
			l-0.7,0.5l-0.1-0.1v-0.4l0.1-0.1v-0.1l-0.2-0.2h0.2v-0.1L284.6,401.9z M284.9,403.8v0.2h-0.4v-0.1L284.9,403.8z M284.6,377h0.5
			v0.1l-0.5,0.1V377z M284.9,406.9L284.9,406.9l0.1,0.2h-0.1V406.9z M285,377.7L285,377.7l0.1,0.2H285V377.7z M285.3,377.6
			L285.3,377.6l0.3,0.6l-0.1,0.1h-0.1l-0.1-0.3V377.6L285.3,377.6z M285.5,407h0.2l-0.1,0.4h-0.3v-0.2L285.5,407z M286,402.1v0.2
			h-0.2L286,402.1z M286.1,394.1h0.2v0.2h-0.2V394.1z M286.6,394.2L286.6,394.2l0.1,0.2l-0.2,0.2l-0.2-0.2L286.6,394.2z
			 M286.5,382.4h0.2l-0.2,0.2V382.4z M286.9,403L286.9,403l0.1,0.3h-0.3v-0.1L286.9,403z M287.2,392.8v0.3l0.1-0.1h0.2l-0.1,0.1
			l0.1,0.1v0.1l-0.2,0.2c0-0.2-0.1-0.3-0.3-0.3V393L287.2,392.8z M287.3,395.3l0.2,0.2v0.1L287.3,395.3L287.3,395.3z M288,394.2
			c0.4,0.1,0.6,0.3,0.7,0.5v0.1l-0.4-0.2l-0.1,0.1l-0.2-0.3V394.2z M288.1,400h0.2v0.2L288.1,400z M288.4,401.7h0.2l-0.2,0.2V401.7z
			 M288.5,395h0.3l-0.2,0.2h-0.1V395z M288.9,400h0.2v0.2L288.9,400z M289,386.8h0.2v0.2H289V386.8z M289,395.3L289,395.3l0.4,0.3
			l-0.1,0.1h-0.2L289,395.3z M289.3,401.5l0.4,0.1v0.3h-0.2l-0.1-0.1l-0.1,0.1h-0.2v-0.3l0.1,0.1h0.1V401.5z M289.4,396.1v0.2h-0.2
			L289.4,396.1z M289.3,388.7h0.2l0.2,0.2v0.1h-0.2l0.1,0.1v0.2C289.5,389.3,289.4,389.1,289.3,388.7z M289.4,377.4L289.4,377.4
			l0.1,0.2h-0.1V377.4z M290.1,400.5L290.1,400.5l0.1,0.2l-0.6,0.2v0.2l0.1,0.1v0.1l-0.3,0.1v-0.3c0-0.3,0.1-0.5,0.2-0.5l0.3,0.1
			L290.1,400.5z M289.8,406.6L289.8,406.6l0.1,0.2l-0.2,0.2h-0.1v-0.2L289.8,406.6z M289.7,396.6h0.2v0.1L289.7,396.6L289.7,396.6z
			 M289.8,397h0.3v0.1l-0.1,0.1v0.1c0.3,0,0.5,0.1,0.5,0.2l-0.1,0.1c-0.4-0.2-0.6-0.3-0.6-0.4L289.8,397L289.8,397z M289.8,399.5
			h0.3l0.2,0.2l-0.4,0.1v0.1h0.2l0.5-0.2l0.1,0.1v0.1c-0.1,0.3-0.3,0.4-0.7,0.4l-0.2-0.3V399.5L289.8,399.5z M289.8,401.5h0.2v0.2
			h-0.2V401.5z M290,388L290,388l0.1,0.2H290V388z M290.9,402.6l0.2,0.2v0.1l-0.5,0.1h-0.1l-0.1-0.1h-0.1l-0.1,0.1l-0.1-0.1v-0.1
			h0.8L290.9,402.6L290.9,402.6z M290.2,397.7h0.3v0.3h-0.1L290.2,397.7L290.2,397.7z M290.2,401.7h0.2c0,0.2,0.1,0.3,0.2,0.3v0.1
			l-0.2,0.2L290.2,401.7z M290.5,400.8l0.2,0.2v0.2h-0.2v0.1h0.1l0.1-0.1h0.1l0.1,0.1l0.5-0.1h0.1c0.3,0.1,0.4,0.3,0.4,0.6l-0.5,0.3
			h-0.2l-0.2-0.2v-0.2l0.1-0.1v-0.1l-0.4-0.1l-0.2,0.2l-0.1-0.1h-0.1l0.1-0.3l-0.1-0.3L290.5,400.8L290.5,400.8z M290.5,398.1h0.2
			l0.2,0.2v0.3h-0.1C290.7,398.6,290.6,398.4,290.5,398.1z M290.5,402.4l0.2,0.2h-0.2V402.4z M291,400.8l0.2,0.2l0.1-0.1h0.2v0.2
			l-0.5,0.1V400.8z M291.1,366.5h0.2v0.2L291.1,366.5z M292.2,401.9v0.2l-0.1,0.1v0.1h0.2v0.2h-0.2c0,0.2-0.1,0.3-0.2,0.3h-0.2v-0.2
			c0.2,0,0.3-0.1,0.3-0.2v-0.2l-0.3,0.2l-0.3-0.1C291.4,402.1,291.7,402,292.2,401.9z M292.4,402.7v0.5h-0.2v-0.3L292.4,402.7z"/>
		<path fill="#FFFFFF" d="M152.7,389.9h7.8l1.2,0.5v-0.1l-0.1-0.3l0.1-0.1h0.5c0.7,0.6,3.2,1.3,7.6,2.2v0.6l-0.1,0.5l0.1,0.1h0.1
			l0.1-0.1v-0.2l-0.1-0.1v-0.1l0.3-0.2l0.6,0.6v0.3c-0.3,0.7-0.5,1.3-0.5,1.7v0.3c0,0.5,0.3,1,0.9,1.6h0.3l0.1-0.1v-0.1l-0.1-0.5
			l0.7-0.3v-0.3c-0.1-0.6-0.2-1-0.4-1l0.1-0.1V394c-0.3-0.3-0.4-0.8-0.4-1.5l0.1-0.1c0.4,0,0.7,0.4,0.9,1.1l0.4,0.8h0.1l0.5-0.3
			l-0.3-0.4v-0.2h0.2c0.4,0.4,0.9,0.6,1.4,0.8l0.4,0.6l-0.1,0.1v0.1c0,0.3,0.1,0.4,0.4,0.4l0.1,0.1l0.1-0.1v-0.1h0.1
			c0.9,0.8,1.4,1.7,1.6,2.7h-0.5h-0.1c-1.1-1.4-1.9-2.1-2.2-2.1c-0.3,0.1-0.5,0.3-0.5,0.4v0.3c0,0.2,0.1,0.3,0.4,0.3v0.3
			c-0.3,0-0.5,0.2-0.6,0.6l-0.5,0.1c-0.3,0.1-0.5-0.5-0.5-1.5h-0.2l-0.2,0.2l0.1,0.8l-0.6,0.4l0.2,0.5l-0.3,0.6
			c0.1,0.1,0.2,0.6,0.3,1.5c0.2,0,0.3,0.3,0.5,0.8l0.4,0.2l0.4-0.3c-0.1-0.8-0.2-1.3-0.4-1.4v-0.4c0.5-0.4,1-0.7,1.5-0.9l0.1,0.1
			v0.8h-0.1l-0.3-0.2H174c-0.1,0-0.2,0.2-0.3,0.5c0,0.1,0.3,0.4,1,0.9l0.1,0.5l-0.2,1.1l0.1,0.5l-0.2,0.5c0.1,0.6,0.4,0.9,0.9,0.9
			l0.3-0.8l-0.4-0.7v-0.1c0.3,0,0.5-0.2,0.6-0.6v-0.3c-0.3-0.3-0.5-0.5-0.5-0.7l0.2-0.9c-0.1-0.3-0.2-0.5-0.5-0.8V399
			c0.1-0.6,0.2-0.8,0.4-0.8h0.1c0.5,0.2,0.7,1,0.7,2.4v0.6l-0.2,0.2l0.1,0.7v0.2c0,0.9-0.3,1.9-1,3l-0.2,0.1h-0.1l0.1,0.1v0.1
			c-0.1,0.4-0.6,1-1.4,1.9h-0.2l-0.1-0.6v-0.1l0.1-0.5l-0.1-0.5l0.1-0.9l-0.2-1.7v-0.9l-0.3-0.3h-0.3l-0.2,0.2l0.2,0.9l-0.3,0.3v0.3
			c0,0.4,0.1,0.7,0.4,1v0.2l-0.3,1l0.1,0.6l-0.1,0.7c0.1,0.8,0.2,1.2,0.3,1.3c-1.3,1.1-3,1.9-5.2,2.4h-0.1l-0.1-0.1
			c0-0.4,0.1-0.6,0.2-0.6c-0.1-0.3-0.3-0.5-0.6-0.5v0.1c-0.3,0.9-0.7,1.3-1.2,1.3l-1.5,0.1h-1.1c-5.6,0-9.5-2.2-11.7-6.7l-0.5-1.6
			c0.4-0.2,2.7-0.7,6.7-1.5l0.1,0.3l1.3-0.3c0.3,0.9,0.8,1.8,1.4,2.7c0,0.2,0.2,0.3,0.5,0.6l0.1-0.1h0.1c0.2,0,0.8,0.3,1.6,0.8
			l0.1-0.1c0.8,0,1.4,0.4,1.6,1.2v-0.1h0.1c0.3-0.1,0.4-0.3,0.4-0.7v-0.5h0.1l1.3-0.2l0.1,0.3h0.1c0.5,0,0.7-0.2,0.7-0.6l0.9-0.7
			c0.1,0,0.2,0.2,0.4,0.7h0.3l0.3-0.3v-0.1c0-0.2-0.1-0.5-0.4-0.8v-0.1c0.1-0.5,0.2-0.8,0.3-0.9l-0.1-0.1v-0.7l0.7-0.8l-0.8-2.3
			v-0.4l0.2-0.8l-0.2-0.5v-0.2c0-0.1,0.3-0.2,1-0.3v-0.5c0-0.1-0.3-0.2-0.8-0.3c0-0.5-0.1-0.9-0.4-1.1l0.1-0.3l-0.1-1.8l-0.1-0.1
			h-0.1l-1,1.1c-0.1,0-0.4-0.7-0.9-1.9l-0.3-0.1c0,0.3-0.2,0.8-0.7,1.6l0.5,1.5c-0.1,0-0.3,0.2-0.4,0.7l-0.6,0.2
			c-0.3,0-0.5-0.4-0.7-1.3c0-0.2,0.2-0.5,0.6-0.8c-0.1-0.2-0.2-0.4-0.6-0.6c-0.2,0-0.4,0.5-0.6,1.5l-0.7,0.6c0,0.4,0.3,1.1,0.8,2.2
			l0.1,0.5h0.5v-0.1c0-1,0.3-1.5,0.9-1.5l0.1-0.1h0.3l0.6,0.5c0.1,0,0.2-0.3,0.2-1l0.1-0.1h0.1l0.4,0.4l0.3-0.1l0.1,0.1v0.3
			c-1,0.8-1.5,1.6-1.5,2.4l-0.3,0.4v0.2l0.1,0.1v0.1h-0.1c-0.7,0-1.3-0.3-1.7-1h-0.2c0,0.4-0.1,0.6-0.2,0.6h-0.1l-0.2-0.3l0.1-0.1
			V398h-0.1l-0.2,0.2l0.1,0.1v0.1l-0.1,0.1c-0.4,0-0.7-0.3-0.9-0.9l-0.1-0.1c-0.3,0-0.5,0.2-0.6,0.6
			C155.6,396.6,152.7,393.9,152.7,389.9C152.7,390,152.7,389.9,152.7,389.9z M163.5,379.8h2.2c5.4,0,9.1,2.1,11,6.4l0.2,0.6
			l-0.2,0.2l-1.9-2.4l-0.4-0.3v0.1c0.7,1.1,1.1,1.9,1.2,2.4l-6.1,2c-0.9-2.5-2.6-3.7-5.3-3.7c-2,0-3.4,0.5-4.2,1.6h-6.8l-0.2-0.2
			C154.8,382,158.3,379.8,163.5,379.8z M158.8,403.2L158.8,403.2c0.6,0.8,1,1.1,1.2,1.1v-0.1l-0.5-1.1L158.8,403.2z M160.6,409v0.6
			h0.1L160.6,409L160.6,409z M162,409.5c0.2,0.5,0.5,0.7,0.7,0.8l0.2-0.3v-0.1c0-0.6-0.2-1-0.5-1C162.2,409.1,162.1,409.2,162,409.5
			z M162.1,406.5v0.2h0.2v-0.2H162.1z M164.4,406.4l-0.5,0.5c0.1,0.1,0.3,0.6,0.5,1.5c-0.1,0-0.2,0.2-0.3,0.7
			c0.1,0.3,0.3,0.5,0.4,0.5l0.5-0.9l-0.1-0.9h0.1L164.4,406.4L164.4,406.4z M164.3,410.2v0.2h0.2v-0.2H164.3z M166.7,406.3
			L166.7,406.3l-0.1,0.4l0.1,0.1v0.1l0.3-0.1v-0.2L166.7,406.3z M167.1,398.8h0.2c0.6,0.2,0.9,0.5,1.1,0.8v0.6h-0.1l-1.5-0.8
			C166.8,399,166.9,398.8,167.1,398.8z M168.2,406.7v0.4c0.3,1.1,0.6,1.6,0.8,1.6h0.2l0.3-0.3V408c0-0.2-0.3-0.7-1-1.5h-0.1
			L168.2,406.7z M168.5,404.9l-0.2,0.3v0.4c0.1,0.3,0.3,0.4,0.7,0.4l0.1-0.4C169,405.2,168.8,405,168.5,404.9z M170.3,401.1v0.3
			l0.4,0.6v0.2l-0.3,0.6l0.3,1c-0.5,0.2-0.8,0.4-1,0.8v0.1c0.3,0,0.7,0.3,1.2,0.9h0.3l0.2-0.2v-0.7l-0.3-0.8l0.3-0.3v-0.5
			c0-0.3-0.1-0.5-0.4-0.6l0.1-0.7v-0.4c0-0.3-0.1-0.5-0.3-0.6C170.4,400.9,170.3,401,170.3,401.1z M170.6,397.7l0.1,0.4l-0.4,0.8
			l0.4,1.6h0.1c0.4-0.3,0.6-0.6,0.6-0.9l-0.3-0.8l0.2-0.6l-0.5-0.7L170.6,397.7z M172.6,394.9l-0.2,0.6c0,0.4,0.1,0.7,0.3,0.7
			l0.4-0.5v-0.3L172.6,394.9z M175.2,396.9c0.1,0,0.3,0.4,0.6,1.1h-0.3l-0.5-1L175.2,396.9L175.2,396.9z"/>
		<path fill="#FFFFFF" d="M178.4,379.7h7.2c8.4,0,12.9,0.4,13.5,1.1c2,0.9,3.5,2.3,4.6,4.4c0.5,1,0.7,1.8,0.7,2.5
			c-0.6-1.2-1.3-2.1-1.9-2.8l-0.7-0.5c0.9,1.4,1.3,2.9,1.3,4.4v1.3c0,3.2-1.5,5.8-4.4,7.9c-1.1,0.6-2,0.9-2.8,1.1l-0.2-0.6V398h-0.2
			v0.4l-0.1,0.5l0.1,0.1c-0.3,0.1-0.7,0.2-1.3,0.2H194l-0.2-0.2l0.1-0.1l-0.1-0.3l0.1-0.6c0-1-0.1-1.5-0.4-1.5l-1,0.7
			c0.5,0.8,0.8,1.4,0.8,1.8l-0.1,0.1h-3.7l-0.7-0.1l-0.5,0.1h-0.5c-0.2,0-0.3-0.5-0.4-1.6l-0.5-0.6l-0.2,0.3v0.2l0.1,0.6
			c-0.3,0.7-0.6,1.1-0.7,1.1h-1.2c-0.1,0-0.2-0.2-0.2-0.5l-0.1-0.1h-0.3c-0.1,0-0.2,0.2-0.2,0.5l-0.1,0.1h-1.3
			c-0.3-0.1-0.4-0.3-0.4-0.7c0.3-0.3,0.5-0.6,0.5-0.9c-0.1-0.6-0.4-0.9-0.7-0.9c-0.5,0.2-0.7,0.4-0.7,0.7c0.1,0,0.2,0.2,0.4,0.7
			c0,0.4-0.2,0.7-0.6,1.1h-2l-0.4-0.1l-0.4,0.1l-0.1-0.1v-1.9l-0.1-0.8l0.1-0.8v-1.7l0.2-0.2h9.9l0.6,0.3v-0.1l0.2-0.2h1.4
			c2.5,0,4-0.9,4.7-2.8l0.2-1.3v-0.4c0-1.8-1-3-3-3.7c-1.4-0.2-2.2-0.3-2.3-0.4h-11.8l-0.2-0.2v-5L178.4,379.7z M178.5,401.4h2.6
			l0.8,0.2h1.1c0.3,0,0.6,0.2,1,0.7l1.1,0.4h0.1c0-0.3,0.1-0.4,0.2-0.4c-0.2-0.5-0.4-0.7-0.6-0.7v-0.2h0.9l0.2,0.2v9.2l-0.2,0.2
			h-0.1v-0.6c-0.2-1-0.4-1.6-0.5-1.7l0.2-0.3l-0.1-0.5v-1.3l-0.1-0.5c-0.3,0.4-0.7,0.6-1.3,0.7c-0.7-0.2-1-0.7-1-1.3l-0.5-0.4
			c0,0.1-0.1,0.2-0.4,0.3l-0.5-0.2v0.3c0.4,0.7,1.1,1.3,2,2c0.4,0.3,0.6,0.6,0.6,0.9l0.8,0.6v0.1l-0.7,0.6l-0.1,0.7
			c0,0.3,0.2,0.5,0.7,0.5v0.2H181v-0.3l0.1-0.1c-0.1-0.5-0.4-0.7-0.8-0.7v0.1l-0.1,0.3l0.1,0.6h-1.7c-0.2,0-0.3-0.4-0.3-1.1
			c0.1,0,0.2-0.1,0.2-0.3l-0.3-0.9l0.4-0.5c0-0.7-0.1-1.1-0.3-1.4v-0.6c0-0.1,0.6-0.4,1.7-0.9c0.2,0.2,0.3,0.5,0.3,0.9
			c0.2-0.1,0.4-0.6,0.6-1.5c-0.3-0.2-0.5-0.4-0.5-0.8l0.3-0.3c0-0.4-0.3-0.6-0.8-0.7l-0.4,0.5v0.3l0.4,0.3l0.1,0.1v0.1
			c-0.1,0-0.5,0.3-1,1h-0.4l-0.3-0.3v-2.1l0.1-0.1l-0.1-0.1v-0.9L178.5,401.4z M179.4,406.3l-0.1,0.5c0.5,0.3,1,0.7,1.3,1.2
			c-0.3,0.5-0.4,0.9-0.4,1.3l0.1,0.5h0.1l0.9-0.6v-0.6c-0.2,0-0.5-0.2-0.6-0.7c0.2-0.1,0.3-0.3,0.3-0.8c0-0.3-0.2-0.6-0.6-0.7
			l-0.1,0.1h-0.4l-0.3-0.2H179.4z M181.9,408.5l-0.2,0.3c0,0.3,0.3,0.6,0.9,1v0.5h0.2l0.1-1C182.5,408.7,182.1,408.5,181.9,408.5z
			 M182.1,408l0.3,0.2l0.4-0.7l-0.3-0.1C182.3,407.5,182.1,407.7,182.1,408z M182.3,402.4L182.3,402.4l-0.1,0.2l0.3,0.3l-0.1,0.5
			l0.2,1.6h0.2l0.1-1.5C182.9,402.8,182.7,402.4,182.3,402.4C182.4,402.4,182.3,402.4,182.3,402.4z M183.3,396.2
			c0,0.5,0.3,0.9,1,1.2l0.4-0.1v-0.7l-0.3-0.6h-0.9L183.3,396.2z M184.9,405.4v0.2l0.2,0.2l0.1-0.1v-0.1L184.9,405.4L184.9,405.4z
			 M186.8,394.4v0.6l0.2,0.2l0.2-0.2v-0.4l-0.2-0.4L186.8,394.4z M188.1,394.8L188.1,394.8l0.1,0.9l-0.1,0.4
			c0.5,0.5,0.7,1.1,0.7,1.7l0.5,0.1l0.1-0.1v-0.4l-0.2-0.8l0.1-0.6v-0.4L188.1,394.8z M190.9,397.5v0.4l0.2-0.2L190.9,397.5z
			 M193.6,394.1L193.6,394.1l-0.1,0.2l0.1,0.1h0.1l0.1-0.1v-0.1L193.6,394.1L193.6,394.1z M195.5,396.2v0.6l0.2,0.2h0.4v-0.1
			C196,396.6,195.8,396.4,195.5,396.2z"/>
		<path fill="#FFFFFF" d="M233.1,379.7l0.4,0.1l2-0.1h6.3c7.9,0,12.2,0.3,12.9,1c1.9,0.7,3.3,2,4.3,3.9c0.7,1.4,1,2.4,1,2.9h-0.2
			c-0.3-1.1-1.1-2.3-2.6-3.6c1,1.7,1.5,3.4,1.5,5.1v0.1c0,2.9-1,5.1-3,6.7h-0.1c-0.8,0.8-1.6,1.2-2.4,1.5l5.8,13.8h-8.1
			c-0.2,0-1-2-2.5-6.1l-2.5-6.3h-1.3l-0.3-0.2V398l0.1-0.1l-0.1-0.1v-0.3l0.1-0.1l-0.1-0.1V397l0.3-0.1l-0.3-0.5v-3l0.2-0.2h0.1
			l0.3,0.2h0.1v-0.2h0.4c0,0.2,0.1,0.3,0.2,0.3v-0.2h0.1l0.5,0.1c0-0.2,0.1-0.3,0.2-0.3l0.2,0.2l0.2-0.2l0.1,0.1v0.1l-0.1,0.1v0.2
			h0.1v-0.2h0.2v0.2h0.1v-0.2l-0.1-0.1l0.1-0.1h0.1l0.2,0.2c0-0.3,0.3-0.5,0.9-0.5l0.4,0.2l0.1-0.1v-0.1l-0.1-0.3h0.1
			c0.5-0.2,1.1-0.8,1.7-2l0.4-0.9l-0.1-0.4l0.2-0.2c-0.1,0-0.3-0.6-0.6-1.8l0.1-0.1h0.1c0.3,0.1,0.5,0.3,0.6,0.5v0.1l-0.1-0.1H251
			l-0.1,0.1v0.2l0.8,0.3v-0.3c-0.2,0-0.3-0.1-0.3-0.2v-0.5c-0.6-0.2-0.9-0.5-0.9-0.9l-0.1-0.6l0.1-0.1h-0.3c0,0.4-0.1,0.7-0.4,0.8
			l-0.2-0.3l0.1-0.1l-0.1-0.1l-0.1,0.1h-0.2c-0.4-0.5-0.9-0.8-1.6-0.8v-0.6h-0.2v0.3h-0.1l-0.2-0.2c0-0.2,0.2-0.4,0.7-0.5v0.3h0.2
			v-0.1l-0.2-0.3l0.1-0.3v-0.1h-0.1c0,0.2-0.2,0.4-0.6,0.6v0.1l-0.3-0.2l-0.1,0.4l0.1,0.1l-0.1,0.1h-0.1c0-0.1-0.1-0.2-0.4-0.3
			l-0.3,0.3l-0.1-0.1h-0.1l-0.1,0.4h-0.1c-0.1,0-0.2-0.1-0.2-0.3h-0.2c0,0.2-0.1,0.3-0.2,0.3h-2.2l-0.2-0.2v-0.6h-0.2
			c0-0.2-0.1-0.3-0.2-0.3v0.9l0.1-0.1h0.2l-0.1,0.4h-2.2v2.7l-0.1,0.1l0.1,0.1v13.9l0.1,8.8l-0.1,0.1h-7.3l-0.2-0.2v-30.9
			L233.1,379.7z M245.2,383.1v0.2l0.2-0.2H245.2z M245.2,383.9v0.2h0.1L245.2,383.9L245.2,383.9z M245.3,384.9h0.4l-0.2-0.2
			L245.3,384.9z M245.3,398L245.3,398l0.2,0.1V398H245.3z M245.6,383.7L245.6,383.7l-0.1,0.4h0.2l0.2-0.2v-0.1L245.6,383.7z
			 M245.8,382.7c0,0.2-0.1,0.3-0.2,0.3l0.2,0.4h0.1v-0.1l-0.1-0.1v-0.1l0.1-0.1L245.8,382.7C245.9,382.7,245.8,382.7,245.8,382.7z
			 M245.6,383.3v0.2h0.1L245.6,383.3L245.6,383.3z M246.3,382l-0.2,1v0.3h0.1v-0.6h0.2v0.5h0.1l0.2-0.2v-0.7h-0.2
			C246.5,382.1,246.5,382,246.3,382z M246.4,383.4L246.4,383.4l0.3,0.4v-0.5L246.4,383.4z M246.4,383.8v0.3h0.1L246.4,383.8
			L246.4,383.8z M246.8,385.3L246.8,385.3l0.1,0.2h-0.1V385.3z M247,382l-0.1,0.5l0.1,0.1v0.1l-0.1,0.1l0.1,0.5l-0.1,0.5h0.2
			l0.3-0.3v-0.1c0-0.1-0.1-0.2-0.3-0.2v-0.4l0.2-0.2c0.1,0,0.2,0.1,0.2,0.3h0.1l0.1-0.5v-0.1c-0.2,0-0.3-0.1-0.3-0.3l-0.1,0.1h-0.1
			L247,382C247.1,382,247,382,247,382z M247.4,393.5L247.4,393.5l-0.1,0.3c0.4-0.1,0.6-0.2,0.6-0.3h-0.1L247.4,393.5L247.4,393.5z
			 M247.4,397.5l-0.1,0.5h0.4L247.4,397.5L247.4,397.5z M247.4,382.3L247.4,382.3l0.1,0.2h-0.1V382.3z M247.4,398.2l0.2,0.2l0.1-0.1
			v-0.2L247.4,398.2z M247.6,383v0.4h0.1L247.6,383L247.6,383z M247.6,393.1v0.2h0.1L247.6,393.1L247.6,393.1z M247.8,397.3
			L247.8,397.3l0.2,0.1v-0.1H247.8z M248,393.2v0.4h0.1l0.2-0.2L248,393.2C248.1,393.2,248,393.2,248,393.2z M248.1,383.9v0.2h0.1
			L248.1,383.9L248.1,383.9z M248.1,393.7v0.2h0.2v-0.2H248.1z M248.2,383.3v0.4c0.1,0,0.2,0.1,0.2,0.3l0.1-0.1h0.1l-0.1-0.7
			L248.2,383.3z M248.2,384.8v0.2h0.2v-0.2H248.2z M248.3,384.5v0.2h0.1L248.3,384.5L248.3,384.5z M248.4,398.3L248.4,398.3l0.3-0.2
			h-0.1L248.4,398.3z M248.7,382.4v0.2h0.1L248.7,382.4L248.7,382.4z M248.7,384.4v0.4h0.4v-0.1h-0.2v-0.2h0.1
			c0.2,0,0.3,0.1,0.3,0.4h0.1l0.1-0.5H248.7z M248.7,384.9v0.5h0.1L248.7,384.9L248.7,384.9z M248.7,383.3v0.2h0.1L248.7,383.3
			L248.7,383.3z M248.7,393.5v0.2l0.2-0.2H248.7z M248.8,384v0.2h0.1l0.3-0.1l0.1,0.1V384H248.8z M248.9,385.1v0.4h0.1
			c0-0.1,0.1-0.2,0.3-0.2v-0.2H248.9z M249,382.5v0.3h0.1L249,382.5L249,382.5z M249,383v0.5h0.1L249,383L249,383z M249,401.5v0.2
			h0.1L249,401.5L249,401.5z M249,405.1L249,405.1l0.2,0.1v-0.1H249z M249.4,400.4v0.2l0.5,0.1h0.1v-0.1L249.4,400.4z M249.4,400.1
			l0.3,0.3v-0.3H249.4z M249.5,382.4v0.2h0.1L249.5,382.4L249.5,382.4z M249.5,383.3v0.4h0.1L249.5,383.3L249.5,383.3z M249.5,385.1
			v0.4l0.4,0.1v-0.4l-0.1,0.1h-0.2L249.5,385.1C249.6,385.1,249.5,385.1,249.5,385.1z M249.5,392.3v0.3c0.2,0,0.3,0.1,0.3,0.3h0.1
			v-0.6l-0.1,0.1h-0.1L249.5,392.3C249.6,392.3,249.5,392.3,249.5,392.3z M249.5,392.9v0.2h0.1L249.5,392.9L249.5,392.9z
			 M249.6,384.6L249.6,384.6h0.3v-0.3L249.6,384.6z M249.6,399.1L249.6,399.1c0.1,0.4,0.3,0.5,0.6,0.5v-0.3l-0.2-0.2H249.6z
			 M249.6,400.8L249.6,400.8l0.2,0.1v-0.1H249.6z M249.8,383.2l0.1,0.5l0.1-0.1h0.1l0.2,0.2v-0.5l-0.1,0.1h-0.1L249.8,383.2
			L249.8,383.2z M249.8,383.9v0.2h0.1L249.8,383.9L249.8,383.9z M249.8,393.3v0.3h0.1L249.8,393.3L249.8,393.3z M249.9,386.7
			L249.9,386.7l0.1,0.2h-0.1V386.7z M249.9,399.9v0.2h0.1L249.9,399.9L249.9,399.9z M250.1,384.8L250.1,384.8l0.2,0.1v-0.1H250.1z
			 M250.4,393.7L250.4,393.7l0.2,0.1v-0.3L250.4,393.7z M250.5,383.3v0.2h0.1L250.5,383.3L250.5,383.3z M250.5,383.6v0.3h0.1
			L250.5,383.6L250.5,383.6z M250.6,385.6L250.6,385.6L250.6,385.6l0.2-0.3C250.7,385.3,250.6,385.4,250.6,385.6z M250.6,386
			l0.2,0.2V386H250.6z M250.8,383.5v0.4h0.1l0.1-0.4H250.8z M250.8,384.3v0.3l0.1-0.1h0.1l0.1,0.1v-0.2L250.8,384.3z M250.8,384.8
			v0.2l0.1,0.1h0.2V385L250.8,384.8L250.8,384.8z M250.8,393.3v0.3h0.1L250.8,393.3L250.8,393.3z M250.8,402.6L250.8,402.6v0.2h0.2
			l0.1-0.4H251L250.8,402.6z M250.8,403L250.8,403l0.1,0.2v0.1l0.3-0.1v-0.1L250.8,403z M251.1,385.3l-0.1,0.3h0.2L251.1,385.3
			L251.1,385.3z M251.1,386.5L251,387l0.5,0.1v-0.2c-0.1,0-0.2-0.1-0.2-0.4H251.1z M250.9,404.9v0.4l0.2-0.2L250.9,404.9z
			 M251.1,386v0.3l0.3,0.1l0.3-0.1v0.1l-0.2,0.3h0.2l0.1-0.4L251.1,386z M251.2,390.1v0.2h0.1L251.2,390.1L251.2,390.1z
			 M251.2,402.8L251.2,402.8L251.2,402.8h0.5v-0.1h-0.2l-0.1-0.1L251.2,402.8z M251.2,403.8L251.2,403.8l0.3,0.1v-0.1H251.2z
			 M251.2,385.3l0.1,0.3h0.1v-0.3H251.2z M251.4,391.1L251.4,391.1l-0.1,0.3h0.3v-0.1L251.4,391.1z M251.2,392.9l0.1,0.5h0.3v-0.2
			h-0.2l0.1-0.1v-0.2C251.5,392.9,251.2,392.9,251.2,392.9z M251.2,401.4l0.1,0.4h0.2c0-0.2,0.1-0.4,0.4-0.6v-0.1h-0.1L251.2,401.4z
			 M251.2,404.8L251.2,404.8l0.2,0.1v-0.1H251.2z M251.5,390.1v0.4h0.1L251.5,390.1L251.5,390.1z M251.5,391L251.5,391l0.3,0.1v-0.2
			L251.5,391z M251.5,385.3v0.5h0.1v-0.3h0.1l0.1,0.1l0.3-0.2l-0.1-0.3L251.5,385.3z M251.6,388.7v0.2h0.1L251.6,388.7L251.6,388.7z
			 M251.6,392L251.6,392l0.3,0.1v-0.2L251.6,392z M251.6,401.9L251.6,401.9l0.2,0.1l0.5-0.1v-0.1l-0.5-0.1L251.6,401.9z
			 M251.6,402.3L251.6,402.3l0.4,0.1v-0.1H251.6z M253.1,385.4v0.3H253l-0.1-0.1h-0.1v0.2h0.2v0.1l0.1-0.1h0.1l0.2,0.2l-0.1,0.1
			l-0.7-0.1h-0.8l0.2,0.2l0.1-0.1l0.1,0.1v0.1l-0.3,0.3c0.1,0.2,0.2,0.3,0.4,0.4l0.1-0.1l0.1,0.1v0.1l0.6-0.2c0.1,0,0.2,0.1,0.2,0.3
			h0.2l-0.1-0.1V387l0.2-0.5l-0.1-0.1h-0.1c0,0.3-0.1,0.4-0.3,0.4l-0.8-0.1v-0.3l0.2-0.2h0.2l0.3,0.2h0.1c0-0.1,0.1-0.2,0.4-0.2
			L253.1,385.4C253.2,385.4,253.1,385.4,253.1,385.4z M251.8,391.2v0.6h0.1l0.2-0.2L251.8,391.2L251.8,391.2z M251.9,387.6l-0.1,0.5
			l0.1,0.1h0.2v-0.6H251.9z M251.9,393.1v0.2h0.1L251.9,393.1L251.9,393.1z M251.9,393.5v0.3l0.1-0.1l0.1,0.1h0.2v-0.2L251.9,393.5z
			 M251.9,403.6L251.9,403.6l0.3,0.4l0.1-0.3L251.9,403.6z M251.9,405.3h0.3v-0.2h-0.1L251.9,405.3z M251.9,387.2v0.2h0.2
			L251.9,387.2z M252.1,405.4L252.1,405.4l-0.1,0.2l0.1,0.1h0.6v-0.3H252.1L252.1,405.4z M252.1,389.8v0.4h0.1L252.1,389.8
			L252.1,389.8z M252.1,390.5v0.2h0.1L252.1,390.5L252.1,390.5z M252.2,391.2v0.2h0.2v-0.2H252.2z M252.2,392v0.3h0.1L252.2,392
			L252.2,392z M252.2,399.2v0.2l0.2,0.2h0.1l-0.1-0.1v-0.1l0.1-0.1v-0.1H252.2z M252.4,389.7v0.2h0.1L252.4,389.7L252.4,389.7z
			 M252.4,404.9v0.2h0.1L252.4,404.9L252.4,404.9z M252.5,385.1v0.3h0.1L252.5,385.1L252.5,385.1z M252.5,385.7L252.5,385.7l0.2,0.1
			v-0.1H252.5z M252.6,387.4L252.6,387.4l0.1,0.2v0.1l-0.2,0.2v0.3h0.1l0.3-0.3l-0.1-0.5C252.8,387.4,252.6,387.4,252.6,387.4z
			 M252.5,390L252.5,390l0.1,0.4c0.2,0,0.3-0.2,0.4-0.4h-0.1H252.5L252.5,390z M252.5,392.1v0.3h0.1L252.5,392.1L252.5,392.1z
			 M252.5,393.6v0.2h0.1L252.5,393.6L252.5,393.6z M252.6,402.1l-0.1,0.4h0.3v-0.4C252.8,402.1,252.6,402.1,252.6,402.1z
			 M252.5,403.8L252.5,403.8v0.2v0.2l0.3-0.3l-0.1-0.1H252.5z M252.6,390.9L252.6,390.9l0.4,0.3h0.1v-0.3L253,391h-0.1l-0.1-0.1
			C252.8,390.9,252.6,390.9,252.6,390.9z M252.6,391.9L252.6,391.9l0.2,0.1v-0.1H252.6z M252.8,385v0.2h0.1L252.8,385L252.8,385z
			 M252.8,390.6L252.8,390.6l0.3,0.1v-0.1H252.8z M252.8,394.1v0.2h0.1L252.8,394.1L252.8,394.1z M252.8,399.2v0.3h0.2L252.8,399.2
			L252.8,399.2z M252.9,387L252.9,387l0.3,0.1V387H252.9z M253,387.4l0.2,0.2v-0.2H253z M253.1,393.7l-0.1,0.4v0.1h0.1
			c0-0.2,0.1-0.3,0.3-0.3v-0.1L253.1,393.7z M253.1,388.4v0.3h0.1L253.1,388.4L253.1,388.4z M253.1,403.4v0.2h0.1L253.1,403.4
			L253.1,403.4z M253.1,403.8v0.7l0.4-0.2l-0.1-0.1v-0.1l0.1-0.1v-0.1L253.1,403.8z M253.2,402.6L253.2,402.6l0.1,0.4h0.3l-0.2-0.4
			C253.4,402.6,253.2,402.6,253.2,402.6z M253.2,406L253.2,406v0.2l0.3,0.1h0.2v-0.1h-0.3V406l0.4-0.1l0.4,0.1v-0.1
			c0-0.1-0.2-0.2-0.5-0.2v-0.1l0.1-0.1v-0.1h-0.1C253.4,405.5,253.2,405.7,253.2,406z M253.3,390.5l0.1,0.4h0.1v-0.5L253.3,390.5
			L253.3,390.5z M253.3,394.3h0.2v-0.2L253.3,394.3z M253.4,388.5v0.3h0.1L253.4,388.5L253.4,388.5z M253.4,391.6L253.4,391.6
			l0.2,0.1v-0.1H253.4z M253.4,395.8L253.4,395.8l0.3,0.1v-0.3h-0.1L253.4,395.8z M253.4,399.1L253.4,399.1l0.2,0.1v-0.1H253.4z
			 M253.4,399.3L253.4,399.3l0.2,0.1v-0.1H253.4z M253.5,388v0.4l0.2-0.2L253.5,388z M253.5,400.9v0.2l0.2-0.2H253.5z M253.5,401.4
			l0.2,0.2v-0.2H253.5z M254.1,404.8v0.3h-0.2l-0.3-0.2l-0.1,0.4h0.1l0.4-0.1l0.1,0.3h0.1l0.2-0.5L254.1,404.8z M253.7,385.9
			l-0.1,0.4l0.3,0.2c0-0.1,0.1-0.2,0.3-0.2v-0.2C253.9,386.1,253.8,386,253.7,385.9L253.7,385.9z M253.6,386.8L253.6,386.8l0.2,0.1
			v-0.1H253.6z M253.6,404.7L253.6,404.7l0.2,0.1v-0.1H253.6z M253.7,394.4h0.2v-0.2L253.7,394.4z M253.8,392.6l0.2,0.2h0.1v-0.3
			L253.8,392.6z M253.9,386.8L253.9,386.8v0.2v0.2h0.1V387l0.1,0.1h0.1v-0.4L253.9,386.8z M254.1,394.1c0,0.3-0.1,0.4-0.2,0.4v0.2
			c0.3-0.1,0.5-0.2,0.5-0.3L254.1,394.1z M253.9,395.6v0.2h0.1L253.9,395.6L253.9,395.6z M253.9,403.4v0.4h0.3L253.9,403.4
			L253.9,403.4z M253.9,406.1v0.2h0.2L253.9,406.1z M254.1,401.8l-0.1,0.3l0.1,0.1h0.2V402L254.1,401.8z M254,404.2l0.2,0.2v-0.2
			H254z M254.1,388.2v0.3h0.1L254.1,388.2L254.1,388.2z M254.1,403.9v0.2l0.2-0.2H254.1z M254.2,394.8v0.2h0.1L254.2,394.8
			L254.2,394.8z M254.2,401.3v0.2h0.1L254.2,401.3L254.2,401.3z M254.4,388.1L254.4,388.1l0.3,0.5v0.1h-0.2v-0.2h-0.1l-0.1,0.4
			l0.5,0.1v-0.1l0.1-0.4L254.4,388.1z M254.3,392L254.3,392l0.2,0.1V392H254.3z M254.3,405.7l0.2,0.2h0.1v-0.2H254.3z M254.4,386.5
			v0.4h0.3v-0.1l-0.1-0.3H254.4z M254.5,394.8v0.2h0.2v-0.2H254.5z M254.5,395.2l0.2,0.2v-0.2H254.5z M254.7,404.9L254.7,404.9
			l0.2,0.1v-0.1H254.7z M254.8,394.7L254.8,394.7l0.2,0.1v-0.1H254.8z M254.8,405.3L254.8,405.3l0.2,0.1v-0.1H254.8z M254.9,388.8
			v0.2h0.1L254.9,388.8L254.9,388.8z M255.2,399c0.6,1.1,0.9,1.8,0.9,2.2c-0.3,0-0.7-0.7-1.2-2L255.2,399z M255.1,389.7l-0.1,0.5
			l0.3-0.1v-0.4H255.1z M255.1,389.1h0.2v-0.2L255.1,389.1z M255.3,394.8v0.3h0.1L255.3,394.8L255.3,394.8z M255.6,388.9v0.2h0.4
			V389L255.6,388.9z M255.7,394.9L255.7,394.9l0.2,0.1v-0.1H255.7z M255.7,395.1v0.2l0.2-0.2H255.7z M255.9,388.1L255.9,388.1v0.7
			h0.1l0.1-0.6L255.9,388.1L255.9,388.1z M256.1,401.6c0.3,0,0.8,1,1.5,3c0.9,1.9,1.8,4,2.7,6.3v0.1h-0.2c-0.2-0.1-1.6-3.1-4-9.1
			h0.1l-0.1-0.1V401.6z M256.3,390l0.1,0.6h0.1V390H256.3z M256.3,392L256.3,392l0.3,0.1V392H256.3z M256.5,388.3v0.4h0.1
			L256.5,388.3L256.5,388.3z M256.7,388.7L256.7,388.7l0.3,0.4v-0.2L256.7,388.7C256.8,388.7,256.7,388.7,256.7,388.7z M256.8,390.3
			v0.3h0.2v-0.3H256.8z M257.3,390.7v0.2h0.1L257.3,390.7L257.3,390.7z"/>
		<path fill="#FFF100" d="M313.2,379.8h-8.4l-0.2,0.2v11.5c0,0.5,0.1,0.8,0.2,1.1h-0.1c0.4,0.4,0.6,0.7,0.6,0.8
			c0.6,0.1,1.2,0.4,1.6,0.9l-0.2,0.5c-0.4,0-1.1-0.4-1.9-1.1c-1,0-1.6-0.1-1.8-0.2V393l0.5-0.8v-0.1h-0.2l-0.1,0.1
			c0-0.2-0.3-0.4-0.8-0.4c-0.5,0-0.8,0.3-1.1,1h-0.6c0-0.2-0.3-0.5-0.8-0.9c0,0.3-0.2,0.4-0.5,0.4c-0.3-0.3-0.6-0.5-0.9-0.5
			l-0.3,0.3v0.1l0.1,1.4l-0.1,0.4c0.3,0.1,0.5,0.3,0.5,0.7v0.4c-0.3,0.1-0.5,0.2-0.5,0.3v2.5l-0.1,0.1h0.1l0.1,0.1h0.7l0.1-0.1
			c0-0.2,0.1-0.3,0.2-0.3l-0.2-0.8l0.6-0.3c0.1,0.4,0.3,0.6,0.6,0.7l0.4-0.1c0.4-0.6,0.7-0.9,0.9-0.9c0.2,0,0.4,0.2,0.8,0.6
			l-0.3,1.2h1.2l0.1-0.1c0-0.1-0.1-0.2-0.3-0.2v-0.3h0.5l0.3-0.2c0.3,0.2,0.5,0.5,0.7,0.9l-0.2,0.2l1,0.6h0.3v-0.2h0.6l0.1-0.1
			l0.3-0.4v0.8l0.1,1.4l-0.1,0.5c0.1,0.2,0.3,0.7,0.5,1.7l-0.1,0.5h-0.5l-0.2-0.2c-0.5,0-0.7-0.1-0.7-0.2v-0.9l0.7-0.6v-0.2
			c-0.1-0.3-0.3-0.4-0.5-0.4c-0.3-0.6-0.7-1.1-1.2-1.4h-0.1v0.8l-0.1,0.1l0.1,0.1v2.9l0.1,1.1l-0.1,0.6l0.2,0.7l-0.1,0.5l0.1,0.4
			l-0.2,0.6c0.2,1.3,0.4,2.7,0.5,4h1.2c0.1-0.6,0.2-0.9,0.3-0.9c0,0.6,0.1,0.9,0.2,0.9h4.9l0.2-0.2V394l-0.2-1.5l0.2-0.3v-10.5h1.2
			l0.2-0.2L313.2,379.8L313.2,379.8z M305.3,388.7l0.6-0.3l0.1,0.7v0.1l-0.1,0.1C305.6,389.3,305.4,389.1,305.3,388.7z M306,391.7
			v0.4h-0.2l-0.2-0.2v-0.7l0.1-0.5h0.1l0.3,0.4L306,391.7z M299.6,392.6L299.6,392.6l0.2,0.6h-0.1l-0.1,0.1V392.6z M299.7,396
			L299.7,396l-0.1-0.3h0.1V396z M299.6,395l-0.1-0.3l0.1-0.5c0.1,0,0.2,0.2,0.3,0.5L299.6,395z M301.7,396c-0.3,0-0.5-0.1-0.5-0.3
			v-0.3l0.4-0.1c0.4,0,0.6,0.2,0.6,0.6L301.7,396z M304.4,396.5L304.4,396.5l-0.1-0.3h0.1V396.5z M304.4,395.8v0.3h-0.3v-0.6
			l0.1-0.7l-0.2-0.2h0.3l0.2,0.8L304.4,395.8z M307.1,407.4l-0.1,0.4c-0.2,0.1-0.3,0.4-0.4,0.7l-0.2-0.2v-0.4c0.2,0,0.3-0.1,0.3-0.2
			v-0.4l-0.5-0.8l0.3-0.3h0.3c0.2,0.1,0.3,0.3,0.3,0.6L307.1,407.4L307.1,407.4z M310,387.8c0.3,0,0.5,0.4,0.5,1.3v0.5h-0.1
			c0-0.4-0.2-0.8-0.5-1.3L310,387.8z M309.8,391.6c0.1-0.2,0.3-0.4,0.6-0.5l0.7,0.9l-0.6,0.6h-0.2l-0.5-0.7V391.6z M310.3,395.9h0.2
			l0.4,0.9v0.2h-0.2c-0.3-0.1-0.4-0.3-0.5-0.6L310.3,395.9z M310,394.7L310,394.7l0.5-0.2l0.1,0.4l-0.1,0.5h-0.1
			C310.2,395.2,310,395,310,394.7z M309.6,393.8L309.6,393.8l0.3,0.2l-0.3,0.1V394h-0.2L309.6,393.8z M308.3,389.5L308.3,389.5
			l0.1-0.2c0.3,0.4,0.5,0.8,0.5,1.3v0.1l-0.1,1.4l0.3,1.3c-0.2,0.3-0.4,0.4-0.7,0.4h-0.2l-0.1-0.1c-0.1-0.5-0.3-0.8-0.6-1.2
			c0.3-0.9,0.6-1.6,0.9-2.2L308.3,389.5z M307.9,395.5l0.4-0.6h0.4c0.1,0.6,0.4,1,0.6,1.3v0.2c-0.3,0-0.6,0.1-0.7,0.2
			c0,0.6-0.1,0.9-0.2,0.9c-0.1-0.9-0.3-1.5-0.5-1.7V395.5z M308.6,398.6v0.3h-0.2v-1h0.1L308.6,398.6z M308.4,403.8l0.6,0.3v0.1
			l-0.1,0.1v0.1l-0.5-0.1V403.8z M308.9,409.2L308.9,409.2l-0.1-0.5h0.1V409.2z M308.8,407.1v-0.9h0.1v0.1l0.5,0.5
			C309.4,406.9,309.2,407,308.8,407.1z M309.8,402.1l-0.2,0.2h-0.1l-0.1-0.5l0.2-0.2l0.2,0.2V402.1L309.8,402.1z M310.8,403.8
			l-0.5-0.3l0.2-0.2h0.3V403.8z M310.8,402.5l-0.3-1.6l0.1-0.6c-0.1-0.7-0.3-1.1-0.6-1.1l0.4-0.6c0.3,0,0.4-0.1,0.4-0.4h0.1l0.1,0.1
			l0.1,2.6v0.2l0.2,0.6C311.2,402.2,311.1,402.4,310.8,402.5L310.8,402.5z M311.3,407.2h-0.2c0-0.2-0.1-0.3-0.2-0.3l0.1-0.4h0.1
			l0.2,0.2L311.3,407.2L311.3,407.2z"/>
		<path fill="#FFF100" d="M287,391.4l0.3,0.4l0.3-0.1h0.1v0.2c0.3,0,0.5,0.1,0.5,0.2v0.1l-0.1,0.5l0.1,0.1h-0.1l0.1,0.5v0.1
			l-0.1,0.1l-0.6-0.4l-0.2,0.2v0.1h0.2l0.1-0.1v0.1l0.1,0.1l-0.2,0.2h-0.2l-0.1-0.1v0.2c0.2,0.3,0.4,0.5,0.6,0.6l0.2-0.4l-0.5-0.1
			v-0.1h0.7v0.3l-0.1,0.1h0.1l-0.1,0.9l0.1,0.3H288v0.2l0.2,0.2l-0.1,0.1l0.1,0.7v14.3l0.2,0.2h6.3c0.1,0,0.2-0.1,0.2-0.3h0.1
			c0,0.2,0.1,0.3,0.2,0.3h0.3l0.1-0.1l-0.1-11v-1.9h0.2V398c-0.7-0.2-1.1-0.4-1.4-0.6h-0.1l-0.1,0.1v-0.2c0-0.6,0.4-1.2,1.1-1.9
			l0.4,0.1l0.6-0.6l-0.1-0.3H296l-0.1,0.1h-0.2l-0.1-0.3h0.1l0.3,0.2v-0.1l-0.2-0.3l-0.5,0.1l-0.1-0.3c0.2,0,0.4-0.1,0.4-0.4
			l-0.1-0.1v-0.4c0.1-0.3,0.3-0.5,0.6-0.5l-0.2-0.2l-0.4,0.3v-0.8h0.2l-0.2-0.3v-0.2l0.2-0.3V391h-0.2v-9.4h1.3l0.2-0.2v-1.6
			l-0.2-0.2h-7l-1.2,0.1l0,0h-0.2l-0.2,0.2v10.5l-0.1,0.1l0.1,0.1v0.8h-0.1l-0.1-0.3c-0.1,0-0.2,0.1-0.2,0.3h-0.1l-0.1-0.4
			 M287.8,391.6h-0.2v-0.2h0.2V391.6z M288.9,387.5L288.9,387.5l-0.2-0.1h-0.1l0.1-0.3l-0.3-0.6l0.1-0.3h0.4l0.1,0.3L288.9,387.5z
			 M294.5,410.2h0.2v0.2h-0.2V410.2z M291.3,386.7l-0.2-0.2h0.2V386.7z M292.1,408.8L292.1,408.8l-0.1-0.5h0.1V408.8z M292.5,405.2
			L292.5,405.2l-0.6-0.4v-0.2l0.2-0.2c0,0.2,0.1,0.4,0.4,0.4L292.5,405.2L292.5,405.2z M292.8,387.8L292.8,387.8l-0.2-0.1l0.1-0.3
			h0.1V387.8L292.8,387.8z M294.1,398.5l-0.2,0.2l-0.2-0.7c0.1,0,0.2-0.1,0.2-0.4h0.2V398.5z"/>
		<path fill="#FFF100" d="M326.3,379.4h1.9c5.3,0,8.8,3.1,10.5,9.2l0.1,0.4h-0.2c-0.3-1.6-1.5-3.5-3.4-5.5l0,0
			c1.8,2.7,2.7,5.5,2.7,8.6v1.4c0,1.8-0.3,3.5-0.9,5.3h-0.2v-0.6h-0.1l-0.1,0.4v0.2l0.2,0.3c-0.9,2.2-2.4,4-4.5,5.4
			c0,0.8,0.5,1.4,1.4,1.8h0.1c0-0.3,0.1-0.4,0.2-0.4c0.5,0.3,0.9,0.4,1.3,0.4l1.6-0.1l0.1,0.1h0.1l0.5-0.1h0.6v1.5
			c0,0.2-0.2,0.2-0.6,0.2h-0.5v2.8c-0.1,0.2-0.8,0.3-2,0.3h-1c-0.8,0-1.2-0.1-1.2-0.3l-0.4,0.2c-1.3-0.3-2.2-0.8-2.7-1.5
			c-0.7-1.1-1.1-2.2-1.2-3.5c-0.2,0-0.3-0.1-0.3-0.2V405l0.6-0.5l0.2,0.2c0-0.1,0.1-0.2,0.2-0.2l-0.2-0.2v-0.1h-0.2l0.1,0.1v0.1
			l-0.1,0.1h-0.2v-0.1l0.1-0.1v-0.1h-0.2v0.2h-0.2V401c0.2-0.3,0.5-0.4,0.8-0.4h0.1l0.4,0.3h0.2c0-0.2,0.1-0.2,0.2-0.2l-0.2-0.4
			l0.2-0.5h0.2v0.1l-0.1,0.1v0.1h0.2l0.4-0.4h0.1v0.2l0.1-0.1h0.1l0.2,0.1v0.1h-0.4c0.2,0.3,0.4,0.4,0.6,0.4v0.5l-0.2-0.2l0.1-0.1
			v-0.2h-0.2l-0.1,0.2l-0.4-0.1h-0.3v-0.1h0.2v-0.1h-0.4l0.2,0.5h-0.2v0.2h0.2v-0.2l0.2,0.2v0.1l-0.1,0.1v0.1c0.4,0,0.7,0.1,0.7,0.2
			h-0.4v0.2l0.5,0.1v0.1h-0.4l0.2,0.3h0.2l-0.1-0.1v-0.2h0.2l0.1,0.1l0.3-0.1l-0.1-0.1v-0.6l0.3-0.1l0.1,0.1v0.1h-0.2v0.1l0.2,0.2
			h0.3v-0.2l-0.1-0.1v-0.1l0.3-0.2l-0.1-0.4h-0.1c-0.1,0-0.2,0.1-0.2,0.3H332l-0.2-0.2c0.3,0,0.4-0.1,0.4-0.2
			c-0.2,0-0.2-0.1-0.2-0.2h-0.2c0-0.1,0.1-0.2,0.2-0.2V400c-0.2,0-0.4-0.2-0.6-0.7h-0.1v0.1l-0.1-0.1h-0.1l-0.2,0.1l0,0l0.1-0.1
			v-0.1l0.4,0.1h0.1l0.1-0.2c0.3,0.1,0.5,0.2,0.5,0.4h0.1c0-0.1,0.2-0.2,0.5-0.2v0.1l0.1-0.1h0.1l0.7,0.2h0.2l0.1-0.3
			c0.1,0.1,0.3,0.2,0.6,0.2l0.2,0.2l0.5-0.1v-0.1c-0.2,0-0.3-0.1-0.3-0.3h-0.2v-0.2h0.2v-0.2l-0.1,0.1h-0.1l-0.1-0.1v0.2h-0.2v-0.2
			l-0.6,0.1v-0.2h0.2v-0.1h-0.2c-0.2,0-0.3,0.1-0.3,0.4l-0.2-0.2l-0.7,0.2v-0.1l-0.5,0.2v-0.2H332l-0.3,0.2v-0.2h-0.3l-0.1,0.2
			l-0.5-0.2v0.2l-0.2-0.2l0.6-1.9h0.2v0.5l0.3-0.4l-0.3-0.6l0,0v0.2h-0.2c0.1-0.5,0.1-0.7,0.2-0.7h0.6l0.6-0.2h0.1v-0.1
			c-0.4,0-0.6-0.1-0.6-0.2h-0.2v0.2h-0.2c0-0.1-0.1-0.2-0.2-0.2l-0.1-0.1v-0.6l0.2-0.2l-0.1-0.4v-2.6c0-2.8-0.8-4.9-2.3-6.5
			c-0.7-0.5-1.6-0.8-2.5-0.8h-0.2c-2,0-3.4,1.2-4.2,3.6l-0.1,0.4l-0.1-0.1h-0.2v0.3l-0.1,0.3l0.2,0.2c-0.2,1.1-0.3,2.5-0.3,4.3
			l-0.1,0.1v0.1l0.4,3.2l0.2,0.8h0.1l0.3-0.2l0.2,0.2c-0.1,0-0.3,0.2-0.5,0.7l0.2,0.2l-0.1,0.1l0.1,0.1v0.1l-0.1,0.1l0.1,0.1v0.6
			l0.2,1.4h0.1c0.1,0,0.3-0.2,0.3-0.6l-0.2-0.5v-0.4h0.1c0.5,0.6,1,1.1,1.4,1.4l-0.1,0.1v0.2h0.1v-0.2h0.2l-0.1,0.5l0.1,0.1l0,0
			l-0.2,0.7c0.1,0,0.2,0.1,0.2,0.2h0.2c0-0.2,0.2-0.4,0.7-0.7c-0.5-0.3-0.7-0.7-0.7-1l0.1-0.1c-0.1,0-0.2-0.1-0.2-0.3h-0.2v0.1
			l0.1,0.2c-0.3,0-0.6-0.9-1-2.7l0.1-0.1h0.1v0.2h0.1l0.2-0.1l0.3,0.6l0,0l-0.4-0.1c0.1,0.2,0.2,0.3,0.4,0.3l-0.2,0.3l0.2,0.7
			l0.1-0.1h0.1c0,0.1,0.3,0.3,0.8,0.6c0,0.1,0.2,0.3,0.7,0.6v0.7l-0.2,0.2l0.2,0.3v3.9c0,0.1-0.1,0.2-0.2,0.2c-3.6,0-6.6-2-8.9-6.1
			v-0.2h0.2l0.3,0.3h0.1v-0.2c-0.2-0.4-0.5-0.7-1-1c-0.7-1.9-1-3.5-1.1-4.9v-1.7c0-4.3,1.5-7.9,4.6-10.8
			C321.7,380.1,323.9,379.4,326.3,379.4z M316.6,390v0.7l-0.4,0.9v0.1l0.2,0.8v0.3l-0.2,0.3v0.1c0.1,0.2,0.3,0.3,0.6,0.3h0.1
			l0.5-0.1c0.3,0,0.7,0.2,1,0.7l0.9,0.3v-0.1l0.1-0.2c0-0.3-0.4-0.5-1.2-0.7c-0.4-0.4-0.7-0.9-0.8-1.5c-0.4-0.3-0.7-0.6-0.7-1.1
			c0.2,0,0.3-0.1,0.3-0.4h0.1l-0.2-0.3L316.6,390z M316.5,396.7c0,0.2,0.6,0.8,1.9,1.9c0,0.2,0.2,0.4,0.6,0.6h0.2l0.2-0.3l-0.1-0.6
			v-1.1c-0.1,0-0.2,0.1-0.2,0.3l-0.1,0.1h-0.1l-0.5-0.1l-0.2,0.2H318c-0.4-0.1-0.7-0.5-1-1.2l-0.1-0.1h-0.1L316.5,396.7L316.5,396.7
			z M316.9,398.5L316.9,398.5l0.2,0.1v-0.2L316.9,398.5z M317.2,394.4l-0.1,0.5l0.1,0.7c0.1,0,0.2-0.2,0.2-0.7
			C317.4,394.5,317.3,394.4,317.2,394.4z M318.2,389.3v0.3h0.3l0.1-0.1h0.1l-0.1-0.3L318.2,389.3z M318.5,391l-0.1,0.6v0.4l0.2,0.2
			l0.1-0.1h0.1l-0.1-0.1v-0.1l0.1-0.7L318.5,391z M319.1,399.3c0,0.4-0.2,0.7-0.7,0.8v0.6c0,0.1,0.2,0.2,0.6,0.2
			c0,0.2,0.1,0.3,0.3,0.3c0.1,0,0.3-0.2,0.3-0.4L319.1,399.3L319.1,399.3L319.1,399.3z M320.7,389.8L320.7,389.8l0.1,0.7l-0.7,1.4
			v0.6c0.2,0,0.3,0.2,0.3,0.6l0.4,0.2l0.4-0.2v-0.6l-0.2-0.7l0.1-1.1v-0.2l-0.2-0.8L320.7,389.8L320.7,389.8z M320.4,395.1
			c0.2,0,0.3,0.4,0.4,1.3l0.2-0.2l-0.1-0.1V396c0-0.4,0.2-0.6,0.6-0.6v-0.1c-0.2-0.2-0.4-0.5-0.6-1.1h-0.1
			C320.5,394.6,320.4,394.8,320.4,395.1z M320.8,396.9v0.7h0.1L320.8,396.9L320.8,396.9z M320.8,401.7v0.4l0.4,0.1l0.1-0.1V402
			C321.2,401.8,321.1,401.7,320.8,401.7z M321.1,403.9v0.5h0.3l0.2-0.2C321.6,404.1,321.4,404,321.1,403.9z M321.7,399.9l-0.1,0.3
			l0.1,0.3h0.2l0.1-0.4L321.7,399.9L321.7,399.9z M321.8,397.9L321.8,397.9l0.2,0.1v-0.1H321.8z M322.4,401.3L322.4,401.3
			c0,0.2,0.1,0.2,0.3,0.3v-0.3H322.4z M323,404l-0.2,0.2l0.2,0.4l0.2-0.2v-0.2L323,404z M324.3,405.1v0.4h0.3L324.3,405.1
			L324.3,405.1z M328.8,405.1L328.8,405.1l0.2,0.1v-0.1H328.8z M329.7,406.1c0,0.3,0.1,0.4,0.2,0.4l0.2-0.1v-0.3l-0.2-0.2h-0.1
			L329.7,406.1z M329.8,401.6v0.4h0.1L329.8,401.6L329.8,401.6z M330.1,404.7v0.6h0.2v-0.4L330.1,404.7z M330.7,398.9L330.7,398.9
			l0.1,0.2l-0.4,0.5h-0.2c0-0.2,0.1-0.2,0.3-0.2C330.5,399.1,330.5,398.9,330.7,398.9z M331.1,402.5L331.1,402.5l0.2,0.1v-0.1H331.1
			z M331.1,402.3L331.1,402.3l0.3,0.1v-0.2L331.1,402.3L331.1,402.3z M331.2,407l0.2,1l-0.2,0.7l0.4,0.3h0.2l0.1-0.4l-0.2-0.5V408
			l0.1-0.3c-0.1-0.5-0.3-0.8-0.3-0.8h-0.1L331.2,407z M331.4,405.3v0.2h0.2l0.2-0.2H331.4z M332,403L332,403l0.2,0.1V403H332z
			 M332.1,398.7L332.1,398.7l0.2,0.1v-0.1H332.1z M332.6,395.4L332.6,395.4l0.2,0.1v-0.1H332.6z M333,400.3c0,0.3-0.1,0.4-0.2,0.4
			l0.1,0.1v0.2h-0.2v-0.2h-0.2v0.3l0.1,0.1v0.1l-0.1,0.1h0.4c0-0.1,0.1-0.2,0.3-0.2l-0.1-0.1V401l0.2-0.3
			C333.2,400.7,333.1,400.6,333,400.3L333,400.3z M333,397.1l-0.2,0.5v0.1c0,0.4,0.2,0.8,0.6,1l0.3-0.4l-0.3-0.7v-0.3L333,397.1z
			 M333.1,409L333.1,409l-0.1,0.3l0.2,0.2l0.1-0.1v-0.2L333.1,409z M333.1,395.6L333.1,395.6l0.2,0.1v-0.1H333.1z M333.5,401.3
			l0.2,0.2l0.1-0.1v-0.1H333.5z M334,398.4v0.2h0.2v-0.2H334z M334.4,398.4L334.4,398.4l0.3,0.1v-0.1H334.4z M335,395.5l-0.1,0.4
			v0.3h0.1c0.1,0,0.2-0.2,0.2-0.7H335L335,395.5L335,395.5z M334.9,400.1v0.2l0.1,0.4c0.1,0,0.2-0.1,0.2-0.2l-0.1-0.4H334.9z
			 M334.9,401.6v0.2h0.2L334.9,401.6z M335.3,398.7l-0.1,0.3l0.1,0.3c0.2,0,0.3-0.1,0.3-0.3h0.5l0.1-0.2l-0.6,0.2h-0.2v-0.1l0.1-0.1
			v-0.1H335.3L335.3,398.7z M335.8,399.3L335.8,399.3l0.2,0.1l0.1-0.3L335.8,399.3z"/>
	</g>
	<path fill="#BBBDBF" d="M350.3,392.6v-11.8h1.8v8.4l1.8-3.4l1.8,3.4v-8.4h1.8v11.8h-1.8l-1.8-3.4l-1.8,3.4H350.3z"/>
	<path fill="#BBBDBF" d="M365.1,392.6v-11.8h7.3v1.7h-5.5v3.4h3.7v1.7h-3.7v3.4h5.5v1.7L365.1,392.6L365.1,392.6z"/>
	<path fill="#BBBDBF" d="M392.7,392.6v-10.1h-2.8v-1.7h7.3v1.7h-2.8v10.1H392.7z"/>
	<path fill="#BBBDBF" d="M404.7,392.6v-11.8h5.5l1.8,1.7v3.4l-1.8,1.7l1.8,3.4v1.7h-1.8V391l-1.8-3.4h-1.8v5H404.7z M409.3,386
		l0.9-0.8v-1.7l-0.9-0.8h-2.8v3.4L409.3,386L409.3,386z"/>
	<path fill="#BBBDBF" d="M419.3,392.6v-10.1l1.8-1.7h3.7l1.8,1.7v10.1h-1.8v-5h-3.7v5H419.3z M424.8,386v-2.5l-0.9-0.8h-1.8
		l-0.9,0.8v2.5H424.8z"/>
	<path fill="#BBBDBF" d="M434.1,392.6V391h2.8v-8.4h-2.8v-1.7h7.3v1.7h-2.8v8.4h2.8v1.7H434.1z"/>
	<path fill="#BBBDBF" d="M448.7,392.6v-11.8h1.4l4.1,7.6v-7.6h1.8v11.8h-1.4l-4.1-7.6v7.6H448.7z"/>
	<path fill="#BBBDBF" d="M343.8,411.3v-10.1l1.8-1.7h3.7l1.8,1.7v10.1h-1.8v-5h-3.7v5H343.8z M349.3,404.6v-2.5l-0.9-0.8h-1.8
		l-0.9,0.8v2.5H349.3z"/>
	<path fill="#BBBDBF" d="M362.3,411.3v-10.1h-2.8v-1.7h7.3v1.7H364v10.1H362.3z"/>
	<path fill="#BBBDBF" d="M375.2,411.3v-11.8h1.8v5h3.7v-5h1.8v11.8h-1.8v-5H377v5C377,411.3,375.2,411.3,375.2,411.3z"/>
	<path fill="#BBBDBF" d="M390.9,411.3v-11.8h1.8v10.1h5.5v1.7H390.9z"/>
	<path fill="#BBBDBF" d="M406.7,411.3v-11.8h7.3v1.7h-5.5v3.4h3.7v1.7h-3.7v3.4h5.5v1.7L406.7,411.3L406.7,411.3z"/>
	<path fill="#BBBDBF" d="M425.1,411.3v-10.1h-2.8v-1.7h7.3v1.7h-2.8v10.1H425.1z"/>
	<path fill="#BBBDBF" d="M438.1,411.3v-11.8h7.3v1.7h-5.5v3.4h3.7v1.7h-3.7v3.4h5.5v1.7L438.1,411.3L438.1,411.3z"/>
	<path fill="#BBBDBF" d="M455.5,411.3l-1.8-1.7v-1.7h1.8v0.8l0.9,0.8h1.8l0.9-0.8V407l-0.9-0.8h-2.8l-1.8-1.7v-3.4l1.8-1.7h3.7
		l1.8,1.7v1.7h-1.8V402l-0.9-0.8h-1.8l-0.9,0.8v1.7l0.9,0.8h2.8l1.8,1.7v3.4l-1.8,1.7H455.5z"/>
</g>
</svg>
