<?xml version="1.0" encoding="utf-8"?>
<!-- Generator: Adobe Illustrator 18.0.0, SVG Export Plug-In . SVG Version: 6.00 Build 0)  -->
<!DOCTYPE svg PUBLIC "-//W3C//DTD SVG 1.1//EN" "http://www.w3.org/Graphics/SVG/1.1/DTD/svg11.dtd">
<svg version="1.1" xmlns="http://www.w3.org/2000/svg" xmlns:xlink="http://www.w3.org/1999/xlink" x="0px" y="0px"
	 viewBox="0 0 320 50" enable-background="new 0 0 320 50" xml:space="preserve">
<g id="Background">
	<rect x="0" y="0" fill="#FFFFFF" width="320" height="50"/>
</g>
<g id="Text">
	<rect x="0" y="0" fill="#FFFFFF" width="320" height="50"/>
	<text transform="matrix(1 0 0 1 130.5591 12.3351)"><tspan x="0" y="0" font-family="'AgencyFB-Bold'" font-size="14">MacGregor Village Shopping Center</tspan><tspan x="13.8" y="16.8" font-family="'AgencyFB-Bold'" font-size="14">107 Edinburgh South Cary, NC</tspan><tspan x="-5.9" y="33.6" font-family="'AgencyFB-Bold'" font-size="14">919-461-3799 - tributepizzaplace.com</tspan></text>
</g>
<g id="Layer_3">
	<g>
		<g>
			<path fill="#402B56" d="M109.7,49H10.3c-2.7,0-4.9-2.2-4.9-4.9V5.9C5.4,3.2,7.6,1,10.3,1h99.5c2.7,0,4.9,2.2,4.9,4.9v38.3
				C114.6,46.8,112.4,49,109.7,49z"/>
		</g>
		<g>
			<path fill="#FFFFFF" d="M108.3,6.1c0.7,0,1.2,0.6,1.2,1.2v35.3c0,0.7-0.6,1.2-1.2,1.2H11.7c-0.7,0-1.2-0.6-1.2-1.2V7.3
				c0-0.7,0.6-1.2,1.2-1.2H108.3 M108.3,5.2H11.7c-1.2,0-2.1,0.9-2.1,2.1v35.3c0,1.2,0.9,2.1,2.1,2.1h96.6c1.2,0,2.1-0.9,2.1-2.1
				V7.3C110.4,6.2,109.5,5.2,108.3,5.2L108.3,5.2z"/>
		</g>
		<g>
			<path fill="#FFFFFF" d="M19.5,19.2c-0.4,0.1-0.9,0.2-1.3,0.3c-0.6,0.1-1,0.3-1.3,0.5c-0.1,0.1-0.4,0.4-0.8,0.8c0,0-0.1,0-0.1-0.1
				c0-0.6-0.1-1.5-0.3-2.4c-0.2-0.8-0.5-1.7-0.8-2.2c0,0,0.1-0.1,0.1-0.1c0.3,0.2,0.7,0.3,1,0.3c0.4,0,0.8-0.1,1.2-0.2
				c2.5-0.6,5.1-1.1,7.6-1.6c0.6-0.1,0.9-0.2,1.2-0.3c0.3-0.2,0.5-0.4,0.7-0.8c0,0,0.1,0,0.1,0.1c-0.1,0.6,0,1.6,0.2,2.5
				c0.2,1,0.4,1.9,0.7,2.4c0,0-0.1,0.1-0.1,0.1c-0.4-0.2-0.8-0.4-1.2-0.5c-0.4-0.1-0.9-0.1-1.4,0c-0.4,0.1-0.8,0.2-1.2,0.2
				c0.5,2.6,1,4.9,1.5,7.5c0.1,0.7,0.3,1.2,0.4,1.4c0.2,0.3,0.5,0.5,0.7,0.6c0,0,0,0.1,0,0.1c-1-0.1-1.9,0-2.7,0.2
				c-1,0.2-1.7,0.5-2.3,0.9c0,0-0.1,0-0.1-0.1c0.1-0.2,0.2-0.5,0.3-0.8c0-0.3,0-0.8-0.2-1.4C20.6,24.1,20.1,21.8,19.5,19.2z"/>
			<path fill="#FFFFFF" d="M34.4,21.6c0,0-0.3,0-0.3,0c0.1,1,0.3,1.9,0.4,2.9c0.1,0.6,0.2,1,0.3,1.2c0.1,0.2,0.3,0.4,0.6,0.6
				c0,0,0,0.1,0,0.1c-0.4,0-0.8,0-1.1-0.1c-0.6,0-0.9,0-1.5,0.1c-0.7,0.1-1.2,0.2-1.4,0.3c-0.6,0.1-1,0.3-1.2,0.5c0,0,0-0.1-0.1-0.1
				c0.2-0.3,0.4-0.5,0.4-0.8c0.1-0.2,0.1-0.7-0.1-1.3c-0.5-3.1-1-6.3-1.6-9.4c-0.1-0.5-0.2-0.8-0.4-1.1c-0.2-0.2-0.4-0.4-0.6-0.6
				c0,0,0.1-0.1,0.1-0.1c1.7-0.2,2.9-0.4,3.9-0.5c0.6-0.1,3-0.4,3.4-0.5c1.4-0.2,2.3,0,3.3,0.6c1.1,0.6,1.7,1.6,1.8,3
				c0.2,1.6-0.4,2.9-1.7,3.8c0.7,0.5,1.4,1.1,2.1,1.6c0.3,0.3,0.7,0.5,1.1,0.7c0.2,0.1,0.5,0.1,0.9,0.1c0,0.1,0,0.1,0,0.2
				c-0.3,0.3-0.9,0.8-1.8,1.7c-0.7,0.7-1.2,1.4-1.5,2c-0.1,0-0.1,0-0.2,0c0-0.2-0.1-0.5-0.3-0.9c-0.2-0.3-0.4-0.6-0.9-0.9
				C37.1,23.6,35.8,22.6,34.4,21.6z M33.6,18c0.7-0.1,1.6-0.2,2.3-0.3c0.5-0.1,0.7-0.3,0.6-0.8c-0.1-0.5-0.3-0.7-0.8-0.6
				c-0.7,0.1-1.6,0.2-2.4,0.3C33.5,17.1,33.5,17.6,33.6,18z"/>
			<path fill="#FFFFFF" d="M48,23c0,0.7,0.1,1.1,0.3,1.4c0.1,0.2,0.3,0.4,0.7,0.7c0,0,0,0.1-0.1,0.1c-0.7-0.2-1.6-0.3-2.8-0.2
				c-1.3,0.1-2.3,0.3-2.8,0.6c0,0,0-0.1,0-0.1c0.1-0.1,0.3-0.4,0.5-0.8c0.1-0.2,0.1-0.7,0-1.4c-0.3-3-0.5-6.1-0.8-9.1
				c-0.1-0.6-0.1-1.1-0.3-1.4c-0.2-0.4-0.4-0.7-0.7-0.8c0,0,0-0.1,0-0.1c1,0.1,2,0.1,3,0c1-0.1,2-0.2,2.9-0.4c0,0,0.1,0.1,0.1,0.1
				c-0.3,0.3-0.5,0.6-0.6,0.9c-0.1,0.2-0.1,0.7,0,1.4C47.6,16.9,47.8,19.9,48,23z"/>
			<path fill="#FFFFFF" d="M49.4,11.4c1.3,0.1,2.4,0.1,3.4,0.1c0.6,0,3.5-0.1,4.1-0.1c1.5,0,2.3,0.2,3.2,0.8c1,0.6,1.5,1.5,1.6,2.7
				c0,0.2,0,0.3,0,0.4c0,0.7-0.2,1.3-0.6,1.8c1,0.9,1.4,1.8,1.5,2.9c0,1.3-0.5,2.7-1.3,3.6c-0.9,1-2,1.2-3.7,1.2c-0.5,0-1.8,0-2,0
				c-2.3-0.1-3.4,0-3.5,0c-0.7,0-1.3,0.2-1.9,0.5c0,0-0.1-0.1-0.1-0.1c0.1-0.1,0.3-0.4,0.5-0.7c0.1-0.3,0.2-0.8,0.2-1.4
				c-0.2-3.2-0.3-6.3-0.5-9.5c0-0.6-0.1-1-0.3-1.2c-0.1-0.2-0.3-0.4-0.6-0.6C49.4,11.5,49.4,11.4,49.4,11.4z M57.5,15.2
				c0-0.5-0.3-0.7-0.9-0.7c-0.6,0-1.6,0-2.3,0c0,0.5,0,0.9,0,1.4c0.6,0,1.7,0,2.3,0C57.3,15.9,57.5,15.7,57.5,15.2z M54.5,19.4
				c0,0.5,0,1.1,0,1.6c0.8,0,2,0,2.8-0.1c0.6,0,1-0.3,1-0.9c0-0.5-0.3-0.8-0.9-0.8C56.6,19.3,55.4,19.4,54.5,19.4z"/>
			<path fill="#FFFFFF" d="M64.3,13.3c0-0.7,0-1.2-0.1-1.4c-0.1-0.3-0.2-0.5-0.4-0.7c0,0,0.1-0.1,0.1-0.1c0.7,0.2,1.6,0.4,2.8,0.4
				c1.2,0,2,0,2.8-0.2c0,0,0,0.1,0.1,0.1c-0.3,0.2-0.5,0.4-0.7,0.7c-0.1,0.2-0.2,0.7-0.2,1.4c-0.1,2,0,3.5,0,5.6
				c0,0.6,0.1,1.1,0.5,1.5c0.4,0.4,0.8,0.6,1.5,0.7c0.7,0,1.2-0.1,1.6-0.5c0.4-0.3,0.5-0.8,0.6-1.4c0.3-1.9,0.4-3.5,0.5-5.6
				c0-0.7,0-1.2-0.1-1.4c-0.1-0.3-0.2-0.5-0.4-0.7c0,0,0.1-0.1,0.1-0.1c0.7,0.3,1.5,0.4,2.6,0.5c0.9,0.1,1.9,0.1,3-0.1
				c0,0,0,0.1,0.1,0.1c-0.3,0.2-0.5,0.4-0.7,0.6c-0.1,0.2-0.2,0.7-0.3,1.4c-0.2,2-0.4,3.9-0.6,5.9c-0.2,1.7-0.9,3-2.1,4
				c-1.3,1-2.8,1.5-4.6,1.3c-1.7-0.1-3.2-0.8-4.3-2c-1.2-1.2-1.7-2.7-1.7-4.4C64.3,17,64.3,15.2,64.3,13.3z"/>
			<path fill="#FFFFFF" d="M83.2,16.4c-0.4-0.1-0.9-0.1-1.3-0.2c-0.6-0.1-1.1,0-1.4,0.1c-0.2,0.1-0.5,0.2-1,0.5c0,0-0.1-0.1-0.1-0.1
				c0.2-0.6,0.4-1.4,0.5-2.3c0.1-0.8,0.1-1.8,0-2.4c0,0,0.1,0,0.1-0.1c0.3,0.3,0.5,0.5,0.8,0.6c0.3,0.1,0.7,0.2,1.2,0.2
				c2.6,0.3,5.1,0.7,7.7,1.1c0.6,0.1,1,0.1,1.2,0.1c0.3-0.1,0.6-0.2,0.9-0.5c0,0,0.1,0.1,0.1,0.1c-0.3,0.5-0.6,1.6-0.7,2.4
				c-0.2,1-0.2,1.9-0.1,2.5c0,0-0.1,0.1-0.1,0.1c-0.3-0.4-0.6-0.6-1-0.8c-0.4-0.2-0.8-0.4-1.3-0.4c-0.4-0.1-0.8-0.1-1.2-0.2
				c-0.4,2.7-0.7,4.9-1.1,7.6c-0.1,0.7-0.1,1.2-0.1,1.4c0.1,0.3,0.3,0.6,0.5,0.8c0,0-0.1,0.1-0.1,0.1c-0.9-0.4-1.7-0.6-2.6-0.8
				c-1-0.1-1.8-0.1-2.5,0.1c0,0,0-0.1-0.1-0.1c0.2-0.1,0.4-0.4,0.5-0.6c0.1-0.3,0.2-0.7,0.3-1.4C82.6,21.3,82.8,19,83.2,16.4z"/>
			<path fill="#FFFFFF" d="M99.1,23.7c-0.8-0.2-1.8-0.4-2.6-0.6c-0.1,0.6-0.2,1-0.3,1.6c1.2,0.3,2.6,0.7,3.8,1
				c0.5,0.1,0.9,0.2,1.1,0.2c0.4,0,0.7-0.2,1-0.3c0,0,0,0,0,0.1c-0.2,0.4-0.5,1.1-0.7,2c-0.2,1-0.4,1.8-0.3,2.3c0,0,0,0,0,0
				c-0.2-0.2-0.6-0.5-1.1-0.8c-0.6-0.3-1.8-0.6-3.5-1c-1.2-0.3-2.3-0.5-3.5-0.7c-0.9-0.2-1.6-0.2-2,0c0,0,0-0.1-0.1-0.1
				c0.1-0.1,0.4-0.2,0.7-0.5c0.2-0.2,0.3-0.7,0.4-1.4c0.6-3.1,1.1-6.2,1.7-9.3c0.1-0.6,0.1-1,0-1.3c-0.1-0.3-0.3-0.6-0.5-0.8
				c0,0,0-0.1,0.1-0.1c0.4,0.1,0.9,0.3,1.7,0.5c1.3,0.3,2.3,0.5,3.1,0.7c2.1,0.4,3.6,0.7,4.6,0.7c0.7,0,1.3,0,1.8-0.2c0,0,0,0,0,0
				c-0.4,0.6-0.7,1.3-0.8,2c-0.1,0.6-0.2,1.5-0.2,2.6c0,0,0,0-0.1,0c-0.2-0.3-0.5-0.6-0.8-0.8c-0.4-0.2-1.3-0.5-2.8-0.8
				c-0.6-0.1-1.5-0.3-2.2-0.5c-0.1,0.6-0.2,0.9-0.3,1.4c0.7,0.1,1.6,0.4,2.3,0.5c0.5,0.1,0.8,0.1,1.1,0.1c0.3,0,0.6-0.1,0.9-0.3
				c0,0,0.1,0.1,0.1,0.1c-0.3,0.6-0.6,1.3-0.7,2c-0.2,0.7-0.2,1.5-0.2,2.3c0,0-0.1,0-0.1,0.1c-0.1-0.2-0.3-0.4-0.5-0.6
				C99.7,23.9,99.4,23.8,99.1,23.7z"/>
		</g>
		<g>
			<path fill="#FFFFFF" d="M35,35.5h-0.7v2.2h-1.7v-6.3H35c0.9,0,1.6,0.6,1.6,1.5V34C36.6,34.9,35.9,35.5,35,35.5z M35,33
				c0-0.2-0.1-0.3-0.3-0.3h-0.4v1.7h0.4c0.2,0,0.3-0.1,0.3-0.3V33z"/>
			<path fill="#FFFFFF" d="M38.5,37.7v-6.3h1.7v6.3H38.5z"/>
			<path fill="#FFFFFF" d="M44.1,36.3H46v1.4h-4v-0.3l2-4.6h-1.9v-1.3h3.9v0.3L44.1,36.3z"/>
			<path fill="#FFFFFF" d="M49.8,36.3h1.9v1.4h-4v-0.3l2-4.6h-1.9v-1.3h3.9v0.3L49.8,36.3z"/>
			<path fill="#FFFFFF" d="M56.1,37.7l-0.1-0.9h-1l-0.1,0.9h-1.6l1.3-6.3h2l1.3,6.3H56.1z M55.5,33.5l-0.4,2.1h0.7L55.5,33.5z"/>
			<path fill="#FFFFFF" d="M65,35.5h-0.7v2.2h-1.7v-6.3H65c0.9,0,1.5,0.6,1.5,1.5V34C66.5,34.9,65.9,35.5,65,35.5z M65,33
				c0-0.2-0.1-0.3-0.3-0.3h-0.4v1.7h0.4c0.2,0,0.3-0.1,0.3-0.3V33z"/>
			<path fill="#FFFFFF" d="M68.3,37.7v-6.3H70v4.9h1.8v1.4H68.3z"/>
			<path fill="#FFFFFF" d="M75.6,37.7l-0.1-0.9h-1l-0.1,0.9h-1.5l1.3-6.3H76l1.2,6.3H75.6z M75,33.5l-0.4,2.1h0.6L75,33.5z"/>
			<path fill="#FFFFFF" d="M80.7,37.9c-1.2,0-2.2-0.8-2.2-1.9v-2.8c0-1.2,0.9-1.9,2.2-1.9c1.2,0,1.9,0.7,1.9,1.8v0.7h-1.5V33
				c0-0.2-0.2-0.4-0.5-0.4c-0.3,0-0.5,0.2-0.5,0.4v3c0,0.2,0.2,0.4,0.5,0.4c0.3,0,0.5-0.2,0.5-0.4v-0.7h1.5V36
				C82.7,37.1,81.9,37.9,80.7,37.9z"/>
			<path fill="#FFFFFF" d="M84.5,37.7v-6.3h3.5v1.4h-1.9v1.1h1.2v1.2h-1.2v1.2h1.9v1.5H84.5z"/>
		</g>
		<g>
			<g>
				<path fill="#D9272E" d="M22.4,27.3l-2-9.1c-0.9,0.2-2.4,0.5-3.5,0.8l-0.3-1.5c2.8-0.6,6.3-1.4,9.2-1.9L26,17
					c-1.1,0.2-2.6,0.5-3.5,0.7l1.8,9.2L22.4,27.3z"/>
			</g>
			<g>
				<path fill="#D9272E" d="M39.8,24.5c-1.7-1.4-3.5-2.8-5.2-4.1c-0.6,0.1-1.4,0.2-1.8,0.2l0.7,4.6l-1.9,0.3l-1.8-10.7
					c0,0,4.4-0.7,6.2-0.9c0.8-0.1,1.5,0,2.2,0.5c0.7,0.5,1.1,1.2,1.2,2.2c0.1,1-0.1,1.8-0.7,2.5c-0.5,0.6-1,0.9-1.7,1.1
					c1.3,1,2.6,2.1,3.9,3.1L39.8,24.5z M32.2,16l0.4,3c1.1-0.2,2.5-0.4,3.8-0.5c0.4-0.1,0.7-0.2,0.9-0.5c0.2-0.3,0.3-0.7,0.2-1.2
					c-0.1-0.5-0.2-0.8-0.5-1c-0.3-0.2-0.6-0.3-1.1-0.2C34.7,15.6,33.3,15.9,32.2,16z"/>
			</g>
			<g>
				<polygon fill="#D9272E" points="44.9,24 44,13.1 46.2,12.9 47,23.8 				"/>
			</g>
			<g>
				<path fill="#D9272E" d="M51.8,23.6l-0.5-11.2l5.7-0.2c2.3,0,3.3,1.1,3.5,2.1c0.1,0.2,0.1,0.5,0.1,0.7c0,0.5-0.2,1-0.5,1.5
					c-0.1,0.2-0.2,0.4-0.3,0.5c0.3,0.2,0.6,0.4,0.8,0.7c0.5,0.6,0.8,1.3,0.8,2.1c0,1-0.3,1.9-0.9,2.6c-0.6,0.7-1.4,1.1-2.3,1.1
					C56.3,23.6,51.8,23.6,51.8,23.6z M53.4,18.4l0.1,3.6c1.3,0,2.9-0.1,4.3-0.1c0.4,0,0.8-0.2,1.1-0.5c0.4-0.3,0.5-0.8,0.5-1.4
					c0-0.6-0.2-1-0.6-1.3c-0.4-0.3-0.8-0.4-1.4-0.4C57.5,18.3,54.5,18.4,53.4,18.4z M53.2,13.8l0.1,2.9c1.1,0,2.8-0.1,4.1-0.1
					c0.5,0,0.8-0.2,1.1-0.5c0.2-0.3,0.3-0.6,0.3-1.1c0-0.4-0.2-0.8-0.4-1c-0.3-0.2-0.6-0.3-1-0.3C57.3,13.8,54.3,13.8,53.2,13.8z"/>
			</g>
			<g>
				<path fill="#D9272E" d="M70.7,24.3L70.7,24.3c-0.1,0-0.3,0-0.4,0c-1.4-0.1-2.5-0.6-3.5-1.6c-0.9-1-1.5-2.2-1.4-3.5l0.2-6.5
					l1.9,0.1L67.4,19c0,0.9,0.1,1.7,0.8,2.3c0.6,0.7,1.4,1,2.3,1.1c1,0.1,1.8-0.2,2.5-0.8c0.6-0.6,1-1.2,1.1-2.2l0.5-6.4l1.9,0.1
					l-0.6,6.5c-0.1,1.3-0.6,2.5-1.6,3.3C73.3,23.8,71.9,24.3,70.7,24.3z"/>
			</g>
			<g>
				<path fill="#D9272E" d="M83.1,24.9l1.2-9.3c-1.1-0.1-2.5-0.3-3.6-0.5l0.2-1.5c2.9,0.3,6.5,0.8,9.3,1.3l-0.2,1.5
					c-1.2-0.2-2.4-0.4-3.6-0.5L85,25.2L83.1,24.9z"/>
			</g>
			<g>
				<path fill="#D9272E" d="M100.1,28.2c-2.2-0.5-7.3-1.8-7.3-1.8l2-10.9c0,0,5.6,1.2,7.9,1.5l-0.3,1.4c-1.9-0.4-3.9-0.9-5.8-1.2
					l-0.7,3.5c1.3,0.2,2.7,0.6,3.9,0.9l-0.3,1.2c-1.2-0.3-2.6-0.6-3.9-0.9l-0.8,3.7c1.7,0.4,3.9,1,5.7,1.4L100.1,28.2z"/>
			</g>
		</g>
	</g>
</g>
</svg>
