<?xml version="1.0" encoding="utf-8"?>
<!-- Generator: Adobe Illustrator 18.0.0, SVG Export Plug-In . SVG Version: 6.00 Build 0)  -->
<!DOCTYPE svg PUBLIC "-//W3C//DTD SVG 1.1//EN" "http://www.w3.org/Graphics/SVG/1.1/DTD/svg11.dtd">
<svg version="1.1" xmlns="http://www.w3.org/2000/svg" xmlns:xlink="http://www.w3.org/1999/xlink" x="0px" y="0px"
	 viewBox="0 0 320 50" enable-background="new 0 0 320 50" xml:space="preserve">
<g id="Background">
	<rect x="0" y="0" fill="#FF0000" width="320" height="50"/>
</g>
<g id="Text">
	<text transform="matrix(1 0 0 1 102.6909 12.6762)"><tspan x="0" y="0" fill="#FFFFFF" font-family="'BerlinSansFB-Reg'" font-size="14">McDonald’s of Apex</tspan><tspan x="-11" y="16.8" fill="#FFFFFF" font-family="'BerlinSansFB-Reg'" font-size="14">Supports Apex Athletics</tspan><tspan x="-13.4" y="33.6" fill="#FFFFFF" font-family="'BerlinSansFB-Reg'" font-size="14">See you after the Game!</tspan></text>
</g>
<g id="Logo_L">
	<g id="g274934" transform="matrix(2.6928446,0,0,-2.6928446,146.53206,853.44041)">
		<path id="path274936" fill="#221E1F" d="M1899,265.2c14.8,0,26.7-62.4,26.7-139.2h21.5c0,83-21.5,150-48.1,150
			c-15.1,0-28.7-20.3-37.4-51.6c-8.7,31.6-22.3,51.6-37.4,51.6c-26.7,0-48.1-67-48.1-150h21.5c0,76.9,11.9,139.2,26.7,139.2
			c14.8,0,26.7-57.4,26.7-128.5h21.5C1872,207.7,1884.2,265.2,1899,265.2"/>
	</g>
	<g id="g274938" transform="matrix(2.6928446,0,0,-2.6928446,139.01638,848.34051)">
		<path id="path274940" fill="#FBBE16" d="M1893.7,268.8c14.8,0,26.7-62.4,26.7-139.5h21.5c0,83.2-21.5,150.2-48.1,150.2
			c-15.1,0-28.7-20.3-37.4-51.9c-8.7,31.6-22.3,51.9-37.4,51.9c-26.7,0-48.1-67.3-48.1-150.2h21.5c0,76.9,11.9,139.5,26.7,139.5
			c14.8,0,26.7-57.7,26.7-128.8h21.5C1866.7,211.3,1878.9,268.8,1893.7,268.8"/>
	</g>
	<g id="g274942" transform="matrix(2.6928446,0,0,-2.6928446,200.20044,972.41309)">
		<path id="path274944" fill="#221E1F" d="M1936.9,181.2h0.9c0.9,0,1.7,0,1.7,1.2c0,0.9-0.6,0.9-1.5,0.9h-1.2V181.2z M1935.7,184.1
			h2.3c1.5,0,2.3-0.6,2.3-1.7s-0.6-1.7-1.7-1.7l1.7-2.9h-1.2l-1.7,2.6h-0.9v-2.6h-0.9C1935.7,177.7,1935.7,184.1,1935.7,184.1z
			 M1938,176.3c2.6,0,4.4,2,4.4,4.6c0,2.6-2,4.6-4.4,4.6c-2.6,0-4.4-2-4.4-4.6C1933.4,178.3,1935.4,176.3,1938,176.3z M1938,186.4
			c2.9,0,5.2-2.3,5.2-5.2c0-3.2-2.3-5.5-5.2-5.5s-5.5,2.3-5.5,5.5C1932.5,184.1,1935.1,186.4,1938,186.4"/>
	</g>
	<path id="path274946" fill="#221E1F" d="M4868,601.2h19.7v69.6H4868V601.2z M4868,576.9h19.7v16H4868V576.9z"/>
	<g id="g274948" transform="matrix(2.6928446,0,0,-2.6928446,28.192348,1011.2873)">
		<path id="path274950" fill="#221E1F" d="M1815.5,153.8v7.5h-7.5v-7.5h3.2c0-2.6-1.5-4.9-3.2-4.9v-3.5
			C1812,145.7,1815.5,149.1,1815.5,153.8"/>
	</g>
	<g id="g274952" transform="matrix(2.6928446,0,0,-2.6928446,37.905429,1015.3312)">
		<path id="path274954" fill="#221E1F" d="M1822.3,150.9c0.9,1.2,2.9,3.5,7.3,3.5c4.1,0,5.5-1.5,7-2.9c1.5,1.2,3.5,2.9,7.5,2.9
			s6.4-2,7-3.8c0.6-1.5,0.6-3.2,0.6-5.8V128h-7.3v13.6c0,1.5,0,3.5-0.3,4.4c-0.6,2-2.6,2.3-3.2,2.3c-0.9,0-1.7-0.3-2.3-0.9
			c-1.5-1.2-1.5-2.6-1.5-5.5V128h-7.3v15.4c0,1.2,0,2.6-0.6,3.8c-0.6,0.9-1.7,1.5-2.9,1.5c-0.6,0-1.5-0.3-2-0.6
			c-1.7-1.2-1.7-3.2-1.7-4.9v-14.8h-7.3v25.8h7.3"/>
	</g>
	<path id="path274956" fill="#221E1F" d="M5052.2,670.9h20v-94h-20V670.9z"/>
	<g id="g274958" transform="matrix(2.6928446,0,0,-2.6928446,92.76136,1019.9731)">
		<path id="path274960" fill="#221E1F" d="M1861,147.6c-0.9-1.5-1.2-3.2-1.2-4.9c0-4.1,2-7.8,6.1-7.8s6.1,3.2,6.1,7.3
			c0,2.9-0.6,5.2-2,6.4c-1.5,1.5-3.2,1.5-4.4,1.5C1863.4,150.3,1861.9,149.4,1861,147.6z M1879.3,142.7c0-6.4-3.8-13.6-13.6-13.6
			c-7,0-13.6,4.1-13.6,13.6c0,7.8,4.9,14.2,14.5,13.6C1877,155.8,1879.3,147.4,1879.3,142.7"/>
	</g>
	<g id="g274962" transform="matrix(2.6928446,0,0,-2.6928446,121.14387,1030.2609)">
		<path id="path274964" fill="#221E1F" d="M1881.1,140.4l4.4,18.9h7.5l-8.1-25.8h-7.8l-8.1,25.8h7.8"/>
	</g>
	<g id="g274966" transform="matrix(2.6928446,0,0,-2.6928446,151.69148,1015.0402)">
		<path id="path274968" fill="#221E1F" d="M1902.6,151.1c0.9,0.9,1.2,1.5,2.6,2c1.2,0.6,2.9,0.9,4.6,0.9c1.5,0,3.2-0.3,4.4-1.2
			c2.6-1.5,3.5-3.8,3.5-7.8v-17.7h-7.3v14.5c0,2.3,0,3.2-0.3,3.8c-0.6,1.5-2,2-3.5,2c-3.8,0-3.8-3.2-3.8-6.4v-13.9h-7.5v25.8h7.5"/>
	</g>
	<path id="path274970" fill="#221E1F" d="M5226.8,601.2h19.7v69.6h-19.7V601.2z M5226.8,576.9h19.7v16h-19.7V576.9z"/>
	<path id="path274972" fill="#221E1F" d="M5372.4,601.2h19.7v69.6h-19.7V601.2z M5372.4,576.9h19.7v16h-19.7V576.9z"/>
	<g id="g274974" transform="matrix(2.6928446,0,0,-2.6928446,198.38267,1007.3064)">
		<path id="path274976" fill="#221E1F" d="M1935.6,156.6h7.3v-5.8h4.9V145h-4.9v-11c0-1.5,0-2.9,2-2.9h2.6v-5.8
			c-1.5-0.3-2.6-0.3-3.8-0.3c-2.6,0-5.2,0-7,2.6c-0.9,1.5-1.2,3.5-1.2,5.8v11.9h-3.8v5.8h3.8"/>
	</g>
	<g>
		<g>
			<defs>
				<polygon id="SVGID_1_" points="2171.1,3670.5 2179,3670.5 2171.1,3662.7 				"/>
			</defs>
			<clipPath id="SVGID_2_">
				<use xlink:href="#SVGID_1_"  overflow="visible"/>
			</clipPath>
		</g>
		<g>
			<defs>
				<polygon id="SVGID_3_" points="-5065.9,-3517.1 -5044.8,-3517.1 -5065.9,-3496 				"/>
			</defs>
			<defs>
				<polygon id="SVGID_4_" points="-5108,-3559.3 -5129.1,-3559.3 -5108,-3580.4 				"/>
			</defs>
			<clipPath id="SVGID_5_">
				<use xlink:href="#SVGID_3_"  overflow="visible"/>
			</clipPath>
			<clipPath id="SVGID_6_" clip-path="url(#SVGID_5_)">
				<use xlink:href="#SVGID_4_"  overflow="visible"/>
			</clipPath>
			<g id="g274978" transform="matrix(2.6928446,0,0,-2.6928446,-921.10451,2073.7116)" clip-path="url(#SVGID_6_)">
				<g id="g274980" transform="translate(407.248,394.52299)">
					<path id="path274982" fill="#221E1F" d="M1919.5,153.7v7.5h-7.5v-7.5h3.2c0-2.6-1.5-4.9-3.2-4.9v-3.5
						C1916,145.6,1919.5,149.1,1919.5,153.7"/>
				</g>
				<g id="g274984" transform="translate(422.403,395.37)">
					<path id="path274986" fill="#221E1F" d="M1948.3,155.4h0.9c0.9,0,1.7,0,1.7,1.2c0,0.9-0.6,0.9-1.5,0.9h-1.2V155.4z
						 M1947.1,158.3h2.3c1.5,0,2.3-0.6,2.3-1.7s-0.6-1.7-1.7-1.7l1.7-2.9h-1.2l-1.7,2.6h-1.2v-2.6h-0.9v6.4H1947.1z M1949.4,150.4
						c2.3,0,4.4,2,4.4,4.6c0,2.6-2,4.6-4.4,4.6c-2.6,0-4.4-2-4.4-4.6C1944.8,152.5,1946.8,150.4,1949.4,150.4z M1949.4,160.6
						c2.9,0,5.2-2.3,5.2-5.2c0-3.2-2.3-5.5-5.2-5.5s-5.5,2.3-5.5,5.5C1943.9,158.3,1946.5,160.6,1949.4,160.6"/>
				</g>
			</g>
		</g>
	</g>
	<g id="g274934_1_" transform="matrix(2.6928446,0,0,-2.6928446,146.53206,853.44041)">
		<path id="path274936_1_" fill="#221E1F" d="M1899,265.2c14.8,0,26.7-62.4,26.7-139.2h21.5c0,83-21.5,150-48.1,150
			c-15.1,0-28.7-20.3-37.4-51.6c-8.7,31.6-22.3,51.6-37.4,51.6c-26.7,0-48.1-67-48.1-150h21.5c0,76.9,11.9,139.2,26.7,139.2
			c14.8,0,26.7-57.4,26.7-128.5h21.5C1872,207.7,1884.2,265.2,1899,265.2"/>
	</g>
	<g id="g274938_1_" transform="matrix(2.6928446,0,0,-2.6928446,139.01638,848.34051)">
		<path id="path274940_1_" fill="#FBBE16" d="M1893.7,268.8c14.8,0,26.7-62.4,26.7-139.5h21.5c0,83.2-21.5,150.2-48.1,150.2
			c-15.1,0-28.7-20.3-37.4-51.9c-8.7,31.6-22.3,51.9-37.4,51.9c-26.7,0-48.1-67.3-48.1-150.2h21.5c0,76.9,11.9,139.5,26.7,139.5
			c14.8,0,26.7-57.7,26.7-128.8h21.5C1866.7,211.3,1878.9,268.8,1893.7,268.8"/>
	</g>
	<g id="g274942_1_" transform="matrix(2.6928446,0,0,-2.6928446,200.20044,972.41309)">
		<path id="path274944_1_" fill="#221E1F" d="M1936.9,181.2h0.9c0.9,0,1.7,0,1.7,1.2c0,0.9-0.6,0.9-1.5,0.9h-1.2V181.2z
			 M1935.7,184.1h2.3c1.5,0,2.3-0.6,2.3-1.7s-0.6-1.7-1.7-1.7l1.7-2.9h-1.2l-1.7,2.6h-0.9v-2.6h-0.9
			C1935.7,177.7,1935.7,184.1,1935.7,184.1z M1938,176.3c2.6,0,4.4,2,4.4,4.6c0,2.6-2,4.6-4.4,4.6c-2.6,0-4.4-2-4.4-4.6
			C1933.4,178.3,1935.4,176.3,1938,176.3z M1938,186.4c2.9,0,5.2-2.3,5.2-5.2c0-3.2-2.3-5.5-5.2-5.5s-5.5,2.3-5.5,5.5
			C1932.5,184.1,1935.1,186.4,1938,186.4"/>
	</g>
	<path id="path274946_1_" fill="#221E1F" d="M4868,601.2h19.7v69.6H4868V601.2z M4868,576.9h19.7v16H4868V576.9z"/>
	<g id="g274948_1_" transform="matrix(2.6928446,0,0,-2.6928446,28.192348,1011.2873)">
		<path id="path274950_1_" fill="#221E1F" d="M1815.5,153.8v7.5h-7.5v-7.5h3.2c0-2.6-1.5-4.9-3.2-4.9v-3.5
			C1812,145.7,1815.5,149.1,1815.5,153.8"/>
	</g>
	<g id="g274952_1_" transform="matrix(2.6928446,0,0,-2.6928446,37.905429,1015.3312)">
		<path id="path274954_1_" fill="#221E1F" d="M1822.3,150.9c0.9,1.2,2.9,3.5,7.3,3.5c4.1,0,5.5-1.5,7-2.9c1.5,1.2,3.5,2.9,7.5,2.9
			s6.4-2,7-3.8c0.6-1.5,0.6-3.2,0.6-5.8V128h-7.3v13.6c0,1.5,0,3.5-0.3,4.4c-0.6,2-2.6,2.3-3.2,2.3c-0.9,0-1.7-0.3-2.3-0.9
			c-1.5-1.2-1.5-2.6-1.5-5.5V128h-7.3v15.4c0,1.2,0,2.6-0.6,3.8c-0.6,0.9-1.7,1.5-2.9,1.5c-0.6,0-1.5-0.3-2-0.6
			c-1.7-1.2-1.7-3.2-1.7-4.9v-14.8h-7.3v25.8h7.3"/>
	</g>
	<path id="path274956_1_" fill="#221E1F" d="M5052.2,670.9h20v-94h-20V670.9z"/>
	<g id="g274958_1_" transform="matrix(2.6928446,0,0,-2.6928446,92.76136,1019.9731)">
		<path id="path274960_1_" fill="#221E1F" d="M1861,147.6c-0.9-1.5-1.2-3.2-1.2-4.9c0-4.1,2-7.8,6.1-7.8s6.1,3.2,6.1,7.3
			c0,2.9-0.6,5.2-2,6.4c-1.5,1.5-3.2,1.5-4.4,1.5C1863.4,150.3,1861.9,149.4,1861,147.6z M1879.3,142.7c0-6.4-3.8-13.6-13.6-13.6
			c-7,0-13.6,4.1-13.6,13.6c0,7.8,4.9,14.2,14.5,13.6C1877,155.8,1879.3,147.4,1879.3,142.7"/>
	</g>
	<g id="g274962_1_" transform="matrix(2.6928446,0,0,-2.6928446,121.14387,1030.2609)">
		<path id="path274964_1_" fill="#221E1F" d="M1881.1,140.4l4.4,18.9h7.5l-8.1-25.8h-7.8l-8.1,25.8h7.8"/>
	</g>
	<g id="g274966_1_" transform="matrix(2.6928446,0,0,-2.6928446,151.69148,1015.0402)">
		<path id="path274968_1_" fill="#221E1F" d="M1902.6,151.1c0.9,0.9,1.2,1.5,2.6,2c1.2,0.6,2.9,0.9,4.6,0.9c1.5,0,3.2-0.3,4.4-1.2
			c2.6-1.5,3.5-3.8,3.5-7.8v-17.7h-7.3v14.5c0,2.3,0,3.2-0.3,3.8c-0.6,1.5-2,2-3.5,2c-3.8,0-3.8-3.2-3.8-6.4v-13.9h-7.5v25.8h7.5"/>
	</g>
	<path id="path274970_1_" fill="#221E1F" d="M5226.8,601.2h19.7v69.6h-19.7V601.2z M5226.8,576.9h19.7v16h-19.7V576.9z"/>
	<path id="path274972_1_" fill="#221E1F" d="M5372.4,601.2h19.7v69.6h-19.7V601.2z M5372.4,576.9h19.7v16h-19.7V576.9z"/>
	<g id="g274974_1_" transform="matrix(2.6928446,0,0,-2.6928446,198.38267,1007.3064)">
		<path id="path274976_1_" fill="#221E1F" d="M1935.6,156.6h7.3v-5.8h4.9V145h-4.9v-11c0-1.5,0-2.9,2-2.9h2.6v-5.8
			c-1.5-0.3-2.6-0.3-3.8-0.3c-2.6,0-5.2,0-7,2.6c-0.9,1.5-1.2,3.5-1.2,5.8v11.9h-3.8v5.8h3.8"/>
	</g>
	<g>
		<g>
			<defs>
				<polygon id="SVGID_7_" points="2171.1,3670.5 2179,3670.5 2171.1,3662.7 				"/>
			</defs>
			<clipPath id="SVGID_8_">
				<use xlink:href="#SVGID_7_"  overflow="visible"/>
			</clipPath>
		</g>
		<g>
			<defs>
				<polygon id="SVGID_9_" points="-5065.9,-3517.1 -5044.8,-3517.1 -5065.9,-3496 				"/>
			</defs>
			<defs>
				<polygon id="SVGID_10_" points="-5108,-3559.3 -5129.1,-3559.3 -5108,-3580.4 				"/>
			</defs>
			<clipPath id="SVGID_11_">
				<use xlink:href="#SVGID_9_"  overflow="visible"/>
			</clipPath>
			<clipPath id="SVGID_12_" clip-path="url(#SVGID_11_)">
				<use xlink:href="#SVGID_10_"  overflow="visible"/>
			</clipPath>
			<g id="g274978_1_" transform="matrix(2.6928446,0,0,-2.6928446,-921.10451,2073.7116)" clip-path="url(#SVGID_12_)">
				<g id="g274980_1_" transform="translate(407.248,394.52299)">
					<path id="path274982_1_" fill="#221E1F" d="M1919.5,153.7v7.5h-7.5v-7.5h3.2c0-2.6-1.5-4.9-3.2-4.9v-3.5
						C1916,145.6,1919.5,149.1,1919.5,153.7"/>
				</g>
				<g id="g274984_1_" transform="translate(422.403,395.37)">
					<path id="path274986_1_" fill="#221E1F" d="M1948.3,155.4h0.9c0.9,0,1.7,0,1.7,1.2c0,0.9-0.6,0.9-1.5,0.9h-1.2V155.4z
						 M1947.1,158.3h2.3c1.5,0,2.3-0.6,2.3-1.7s-0.6-1.7-1.7-1.7l1.7-2.9h-1.2l-1.7,2.6h-1.2v-2.6h-0.9v6.4H1947.1z M1949.4,150.4
						c2.3,0,4.4,2,4.4,4.6c0,2.6-2,4.6-4.4,4.6c-2.6,0-4.4-2-4.4-4.6C1944.8,152.5,1946.8,150.4,1949.4,150.4z M1949.4,160.6
						c2.9,0,5.2-2.3,5.2-5.2c0-3.2-2.3-5.5-5.2-5.5s-5.5,2.3-5.5,5.5C1943.9,158.3,1946.5,160.6,1949.4,160.6"/>
				</g>
			</g>
		</g>
	</g>
	<g>
		<g id="g274934_2_" transform="matrix(2.6928446,0,0,-2.6928446,146.53206,853.44041)">
			<path id="path274936_2_" fill="#221E1F" d="M1899,265.2c14.8,0,26.7-62.4,26.7-139.2h21.5c0,83-21.5,150-48.1,150
				c-15.1,0-28.7-20.3-37.4-51.6c-8.7,31.6-22.3,51.6-37.4,51.6c-26.7,0-48.1-67-48.1-150h21.5c0,76.9,11.9,139.2,26.7,139.2
				c14.8,0,26.7-57.4,26.7-128.5h21.5C1872,207.7,1884.2,265.2,1899,265.2"/>
		</g>
		<g id="g274938_2_" transform="matrix(2.6928446,0,0,-2.6928446,139.01638,848.34051)">
			<path id="path274940_2_" fill="#FBBE16" d="M1893.7,268.8c14.8,0,26.7-62.4,26.7-139.5h21.5c0,83.2-21.5,150.2-48.1,150.2
				c-15.1,0-28.7-20.3-37.4-51.9c-8.7,31.6-22.3,51.9-37.4,51.9c-26.7,0-48.1-67.3-48.1-150.2h21.5c0,76.9,11.9,139.5,26.7,139.5
				c14.8,0,26.7-57.7,26.7-128.8h21.5C1866.7,211.3,1878.9,268.8,1893.7,268.8"/>
		</g>
		<g id="g274942_2_" transform="matrix(2.6928446,0,0,-2.6928446,200.20044,972.41309)">
			<path id="path274944_2_" fill="#221E1F" d="M1936.9,181.2h0.9c0.9,0,1.7,0,1.7,1.2c0,0.9-0.6,0.9-1.5,0.9h-1.2V181.2z
				 M1935.7,184.1h2.3c1.5,0,2.3-0.6,2.3-1.7s-0.6-1.7-1.7-1.7l1.7-2.9h-1.2l-1.7,2.6h-0.9v-2.6h-0.9
				C1935.7,177.7,1935.7,184.1,1935.7,184.1z M1938,176.3c2.6,0,4.4,2,4.4,4.6c0,2.6-2,4.6-4.4,4.6c-2.6,0-4.4-2-4.4-4.6
				C1933.4,178.3,1935.4,176.3,1938,176.3z M1938,186.4c2.9,0,5.2-2.3,5.2-5.2c0-3.2-2.3-5.5-5.2-5.5s-5.5,2.3-5.5,5.5
				C1932.5,184.1,1935.1,186.4,1938,186.4"/>
		</g>
		<path id="path274946_2_" fill="#221E1F" d="M4868,601.2h19.7v69.6H4868V601.2z M4868,576.9h19.7v16H4868V576.9z"/>
		<g id="g274948_2_" transform="matrix(2.6928446,0,0,-2.6928446,28.192348,1011.2873)">
			<path id="path274950_2_" fill="#221E1F" d="M1815.5,153.8v7.5h-7.5v-7.5h3.2c0-2.6-1.5-4.9-3.2-4.9v-3.5
				C1812,145.7,1815.5,149.1,1815.5,153.8"/>
		</g>
		<g id="g274952_2_" transform="matrix(2.6928446,0,0,-2.6928446,37.905429,1015.3312)">
			<path id="path274954_2_" fill="#221E1F" d="M1822.3,150.9c0.9,1.2,2.9,3.5,7.3,3.5c4.1,0,5.5-1.5,7-2.9c1.5,1.2,3.5,2.9,7.5,2.9
				s6.4-2,7-3.8c0.6-1.5,0.6-3.2,0.6-5.8V128h-7.3v13.6c0,1.5,0,3.5-0.3,4.4c-0.6,2-2.6,2.3-3.2,2.3c-0.9,0-1.7-0.3-2.3-0.9
				c-1.5-1.2-1.5-2.6-1.5-5.5V128h-7.3v15.4c0,1.2,0,2.6-0.6,3.8c-0.6,0.9-1.7,1.5-2.9,1.5c-0.6,0-1.5-0.3-2-0.6
				c-1.7-1.2-1.7-3.2-1.7-4.9v-14.8h-7.3v25.8h7.3"/>
		</g>
		<path id="path274956_2_" fill="#221E1F" d="M5052.2,670.9h20v-94h-20V670.9z"/>
		<g id="g274958_2_" transform="matrix(2.6928446,0,0,-2.6928446,92.76136,1019.9731)">
			<path id="path274960_2_" fill="#221E1F" d="M1861,147.6c-0.9-1.5-1.2-3.2-1.2-4.9c0-4.1,2-7.8,6.1-7.8s6.1,3.2,6.1,7.3
				c0,2.9-0.6,5.2-2,6.4c-1.5,1.5-3.2,1.5-4.4,1.5C1863.4,150.3,1861.9,149.4,1861,147.6z M1879.3,142.7c0-6.4-3.8-13.6-13.6-13.6
				c-7,0-13.6,4.1-13.6,13.6c0,7.8,4.9,14.2,14.5,13.6C1877,155.8,1879.3,147.4,1879.3,142.7"/>
		</g>
		<g id="g274962_2_" transform="matrix(2.6928446,0,0,-2.6928446,121.14387,1030.2609)">
			<path id="path274964_2_" fill="#221E1F" d="M1881.1,140.4l4.4,18.9h7.5l-8.1-25.8h-7.8l-8.1,25.8h7.8"/>
		</g>
		<g id="g274966_2_" transform="matrix(2.6928446,0,0,-2.6928446,151.69148,1015.0402)">
			<path id="path274968_2_" fill="#221E1F" d="M1902.6,151.1c0.9,0.9,1.2,1.5,2.6,2c1.2,0.6,2.9,0.9,4.6,0.9c1.5,0,3.2-0.3,4.4-1.2
				c2.6-1.5,3.5-3.8,3.5-7.8v-17.7h-7.3v14.5c0,2.3,0,3.2-0.3,3.8c-0.6,1.5-2,2-3.5,2c-3.8,0-3.8-3.2-3.8-6.4v-13.9h-7.5v25.8h7.5"
				/>
		</g>
		<path id="path274970_2_" fill="#221E1F" d="M5226.8,601.2h19.7v69.6h-19.7V601.2z M5226.8,576.9h19.7v16h-19.7V576.9z"/>
		<path id="path274972_2_" fill="#221E1F" d="M5372.4,601.2h19.7v69.6h-19.7V601.2z M5372.4,576.9h19.7v16h-19.7V576.9z"/>
		<g id="g274974_2_" transform="matrix(2.6928446,0,0,-2.6928446,198.38267,1007.3064)">
			<path id="path274976_2_" fill="#221E1F" d="M1935.6,156.6h7.3v-5.8h4.9V145h-4.9v-11c0-1.5,0-2.9,2-2.9h2.6v-5.8
				c-1.5-0.3-2.6-0.3-3.8-0.3c-2.6,0-5.2,0-7,2.6c-0.9,1.5-1.2,3.5-1.2,5.8v11.9h-3.8v5.8h3.8"/>
		</g>
		<g>
			<g>
				<defs>
					<polygon id="SVGID_13_" points="2171.1,3670.5 2179,3670.5 2171.1,3662.7 					"/>
				</defs>
				<clipPath id="SVGID_14_">
					<use xlink:href="#SVGID_13_"  overflow="visible"/>
				</clipPath>
			</g>
			<g>
				<defs>
					<polygon id="SVGID_15_" points="-5065.9,-3517.1 -5044.8,-3517.1 -5065.9,-3496 					"/>
				</defs>
				<defs>
					<polygon id="SVGID_16_" points="-5108,-3559.3 -5129.1,-3559.3 -5108,-3580.4 					"/>
				</defs>
				<clipPath id="SVGID_17_">
					<use xlink:href="#SVGID_15_"  overflow="visible"/>
				</clipPath>
				<clipPath id="SVGID_18_" clip-path="url(#SVGID_17_)">
					<use xlink:href="#SVGID_16_"  overflow="visible"/>
				</clipPath>
				<g id="g274978_2_" transform="matrix(2.6928446,0,0,-2.6928446,-921.10451,2073.7116)" clip-path="url(#SVGID_18_)">
					<g id="g274980_2_" transform="translate(407.248,394.52299)">
						<path id="path274982_2_" fill="#221E1F" d="M1919.5,153.7v7.5h-7.5v-7.5h3.2c0-2.6-1.5-4.9-3.2-4.9v-3.5
							C1916,145.6,1919.5,149.1,1919.5,153.7"/>
					</g>
					<g id="g274984_2_" transform="translate(422.403,395.37)">
						<path id="path274986_2_" fill="#221E1F" d="M1948.3,155.4h0.9c0.9,0,1.7,0,1.7,1.2c0,0.9-0.6,0.9-1.5,0.9h-1.2V155.4z
							 M1947.1,158.3h2.3c1.5,0,2.3-0.6,2.3-1.7s-0.6-1.7-1.7-1.7l1.7-2.9h-1.2l-1.7,2.6h-1.2v-2.6h-0.9v6.4H1947.1z M1949.4,150.4
							c2.3,0,4.4,2,4.4,4.6c0,2.6-2,4.6-4.4,4.6c-2.6,0-4.4-2-4.4-4.6C1944.8,152.5,1946.8,150.4,1949.4,150.4z M1949.4,160.6
							c2.9,0,5.2-2.3,5.2-5.2c0-3.2-2.3-5.5-5.2-5.5s-5.5,2.3-5.5,5.5C1943.9,158.3,1946.5,160.6,1949.4,160.6"/>
					</g>
				</g>
			</g>
		</g>
	</g>
	<g>
		<g id="g274942_3_" transform="matrix(2.6928446,0,0,-2.6928446,200.20044,972.41309)">
			<path id="path274944_3_" fill="#221E1F" d="M-55.2,348.7L-55.2,348.7c0.1,0,0.2,0,0.2,0.1c0,0.1,0,0.1-0.1,0.1h-0.1V348.7z
				 M-55.3,349h0.2c0.1,0,0.2,0,0.2-0.1c0-0.1,0-0.1-0.1-0.1l0.1-0.2H-55l-0.1,0.2h-0.1v-0.2h-0.1C-55.3,348.4-55.3,349-55.3,349z
				 M-55.1,348.3c0.2,0,0.4,0.2,0.4,0.4c0,0.2-0.2,0.4-0.4,0.4c-0.2,0-0.4-0.2-0.4-0.4C-55.5,348.5-55.3,348.3-55.1,348.3z
				 M-55.1,349.2c0.2,0,0.4-0.2,0.4-0.4c0-0.3-0.2-0.5-0.4-0.5s-0.5,0.2-0.5,0.5C-55.5,349-55.3,349.2-55.1,349.2"/>
		</g>
		<g id="g274934_3_" transform="matrix(2.6928446,0,0,-2.6928446,146.53206,853.44041)">
			<path id="path274936_3_" fill="#221E1F" d="M-40,315.2c1.2,0,2.2-5.2,2.2-11.6h1.8c0,6.9-1.8,12.5-4,12.5c-1.3,0-2.4-1.7-3.1-4.3
				c-0.7,2.6-1.9,4.3-3.1,4.3c-2.2,0-4-5.6-4-12.5h1.8c0,6.4,1,11.6,2.2,11.6s2.2-4.8,2.2-10.7h1.8C-42.3,310.4-41.3,315.2-40,315.2
				"/>
		</g>
		<g id="g274938_3_" transform="matrix(2.6928446,0,0,-2.6928446,139.01638,848.34051)">
			<path id="path274940_3_" fill="#FBBE16" d="M-37.9,313.8c1.2,0,2.2-5.2,2.2-11.6h1.8c0,6.9-1.8,12.5-4,12.5
				c-1.3,0-2.4-1.7-3.1-4.3c-0.7,2.6-1.9,4.3-3.1,4.3c-2.2,0-4-5.6-4-12.5h1.8c0,6.4,1,11.6,2.2,11.6s2.2-4.8,2.2-10.7h1.8
				C-40.2,309-39.2,313.8-37.9,313.8"/>
		</g>
		<path id="path274946_3_" fill="#221E1F" d="M6.1,43.1h1.6v5.8H6.1V43.1z M6.1,41.1h1.6v1.3H6.1V41.1z"/>
		<g id="g274948_3_" transform="matrix(2.6928446,0,0,-2.6928446,28.192348,1011.2873)">
			<path id="path274950_3_" fill="#221E1F" d="M-6.7,359.7v0.6h-0.6v-0.6h0.3c0-0.2-0.1-0.4-0.3-0.4V359C-7,359-6.7,359.3-6.7,359.7
				"/>
		</g>
		<g id="g274952_3_" transform="matrix(2.6928446,0,0,-2.6928446,37.905429,1015.3312)">
			<path id="path274954_3_" fill="#221E1F" d="M-9.4,360.8c0.1,0.1,0.2,0.3,0.6,0.3c0.3,0,0.5-0.1,0.6-0.2c0.1,0.1,0.3,0.2,0.6,0.2
				c0.3,0,0.5-0.2,0.6-0.3c0-0.1,0-0.3,0-0.5v-1.4h-0.6v1.1c0,0.1,0,0.3,0,0.4c0,0.2-0.2,0.2-0.3,0.2c-0.1,0-0.1,0-0.2-0.1
				c-0.1-0.1-0.1-0.2-0.1-0.5v-1.2h-0.6v1.3c0,0.1,0,0.2,0,0.3c0,0.1-0.1,0.1-0.2,0.1c0,0-0.1,0-0.2,0c-0.1-0.1-0.1-0.3-0.1-0.4
				v-1.2H-10v2.1h0.6"/>
		</g>
		<path id="path274956_3_" fill="#221E1F" d="M21.4,48.9H23v-7.8h-1.7V48.9z"/>
		<g id="g274958_3_" transform="matrix(2.6928446,0,0,-2.6928446,92.76136,1019.9731)">
			<path id="path274960_3_" fill="#221E1F" d="M-24.9,362.1c-0.1-0.1-0.1-0.3-0.1-0.4c0-0.3,0.2-0.7,0.5-0.7s0.5,0.3,0.5,0.6
				c0,0.2,0,0.4-0.2,0.5c-0.1,0.1-0.3,0.1-0.4,0.1C-24.7,362.3-24.8,362.3-24.9,362.1z M-23.4,361.7c0-0.5-0.3-1.1-1.1-1.1
				c-0.6,0-1.1,0.3-1.1,1.1c0,0.7,0.4,1.2,1.2,1.1C-23.6,362.8-23.4,362.1-23.4,361.7"/>
		</g>
		<g id="g274962_3_" transform="matrix(2.6928446,0,0,-2.6928446,121.14387,1030.2609)">
			<path id="path274964_3_" fill="#221E1F" d="M-32.9,365l0.4,1.6h0.6l-0.7-2.1h-0.7l-0.7,2.1h0.7"/>
		</g>
		<g id="g274966_3_" transform="matrix(2.6928446,0,0,-2.6928446,151.69148,1015.0402)">
			<path id="path274968_3_" fill="#221E1F" d="M-41.5,360.7c0.1,0.1,0.1,0.1,0.2,0.2c0.1,0,0.2,0.1,0.4,0.1c0.1,0,0.3,0,0.4-0.1
				c0.2-0.1,0.3-0.3,0.3-0.7v-1.5h-0.6v1.2c0,0.2,0,0.3,0,0.3c0,0.1-0.2,0.2-0.3,0.2c-0.3,0-0.3-0.3-0.3-0.5v-1.2h-0.6v2.1h0.6"/>
		</g>
		<path id="path274970_3_" fill="#221E1F" d="M35.9,43.1h1.6v5.8h-1.6V43.1z M35.9,41.1h1.6v1.3h-1.6V41.1z"/>
		<path id="path274972_3_" fill="#221E1F" d="M48,43.1h1.6v5.8H48V43.1z M48,41.1h1.6v1.3H48V41.1z"/>
		<g id="g274974_3_" transform="matrix(2.6928446,0,0,-2.6928446,198.38267,1007.3064)">
			<path id="path274976_3_" fill="#221E1F" d="M-54.7,358.6h0.6v-0.5h0.4v-0.5H-54v-0.9c0-0.1,0-0.2,0.2-0.2h0.2v-0.5
				c-0.1,0-0.2,0-0.3,0c-0.2,0-0.4,0-0.6,0.2c-0.1,0.1-0.1,0.3-0.1,0.5v1H-55v0.5h0.3"/>
		</g>
	</g>
</g>
<g id="Logo_R">
	<g id="g274934_7_" transform="matrix(2.6928446,0,0,-2.6928446,146.53206,853.44041)">
		<path id="path274936_7_" fill="#221E1F" d="M1899,265.2c14.8,0,26.7-62.4,26.7-139.2h21.5c0,83-21.5,150-48.1,150
			c-15.1,0-28.7-20.3-37.4-51.6c-8.7,31.6-22.3,51.6-37.4,51.6c-26.7,0-48.1-67-48.1-150h21.5c0,76.9,11.9,139.2,26.7,139.2
			c14.8,0,26.7-57.4,26.7-128.5h21.5C1872,207.7,1884.2,265.2,1899,265.2"/>
	</g>
	<g id="g274938_7_" transform="matrix(2.6928446,0,0,-2.6928446,139.01638,848.34051)">
		<path id="path274940_7_" fill="#FBBE16" d="M1893.7,268.8c14.8,0,26.7-62.4,26.7-139.5h21.5c0,83.2-21.5,150.2-48.1,150.2
			c-15.1,0-28.7-20.3-37.4-51.9c-8.7,31.6-22.3,51.9-37.4,51.9c-26.7,0-48.1-67.3-48.1-150.2h21.5c0,76.9,11.9,139.5,26.7,139.5
			c14.8,0,26.7-57.7,26.7-128.8h21.5C1866.7,211.3,1878.9,268.8,1893.7,268.8"/>
	</g>
	<g id="g274942_7_" transform="matrix(2.6928446,0,0,-2.6928446,200.20044,972.41309)">
		<path id="path274944_7_" fill="#221E1F" d="M1936.9,181.2h0.9c0.9,0,1.7,0,1.7,1.2c0,0.9-0.6,0.9-1.5,0.9h-1.2V181.2z
			 M1935.7,184.1h2.3c1.5,0,2.3-0.6,2.3-1.7s-0.6-1.7-1.7-1.7l1.7-2.9h-1.2l-1.7,2.6h-0.9v-2.6h-0.9
			C1935.7,177.7,1935.7,184.1,1935.7,184.1z M1938,176.3c2.6,0,4.4,2,4.4,4.6c0,2.6-2,4.6-4.4,4.6c-2.6,0-4.4-2-4.4-4.6
			C1933.4,178.3,1935.4,176.3,1938,176.3z M1938,186.4c2.9,0,5.2-2.3,5.2-5.2c0-3.2-2.3-5.5-5.2-5.5s-5.5,2.3-5.5,5.5
			C1932.5,184.1,1935.1,186.4,1938,186.4"/>
	</g>
	<path id="path274946_7_" fill="#221E1F" d="M4868,601.2h19.7v69.6H4868V601.2z M4868,576.9h19.7v16H4868V576.9z"/>
	<g id="g274948_7_" transform="matrix(2.6928446,0,0,-2.6928446,28.192348,1011.2873)">
		<path id="path274950_7_" fill="#221E1F" d="M1815.5,153.8v7.5h-7.5v-7.5h3.2c0-2.6-1.5-4.9-3.2-4.9v-3.5
			C1812,145.7,1815.5,149.1,1815.5,153.8"/>
	</g>
	<g id="g274952_7_" transform="matrix(2.6928446,0,0,-2.6928446,37.905429,1015.3312)">
		<path id="path274954_7_" fill="#221E1F" d="M1822.3,150.9c0.9,1.2,2.9,3.5,7.3,3.5c4.1,0,5.5-1.5,7-2.9c1.5,1.2,3.5,2.9,7.5,2.9
			s6.4-2,7-3.8c0.6-1.5,0.6-3.2,0.6-5.8V128h-7.3v13.6c0,1.5,0,3.5-0.3,4.4c-0.6,2-2.6,2.3-3.2,2.3c-0.9,0-1.7-0.3-2.3-0.9
			c-1.5-1.2-1.5-2.6-1.5-5.5V128h-7.3v15.4c0,1.2,0,2.6-0.6,3.8c-0.6,0.9-1.7,1.5-2.9,1.5c-0.6,0-1.5-0.3-2-0.6
			c-1.7-1.2-1.7-3.2-1.7-4.9v-14.8h-7.3v25.8h7.3"/>
	</g>
	<path id="path274956_7_" fill="#221E1F" d="M5052.2,670.9h20v-94h-20V670.9z"/>
	<g id="g274958_7_" transform="matrix(2.6928446,0,0,-2.6928446,92.76136,1019.9731)">
		<path id="path274960_7_" fill="#221E1F" d="M1861,147.6c-0.9-1.5-1.2-3.2-1.2-4.9c0-4.1,2-7.8,6.1-7.8s6.1,3.2,6.1,7.3
			c0,2.9-0.6,5.2-2,6.4c-1.5,1.5-3.2,1.5-4.4,1.5C1863.4,150.3,1861.9,149.4,1861,147.6z M1879.3,142.7c0-6.4-3.8-13.6-13.6-13.6
			c-7,0-13.6,4.1-13.6,13.6c0,7.8,4.9,14.2,14.5,13.6C1877,155.8,1879.3,147.4,1879.3,142.7"/>
	</g>
	<g id="g274962_7_" transform="matrix(2.6928446,0,0,-2.6928446,121.14387,1030.2609)">
		<path id="path274964_7_" fill="#221E1F" d="M1881.1,140.4l4.4,18.9h7.5l-8.1-25.8h-7.8l-8.1,25.8h7.8"/>
	</g>
	<g id="g274966_7_" transform="matrix(2.6928446,0,0,-2.6928446,151.69148,1015.0402)">
		<path id="path274968_7_" fill="#221E1F" d="M1902.6,151.1c0.9,0.9,1.2,1.5,2.6,2c1.2,0.6,2.9,0.9,4.6,0.9c1.5,0,3.2-0.3,4.4-1.2
			c2.6-1.5,3.5-3.8,3.5-7.8v-17.7h-7.3v14.5c0,2.3,0,3.2-0.3,3.8c-0.6,1.5-2,2-3.5,2c-3.8,0-3.8-3.2-3.8-6.4v-13.9h-7.5v25.8h7.5"/>
	</g>
	<path id="path274970_7_" fill="#221E1F" d="M5226.8,601.2h19.7v69.6h-19.7V601.2z M5226.8,576.9h19.7v16h-19.7V576.9z"/>
	<path id="path274972_7_" fill="#221E1F" d="M5372.4,601.2h19.7v69.6h-19.7V601.2z M5372.4,576.9h19.7v16h-19.7V576.9z"/>
	<g id="g274974_7_" transform="matrix(2.6928446,0,0,-2.6928446,198.38267,1007.3064)">
		<path id="path274976_7_" fill="#221E1F" d="M1935.6,156.6h7.3v-5.8h4.9V145h-4.9v-11c0-1.5,0-2.9,2-2.9h2.6v-5.8
			c-1.5-0.3-2.6-0.3-3.8-0.3c-2.6,0-5.2,0-7,2.6c-0.9,1.5-1.2,3.5-1.2,5.8v11.9h-3.8v5.8h3.8"/>
	</g>
	<g>
		<g>
			<defs>
				<polygon id="SVGID_19_" points="2171.1,3670.5 2179,3670.5 2171.1,3662.7 				"/>
			</defs>
			<clipPath id="SVGID_20_">
				<use xlink:href="#SVGID_19_"  overflow="visible"/>
			</clipPath>
		</g>
		<g>
			<defs>
				<polygon id="SVGID_21_" points="-5065.9,-3517.1 -5044.8,-3517.1 -5065.9,-3496 				"/>
			</defs>
			<defs>
				<polygon id="SVGID_22_" points="-5108,-3559.3 -5129.1,-3559.3 -5108,-3580.4 				"/>
			</defs>
			<clipPath id="SVGID_23_">
				<use xlink:href="#SVGID_21_"  overflow="visible"/>
			</clipPath>
			<clipPath id="SVGID_24_" clip-path="url(#SVGID_23_)">
				<use xlink:href="#SVGID_22_"  overflow="visible"/>
			</clipPath>
			<g id="g274978_5_" transform="matrix(2.6928446,0,0,-2.6928446,-921.10451,2073.7116)" clip-path="url(#SVGID_24_)">
				<g id="g274980_5_" transform="translate(407.248,394.52299)">
					<path id="path274982_5_" fill="#221E1F" d="M1919.5,153.7v7.5h-7.5v-7.5h3.2c0-2.6-1.5-4.9-3.2-4.9v-3.5
						C1916,145.6,1919.5,149.1,1919.5,153.7"/>
				</g>
				<g id="g274984_5_" transform="translate(422.403,395.37)">
					<path id="path274986_5_" fill="#221E1F" d="M1948.3,155.4h0.9c0.9,0,1.7,0,1.7,1.2c0,0.9-0.6,0.9-1.5,0.9h-1.2V155.4z
						 M1947.1,158.3h2.3c1.5,0,2.3-0.6,2.3-1.7s-0.6-1.7-1.7-1.7l1.7-2.9h-1.2l-1.7,2.6h-1.2v-2.6h-0.9v6.4H1947.1z M1949.4,150.4
						c2.3,0,4.4,2,4.4,4.6c0,2.6-2,4.6-4.4,4.6c-2.6,0-4.4-2-4.4-4.6C1944.8,152.5,1946.8,150.4,1949.4,150.4z M1949.4,160.6
						c2.9,0,5.2-2.3,5.2-5.2c0-3.2-2.3-5.5-5.2-5.5s-5.5,2.3-5.5,5.5C1943.9,158.3,1946.5,160.6,1949.4,160.6"/>
				</g>
			</g>
		</g>
	</g>
	<g id="g274934_6_" transform="matrix(2.6928446,0,0,-2.6928446,146.53206,853.44041)">
		<path id="path274936_6_" fill="#221E1F" d="M1899,265.2c14.8,0,26.7-62.4,26.7-139.2h21.5c0,83-21.5,150-48.1,150
			c-15.1,0-28.7-20.3-37.4-51.6c-8.7,31.6-22.3,51.6-37.4,51.6c-26.7,0-48.1-67-48.1-150h21.5c0,76.9,11.9,139.2,26.7,139.2
			c14.8,0,26.7-57.4,26.7-128.5h21.5C1872,207.7,1884.2,265.2,1899,265.2"/>
	</g>
	<g id="g274938_6_" transform="matrix(2.6928446,0,0,-2.6928446,139.01638,848.34051)">
		<path id="path274940_6_" fill="#FBBE16" d="M1893.7,268.8c14.8,0,26.7-62.4,26.7-139.5h21.5c0,83.2-21.5,150.2-48.1,150.2
			c-15.1,0-28.7-20.3-37.4-51.9c-8.7,31.6-22.3,51.9-37.4,51.9c-26.7,0-48.1-67.3-48.1-150.2h21.5c0,76.9,11.9,139.5,26.7,139.5
			c14.8,0,26.7-57.7,26.7-128.8h21.5C1866.7,211.3,1878.9,268.8,1893.7,268.8"/>
	</g>
	<g id="g274942_6_" transform="matrix(2.6928446,0,0,-2.6928446,200.20044,972.41309)">
		<path id="path274944_6_" fill="#221E1F" d="M1936.9,181.2h0.9c0.9,0,1.7,0,1.7,1.2c0,0.9-0.6,0.9-1.5,0.9h-1.2V181.2z
			 M1935.7,184.1h2.3c1.5,0,2.3-0.6,2.3-1.7s-0.6-1.7-1.7-1.7l1.7-2.9h-1.2l-1.7,2.6h-0.9v-2.6h-0.9
			C1935.7,177.7,1935.7,184.1,1935.7,184.1z M1938,176.3c2.6,0,4.4,2,4.4,4.6c0,2.6-2,4.6-4.4,4.6c-2.6,0-4.4-2-4.4-4.6
			C1933.4,178.3,1935.4,176.3,1938,176.3z M1938,186.4c2.9,0,5.2-2.3,5.2-5.2c0-3.2-2.3-5.5-5.2-5.5s-5.5,2.3-5.5,5.5
			C1932.5,184.1,1935.1,186.4,1938,186.4"/>
	</g>
	<path id="path274946_6_" fill="#221E1F" d="M4868,601.2h19.7v69.6H4868V601.2z M4868,576.9h19.7v16H4868V576.9z"/>
	<g id="g274948_6_" transform="matrix(2.6928446,0,0,-2.6928446,28.192348,1011.2873)">
		<path id="path274950_6_" fill="#221E1F" d="M1815.5,153.8v7.5h-7.5v-7.5h3.2c0-2.6-1.5-4.9-3.2-4.9v-3.5
			C1812,145.7,1815.5,149.1,1815.5,153.8"/>
	</g>
	<g id="g274952_6_" transform="matrix(2.6928446,0,0,-2.6928446,37.905429,1015.3312)">
		<path id="path274954_6_" fill="#221E1F" d="M1822.3,150.9c0.9,1.2,2.9,3.5,7.3,3.5c4.1,0,5.5-1.5,7-2.9c1.5,1.2,3.5,2.9,7.5,2.9
			s6.4-2,7-3.8c0.6-1.5,0.6-3.2,0.6-5.8V128h-7.3v13.6c0,1.5,0,3.5-0.3,4.4c-0.6,2-2.6,2.3-3.2,2.3c-0.9,0-1.7-0.3-2.3-0.9
			c-1.5-1.2-1.5-2.6-1.5-5.5V128h-7.3v15.4c0,1.2,0,2.6-0.6,3.8c-0.6,0.9-1.7,1.5-2.9,1.5c-0.6,0-1.5-0.3-2-0.6
			c-1.7-1.2-1.7-3.2-1.7-4.9v-14.8h-7.3v25.8h7.3"/>
	</g>
	<path id="path274956_6_" fill="#221E1F" d="M5052.2,670.9h20v-94h-20V670.9z"/>
	<g id="g274958_6_" transform="matrix(2.6928446,0,0,-2.6928446,92.76136,1019.9731)">
		<path id="path274960_6_" fill="#221E1F" d="M1861,147.6c-0.9-1.5-1.2-3.2-1.2-4.9c0-4.1,2-7.8,6.1-7.8s6.1,3.2,6.1,7.3
			c0,2.9-0.6,5.2-2,6.4c-1.5,1.5-3.2,1.5-4.4,1.5C1863.4,150.3,1861.9,149.4,1861,147.6z M1879.3,142.7c0-6.4-3.8-13.6-13.6-13.6
			c-7,0-13.6,4.1-13.6,13.6c0,7.8,4.9,14.2,14.5,13.6C1877,155.8,1879.3,147.4,1879.3,142.7"/>
	</g>
	<g id="g274962_6_" transform="matrix(2.6928446,0,0,-2.6928446,121.14387,1030.2609)">
		<path id="path274964_6_" fill="#221E1F" d="M1881.1,140.4l4.4,18.9h7.5l-8.1-25.8h-7.8l-8.1,25.8h7.8"/>
	</g>
	<g id="g274966_6_" transform="matrix(2.6928446,0,0,-2.6928446,151.69148,1015.0402)">
		<path id="path274968_6_" fill="#221E1F" d="M1902.6,151.1c0.9,0.9,1.2,1.5,2.6,2c1.2,0.6,2.9,0.9,4.6,0.9c1.5,0,3.2-0.3,4.4-1.2
			c2.6-1.5,3.5-3.8,3.5-7.8v-17.7h-7.3v14.5c0,2.3,0,3.2-0.3,3.8c-0.6,1.5-2,2-3.5,2c-3.8,0-3.8-3.2-3.8-6.4v-13.9h-7.5v25.8h7.5"/>
	</g>
	<path id="path274970_6_" fill="#221E1F" d="M5226.8,601.2h19.7v69.6h-19.7V601.2z M5226.8,576.9h19.7v16h-19.7V576.9z"/>
	<path id="path274972_6_" fill="#221E1F" d="M5372.4,601.2h19.7v69.6h-19.7V601.2z M5372.4,576.9h19.7v16h-19.7V576.9z"/>
	<g id="g274974_6_" transform="matrix(2.6928446,0,0,-2.6928446,198.38267,1007.3064)">
		<path id="path274976_6_" fill="#221E1F" d="M1935.6,156.6h7.3v-5.8h4.9V145h-4.9v-11c0-1.5,0-2.9,2-2.9h2.6v-5.8
			c-1.5-0.3-2.6-0.3-3.8-0.3c-2.6,0-5.2,0-7,2.6c-0.9,1.5-1.2,3.5-1.2,5.8v11.9h-3.8v5.8h3.8"/>
	</g>
	<g>
		<g>
			<defs>
				<polygon id="SVGID_25_" points="2171.1,3670.5 2179,3670.5 2171.1,3662.7 				"/>
			</defs>
			<clipPath id="SVGID_26_">
				<use xlink:href="#SVGID_25_"  overflow="visible"/>
			</clipPath>
		</g>
		<g>
			<defs>
				<polygon id="SVGID_27_" points="-5065.9,-3517.1 -5044.8,-3517.1 -5065.9,-3496 				"/>
			</defs>
			<defs>
				<polygon id="SVGID_28_" points="-5108,-3559.3 -5129.1,-3559.3 -5108,-3580.4 				"/>
			</defs>
			<clipPath id="SVGID_29_">
				<use xlink:href="#SVGID_27_"  overflow="visible"/>
			</clipPath>
			<clipPath id="SVGID_30_" clip-path="url(#SVGID_29_)">
				<use xlink:href="#SVGID_28_"  overflow="visible"/>
			</clipPath>
			<g id="g274978_4_" transform="matrix(2.6928446,0,0,-2.6928446,-921.10451,2073.7116)" clip-path="url(#SVGID_30_)">
				<g id="g274980_4_" transform="translate(407.248,394.52299)">
					<path id="path274982_4_" fill="#221E1F" d="M1919.5,153.7v7.5h-7.5v-7.5h3.2c0-2.6-1.5-4.9-3.2-4.9v-3.5
						C1916,145.6,1919.5,149.1,1919.5,153.7"/>
				</g>
				<g id="g274984_4_" transform="translate(422.403,395.37)">
					<path id="path274986_4_" fill="#221E1F" d="M1948.3,155.4h0.9c0.9,0,1.7,0,1.7,1.2c0,0.9-0.6,0.9-1.5,0.9h-1.2V155.4z
						 M1947.1,158.3h2.3c1.5,0,2.3-0.6,2.3-1.7s-0.6-1.7-1.7-1.7l1.7-2.9h-1.2l-1.7,2.6h-1.2v-2.6h-0.9v6.4H1947.1z M1949.4,150.4
						c2.3,0,4.4,2,4.4,4.6c0,2.6-2,4.6-4.4,4.6c-2.6,0-4.4-2-4.4-4.6C1944.8,152.5,1946.8,150.4,1949.4,150.4z M1949.4,160.6
						c2.9,0,5.2-2.3,5.2-5.2c0-3.2-2.3-5.5-5.2-5.5s-5.5,2.3-5.5,5.5C1943.9,158.3,1946.5,160.6,1949.4,160.6"/>
				</g>
			</g>
		</g>
	</g>
	<g>
		<g id="g274934_5_" transform="matrix(2.6928446,0,0,-2.6928446,146.53206,853.44041)">
			<path id="path274936_5_" fill="#221E1F" d="M1899,265.2c14.8,0,26.7-62.4,26.7-139.2h21.5c0,83-21.5,150-48.1,150
				c-15.1,0-28.7-20.3-37.4-51.6c-8.7,31.6-22.3,51.6-37.4,51.6c-26.7,0-48.1-67-48.1-150h21.5c0,76.9,11.9,139.2,26.7,139.2
				c14.8,0,26.7-57.4,26.7-128.5h21.5C1872,207.7,1884.2,265.2,1899,265.2"/>
		</g>
		<g id="g274938_5_" transform="matrix(2.6928446,0,0,-2.6928446,139.01638,848.34051)">
			<path id="path274940_5_" fill="#FBBE16" d="M1893.7,268.8c14.8,0,26.7-62.4,26.7-139.5h21.5c0,83.2-21.5,150.2-48.1,150.2
				c-15.1,0-28.7-20.3-37.4-51.9c-8.7,31.6-22.3,51.9-37.4,51.9c-26.7,0-48.1-67.3-48.1-150.2h21.5c0,76.9,11.9,139.5,26.7,139.5
				c14.8,0,26.7-57.7,26.7-128.8h21.5C1866.7,211.3,1878.9,268.8,1893.7,268.8"/>
		</g>
		<g id="g274942_5_" transform="matrix(2.6928446,0,0,-2.6928446,200.20044,972.41309)">
			<path id="path274944_5_" fill="#221E1F" d="M1936.9,181.2h0.9c0.9,0,1.7,0,1.7,1.2c0,0.9-0.6,0.9-1.5,0.9h-1.2V181.2z
				 M1935.7,184.1h2.3c1.5,0,2.3-0.6,2.3-1.7s-0.6-1.7-1.7-1.7l1.7-2.9h-1.2l-1.7,2.6h-0.9v-2.6h-0.9
				C1935.7,177.7,1935.7,184.1,1935.7,184.1z M1938,176.3c2.6,0,4.4,2,4.4,4.6c0,2.6-2,4.6-4.4,4.6c-2.6,0-4.4-2-4.4-4.6
				C1933.4,178.3,1935.4,176.3,1938,176.3z M1938,186.4c2.9,0,5.2-2.3,5.2-5.2c0-3.2-2.3-5.5-5.2-5.5s-5.5,2.3-5.5,5.5
				C1932.5,184.1,1935.1,186.4,1938,186.4"/>
		</g>
		<path id="path274946_5_" fill="#221E1F" d="M4868,601.2h19.7v69.6H4868V601.2z M4868,576.9h19.7v16H4868V576.9z"/>
		<g id="g274948_5_" transform="matrix(2.6928446,0,0,-2.6928446,28.192348,1011.2873)">
			<path id="path274950_5_" fill="#221E1F" d="M1815.5,153.8v7.5h-7.5v-7.5h3.2c0-2.6-1.5-4.9-3.2-4.9v-3.5
				C1812,145.7,1815.5,149.1,1815.5,153.8"/>
		</g>
		<g id="g274952_5_" transform="matrix(2.6928446,0,0,-2.6928446,37.905429,1015.3312)">
			<path id="path274954_5_" fill="#221E1F" d="M1822.3,150.9c0.9,1.2,2.9,3.5,7.3,3.5c4.1,0,5.5-1.5,7-2.9c1.5,1.2,3.5,2.9,7.5,2.9
				s6.4-2,7-3.8c0.6-1.5,0.6-3.2,0.6-5.8V128h-7.3v13.6c0,1.5,0,3.5-0.3,4.4c-0.6,2-2.6,2.3-3.2,2.3c-0.9,0-1.7-0.3-2.3-0.9
				c-1.5-1.2-1.5-2.6-1.5-5.5V128h-7.3v15.4c0,1.2,0,2.6-0.6,3.8c-0.6,0.9-1.7,1.5-2.9,1.5c-0.6,0-1.5-0.3-2-0.6
				c-1.7-1.2-1.7-3.2-1.7-4.9v-14.8h-7.3v25.8h7.3"/>
		</g>
		<path id="path274956_5_" fill="#221E1F" d="M5052.2,670.9h20v-94h-20V670.9z"/>
		<g id="g274958_5_" transform="matrix(2.6928446,0,0,-2.6928446,92.76136,1019.9731)">
			<path id="path274960_5_" fill="#221E1F" d="M1861,147.6c-0.9-1.5-1.2-3.2-1.2-4.9c0-4.1,2-7.8,6.1-7.8s6.1,3.2,6.1,7.3
				c0,2.9-0.6,5.2-2,6.4c-1.5,1.5-3.2,1.5-4.4,1.5C1863.4,150.3,1861.9,149.4,1861,147.6z M1879.3,142.7c0-6.4-3.8-13.6-13.6-13.6
				c-7,0-13.6,4.1-13.6,13.6c0,7.8,4.9,14.2,14.5,13.6C1877,155.8,1879.3,147.4,1879.3,142.7"/>
		</g>
		<g id="g274962_5_" transform="matrix(2.6928446,0,0,-2.6928446,121.14387,1030.2609)">
			<path id="path274964_5_" fill="#221E1F" d="M1881.1,140.4l4.4,18.9h7.5l-8.1-25.8h-7.8l-8.1,25.8h7.8"/>
		</g>
		<g id="g274966_5_" transform="matrix(2.6928446,0,0,-2.6928446,151.69148,1015.0402)">
			<path id="path274968_5_" fill="#221E1F" d="M1902.6,151.1c0.9,0.9,1.2,1.5,2.6,2c1.2,0.6,2.9,0.9,4.6,0.9c1.5,0,3.2-0.3,4.4-1.2
				c2.6-1.5,3.5-3.8,3.5-7.8v-17.7h-7.3v14.5c0,2.3,0,3.2-0.3,3.8c-0.6,1.5-2,2-3.5,2c-3.8,0-3.8-3.2-3.8-6.4v-13.9h-7.5v25.8h7.5"
				/>
		</g>
		<path id="path274970_5_" fill="#221E1F" d="M5226.8,601.2h19.7v69.6h-19.7V601.2z M5226.8,576.9h19.7v16h-19.7V576.9z"/>
		<path id="path274972_5_" fill="#221E1F" d="M5372.4,601.2h19.7v69.6h-19.7V601.2z M5372.4,576.9h19.7v16h-19.7V576.9z"/>
		<g id="g274974_5_" transform="matrix(2.6928446,0,0,-2.6928446,198.38267,1007.3064)">
			<path id="path274976_5_" fill="#221E1F" d="M1935.6,156.6h7.3v-5.8h4.9V145h-4.9v-11c0-1.5,0-2.9,2-2.9h2.6v-5.8
				c-1.5-0.3-2.6-0.3-3.8-0.3c-2.6,0-5.2,0-7,2.6c-0.9,1.5-1.2,3.5-1.2,5.8v11.9h-3.8v5.8h3.8"/>
		</g>
		<g>
			<g>
				<defs>
					<polygon id="SVGID_31_" points="2171.1,3670.5 2179,3670.5 2171.1,3662.7 					"/>
				</defs>
				<clipPath id="SVGID_32_">
					<use xlink:href="#SVGID_31_"  overflow="visible"/>
				</clipPath>
			</g>
			<g>
				<defs>
					<polygon id="SVGID_33_" points="-5065.9,-3517.1 -5044.8,-3517.1 -5065.9,-3496 					"/>
				</defs>
				<defs>
					<polygon id="SVGID_34_" points="-5108,-3559.3 -5129.1,-3559.3 -5108,-3580.4 					"/>
				</defs>
				<clipPath id="SVGID_35_">
					<use xlink:href="#SVGID_33_"  overflow="visible"/>
				</clipPath>
				<clipPath id="SVGID_36_" clip-path="url(#SVGID_35_)">
					<use xlink:href="#SVGID_34_"  overflow="visible"/>
				</clipPath>
				<g id="g274978_3_" transform="matrix(2.6928446,0,0,-2.6928446,-921.10451,2073.7116)" clip-path="url(#SVGID_36_)">
					<g id="g274980_3_" transform="translate(407.248,394.52299)">
						<path id="path274982_3_" fill="#221E1F" d="M1919.5,153.7v7.5h-7.5v-7.5h3.2c0-2.6-1.5-4.9-3.2-4.9v-3.5
							C1916,145.6,1919.5,149.1,1919.5,153.7"/>
					</g>
					<g id="g274984_3_" transform="translate(422.403,395.37)">
						<path id="path274986_3_" fill="#221E1F" d="M1948.3,155.4h0.9c0.9,0,1.7,0,1.7,1.2c0,0.9-0.6,0.9-1.5,0.9h-1.2V155.4z
							 M1947.1,158.3h2.3c1.5,0,2.3-0.6,2.3-1.7s-0.6-1.7-1.7-1.7l1.7-2.9h-1.2l-1.7,2.6h-1.2v-2.6h-0.9v6.4H1947.1z M1949.4,150.4
							c2.3,0,4.4,2,4.4,4.6c0,2.6-2,4.6-4.4,4.6c-2.6,0-4.4-2-4.4-4.6C1944.8,152.5,1946.8,150.4,1949.4,150.4z M1949.4,160.6
							c2.9,0,5.2-2.3,5.2-5.2c0-3.2-2.3-5.5-5.2-5.5s-5.5,2.3-5.5,5.5C1943.9,158.3,1946.5,160.6,1949.4,160.6"/>
					</g>
				</g>
			</g>
		</g>
	</g>
	<g>
		<g id="g274942_4_" transform="matrix(2.6928446,0,0,-2.6928446,200.20044,972.41309)">
			<path id="path274944_4_" fill="#221E1F" d="M41.4,348.7L41.4,348.7c0.1,0,0.2,0,0.2,0.1c0,0.1,0,0.1-0.1,0.1h-0.1V348.7z
				 M41.3,349h0.2c0.1,0,0.2,0,0.2-0.1c0-0.1,0-0.1-0.1-0.1l0.1-0.2h-0.1l-0.1,0.2h-0.1v-0.2h-0.1C41.3,348.4,41.3,349,41.3,349z
				 M41.5,348.3c0.2,0,0.4,0.2,0.4,0.4c0,0.2-0.2,0.4-0.4,0.4c-0.2,0-0.4-0.2-0.4-0.4C41.1,348.5,41.3,348.3,41.5,348.3z
				 M41.5,349.2c0.2,0,0.4-0.2,0.4-0.4c0-0.3-0.2-0.5-0.4-0.5c-0.2,0-0.5,0.2-0.5,0.5C41,349,41.2,349.2,41.5,349.2"/>
		</g>
		<g id="g274934_4_" transform="matrix(2.6928446,0,0,-2.6928446,146.53206,853.44041)">
			<path id="path274936_4_" fill="#221E1F" d="M56.5,315.2c1.2,0,2.2-5.2,2.2-11.6h1.8c0,6.9-1.8,12.5-4,12.5
				c-1.3,0-2.4-1.7-3.1-4.3c-0.7,2.6-1.9,4.3-3.1,4.3c-2.2,0-4-5.6-4-12.5h1.8c0,6.4,1,11.6,2.2,11.6s2.2-4.8,2.2-10.7h1.8
				C54.3,310.4,55.3,315.2,56.5,315.2"/>
		</g>
		<g id="g274938_4_" transform="matrix(2.6928446,0,0,-2.6928446,139.01638,848.34051)">
			<path id="path274940_4_" fill="#FBBE16" d="M58.6,313.8c1.2,0,2.2-5.2,2.2-11.6h1.8c0,6.9-1.8,12.5-4,12.5
				c-1.3,0-2.4-1.7-3.1-4.3c-0.7,2.6-1.9,4.3-3.1,4.3c-2.2,0-4-5.6-4-12.5h1.8c0,6.4,1,11.6,2.2,11.6s2.2-4.8,2.2-10.7h1.8
				C56.4,309,57.4,313.8,58.6,313.8"/>
		</g>
		<path id="path274946_4_" fill="#221E1F" d="M266.1,43.1h1.6v5.8h-1.6V43.1z M266.1,41.1h1.6v1.3h-1.6V41.1z"/>
		<g id="g274948_4_" transform="matrix(2.6928446,0,0,-2.6928446,28.192348,1011.2873)">
			<path id="path274950_4_" fill="#221E1F" d="M89.8,359.7v0.6h-0.6v-0.6h0.3c0-0.2-0.1-0.4-0.3-0.4V359
				C89.6,359,89.8,359.3,89.8,359.7"/>
		</g>
		<g id="g274952_4_" transform="matrix(2.6928446,0,0,-2.6928446,37.905429,1015.3312)">
			<path id="path274954_4_" fill="#221E1F" d="M87.1,360.8c0.1,0.1,0.2,0.3,0.6,0.3c0.3,0,0.5-0.1,0.6-0.2c0.1,0.1,0.3,0.2,0.6,0.2
				c0.3,0,0.5-0.2,0.6-0.3c0-0.1,0-0.3,0-0.5v-1.4h-0.6v1.1c0,0.1,0,0.3,0,0.4c0,0.2-0.2,0.2-0.3,0.2c-0.1,0-0.1,0-0.2-0.1
				c-0.1-0.1-0.1-0.2-0.1-0.5v-1.2h-0.6v1.3c0,0.1,0,0.2,0,0.3c0,0.1-0.1,0.1-0.2,0.1c0,0-0.1,0-0.2,0c-0.1-0.1-0.1-0.3-0.1-0.4
				v-1.2h-0.6v2.1h0.6"/>
		</g>
		<path id="path274956_4_" fill="#221E1F" d="M281.4,48.9h1.7v-7.8h-1.7V48.9z"/>
		<g id="g274958_4_" transform="matrix(2.6928446,0,0,-2.6928446,92.76136,1019.9731)">
			<path id="path274960_4_" fill="#221E1F" d="M71.7,362.1c-0.1-0.1-0.1-0.3-0.1-0.4c0-0.3,0.2-0.7,0.5-0.7s0.5,0.3,0.5,0.6
				c0,0.2,0,0.4-0.2,0.5c-0.1,0.1-0.3,0.1-0.4,0.1C71.8,362.3,71.7,362.3,71.7,362.1z M73.2,361.7c0-0.5-0.3-1.1-1.1-1.1
				c-0.6,0-1.1,0.3-1.1,1.1c0,0.7,0.4,1.2,1.2,1.1C73,362.8,73.2,362.1,73.2,361.7"/>
		</g>
		<g id="g274962_4_" transform="matrix(2.6928446,0,0,-2.6928446,121.14387,1030.2609)">
			<path id="path274964_4_" fill="#221E1F" d="M63.7,365l0.4,1.6h0.6l-0.7-2.1h-0.7l-0.7,2.1h0.7"/>
		</g>
		<g id="g274966_4_" transform="matrix(2.6928446,0,0,-2.6928446,151.69148,1015.0402)">
			<path id="path274968_4_" fill="#221E1F" d="M55.1,360.7c0.1,0.1,0.1,0.1,0.2,0.2c0.1,0,0.2,0.1,0.4,0.1c0.1,0,0.3,0,0.4-0.1
				c0.2-0.1,0.3-0.3,0.3-0.7v-1.5h-0.6v1.2c0,0.2,0,0.3,0,0.3c0,0.1-0.2,0.2-0.3,0.2c-0.3,0-0.3-0.3-0.3-0.5v-1.2h-0.6v2.1h0.6"/>
		</g>
		<path id="path274970_4_" fill="#221E1F" d="M295.9,43.1h1.6v5.8h-1.6V43.1z M295.9,41.1h1.6v1.3h-1.6V41.1z"/>
		<path id="path274972_4_" fill="#221E1F" d="M308,43.1h1.6v5.8H308V43.1z M308,41.1h1.6v1.3H308V41.1z"/>
		<g id="g274974_4_" transform="matrix(2.6928446,0,0,-2.6928446,198.38267,1007.3064)">
			<path id="path274976_4_" fill="#221E1F" d="M41.9,358.6h0.6v-0.5h0.4v-0.5h-0.4v-0.9c0-0.1,0-0.2,0.2-0.2h0.2v-0.5
				c-0.1,0-0.2,0-0.3,0c-0.2,0-0.4,0-0.6,0.2c-0.1,0.1-0.1,0.3-0.1,0.5v1h-0.3v0.5h0.3"/>
		</g>
	</g>
</g>
</svg>
