<?xml version="1.0" encoding="utf-8"?>
<!-- Generator: Adobe Illustrator 18.0.0, SVG Export Plug-In . SVG Version: 6.00 Build 0)  -->
<!DOCTYPE svg PUBLIC "-//W3C//DTD SVG 1.1//EN" "http://www.w3.org/Graphics/SVG/1.1/DTD/svg11.dtd">
<svg version="1.1" xmlns="http://www.w3.org/2000/svg" xmlns:xlink="http://www.w3.org/1999/xlink" x="0px" y="0px"
	 viewBox="0 0 320 50" enable-background="new 0 0 320 50" xml:space="preserve">
<g id="Background" display="none">
	<rect x="0" y="0" display="inline" fill="#FFFFFF" width="320" height="50"/>
</g>
<g id="Money_Pages">
	<rect y="0" fill="#005CB9" width="320" height="50"/>
	<g>
		<g>
			<g>
				<path fill="#FFFFFF" d="M20.2,27.9l1.5-0.1c1-0.1,1.5-0.6,1.7-1.8c0.2-1.2,0.2-2.5,0.2-5V8.6c0-1.8-0.3-1.9-3.6-2.1V5.4h10.4
					l8.3,16.6h0.1l8.3-16.6h10.1v1.2c-3.3,0.1-3.6,0.2-3.6,2.1v17.3c0,1.8,0.3,1.9,3.6,2.1v1.2H44.5v-1.2c3.3-0.1,3.6-0.2,3.6-2.1
					V8.7h-0.1l-9.7,19.9h-2.1L26.2,8.7h-0.1v12.4c0,2.4,0.1,3.7,0.3,5c0.1,1.1,0.6,1.6,1.8,1.7l2.3,0.2v1.2H20.2V27.9z"/>
				<path fill="#FFFFFF" d="M64.4,26.4c-2.4-2.1-3.7-5.2-3.7-9.1c0-3.9,1.3-7,3.7-9.1c2.4-2.1,6-3.3,10.8-3.3C80,4.8,83.6,6,86,8.1
					c2.4,2.1,3.7,5.2,3.7,9.1c0,3.9-1.2,7-3.7,9.1c-2.4,2.1-6,3.3-10.9,3.3C70.4,29.7,66.8,28.5,64.4,26.4z M83.1,17.2
					c-0.1-4.6-1.2-11-7.9-11c-6.7,0-7.8,6.3-7.9,11c0.1,4.8,1.2,11,7.9,11C81.9,28.2,83,22.1,83.1,17.2z"/>
				<path fill="#FFFFFF" d="M102.3,5.4c4.8,5.8,9.7,11.5,14.7,17.3l0.2,0v-9.3c0-2.4-0.1-3.7-0.3-5c-0.1-1.1-0.6-1.6-1.8-1.7
					l-2.3-0.2V5.4H123v1.2l-1.5,0.1c-1,0.1-1.5,0.6-1.7,1.8c-0.2,1.2-0.2,2.5-0.2,5v15.7h-4.1C110,22.6,104.5,16,98.9,9.4h-0.2v11.7
					c0,2.4,0.1,3.7,0.3,5c0.1,1.1,0.6,1.6,1.8,1.7l2.3,0.2v1.2H92.9v-1.2l1.5-0.1c1-0.1,1.5-0.6,1.7-1.8c0.2-1.2,0.2-2.5,0.2-5V8.6
					c0-1.8-0.3-1.9-3.6-2.1V5.4H102.3z"/>
				<path fill="#FFFFFF" d="M125.3,27.9c3.3-0.1,3.6-0.2,3.6-2.1V8.6c0-1.8-0.3-1.9-3.6-2.1V5.4h22.6v6.1h-1.5
					c-1-3.4-1.9-4.6-6.5-4.6h-3.6c-1.3,0-1.5,0.2-1.5,1.2v7.9h4.8c3,0,3.5-0.7,4-3.1h1.5v7.7h-1.5c-0.6-2.4-1-3-4-3h-4.8V25
					c0,1.5,0.3,2.2,1.2,2.5c0.9,0.2,2.2,0.2,4.1,0.2c5.1,0,6.3-1.4,7.7-5.3h1.5l-0.5,6.7h-23.5V27.9z"/>
			</g>
			<g>
				<path fill="#FFFFFF" d="M156.4,27.9c4.1-0.1,4.4-0.3,4.4-2.1v-5c0-0.8-0.3-1.5-0.8-2.2c-0.8-1.2-5.9-8.9-6.8-10.2
					c-1-1.5-1.5-1.8-3.8-1.9V5.4h13.2v1.2l-2.5,0.2c-0.9,0.1-0.9,0.5-0.6,1.1l6,9.7h0.1c2-3.3,4.6-7.3,5.8-9.6
					c0.4-0.8,0.2-1.2-0.6-1.3l-2.3-0.2V5.4h10.4v1.2c-2.6,0.2-3.3,0.4-4.4,2c-1.8,2.4-4.5,6.4-6.6,9.8c-0.5,0.8-0.8,1.4-0.8,2.3v5.3
					c0,1.8,0.3,2,4.5,2.1v1.2h-15V27.9z"/>
			</g>
		</g>
		<g>
			<polygon fill="#FFFFFF" points="60.2,34.7 58.1,37.4 62.3,37.4 60.3,34.7 			"/>
			<path fill="#FFFFFF" d="M173.6,31.3H19c-1.9,0-3.4,1.3-3.4,2.8v5.5c0,1.6,1.5,2.8,3.4,2.8h154.6c1.9,0,3.4-1.3,3.4-2.8v-5.5
				C177,32.6,175.4,31.3,173.6,31.3z M35,37.1c-1.2,0.3-3.1,0.5-5.5,0.5h-1.5v1.9c0,0.5,0.2,0.6,2.5,0.6v0.4h-8.6v-0.4
				c1.8,0,2-0.1,2-0.6v-5.2c0-0.5-0.2-0.6-2-0.6v-0.4h8c2.1,0,3.8,0.1,5,0.4c1.3,0.3,2.2,0.9,2.2,1.7C37,36.1,36.3,36.7,35,37.1z
				 M70.3,40.5h-8.2v-0.4l1.5-0.1c0.5,0,0.6-0.2,0.4-0.4l-1.3-1.7h-5c-0.5,0.6-0.9,1.2-1.2,1.8c-0.1,0.2-0.1,0.4,0.5,0.4l1.5,0.1
				v0.4h-6v-0.4c1.4,0,1.7-0.1,2.1-0.5c0.6-0.6,1.5-1.7,2.4-2.8l3-3.5h3.3l5.1,6.4c0.3,0.4,0.7,0.5,2,0.5V40.5z M105.1,38
				c-1.1,0.1-1.3,0.1-1.3,0.6v2.1c-1.6,0.4-3.9,0.5-5.7,0.5c-1.5,0-3.7-0.1-5.4-0.6c-1.8-0.6-3.2-1.6-3.2-3.4c0-1.6,1.2-4.1,8.7-4.1
				c1.8,0,3.9,0.1,5.4,0.5v2.1h-0.9c-0.7-1-1.8-2-4.4-2c-4.1,0-4.7,2.3-4.7,3.5c0,0.8,0.2,3.7,4.5,3.7c1.6,0,1.9-0.1,1.9-0.5v-1.6
				c0-0.6-0.2-0.6-2-0.7v-0.4h7.1V38z M138,41.2H125v-0.4c1.7,0,1.8-0.1,1.8-0.7v-5.6c0-0.6-0.2-0.6-1.8-0.7v-0.4h12.6v2.1h-0.9
				c-0.7-1.1-1.1-1.6-3.6-1.6h-1.8c-0.7,0-0.8,0.1-0.8,0.4v2.5h2.2c1.5,0,1.8-0.2,2.2-1h0.9v2.6h-0.9c-0.4-0.8-0.7-1-2.2-1h-2.2v2.5
				c0,0.7,0.7,0.8,2.9,0.8c2.8,0,3.2-0.6,4-1.8h0.9L138,41.2z M164,41.3c-1.5,0-3.9-0.2-5.1-0.7l-0.4-2h0.9c0.9,1.4,2.7,2.2,4.4,2.2
				c1.5,0,2.6-0.4,2.7-1.2c0-0.7-1-1.2-3.1-1.7c-2.1-0.4-4.7-1-4.7-2.4c0-1.3,1.9-2.3,5.8-2.3c1.4,0,3.2,0.1,4.4,0.5v1.9h-0.8
				c-0.7-1.3-2.1-1.8-3.6-1.8c-1.4,0-2.4,0.5-2.4,1.2c0,0.9,1.9,1.3,3.5,1.6c2.1,0.4,4.4,1,4.4,2.5C170.1,40.1,168.7,41.3,164,41.3z
				"/>
			<path fill="#FFFFFF" d="M29.4,33.7c-1.3,0-1.5,0.1-1.5,0.4v2.6c0,0.4,0.4,0.5,1.4,0.5c2.6,0,3.3-0.9,3.3-1.7
				C32.6,34.2,31.2,33.7,29.4,33.7z"/>
		</g>
		<path fill-rule="evenodd" clip-rule="evenodd" fill="#FFFFFF" d="M175,28c0.8,0,1.4,0.6,1.4,1.3c0,0.7-0.6,1.3-1.4,1.3
			c-0.8,0-1.4-0.6-1.4-1.3C173.5,28.6,174.2,28,175,28L175,28z M174.9,28.2c-0.6,0-1.1,0.5-1.1,1c0,0.6,0.5,1,1.1,1
			c0.6,0,1.1-0.5,1.1-1C176,28.7,175.6,28.2,174.9,28.2L174.9,28.2z M174.7,30h-0.3v-1.3c0.1,0,0.3,0,0.5,0c0.3,0,0.4,0,0.5,0.1
			c0.1,0.1,0.1,0.2,0.1,0.3c0,0.2-0.1,0.3-0.3,0.3v0c0.1,0,0.2,0.1,0.2,0.3c0,0.2,0.1,0.3,0.1,0.3h-0.3c0,0-0.1-0.2-0.1-0.3
			c0-0.1-0.1-0.2-0.3-0.2h-0.2V30z M174.7,29.2h0.2c0.2,0,0.3-0.1,0.3-0.2c0-0.1-0.1-0.2-0.3-0.2c-0.1,0-0.1,0-0.2,0V29.2z"/>
	</g>
	<g>
		<rect x="197.3" y="4.5" fill="#FFFFFF" width="0.9" height="39.8"/>
	</g>
	<g>
		<g>
			<path fill="#FFFFFF" d="M221.3,6.4l-1.3,1c-0.5-0.6-0.9-0.9-1.4-0.9c-0.2,0-0.4,0.1-0.6,0.2c-0.1,0.1-0.2,0.2-0.2,0.4
				c0,0.1,0.1,0.3,0.2,0.4c0.1,0.2,0.6,0.5,1.3,1.1c0.7,0.5,1.1,0.8,1.2,1c0.4,0.3,0.6,0.6,0.8,0.9c0.1,0.3,0.2,0.6,0.2,1
				c0,0.7-0.3,1.3-0.8,1.7c-0.5,0.4-1.2,0.7-2,0.7c-0.7,0-1.2-0.1-1.7-0.4c-0.5-0.3-0.9-0.8-1.2-1.4l1.5-0.8
				c0.4,0.7,0.9,1.1,1.5,1.1c0.3,0,0.6-0.1,0.8-0.2c0.2-0.2,0.3-0.3,0.3-0.6c0-0.2-0.1-0.4-0.2-0.6c-0.2-0.2-0.5-0.5-1-0.9
				c-1-0.7-1.6-1.3-1.9-1.7s-0.4-0.8-0.4-1.2c0-0.6,0.2-1.1,0.7-1.5c0.5-0.4,1.1-0.6,1.8-0.6c0.5,0,0.9,0.1,1.3,0.3
				C220.4,5.5,220.9,5.9,221.3,6.4z"/>
			<path fill="#FFFFFF" d="M223.2,5.2h1.8v3.2h3.1V5.2h1.8v8.4H228V9.9h-3.1v3.7h-1.8V5.2z"/>
			<path fill="#FFFFFF" d="M236.1,5c1.3,0,2.4,0.4,3.3,1.3c0.9,0.9,1.4,1.9,1.4,3.1c0,1.2-0.5,2.3-1.4,3.1c-0.9,0.8-2,1.3-3.3,1.3
				c-1.4,0-2.5-0.4-3.4-1.3c-0.9-0.9-1.4-1.9-1.4-3.1c0-0.8,0.2-1.5,0.6-2.2c0.4-0.7,1-1.2,1.7-1.6C234.5,5.2,235.3,5,236.1,5z
				 M236.1,6.6c-0.8,0-1.6,0.3-2.1,0.8c-0.6,0.5-0.9,1.2-0.9,2.1c0,0.9,0.4,1.7,1.1,2.2c0.6,0.4,1.2,0.6,1.9,0.6
				c0.8,0,1.5-0.3,2.1-0.8c0.6-0.5,0.9-1.2,0.9-2c0-0.8-0.3-1.5-0.9-2S237,6.6,236.1,6.6z"/>
			<path fill="#FFFFFF" d="M242.5,5.2h1.8c1,0,1.7,0.1,2.2,0.3c0.4,0.2,0.8,0.4,1,0.8c0.3,0.4,0.4,0.8,0.4,1.4
				c0,0.6-0.2,1.1-0.5,1.5c-0.3,0.4-0.8,0.7-1.4,0.8c-0.3,0.1-0.9,0.1-1.8,0.1v3.5h-1.7V5.2z M244.3,8.5h0.6c0.4,0,0.7,0,0.9-0.1
				c0.2-0.1,0.3-0.2,0.4-0.3c0.1-0.1,0.1-0.3,0.1-0.5c0-0.3-0.1-0.6-0.4-0.7c-0.2-0.1-0.6-0.2-1.1-0.2h-0.5V8.5z"/>
			<path fill="#FFFFFF" d="M253.2,5.2h1.7v6.9h2.5v1.5h-4.3V5.2z"/>
			<path fill="#FFFFFF" d="M263.1,5c1.3,0,2.4,0.4,3.3,1.3c0.9,0.9,1.4,1.9,1.4,3.1c0,1.2-0.5,2.3-1.4,3.1c-0.9,0.8-2,1.3-3.3,1.3
				c-1.4,0-2.5-0.4-3.4-1.3c-0.9-0.9-1.4-1.9-1.4-3.1c0-0.8,0.2-1.5,0.6-2.2c0.4-0.7,1-1.2,1.7-1.6C261.5,5.2,262.3,5,263.1,5z
				 M263.1,6.6c-0.8,0-1.6,0.3-2.1,0.8c-0.6,0.5-0.9,1.2-0.9,2.1c0,0.9,0.4,1.7,1.1,2.2c0.6,0.4,1.2,0.6,1.9,0.6
				c0.8,0,1.5-0.3,2.1-0.8c0.6-0.5,0.9-1.2,0.9-2c0-0.8-0.3-1.5-0.9-2S264,6.6,263.1,6.6z"/>
			<path fill="#FFFFFF" d="M277.9,6.7l-1.2,1.1c-0.8-0.8-1.8-1.2-2.8-1.2c-0.9,0-1.6,0.3-2.2,0.8c-0.6,0.5-0.9,1.2-0.9,2
				c0,0.6,0.1,1.1,0.4,1.5c0.3,0.4,0.6,0.8,1.1,1c0.5,0.2,1,0.4,1.6,0.4c0.5,0,1-0.1,1.4-0.3c0.4-0.2,0.9-0.5,1.4-0.9l1.2,1.1
				c-0.7,0.6-1.3,1-1.9,1.3c-0.6,0.2-1.3,0.4-2.1,0.4c-1.4,0-2.6-0.4-3.5-1.2c-0.9-0.8-1.4-1.9-1.4-3.2c0-0.8,0.2-1.6,0.6-2.2
				c0.4-0.6,1-1.2,1.8-1.6c0.8-0.4,1.6-0.6,2.5-0.6c0.8,0,1.5,0.1,2.2,0.4C276.8,5.8,277.4,6.2,277.9,6.7z"/>
			<path fill="#FFFFFF" d="M282.2,5.2h1.8l3.5,8.4h-1.8l-0.7-1.7h-3.7l-0.7,1.7h-1.8L282.2,5.2z M283.1,7.5l-1.2,2.9h2.4L283.1,7.5z
				"/>
			<path fill="#FFFFFF" d="M288.9,5.2h1.7v6.9h2.5v1.5h-4.3V5.2z"/>
		</g>
		<g>
			<path fill="#FFFFFF" d="M221.3,21.7l-1.3,1c-0.5-0.6-0.9-0.9-1.4-0.9c-0.2,0-0.4,0.1-0.6,0.2c-0.1,0.1-0.2,0.2-0.2,0.4
				c0,0.1,0.1,0.3,0.2,0.4c0.1,0.2,0.6,0.5,1.3,1.1c0.7,0.5,1.1,0.8,1.2,1c0.4,0.3,0.6,0.6,0.8,0.9c0.1,0.3,0.2,0.6,0.2,1
				c0,0.7-0.3,1.3-0.8,1.7c-0.5,0.4-1.2,0.7-2,0.7c-0.7,0-1.2-0.1-1.7-0.4c-0.5-0.3-0.9-0.8-1.2-1.4l1.5-0.8
				c0.4,0.7,0.9,1.1,1.5,1.1c0.3,0,0.6-0.1,0.8-0.2c0.2-0.2,0.3-0.3,0.3-0.6c0-0.2-0.1-0.4-0.2-0.6c-0.2-0.2-0.5-0.5-1-0.9
				c-1-0.7-1.6-1.3-1.9-1.7s-0.4-0.8-0.4-1.2c0-0.6,0.2-1.1,0.7-1.5c0.5-0.4,1.1-0.6,1.8-0.6c0.5,0,0.9,0.1,1.3,0.3
				C220.4,20.9,220.9,21.2,221.3,21.7z"/>
			<path fill="#FFFFFF" d="M223.2,20.6h1.8c1,0,1.7,0.1,2.2,0.3c0.4,0.2,0.8,0.4,1,0.8c0.3,0.4,0.4,0.8,0.4,1.4
				c0,0.6-0.2,1.1-0.5,1.5c-0.3,0.4-0.8,0.7-1.4,0.8c-0.3,0.1-0.9,0.1-1.8,0.1V29h-1.7V20.6z M224.9,23.9h0.6c0.4,0,0.7,0,0.9-0.1
				c0.2-0.1,0.3-0.2,0.4-0.3c0.1-0.1,0.1-0.3,0.1-0.5c0-0.3-0.1-0.6-0.4-0.7c-0.2-0.1-0.6-0.2-1.1-0.2h-0.5V23.9z"/>
			<path fill="#FFFFFF" d="M230.3,20.6h5v1.6H232v1.5h3.3v1.5H232v2.2h3.3V29h-5V20.6z"/>
			<path fill="#FFFFFF" d="M236.9,20.6h1.7l3.9,5.5v-5.5h1.7V29h-1.7l-3.9-5.5V29h-1.7V20.6z"/>
			<path fill="#FFFFFF" d="M246.3,20.6h2.1c1.3,0,2.3,0.2,3,0.5c0.6,0.3,1.2,0.8,1.6,1.5c0.4,0.7,0.6,1.5,0.6,2.4
				c0,0.6-0.1,1.2-0.4,1.8c-0.2,0.5-0.6,1-1,1.3c-0.4,0.4-0.9,0.6-1.3,0.7c-0.5,0.1-1.3,0.2-2.5,0.2h-2.1V20.6z M248.1,22.1v5.3h0.8
				c0.8,0,1.4-0.1,1.7-0.3c0.4-0.2,0.7-0.4,0.9-0.8c0.2-0.4,0.3-0.9,0.3-1.5c0-0.9-0.3-1.6-0.8-2.1c-0.5-0.4-1.3-0.7-2.4-0.7H248.1z
				"/>
			<path fill="#FFFFFF" d="M258.8,20.6h1.7v6.9h2.5V29h-4.3V20.6z"/>
			<path fill="#FFFFFF" d="M268.7,20.4c1.3,0,2.4,0.4,3.3,1.3c0.9,0.9,1.4,1.9,1.4,3.1c0,1.2-0.5,2.3-1.4,3.1
				c-0.9,0.8-2,1.3-3.3,1.3c-1.4,0-2.5-0.4-3.4-1.3c-0.9-0.9-1.4-1.9-1.4-3.1c0-0.8,0.2-1.5,0.6-2.2c0.4-0.7,1-1.2,1.7-1.6
				C267.1,20.6,267.9,20.4,268.7,20.4z M268.7,21.9c-0.8,0-1.6,0.3-2.1,0.8c-0.6,0.5-0.9,1.2-0.9,2.1c0,0.9,0.4,1.7,1.1,2.2
				c0.6,0.4,1.2,0.6,1.9,0.6c0.8,0,1.5-0.3,2.1-0.8c0.6-0.5,0.9-1.2,0.9-2c0-0.8-0.3-1.5-0.9-2C270.3,22.2,269.6,21.9,268.7,21.9z"
				/>
			<path fill="#FFFFFF" d="M283.5,22.1l-1.2,1.1c-0.8-0.8-1.8-1.2-2.8-1.2c-0.9,0-1.6,0.3-2.2,0.8c-0.6,0.5-0.9,1.2-0.9,2
				c0,0.6,0.1,1.1,0.4,1.5c0.3,0.4,0.6,0.8,1.1,1c0.5,0.2,1,0.4,1.6,0.4c0.5,0,1-0.1,1.4-0.3c0.4-0.2,0.9-0.5,1.4-0.9l1.2,1.1
				c-0.7,0.6-1.3,1-1.9,1.3c-0.6,0.2-1.3,0.4-2.1,0.4c-1.4,0-2.6-0.4-3.5-1.2c-0.9-0.8-1.4-1.9-1.4-3.2c0-0.8,0.2-1.6,0.6-2.2
				c0.4-0.6,1-1.2,1.8-1.6c0.8-0.4,1.6-0.6,2.5-0.6c0.8,0,1.5,0.1,2.2,0.4C282.4,21.1,283,21.5,283.5,22.1z"/>
			<path fill="#FFFFFF" d="M287.8,20.6h1.8l3.5,8.4h-1.8l-0.7-1.7h-3.7l-0.7,1.7h-1.8L287.8,20.6z M288.7,22.8l-1.2,2.9h2.4
				L288.7,22.8z"/>
			<path fill="#FFFFFF" d="M294.5,20.6h1.7v6.9h2.5V29h-4.3V20.6z"/>
		</g>
		<g>
			<path fill="#FFFFFF" d="M221.3,36.2l-1.3,1c-0.5-0.6-0.9-0.9-1.4-0.9c-0.2,0-0.4,0.1-0.6,0.2c-0.1,0.1-0.2,0.2-0.2,0.4
				c0,0.1,0.1,0.3,0.2,0.4c0.1,0.2,0.6,0.5,1.3,1.1c0.7,0.5,1.1,0.8,1.2,1c0.4,0.3,0.6,0.6,0.8,0.9c0.1,0.3,0.2,0.6,0.2,1
				c0,0.7-0.3,1.3-0.8,1.7c-0.5,0.4-1.2,0.7-2,0.7c-0.7,0-1.2-0.1-1.7-0.4c-0.5-0.3-0.9-0.8-1.2-1.4l1.5-0.8
				c0.4,0.7,0.9,1.1,1.5,1.1c0.3,0,0.6-0.1,0.8-0.2c0.2-0.2,0.3-0.3,0.3-0.6c0-0.2-0.1-0.4-0.2-0.6c-0.2-0.2-0.5-0.5-1-0.9
				c-1-0.7-1.6-1.3-1.9-1.7s-0.4-0.8-0.4-1.2c0-0.6,0.2-1.1,0.7-1.5c0.5-0.4,1.1-0.6,1.8-0.6c0.5,0,0.9,0.1,1.3,0.3
				C220.4,35.4,220.9,35.7,221.3,36.2z"/>
			<path fill="#FFFFFF" d="M226,35.1h1.8l3.5,8.4h-1.8l-0.7-1.7H225l-0.7,1.7h-1.8L226,35.1z M226.9,37.3l-1.2,2.9h2.4L226.9,37.3z"
				/>
			<path fill="#FFFFFF" d="M230.3,35.1h1.8l2.3,5.9l2.3-5.9h1.8l-3.3,8.4h-1.7L230.3,35.1z"/>
			<path fill="#FFFFFF" d="M239.9,35.1h5v1.6h-3.3v1.5h3.3v1.5h-3.3v2.2h3.3v1.6h-5V35.1z"/>
			<path fill="#FFFFFF" d="M250.1,35.1h1.7V42h2.5v1.5h-4.3V35.1z"/>
			<path fill="#FFFFFF" d="M260,34.9c1.3,0,2.4,0.4,3.3,1.3c0.9,0.9,1.4,1.9,1.4,3.1c0,1.2-0.5,2.3-1.4,3.1c-0.9,0.8-2,1.3-3.3,1.3
				c-1.4,0-2.5-0.4-3.4-1.3c-0.9-0.9-1.4-1.9-1.4-3.1c0-0.8,0.2-1.5,0.6-2.2c0.4-0.7,1-1.2,1.7-1.6C258.3,35.1,259.1,34.9,260,34.9z
				 M260,36.4c-0.8,0-1.6,0.3-2.1,0.8c-0.6,0.5-0.9,1.2-0.9,2.1c0,0.9,0.4,1.7,1.1,2.2c0.6,0.4,1.2,0.6,1.9,0.6
				c0.8,0,1.5-0.3,2.1-0.8c0.6-0.5,0.9-1.2,0.9-2c0-0.8-0.3-1.5-0.9-2C261.5,36.7,260.8,36.4,260,36.4z"/>
			<path fill="#FFFFFF" d="M274.8,36.6l-1.2,1.1c-0.8-0.8-1.8-1.2-2.8-1.2c-0.9,0-1.6,0.3-2.2,0.8c-0.6,0.5-0.9,1.2-0.9,2
				c0,0.6,0.1,1.1,0.4,1.5c0.3,0.4,0.6,0.8,1.1,1c0.5,0.2,1,0.4,1.6,0.4c0.5,0,1-0.1,1.4-0.3c0.4-0.2,0.9-0.5,1.4-0.9l1.2,1.1
				c-0.7,0.6-1.3,1-1.9,1.3c-0.6,0.2-1.3,0.4-2.1,0.4c-1.4,0-2.6-0.4-3.5-1.2c-0.9-0.8-1.4-1.9-1.4-3.2c0-0.8,0.2-1.6,0.6-2.2
				c0.4-0.6,1-1.2,1.8-1.6c0.8-0.4,1.6-0.6,2.5-0.6c0.8,0,1.5,0.1,2.2,0.4C273.7,35.6,274.3,36,274.8,36.6z"/>
			<path fill="#FFFFFF" d="M279.1,35.1h1.8l3.5,8.4h-1.8l-0.7-1.7h-3.7l-0.7,1.7h-1.8L279.1,35.1z M280,37.3l-1.2,2.9h2.4L280,37.3z
				"/>
			<path fill="#FFFFFF" d="M285.7,35.1h1.7V42h2.5v1.5h-4.3V35.1z"/>
		</g>
	</g>
</g>
</svg>
