<?xml version="1.0" encoding="utf-8"?>
<!-- Generator: Adobe Illustrator 18.0.0, SVG Export Plug-In . SVG Version: 6.00 Build 0)  -->
<!DOCTYPE svg PUBLIC "-//W3C//DTD SVG 1.1//EN" "http://www.w3.org/Graphics/SVG/1.1/DTD/svg11.dtd">
<svg version="1.1" xmlns="http://www.w3.org/2000/svg" xmlns:xlink="http://www.w3.org/1999/xlink" x="0px" y="0px"
	 viewBox="0 0 320 50" enable-background="new 0 0 320 50" xml:space="preserve">
<g id="Background">
	<rect x="0" y="0" fill="#FFFFFF" width="320" height="50"/>
</g>
<g id="Layer_2">
	<rect x="32.685" y="0" fill="none" stroke="#FFFFFF" width="254.629" height="50"/>
	<g>
		<g>
			<path fill="#006852" d="M76.986,40.413c-0.653-0.173-1.054-0.543-1.054-1.242c0-0.897,1.014-1.431,1.895-1.431
				c0.873,0,1.879,0.401,1.879,1.431c0,0.629-0.487,1.148-1.077,1.235v-0.008v0.016c0.684,0.157,1.156,0.676,1.156,1.384
				c0,1.006-0.999,1.62-1.958,1.62c-0.983,0-1.974-0.511-1.974-1.62c0-0.716,0.527-1.203,1.132-1.368V40.413z M77.882,39.972
				c0.393,0,0.723-0.275,0.723-0.715c0-0.44-0.33-0.732-0.834-0.732c-0.393,0-0.739,0.291-0.739,0.732
				C77.033,39.697,77.379,39.972,77.882,39.972z M77.843,42.63c0.432,0,0.763-0.362,0.763-0.857c0-0.496-0.299-0.857-0.786-0.857
				c-0.425,0-0.786,0.33-0.786,0.857C77.033,42.261,77.323,42.63,77.843,42.63z"/>
			<path fill="#006852" d="M83.268,43.417c-1.494,0-1.895-1.51-1.895-2.831c0-1.321,0.401-2.846,1.895-2.846
				c1.541,0,1.942,1.525,1.942,2.846C85.21,41.907,84.809,43.417,83.268,43.417z M83.292,38.525c-0.763,0-0.7,1.927-0.7,2.06
				c0,0.134-0.063,2.045,0.7,2.045s0.7-1.911,0.7-2.045C83.992,40.452,84.054,38.525,83.292,38.525z"/>
			<path fill="#006852" d="M88.741,43.417c-1.494,0-1.895-1.51-1.895-2.831c0-1.321,0.401-2.846,1.895-2.846
				c1.541,0,1.942,1.525,1.942,2.846C90.683,41.907,90.282,43.417,88.741,43.417z M88.765,38.525c-0.763,0-0.7,1.927-0.7,2.06
				c0,0.134-0.063,2.045,0.7,2.045s0.7-1.911,0.7-2.045C89.465,40.452,89.528,38.525,88.765,38.525z"/>
			<path fill="#006852" d="M92.649,43.299v-1.046h0.999v1.046H92.649z"/>
			<path fill="#006852" d="M96.707,41.805c-0.016,0.377,0.283,0.826,0.676,0.826c0.44,0,0.723-0.401,0.723-0.849
				c0-0.763-0.739-0.896-1.337-0.873v-0.786c0.566-0.031,1.321-0.094,1.321-0.849c0-0.417-0.228-0.747-0.653-0.747
				c-0.354,0-0.668,0.386-0.653,0.747h-1.203c0.047-1.077,0.857-1.533,1.848-1.533c0.763,0,1.84,0.448,1.84,1.376
				c0,0.763-0.448,1.227-1.046,1.353v0.016c0.661,0.189,1.061,0.621,1.061,1.471c0,0.857-1.006,1.463-1.919,1.463
				c-1.085,0-1.848-0.425-1.856-1.612H96.707z"/>
			<path fill="#006852" d="M102.219,41.946c0.031,0.377,0.315,0.684,0.692,0.684c0.598,0,0.786-0.692,0.786-1.172
				c0-0.448-0.244-0.983-0.755-0.983c-0.362,0-0.605,0.283-0.7,0.621l-1.14-0.031l0.126-3.208h3.326v0.786h-2.288l-0.071,1.431
				c0.267-0.267,0.629-0.385,1.006-0.385c0.975,0,1.675,0.59,1.675,1.864c0,1.007-0.873,1.864-1.997,1.864
				c-0.951,0-1.777-0.425-1.824-1.471H102.219z"/>
			<path fill="#006852" d="M107.731,41.962c0.047,0.346,0.228,0.668,0.582,0.668c0.857,0,0.857-1.117,0.818-1.738
				c-0.315,0.267-0.605,0.338-1.062,0.338c-0.896,0-1.628-0.771-1.628-1.636c0-1.117,0.849-1.856,1.942-1.856
				c1.51,0,1.966,1.054,1.966,2.422c0,1.463-0.118,3.256-2.021,3.256c-1.006,0-1.761-0.322-1.793-1.455H107.731z M108.423,40.444
				c0.511,0,0.708-0.425,0.708-0.928s-0.197-0.991-0.708-0.991c-0.566,0-0.763,0.488-0.763,0.991S107.857,40.444,108.423,40.444z"/>
			<path fill="#006852" d="M112.355,43.299v-1.046h0.999v1.046H112.355z"/>
			<path fill="#006852" d="M116.412,41.805c-0.016,0.377,0.283,0.826,0.676,0.826c0.44,0,0.723-0.401,0.723-0.849
				c0-0.763-0.739-0.896-1.337-0.873v-0.786c0.566-0.031,1.321-0.094,1.321-0.849c0-0.417-0.228-0.747-0.653-0.747
				c-0.354,0-0.668,0.386-0.653,0.747h-1.203c0.047-1.077,0.857-1.533,1.848-1.533c0.763,0,1.84,0.448,1.84,1.376
				c0,0.763-0.448,1.227-1.046,1.353v0.016c0.661,0.189,1.062,0.621,1.062,1.471c0,0.857-1.007,1.463-1.919,1.463
				c-1.085,0-1.848-0.425-1.856-1.612H116.412z"/>
			<path fill="#006852" d="M122.68,43.417c-1.494,0-1.895-1.51-1.895-2.831c0-1.321,0.401-2.846,1.895-2.846
				c1.541,0,1.942,1.525,1.942,2.846C124.622,41.907,124.221,43.417,122.68,43.417z M122.703,38.525c-0.763,0-0.7,1.927-0.7,2.06
				c0,0.134-0.063,2.045,0.7,2.045c0.763,0,0.7-1.911,0.7-2.045C123.403,40.452,123.466,38.525,122.703,38.525z"/>
			<path fill="#006852" d="M127.397,41.946c0.032,0.377,0.315,0.684,0.692,0.684c0.598,0,0.787-0.692,0.787-1.172
				c0-0.448-0.244-0.983-0.755-0.983c-0.362,0-0.606,0.283-0.7,0.621l-1.14-0.031l0.126-3.208h3.326v0.786h-2.288l-0.071,1.431
				c0.267-0.267,0.629-0.385,1.007-0.385c0.975,0,1.675,0.59,1.675,1.864c0,1.007-0.873,1.864-1.997,1.864
				c-0.951,0-1.777-0.425-1.824-1.471H127.397z"/>
			<path fill="#006852" d="M132.831,41.805c-0.016,0.377,0.283,0.826,0.676,0.826c0.44,0,0.724-0.401,0.724-0.849
				c0-0.763-0.739-0.896-1.337-0.873v-0.786c0.566-0.031,1.321-0.094,1.321-0.849c0-0.417-0.228-0.747-0.653-0.747
				c-0.354,0-0.668,0.386-0.653,0.747h-1.203c0.047-1.077,0.857-1.533,1.848-1.533c0.763,0,1.84,0.448,1.84,1.376
				c0,0.763-0.448,1.227-1.046,1.353v0.016c0.66,0.189,1.061,0.621,1.061,1.471c0,0.857-1.007,1.463-1.919,1.463
				c-1.085,0-1.848-0.425-1.856-1.612H132.831z"/>
			<path fill="#006852" d="M140.82,41.915v-1.046h0.999v1.046H140.82z"/>
			<path fill="#006852" d="M150.122,37.621h1.376l0.991,4.27h0.016l0.912-4.27h1.164l-1.447,5.677h-1.352l-1.023-4.325h-0.016
				l-1.101,4.325h-1.384l-1.384-5.677h1.258l0.873,4.27h0.016L150.122,37.621z"/>
			<path fill="#006852" d="M159.086,37.621h1.376l0.991,4.27h0.016l0.912-4.27h1.164l-1.447,5.677h-1.352l-1.022-4.325h-0.016
				l-1.101,4.325h-1.384l-1.384-5.677h1.258l0.873,4.27h0.016L159.086,37.621z"/>
			<path fill="#006852" d="M168.051,37.621h1.376l0.991,4.27h0.016l0.912-4.27h1.164l-1.447,5.677h-1.352l-1.023-4.325h-0.016
				l-1.101,4.325h-1.384l-1.384-5.677h1.258l0.873,4.27h0.016L168.051,37.621z"/>
			<path fill="#006852" d="M173.996,43.299v-1.046h0.999v1.046H173.996z"/>
			<path fill="#006852" d="M176.788,37.621h4.6v0.944h-1.691v4.734h-1.219v-4.734h-1.691V37.621z"/>
			<path fill="#006852" d="M184.282,43.299h-1.22v-5.677h2.415c0.975,0.008,1.974,0.322,1.974,1.478
				c0,0.739-0.479,1.227-1.179,1.376v0.016c0.936,0.102,0.936,0.676,1.038,1.463c0.055,0.362,0.102,1.03,0.331,1.345h-1.346
				c-0.102-0.503-0.157-1.014-0.212-1.525c-0.031-0.315-0.11-0.747-0.511-0.763h-1.289V43.299z M184.282,40.067h1.022
				c0.534-0.008,0.849-0.275,0.849-0.779c0-0.503-0.314-0.715-0.849-0.723h-1.022V40.067z"/>
			<path fill="#006852" d="M190.643,43.299h-1.219v-5.677h1.219V43.299z"/>
			<path fill="#006852" d="M192.327,43.299l2.052-5.677h1.448l1.974,5.677h-1.227l-0.409-1.203h-2.249l-0.424,1.203H192.327z
				 M195.857,41.152l-0.779-2.422h-0.016l-0.833,2.422H195.857z"/>
			<path fill="#006852" d="M202.918,43.299l-2.241-4.718l-0.016,0.016v4.702h-1.141v-5.677h1.809l2.162,4.466l0.016-0.016v-4.451
				h1.141v5.677H202.918z"/>
			<path fill="#006852" d="M209.437,41.215v-0.943h2.327v2.839c-0.416,0.134-0.833,0.212-1.274,0.252
				c-0.275,0.024-0.557,0.055-1.305,0.055c-1.124,0-2.665-0.7-2.665-2.957c0-2.257,1.541-2.957,2.665-2.957
				c1.644,0,2.658,0.496,2.666,1.848h-1.298c0-0.723-0.472-0.967-1.141-0.967c-1.077,0-1.596,0.794-1.596,2.076
				c0,1.282,0.519,2.076,1.596,2.076c0.488,0,0.81-0.063,1.132-0.126v-1.195H209.437z"/>
			<path fill="#006852" d="M213.982,43.299v-5.677h1.219v4.734h2.461v0.944H213.982z"/>
			<path fill="#006852" d="M219.368,37.621h3.806v0.944h-2.587v1.329h2.422v0.943h-2.422v1.518h2.673v0.944h-3.892V37.621z"/>
			<path fill="#006852" d="M225.148,40.46c0-1.675,0.85-2.957,2.729-2.957c1.879,0,2.729,1.282,2.729,2.957
				c0,1.675-0.85,2.957-2.729,2.957C225.997,43.417,225.148,42.135,225.148,40.46z M226.446,40.46c0,0.975,0.228,2.076,1.431,2.076
				c1.203,0,1.431-1.101,1.431-2.076c0-0.975-0.228-2.076-1.431-2.076C226.673,38.384,226.446,39.485,226.446,40.46z"/>
			<path fill="#006852" d="M233.727,43.299h-1.219v-5.677h2.415c0.974,0.008,1.974,0.322,1.974,1.478c0,0.739-0.48,1.227-1.18,1.376
				v0.016c0.936,0.102,0.936,0.676,1.038,1.463c0.055,0.362,0.103,1.03,0.331,1.345h-1.345c-0.102-0.503-0.157-1.014-0.212-1.525
				c-0.031-0.315-0.11-0.747-0.512-0.763h-1.289V43.299z M233.727,40.067h1.022c0.534-0.008,0.85-0.275,0.85-0.779
				c0-0.503-0.315-0.715-0.85-0.723h-1.022V40.067z"/>
			<path fill="#006852" d="M238.344,37.621h4.6v0.944h-1.691v4.734h-1.219v-4.734h-1.691V37.621z"/>
			<path fill="#006852" d="M244.69,43.299v-5.677h1.219v2.241h2.146v-2.241h1.234v5.677h-1.219v-2.493h-2.162v2.493H244.69z"/>
			<path fill="#006852" d="M251.256,40.46c0-1.675,0.85-2.957,2.729-2.957c1.879,0,2.729,1.282,2.729,2.957
				c0,1.675-0.85,2.957-2.729,2.957C252.105,43.417,251.256,42.135,251.256,40.46z M252.553,40.46c0,0.975,0.228,2.076,1.431,2.076
				c1.203,0,1.431-1.101,1.431-2.076c0-0.975-0.228-2.076-1.431-2.076C252.781,38.384,252.553,39.485,252.553,40.46z"/>
			<path fill="#006852" d="M258.74,43.299v-1.046h0.999v1.046H258.74z"/>
			<path fill="#006852" d="M265.166,39.461c0.007-0.598-0.355-1.077-1.086-1.077c-0.865,0-1.085,1.282-1.085,2.076
				c0,0.794,0.219,2.076,1.085,2.076c0.731,0,1.093-0.48,1.086-1.077h1.297c-0.054,1.423-1.077,1.958-2.382,1.958
				c-1.643,0-2.382-1.297-2.382-2.957c0-1.659,0.739-2.957,2.382-2.957c1.305,0,2.328,0.535,2.382,1.958H265.166z"/>
			<path fill="#006852" d="M268.106,40.46c0-1.675,0.85-2.957,2.729-2.957c1.879,0,2.729,1.282,2.729,2.957
				c0,1.675-0.85,2.957-2.729,2.957C268.956,43.417,268.106,42.135,268.106,40.46z M269.404,40.46c0,0.975,0.228,2.076,1.431,2.076
				c1.203,0,1.431-1.101,1.431-2.076c0-0.975-0.228-2.076-1.431-2.076C269.632,38.384,269.404,39.485,269.404,40.46z"/>
			<path fill="#006852" d="M279.138,43.299h-1.014l-1.502-4.875l-0.017,0.016v4.86h-1.14v-5.677h1.998l1.188,4.128h0.016
				l1.289-4.128h1.927v5.677h-1.141v-4.86l-0.016-0.016L279.138,43.299z"/>
		</g>
		<g>
			<polygon fill="#006852" stroke="#006852" stroke-width="0.0279" points="39.208,26.308 54.217,2.916 69.518,26.313 			"/>
			<polygon fill="#FFFFFF" stroke="#FFFFFF" stroke-width="0.8124" points="67.243,22.336 56.08,22.336 56.08,21.054 66.374,21.054 
							"/>
			<polygon fill="#FFFFFF" stroke="#FFFFFF" stroke-width="0.8124" points="61.71,14.068 53.663,26.384 51.775,26.383 
				60.791,12.721 			"/>
			<path fill="#FFFFFF" stroke="#FFFFFF" stroke-width="0.8124" d="M51.196,7.508c3.196,1.29,5.667,4.638,5.667,8.296
				c0,4.81-3.899,8.71-8.71,8.71c-2.49,0-4.737-1.046-6.393-2.721l0.875-1.288c1.378,1.498,3.371,2.445,5.518,2.445
				c3.946,0,7.145-3.199,7.145-7.145c0-3.172-2.203-5.929-5.063-6.862L51.196,7.508z"/>
			<g>
				<path fill="#006852" d="M79.49,21.379c0,2.725,0.052,3.088,1.557,3.244l0.831,0.077c0.155,0.104,0.104,0.571-0.052,0.649
					c-1.479-0.052-2.361-0.077-3.4-0.077c-1.038,0-1.946,0.026-3.607,0.077c-0.156-0.077-0.208-0.519,0-0.649l0.934-0.077
					c1.479-0.13,1.609-0.519,1.609-3.244v-11.6c0-0.805,0-0.831-0.779-0.831h-1.427c-1.116,0-2.543,0.052-3.192,0.649
					c-0.623,0.571-0.882,1.142-1.168,1.791c-0.208,0.156-0.571,0.026-0.675-0.182c0.415-1.168,0.804-2.828,0.986-3.867
					c0.078-0.052,0.415-0.078,0.493,0c0.156,0.83,1.012,0.804,2.206,0.804h10.511c1.401,0,1.635-0.051,2.024-0.726
					c0.13-0.052,0.416-0.026,0.467,0.077c-0.286,1.064-0.467,3.166-0.389,3.945c-0.104,0.207-0.545,0.207-0.675,0.052
					c-0.078-0.649-0.26-1.609-0.649-1.895c-0.597-0.441-1.583-0.649-3.01-0.649h-1.842c-0.779,0-0.753,0.026-0.753,0.883V21.379z"/>
				<path fill="#006852" d="M85.459,17.824c0-1.012,0-1.142-0.701-1.609l-0.233-0.156c-0.104-0.103-0.104-0.389,0.026-0.467
					c0.597-0.208,1.972-0.882,2.621-1.272c0.13,0.026,0.208,0.078,0.208,0.182v1.505c0,0.13,0.026,0.207,0.078,0.233
					c0.908-0.752,1.894-1.557,2.855-1.557c0.649,0,1.167,0.415,1.167,1.038c0,0.856-0.701,1.194-1.116,1.194
					c-0.26,0-0.389-0.077-0.571-0.181c-0.389-0.259-0.778-0.415-1.142-0.415c-0.415,0-0.727,0.233-0.934,0.519
					c-0.259,0.363-0.337,1.116-0.337,1.998v3.529c0,1.869,0.052,2.18,1.038,2.258l0.934,0.077c0.182,0.13,0.13,0.571-0.052,0.649
					c-1.22-0.052-1.973-0.077-2.88-0.077c-0.935,0-1.713,0.026-2.388,0.077c-0.181-0.077-0.234-0.519-0.052-0.649l0.493-0.077
					c0.961-0.156,0.986-0.389,0.986-2.258V17.824z"/>
				<path fill="#006852" d="M94.074,17.824c0-1.012,0-1.142-0.701-1.609l-0.233-0.156c-0.104-0.103-0.104-0.389,0.026-0.467
					c0.597-0.208,2.076-0.882,2.673-1.272c0.129,0,0.233,0.052,0.259,0.156c-0.052,0.909-0.104,2.154-0.104,3.218v4.671
					c0,1.869,0.052,2.128,0.986,2.258l0.545,0.077c0.182,0.13,0.13,0.571-0.052,0.649c-0.779-0.052-1.531-0.077-2.439-0.077
					c-0.935,0-1.713,0.026-2.439,0.077c-0.182-0.077-0.234-0.519-0.052-0.649l0.545-0.077c0.96-0.13,0.986-0.389,0.986-2.258V17.824
					z M96.202,9.415c0,0.908-0.649,1.324-1.349,1.324c-0.805,0-1.324-0.571-1.324-1.272c0-0.856,0.649-1.375,1.401-1.375
					C95.709,8.092,96.202,8.689,96.202,9.415z"/>
				<path fill="#006852" d="M104.351,19.9c0.389-0.13,0.415-0.364,0.441-0.753l0.026-1.194c0.026-0.96-0.285-2.258-1.895-2.258
					c-0.727,0-1.609,0.363-1.661,1.168c-0.026,0.416-0.052,0.727-0.259,0.883c-0.389,0.311-1.09,0.493-1.479,0.493
					c-0.233,0-0.363-0.13-0.363-0.363c0-1.349,2.932-3.192,4.827-3.192c1.868,0,2.777,1.09,2.699,3.036l-0.156,4.515
					c-0.052,1.194,0.182,2.258,1.194,2.258c0.259,0,0.493-0.077,0.649-0.155c0.13-0.078,0.26-0.182,0.337-0.182
					c0.104,0,0.182,0.156,0.182,0.337c0,0.13-0.909,1.143-2.18,1.143c-0.623,0-1.246-0.234-1.687-0.805
					c-0.104-0.156-0.259-0.363-0.415-0.363c-0.182,0-0.493,0.233-1.012,0.519c-0.571,0.311-1.142,0.649-1.868,0.649
					c-0.753,0-1.376-0.208-1.817-0.597c-0.493-0.441-0.804-1.091-0.804-1.817c0-1.012,0.493-1.609,2.154-2.206L104.351,19.9z
					 M102.742,24.467c0.519,0,1.323-0.389,1.583-0.648c0.311-0.311,0.337-0.675,0.337-1.22l0.052-1.531
					c0-0.286-0.103-0.337-0.259-0.337c-0.156,0-0.597,0.104-1.064,0.259c-1.531,0.519-2.284,0.908-2.284,1.92
					C101.107,23.351,101.419,24.467,102.742,24.467z"/>
				<path fill="#006852" d="M110.709,17.824c0-1.012,0-1.142-0.701-1.609l-0.234-0.156c-0.104-0.103-0.104-0.389,0.026-0.467
					c0.597-0.208,2.076-0.882,2.595-1.272c0.104,0,0.233,0.052,0.285,0.182c-0.052,0.597-0.052,0.986-0.052,1.219
					c0,0.156,0.104,0.286,0.285,0.286c1.09-0.675,2.31-1.324,3.634-1.324c2.154,0,3.036,1.479,3.036,3.218v4.463
					c0,1.869,0.052,2.128,0.986,2.258l0.571,0.077c0.182,0.13,0.13,0.571-0.052,0.649c-0.778-0.052-1.531-0.077-2.44-0.077
					c-0.934,0-1.713,0.026-2.414,0.077c-0.181-0.077-0.233-0.519-0.052-0.649l0.493-0.077c0.96-0.156,0.986-0.389,0.986-2.258
					v-3.867c0-1.479-0.675-2.569-2.44-2.569c-0.986,0-1.843,0.415-2.206,0.909c-0.337,0.441-0.389,0.804-0.389,1.557v3.97
					c0,1.869,0.052,2.102,0.987,2.258l0.467,0.077c0.182,0.13,0.129,0.571-0.052,0.649c-0.701-0.052-1.453-0.077-2.362-0.077
					c-0.934,0-1.713,0.026-2.439,0.077c-0.182-0.077-0.233-0.519-0.052-0.649l0.545-0.077c0.96-0.13,0.986-0.389,0.986-2.258V17.824
					z"/>
				<path fill="#006852" d="M132.846,15.618c0.285,0.13,0.233,1.012-0.156,1.064h-1.869c0.052,0.441,0.052,0.882,0.052,1.324
					c0,1.79-1.064,4.126-4.36,4.126c-0.467,0-0.83-0.052-1.142-0.078c-0.311,0.181-1.142,0.675-1.142,1.428
					c0,0.597,0.597,1.09,1.817,1.09c0.882,0,1.946-0.078,3.088-0.078c1.454,0,3.633,0.26,3.633,2.855
					c0,2.829-3.088,4.905-6.461,4.905c-3.193,0-4.308-1.713-4.308-3.011c0-0.415,0.104-0.753,0.285-0.96
					c0.441-0.467,1.168-1.142,1.765-1.739c0.234-0.233,0.441-0.466,0.207-0.623c-1.012-0.259-1.894-1.142-1.894-2.05
					c0-0.129,0.104-0.233,0.389-0.441c0.441-0.286,0.934-0.727,1.375-1.194c0.13-0.155,0.259-0.363,0.259-0.493
					c-0.882-0.467-1.946-1.479-1.946-3.14c0-2.232,1.921-3.919,4.231-3.919c0.986,0,1.894,0.259,2.491,0.519
					c0.831,0.363,1.012,0.415,1.583,0.415H132.846z M127.422,26.102c-0.831,0-1.869,0.052-2.232,0.286
					c-0.623,0.389-1.245,1.193-1.245,2.18c0,1.401,1.116,2.569,3.477,2.569c2.31,0,3.841-1.298,3.841-2.777
					c0-1.583-1.091-2.258-2.959-2.258H127.422z M129.031,18.68c0-1.765-0.727-3.244-2.31-3.244c-1.246,0-2.18,1.142-2.18,2.907
					c0,1.843,1.117,3.036,2.361,3.036C128.304,21.379,129.031,20.263,129.031,18.68z"/>
				<path fill="#006852" d="M136.531,22.365c0,1.869,0.052,2.128,0.986,2.258l0.623,0.077c0.181,0.13,0.129,0.571-0.052,0.649
					c-0.857-0.052-1.609-0.077-2.517-0.077c-0.934,0-1.713,0.026-2.491,0.077c-0.181-0.077-0.233-0.519-0.052-0.649l0.597-0.077
					c0.96-0.13,0.986-0.389,0.986-2.258v-11.73c0-1.531-0.026-1.687-0.804-2.154l-0.259-0.156c-0.13-0.077-0.13-0.441,0-0.519
					c0.649-0.208,1.869-0.597,2.802-1.09c0.104,0,0.208,0.052,0.26,0.156c-0.026,0.779-0.078,2.076-0.078,3.218V22.365z"/>
				<path fill="#006852" d="M141.591,18.628c-0.675,0-0.701,0.052-0.701,0.701c0,2.621,1.531,4.853,4.308,4.853
					c0.856,0,1.583-0.259,2.387-1.271c0.26-0.078,0.441,0.078,0.467,0.311c-0.857,1.765-2.725,2.414-4.074,2.414
					c-1.687,0-3.011-0.727-3.763-1.713c-0.778-1.012-1.09-2.232-1.09-3.374c0-3.192,2.102-5.865,5.216-5.865
					c2.232,0,3.685,1.531,3.685,3.088c0,0.363-0.052,0.571-0.104,0.675c-0.077,0.156-0.441,0.182-1.531,0.182H141.591z M143.2,17.85
					c1.921,0,2.492-0.104,2.699-0.26c0.078-0.052,0.155-0.155,0.155-0.493c0-0.727-0.493-1.635-1.998-1.635
					c-1.531,0-2.855,1.401-2.881,2.258c0,0.052,0,0.13,0.182,0.13H143.2z"/>
				<path fill="#006852" d="M154.619,16.889c0-5.19,3.893-9.161,9.239-9.161c5.995,0,9.005,4.334,9.005,8.901
					c0,5.242-3.996,9.057-9.005,9.057C158.096,25.687,154.619,21.561,154.619,16.889z M170.268,17.435
					c0-4.282-1.895-8.901-6.852-8.901c-2.699,0-6.202,1.842-6.202,7.526c0,3.842,1.868,8.824,6.98,8.824
					C167.308,24.883,170.268,22.547,170.268,17.435z"/>
				<path fill="#006852" d="M175.042,17.824c0-1.012,0-1.142-0.701-1.609l-0.233-0.156c-0.102-0.103-0.102-0.389,0.027-0.467
					c0.597-0.208,1.972-0.882,2.62-1.272c0.129,0.026,0.207,0.078,0.207,0.182v1.505c0,0.13,0.026,0.207,0.077,0.233
					c0.91-0.752,1.895-1.557,2.856-1.557c0.648,0,1.166,0.415,1.166,1.038c0,0.856-0.7,1.194-1.115,1.194
					c-0.26,0-0.389-0.077-0.57-0.181c-0.391-0.259-0.779-0.415-1.143-0.415c-0.415,0-0.726,0.233-0.933,0.519
					c-0.262,0.363-0.338,1.116-0.338,1.998v3.529c0,1.869,0.051,2.18,1.038,2.258l0.934,0.077c0.181,0.13,0.129,0.571-0.051,0.649
					c-1.22-0.052-1.974-0.077-2.881-0.077c-0.935,0-1.713,0.026-2.389,0.077c-0.18-0.077-0.233-0.519-0.051-0.649l0.493-0.077
					c0.96-0.156,0.986-0.389,0.986-2.258V17.824z"/>
				<path fill="#006852" d="M185.989,16.137c-0.441,0-0.467,0.077-0.467,0.622v4.853c0,1.506,0.181,2.881,1.894,2.881
					c0.26,0,0.493-0.051,0.701-0.129c0.233-0.078,0.571-0.363,0.65-0.363c0.206,0,0.31,0.285,0.259,0.441
					c-0.468,0.545-1.402,1.194-2.725,1.194c-2.233,0-2.699-1.246-2.699-2.803v-5.943c0-0.701-0.025-0.752-0.545-0.752h-0.726
					c-0.155-0.104-0.182-0.39-0.078-0.545c0.752-0.234,1.402-0.571,1.661-0.805c0.338-0.312,0.831-1.012,1.09-1.531
					c0.129-0.052,0.441-0.052,0.545,0.13v1.168c0,0.467,0.025,0.493,0.466,0.493h2.882c0.31,0.234,0.259,0.935,0.025,1.09H185.989z"
					/>
				<path fill="#006852" d="M191.568,10.635c0-1.531-0.026-1.687-0.804-2.154l-0.26-0.156c-0.129-0.077-0.129-0.441,0-0.519
					c0.648-0.208,1.868-0.597,2.802-1.09c0.105,0,0.207,0.052,0.26,0.156c-0.026,0.779-0.078,2.076-0.078,3.218v5.45
					c0,0.233,0.025,0.441,0.104,0.493c0.934-0.726,2.18-1.349,3.503-1.349c2.466,0,3.347,1.531,3.347,3.348v4.334
					c0,1.869,0.052,2.154,0.986,2.258l0.701,0.077c0.181,0.13,0.129,0.571-0.053,0.649c-0.933-0.052-1.686-0.077-2.595-0.077
					c-0.933,0-1.713,0.026-2.414,0.077c-0.18-0.077-0.232-0.519-0.051-0.649l0.519-0.077c0.96-0.156,0.986-0.389,0.986-2.258v-3.711
					c0-1.661-0.804-2.777-2.465-2.777c-0.883,0-1.558,0.311-2.024,0.7c-0.468,0.39-0.546,0.519-0.546,1.428v4.36
					c0,1.869,0.052,2.128,0.985,2.258l0.546,0.077c0.181,0.104,0.129,0.571-0.052,0.649c-0.778-0.052-1.53-0.077-2.44-0.077
					c-0.933,0-1.712,0.026-2.542,0.077c-0.182-0.077-0.233-0.519-0.053-0.649l0.648-0.077c0.961-0.104,0.987-0.389,0.987-2.258
					V10.635z"/>
				<path fill="#006852" d="M213.315,20.055c0,3.245-2.231,5.58-5.474,5.58c-2.986,0-5.32-2.102-5.32-5.346
					c0-3.27,2.464-5.606,5.527-5.606C210.955,14.684,213.315,16.863,213.315,20.055z M207.737,15.462
					c-1.713,0-2.985,1.635-2.985,4.49c0,2.361,1.065,4.905,3.348,4.905c2.283,0,2.984-2.387,2.984-4.386
					C211.084,18.265,210.202,15.462,207.737,15.462z"/>
				<path fill="#006852" d="M215.392,17.824c0-1.012,0-1.142-0.7-1.609l-0.234-0.156c-0.104-0.103-0.104-0.389,0.025-0.467
					c0.674-0.285,1.894-0.908,2.57-1.401c0.155,0,0.26,0.052,0.311,0.182c-0.051,0.467-0.103,0.856-0.103,1.194
					c0,0.182,0.051,0.337,0.233,0.337c0.336-0.156,1.972-1.219,3.633-1.219c2.622,0,4.307,2.128,4.307,4.749
					c0,3.607-2.646,6.203-6.332,6.203c-0.466,0-1.193-0.052-1.427-0.104c-0.233,0.052-0.363,0.181-0.363,0.727v2.725
					c0,1.843,0.051,2.076,0.985,2.206l1.012,0.129c0.182,0.13,0.129,0.571-0.051,0.649c-1.246-0.052-1.998-0.078-2.907-0.078
					c-0.933,0-1.713,0.026-2.44,0.078c-0.181-0.078-0.233-0.519-0.051-0.649l0.545-0.078c0.961-0.129,0.987-0.389,0.987-2.258
					V17.824z M217.313,22.651c0,0.831,0.259,1.142,0.778,1.557c0.52,0.39,1.324,0.571,1.87,0.571c2.127,0,3.373-1.972,3.373-4.671
					c0-2.076-1.167-4.179-3.502-4.179c-1.117,0-1.921,0.415-2.207,0.727c-0.233,0.285-0.311,0.675-0.311,1.531V22.651z"/>
				<path fill="#006852" d="M231.975,19.9c0.388-0.13,0.414-0.364,0.441-0.753l0.025-1.194c0.027-0.96-0.285-2.258-1.894-2.258
					c-0.728,0-1.61,0.363-1.661,1.168c-0.027,0.416-0.052,0.727-0.259,0.883c-0.391,0.311-1.091,0.493-1.481,0.493
					c-0.232,0-0.363-0.13-0.363-0.363c0-1.349,2.933-3.192,4.827-3.192c1.869,0,2.777,1.09,2.699,3.036l-0.155,4.515
					c-0.052,1.194,0.18,2.258,1.194,2.258c0.259,0,0.493-0.077,0.649-0.155c0.129-0.078,0.259-0.182,0.337-0.182
					c0.104,0,0.182,0.156,0.182,0.337c0,0.13-0.909,1.143-2.181,1.143c-0.623,0-1.245-0.234-1.686-0.805
					c-0.103-0.156-0.26-0.363-0.415-0.363c-0.18,0-0.493,0.233-1.011,0.519c-0.571,0.311-1.143,0.649-1.868,0.649
					c-0.753,0-1.376-0.208-1.817-0.597c-0.493-0.441-0.805-1.091-0.805-1.817c0-1.012,0.492-1.609,2.155-2.206L231.975,19.9z
					 M230.366,24.467c0.519,0,1.324-0.389,1.584-0.648c0.31-0.311,0.337-0.675,0.337-1.22l0.051-1.531
					c0-0.286-0.104-0.337-0.259-0.337c-0.155,0-0.597,0.104-1.065,0.259c-1.53,0.519-2.284,0.908-2.284,1.92
					C228.731,23.351,229.042,24.467,230.366,24.467z"/>
				<path fill="#006852" d="M239.682,18.628c-0.674,0-0.701,0.052-0.701,0.701c0,2.621,1.532,4.853,4.309,4.853
					c0.856,0,1.581-0.259,2.387-1.271c0.259-0.078,0.441,0.078,0.467,0.311c-0.856,1.765-2.724,2.414-4.074,2.414
					c-1.687,0-3.011-0.727-3.764-1.713c-0.779-1.012-1.089-2.232-1.089-3.374c0-3.192,2.102-5.865,5.215-5.865
					c2.232,0,3.685,1.531,3.685,3.088c0,0.363-0.053,0.571-0.104,0.675c-0.078,0.156-0.441,0.182-1.532,0.182H239.682z
					 M241.291,17.85c1.921,0,2.493-0.104,2.699-0.26c0.078-0.052,0.156-0.155,0.156-0.493c0-0.727-0.493-1.635-1.999-1.635
					c-1.53,0-2.854,1.401-2.88,2.258c0,0.052,0,0.13,0.181,0.13H241.291z"/>
				<path fill="#006852" d="M257.069,21.483c0,2.05,0.025,3.01,0.752,3.01c0.287,0,0.727-0.129,1.117-0.259
					c0.18,0.051,0.206,0.7-0.027,0.831c-1.09,0.155-2.698,0.544-3.425,0.83c-0.155,0-0.285-0.078-0.285-0.208v-0.441
					c0-0.389,0-0.701-0.051-0.805h-0.104c-1.143,0.778-2.025,1.194-3.27,1.194c-2.881,0-4.801-2.258-4.801-4.983
					c0-3.633,2.75-5.969,6.279-5.969c0.883,0,1.454,0.129,1.739,0.233c0.129,0,0.156-0.156,0.156-0.363v-3.919
					c0-1.531-0.027-1.687-0.805-2.154l-0.259-0.156c-0.13-0.077-0.13-0.441,0-0.519c0.648-0.208,1.869-0.597,2.802-1.09
					c0.104,0,0.206,0.052,0.259,0.156c-0.026,0.779-0.078,2.076-0.078,3.218V21.483z M255.15,17.59c0-0.519-0.104-0.752-0.286-1.012
					c-0.389-0.545-1.167-1.089-2.181-1.089c-2.36,0-3.581,2.05-3.581,4.308c0,2.362,1.324,4.594,3.867,4.594
					c0.7,0,1.583-0.311,1.998-0.727c0.155-0.155,0.182-0.545,0.182-0.96V17.59z"/>
				<path fill="#006852" d="M261.3,17.824c0-1.012,0-1.142-0.701-1.609l-0.233-0.156c-0.104-0.103-0.104-0.389,0.026-0.467
					c0.597-0.208,2.076-0.882,2.673-1.272c0.129,0,0.233,0.052,0.258,0.156c-0.051,0.909-0.102,2.154-0.102,3.218v4.671
					c0,1.869,0.051,2.128,0.987,2.258l0.543,0.077c0.183,0.13,0.13,0.571-0.051,0.649c-0.779-0.052-1.531-0.077-2.438-0.077
					c-0.935,0-1.713,0.026-2.44,0.077c-0.181-0.077-0.233-0.519-0.052-0.649l0.546-0.077c0.96-0.13,0.986-0.389,0.986-2.258V17.824z
					 M263.427,9.415c0,0.908-0.648,1.324-1.349,1.324c-0.804,0-1.324-0.571-1.324-1.272c0-0.856,0.649-1.375,1.402-1.375
					C262.934,8.092,263.427,8.689,263.427,9.415z"/>
				<path fill="#006852" d="M273.911,15.125c0.208,0.182,0.389,0.597,0.389,1.038c0,0.467-0.259,0.96-0.57,0.96
					c-0.131,0-0.26-0.052-0.363-0.182c-0.571-0.701-1.532-1.375-2.596-1.375c-1.817,0-3.581,1.427-3.581,4.178
					c0,2.025,1.401,4.437,4.179,4.437c1.505,0,2.284-0.674,2.88-1.557c0.206-0.052,0.441,0.129,0.468,0.364
					c-0.884,1.92-2.83,2.647-4.335,2.647c-1.375,0-2.647-0.442-3.555-1.324c-0.908-0.882-1.506-2.154-1.506-3.841
					c0-2.802,1.972-5.787,6.28-5.787C272.199,14.684,273.21,14.813,273.911,15.125z"/>
				<path fill="#006852" d="M281.879,15.15c0.233,0.571,0.415,1.401,0.415,2.102c-0.104,0.182-0.492,0.233-0.624,0.078
					c-0.44-1.142-1.219-1.895-2.282-1.895c-1.012,0-1.662,0.649-1.662,1.583c0,1.064,1.09,1.635,1.999,2.154
					c1.376,0.778,2.646,1.661,2.646,3.504c0,1.972-1.816,2.958-3.736,2.958c-1.22,0-2.13-0.26-2.778-0.779
					c-0.207-0.493-0.362-1.765-0.311-2.622c0.129-0.155,0.468-0.181,0.597-0.026c0.442,1.427,1.272,2.673,2.751,2.673
					c0.934,0,1.739-0.545,1.739-1.661c0-1.193-1.038-1.843-1.998-2.387c-1.507-0.857-2.569-1.765-2.569-3.192
					c0-1.895,1.556-2.958,3.529-2.958C280.685,14.684,281.645,14.943,281.879,15.15z"/>
			</g>
		</g>
	</g>
</g>
</svg>
