<?xml version="1.0" encoding="utf-8"?>
<!-- Generator: Adobe Illustrator 17.1.0, SVG Export Plug-In . SVG Version: 6.00 Build 0)  -->
<!DOCTYPE svg PUBLIC "-//W3C//DTD SVG 1.1//EN" "http://www.w3.org/Graphics/SVG/1.1/DTD/svg11.dtd">
<svg version="1.1" id="Layer_1" xmlns="http://www.w3.org/2000/svg" xmlns:xlink="http://www.w3.org/1999/xlink" x="0px" y="0px"
	 viewBox="0 0 349.7 369.5" enable-background="new 0 0 349.7 369.5" xml:space="preserve">
<g>
	<g>
		<path d="M334.7,297v57.5h-132V297h24.5l-16.1-58.3H123L105,297h25.5v57.5H15V297h27l66.1-224.5H84V15h178.7v57.5H239L310.2,297
			H334.7z M197.2,189L168.9,86.9L138.4,189H197.2z"/>
		<path d="M69,0v87.5c0,0,17.9,0,19.1,0C79.1,118,36,264.2,30.8,282c-7.7,0-30.8,0-30.8,0v87.5h145.5V282c0,0-18.5,0-20.2,0
			c3.9-12.6,6.2-19.9,8.8-28.3c14.4,0,50.8,0,65.6,0c2.4,8.7,4.4,15.8,7.8,28.3c-1.5,0-19.8,0-19.8,0v87.5h162V282
			c0,0-21.8,0-28.5,0c-5.5-17.3-51.9-163.6-61.8-194.5c0.8,0,18.3,0,18.3,0V0H69z M247.7,30c0,10.6,0,16.9,0,27.5
			c-4.1,0-29.3,0-29.3,0L299.3,312c0,0,16,0,20.5,0c0,10.6,0,16.9,0,27.5c-20.5,0-81.5,0-102,0c0-10.6,0-16.9,0-27.5
			c4.5,0,29.2,0,29.2,0l-24.4-88.3H112L84.6,312c0,0,25.8,0,30.9,0c0,10.6,0,16.9,0,27.5c-19.3,0-66.2,0-85.5,0
			c0-10.6,0-16.9,0-27.5c5.9,0,23.2,0,23.2,0l75-254.5c0,0-24.9,0-29.2,0c0-10.6,0-16.9,0-27.5C121.9,30,224.9,30,247.7,30z"/>
		<path d="M118.3,204H217L169.5,32.7L118.3,204z M168.4,141.1c4.6,16.5,6.4,22.9,9.1,32.9c-8.5,0-10.4,0-19,0
			C161.6,163.9,163.5,157.5,168.4,141.1z"/>
	</g>
	<g>
		<path fill="#FDB913" d="M334.7,297v57.5h-132V297h24.5l-16.1-58.3H123L105,297h25.5v57.5H15V297h27l66.1-224.5H84V15h178.7v57.5
			H239L310.2,297H334.7z M197.2,189L168.9,86.9L138.4,189H197.2z"/>
		<path fill="#FFFFFF" d="M79.5,10.5V77c0,0,15.8,0,22.6,0c-3.2,10.8-61.7,209.4-63.5,215.5c-5.2,0-28.1,0-28.1,0V359H135v-66.5
			c0,0-16.9,0-23.9,0c2.8-8.9,13.7-44.2,15.3-49.3c5.9,0,75.3,0,81.4,0c1.5,5.3,11.2,40.6,13.6,49.3c-6.8,0-23.1,0-23.1,0V359h141
			v-66.5c0,0-20.8,0-25.7,0C311.7,286.6,248.6,88,245.1,77c6.8,0,22.1,0,22.1,0V10.5H79.5z M258.2,19.5c0,7,0,41.5,0,48.5
			c-5.9,0-25.4,0-25.4,0L307,301.5c0,0,17.3,0,23.3,0c0,7,0,41.5,0,48.5c-8.1,0-114.9,0-123,0c0-7,0-41.5,0-48.5c6,0,25.9,0,25.9,0
			l-18.6-67.3h-94.9l-20.9,67.3c0,0,21,0,27.1,0c0,7,0,41.5,0,48.5c-8,0-98.5,0-106.5,0c0-7,0-41.5,0-48.5c6.3,0,25.9,0,25.9,0
			L114.2,68c0,0-19.7,0-25.7,0c0-7,0-41.5,0-48.5C96.8,19.5,249.9,19.5,258.2,19.5z"/>
		<path fill="#FFFFFF" d="M132.4,193.5h70.8L169.1,70.6L132.4,193.5z M168.8,103.1c5.7,20.4,20.2,72.8,22.6,81.4
			c-8.5,0-38.2,0-46.9,0C147,175.8,162.7,123.5,168.8,103.1z"/>
	</g>
	<g>
		<path d="M105.8,202.9c0.4-0.4,2.2-2.2,2.9-2.2c0.6,0,0.8,0.4,0.6,1.3l0.1,0.1c5.4-4.7,9-9.7,9-11.6c0-1-0.6-1.3-1.5-1.1
			c-1,0.3-7.4,0.5-19.9,15.2c-3.9,4.6-6.8,10.8-6.8,15.1c0,4,1.9,6.3,5.9,6.3c7.1,0,19.4-9.2,24.7-13.9c0.2,2.9-0.7,3.6-2.9,5.7
			c-10.9,10.5-20.2,13.9-25.5,13.9c-6.2,0-10.7-3.9-10.7-10.3c0-8.2,6.9-17.1,12.7-22.5c4.8-4.5,16.5-13.5,23.2-13.5
			c3.4,0,5.5,1.8,5.7,5.3c0.4,7.6-14.1,21.9-21.1,23c-1.6,0.2-3.1-0.9-3.1-2.7c0-1.7,1.5-3.4,2.7-4.4L105.8,202.9z"/>
		<path d="M145.1,215.9c-2.5,3.2-5,4.5-9.1,4.5c-2.4,2.4-5.1,4.2-8.6,4.2c-2.9,0-5.6-2.9-5.8-8c-0.1-4.2,2-7,5.1-9.4
			c3-2.5,7.1-4,10.5-4.1c1.2-0.1,3.1,0.5,3.1,2c0,0.8-0.7,1.2-1.3,1.5c1.7,0.4,2,1.6,2,3.3c0,2.5-1.1,4.4-2.2,6.6
			c2.5,0.4,4-1.7,5.8-3L145.1,215.9z M128,213.2c-1.2,1.2-2.3,3.4-2.3,5.2c0,1.6,1.1,2.1,2.5,2.1c1.8,0,3-1.1,4.3-2.2
			c-0.4-0.9-0.7-1.6-0.7-2.6c0-2.9,2.6-6.4,2.4-6.6C132.3,210.3,129.7,211.6,128,213.2z"/>
		<path d="M160.3,209.4c1.2-1.1,6.7-6.4,8.1-6.4c0.4,0,1.1,0.2,1.3,3.1c0.1,1.3-1.4,2.6-2.3,3.4c-1.8,1.6-5.8,6-5.8,8.6
			c0,0.9,0.5,1.2,1.4,1.2c2.1,0,6.9-3.9,8.6-5.3l0.3,2.4c-2.9,2.7-8.8,9.2-12.9,9.2c-2.1,0-3.3-1.7-3.3-3.7c0-1.7,0.6-3.2,1.2-4.7
			l-0.1-0.1c-2.2,1.9-5.9,6.9-9,6.9c-2.7,0-4.3-3.1-4.3-5.5c0-5.4,4.2-11,7.8-13.4c0.8-0.5,1.5-0.6,2.5-0.6c0.8,0,3.6-0.5,3.4,1.2
			c-0.1,0.9-1.6,2.5-2.2,3c-1.7,2-2.1,2.5-4.3,4c-1.7,1.2-3.1,2.5-3.1,4.8c0,0.3,0.1,0.8,0.4,0.8c1,0,4.1-1.6,6.7-4L160.3,209.4z"/>
		<path d="M186.1,216.1L186,216c-2,2.2-7.9,7.3-11,7.3c-3.1,0-4.2-4.1-4.2-6.6c0-7.3,12.2-13.3,16.5-13.7c0.8-0.1,3,0.2,3,1.4
			c0,1-1.1,1.8-1.8,2.3l-6.4,3.5c-3.5,1.9-7.7,3.5-7.2,7.6c0.1,0.4,0.4,0.6,0.9,0.6c1.6,0.2,5-1.2,7.1-3.5l6-6.6
			c0.6-0.6,1.2-1.6,2.1-1.6c1.1,0,2.1,1.9,2.1,2.9c0,0.8-0.8,2.1-1.2,2.9l-4.2,7.8l0.1,0.1l8.5-6.1l0.3,2.4l-11.8,8.8
			c-5.9,9.4-10.8,12.9-13,12.9c-0.8,0-1.3-0.6-1.3-1.3c0-4,8.5-11.1,11.6-13.3L186.1,216.1z"/>
		<path d="M205.1,220.5c-1.1,0.8-4.6,3.8-5.9,3.8c-1.6,0-4.8-3.7-4.9-6.6c-0.2-7,14.3-14.2,20.8-14.3c2.6-0.1,3.6,2,3.6,2.7
			s-1.5,1.2-2,1.4c1.1,0.4,1.6,1.1,1.6,2.3c0,1.8-4.9,5.7-4.9,8.3c0,1,0.8,1.3,1.7,1.3c2.4,0,5.5-2.9,8-4.5l0.4,2.1
			c-2.4,2.7-9.9,8.7-12.7,8.7c-1.8,0-2.7-1.3-2.7-3c0-1.8,1.3-4.8,2.1-6.3l-0.1-0.1L205.1,220.5z M198.3,219
			c0.1,0.3,0.3,1.3,1.1,1.1c1.1-0.2,2.9-0.1,13.9-11.3l-0.1-0.1C200,212.8,198.3,216.3,198.3,219z"/>
		<path d="M227.2,212.1c-2,3.1-4.3,4.5-6.7,6.9l-0.2-2.5c1.5-1.2,2.6-2.6,3.7-4.1c-1.2-0.1-1.5-0.6-1.5-1.7c0-4,5.7-8.1,7.1-8.1
			c0.6,0,1,0.4,1,1c0,0.6-0.2,1.1-0.4,1.6c5.3-0.7,8.3-1.4,8.9-0.7c0.8,1.1,1.2,2,1.3,3c0,1.7-1.1,2.6-2.4,3.6
			c-1.6,1.4-4.4,4.1-4.4,6.4c0,0.9,0.9,1.6,1.7,1.6c2.4,0,5.9-3.6,7.8-5l0.4,2.1c-2.1,2.4-8.6,8.6-11.8,8.6c-2.4,0-3.8-2.2-3.8-4.3
			c0-3.8,2.9-6.8,5.2-9.5l-0.1-0.1L227.2,212.1z"/>
		<path d="M262.2,214.6l0.6,2.1c-3.4,3.4-9.5,8.5-14,8.3c-3.8-0.2-7.9-2.3-8.9-6.4c-0.3,0.3-0.7,0.7-1.2,0.7c-0.6,0-1-0.6-1-1.1
			c0-0.7,0.9-1.5,1.3-2l12.2-11.1c0.1-1.8,1.2-3.6,3.2-3.6c1.7,0,2,0.5,2.2,2.1c0.2,2.1,1.1,4,1.1,6.5c0,4.6-3.7,8-7.3,10.2
			c3.6,0.6,5.8-1.1,8.5-3.1L262.2,214.6z M243.2,215.8c2.1,0.1,3.3,1.8,4.4,3.3c3.4-2.1,4.3-3,4.4-6.3c-0.2-1.2-0.4-2.7-0.7-4.6
			L243.2,215.8z"/>
	</g>
</g>
</svg>
