<?xml version="1.0" encoding="utf-8"?>
<!-- Generator: Adobe Illustrator 18.0.0, SVG Export Plug-In . SVG Version: 6.00 Build 0)  -->
<!DOCTYPE svg PUBLIC "-//W3C//DTD SVG 1.1//EN" "http://www.w3.org/Graphics/SVG/1.1/DTD/svg11.dtd">
<svg version="1.1" id="Basketball" xmlns="http://www.w3.org/2000/svg" xmlns:xlink="http://www.w3.org/1999/xlink" x="0px" y="0px"
	 viewBox="0 0 300 300" enable-background="new 0 0 300 300" xml:space="preserve">
<g id="Black_22_">
	<path id="path2226" d="M244.531,9.469c-11.842,0-21.469,9.596-21.469,21.438c0,11.842,9.627,21.469,21.469,21.469
		c11.842,0,21.438-9.627,21.438-21.469C265.969,19.065,256.373,9.469,244.531,9.469z M244.687,15.094
		c8.639,0,15.656,7.018,15.656,15.656c0,8.639-7.018,15.625-15.656,15.625s-15.625-6.986-15.625-15.625
		C229.062,22.111,236.049,15.094,244.687,15.094z"/>
	<path id="path2224" d="M140.207,51.201c0,12.215-9.901,22.117-22.116,22.117c-12.214,0-22.116-9.902-22.116-22.117
		c0-12.214,9.902-22.116,22.116-22.116C130.306,29.085,140.207,38.986,140.207,51.201z"/>
	<path id="path2257" fill="#050505" d="M163.268,55.308c24.356-13.46,44.583-32.778,64.926-51.456
		c-5.428,12.071-11.576,23.988-20.178,34.144c-13.311,16.174-27.263,32.945-46.075,42.879c-6.02,3.773-15.622-1.371-14.003-8.929
		C148.559,63.581,157.098,59.37,163.268,55.308z"/>
	<path id="path2285" fill="#050505" d="M114.409,163.499c7.038-2.082,12.757,6.1,11.503,12.524
		c-0.278,19.371-10.91,36.581-19.746,53.174c-13.504,21.313-25.218,43.834-40.404,64.035c4.481-17.344,10.424-34.279,14.727-51.674
		c5.837-22.551,10.918-45.658,21.483-66.594C104.542,169.959,108.218,164.054,114.409,163.499z"/>
	<path id="path2281" fill="#050505" d="M161.668,125.624c4.421-1.769,9.961-1.319,12.965,2.709
		c4.449,5.966,5.059,13.933,4.906,21.116c-3.985,31.869-24.323,58.228-44.608,81.825c5.137-15.292,13.708-29.357,17.032-45.267
		c1.504-6.264,2.196-12.673,3.137-19.034c-2.758,2.645-5.152,5.816-8.506,7.729c-4.791,1.861-9.916-1.158-11.495-5.718
		c-3.148-6.301-1.555-13.673,1.056-19.864C141.389,138.612,150.166,129.082,161.668,125.624z"/>
	<path id="path2277" fill="#050505" d="M66.355,101.372c7.655-6.522,15.9-14.563,26.703-14.344
		c5.555-0.394,10.218,5.929,8.245,11.131c-1.204,4.691-5.997,6.881-9.445,9.72c-16.222,10.872-33.071,21.137-47.095,34.883
		c-9.298,8.942-16.651,19.891-27.268,27.433C27.727,143.695,45.589,120.542,66.355,101.372z"/>
	<path id="path2273" fill="#050505" d="M219.287,55.863c20.326-1.387,40.752-1.31,61.09-0.136
		c-1.447,7.138-3.81,14.044-5.379,21.151c-1.443,7.699-1.994,15.536-3.479,23.228c-1.683-0.044-3.36-0.088-5.036-0.133
		c-0.608-13.237,2.14-26.268,5.861-38.888c-15.045-0.127-30.088-0.098-45.129-0.117c3.365,11.717,6.016,23.765,5.753,36.029
		c0.223,2.594-3.171,2.744-4.789,3.92c-1.356-9.276-1.807-18.731-4.33-27.8C222.332,67.37,220.039,61.794,219.287,55.863z"/>
</g>
</svg>
