<?xml version="1.0" encoding="utf-8"?>
<!-- Generator: Adobe Illustrator 18.0.0, SVG Export Plug-In . SVG Version: 6.00 Build 0)  -->
<!DOCTYPE svg PUBLIC "-//W3C//DTD SVG 1.1//EN" "http://www.w3.org/Graphics/SVG/1.1/DTD/svg11.dtd">
<svg version="1.1" id="Cheerleading" xmlns="http://www.w3.org/2000/svg" xmlns:xlink="http://www.w3.org/1999/xlink" x="0px"
	 y="0px" viewBox="0 0 300 300" enable-background="new 0 0 300 300" xml:space="preserve">
<g id="Black_21_">
	<g>
		<circle cx="105.3" cy="83.8" r="21.6"/>
		<path d="M139.6,107.5c-13.2,0.2-9.7-25.04-7.6-51.79c1.9-24.88,3.7-51.638,5.4-51.848c1.7-0.209,6.2,26.178,9.9,51.368
			C151.1,81.03,155.2,107.4,139.6,107.5z"/>
		<path d="M150.2,108.2c-0.2-13.18,25-9.7,51.8-7.6c24.9,1.9,51.6,3.7,51.8,5.4c0.3,1.7-26.1,6.2-51.3,9.9
			C176.7,119.7,150.3,123.8,150.2,108.2z"/>
		<path d="M137.8,175.8c-13.4-12.5-33.4,18.8-55.09,49.101c-20.16,28.1-44.93,60-43.3,61.699c1.63,1.801,30.92-25.1,57.39-48.6
			C123.9,214,149.2,186.3,137.8,175.8z"/>
		<path d="M147.6,175.8c13.4-12.5,33.5,18.8,55.101,49.101c20.2,28.1,45,60,43.3,61.699c-1.6,1.801-30.9-25.1-57.3-48.6
			C161.6,214,136.3,186.3,147.6,175.8z"/>
	</g>
</g>
</svg>
