<?xml version="1.0" encoding="utf-8"?>
<!-- Generator: Adobe Illustrator 18.0.0, SVG Export Plug-In . SVG Version: 6.00 Build 0)  -->
<!DOCTYPE svg PUBLIC "-//W3C//DTD SVG 1.1//EN" "http://www.w3.org/Graphics/SVG/1.1/DTD/svg11.dtd">
<svg version="1.1" id="CrossCountry" xmlns="http://www.w3.org/2000/svg" xmlns:xlink="http://www.w3.org/1999/xlink" x="0px"
	 y="0px" viewBox="0 0 300 300" enable-background="new 0 0 300 300" xml:space="preserve">
<g id="Black_20_">
	<path d="M108.42,37.727c10.115-4.038,21.298-1.269,30.866,2.97c10.676,5.017,21.583,12.316,25.963,23.775
		c1.965,4.676,0.675,10.132-2.701,13.797c-2.655,2.269-6.434,1.636-9.616,1.315c-7.226-1.551-11.648-7.978-17.264-12.188
		c-4.867-4.284-10.048-8.922-16.636-10.107c-5.877-0.971-10.982,2.918-14.749,6.952c-5.669,6.993-9.25,15.397-12.042,23.882
		c-1.814,7.4-5.674,14.461-5.209,22.271c-0.552-7.204-2.607-14.216-2.804-21.455c-0.368-9.334,0.816-18.72,3.16-27.745
		C91.687,51.522,98.331,41.949,108.42,37.727z"/>
	<path d="M200.644,43.913c7.322-0.85,15.021,2.023,19.936,7.537c3.334,4.104,5.572,9.274,5.537,14.615
		c-0.646,6.494-3.914,12.911-9.367,16.643c-6.428,4.556-15.215,5.505-22.447,2.347c-10.746-4.083-17.005-17.916-11.48-28.365
		C185.93,49.582,193.094,44.957,200.644,43.913z"/>
	<path d="M276.881,81.662c0.434-0.024,0.871-0.035,1.313-0.027c-0.185,3.852,0.82,7.701,0.185,11.538
		c-1.017,6.596-3.673,12.791-6.55,18.764c-6.32,14.098-18.271,25.74-32.762,31.219c-6.651,2.346-14.543,2.166-20.537-1.84
		c-9.694-6.33-17.318-15.982-20.652-27.125c-2.111-6.018-2.184-13.245,1.445-18.699c1.814-2.39,4.266-5.059,7.545-4.88
		c3.388,0.313,6.416,2.348,8.462,5c4.817,6.323,5.825,14.547,9.796,21.298c3.322,4.354,8.693,9.526,14.633,6.979
		c7.157-3.026,13.182-8.173,19-13.22c7.358-6.328,12.479-14.775,16.567-23.473C276.146,85.451,276.719,83.591,276.881,81.662z"/>
	<path d="M98.079,122.092c4.257-3.605,10.544-3.255,15.495-1.452c4.974,2.115,10.214,3.749,14.755,6.757
		c7.051,4.518,13.789,9.584,19.817,15.404c6.811,5.506,13.136,11.648,18.556,18.54c4,4.705,8.176,10.202,7.86,16.718
		c-2.955,9.494-11.09,16.436-19.553,21.082c-11.225,5.707-23.744,7.971-35.74,11.474c-5.188,1.675-10.634,2.284-16.029,2.864
		c-6.109,0.33-12.251,1.592-18.356,0.511c3.912-2.845,8.648-4.108,12.948-6.214c12.347-5.33,23.968-12.164,35.998-18.153
		c5.096-2.468,10.087-5.611,13.001-10.634c-0.156-1.105-0.308-2.205-0.455-3.305c-3.425-3.467-7.653-5.943-12.011-8.045
		c-5.085,4.203-10.947,7.4-15.631,12.094c-12.854,9.566-27.063,17.067-40.752,25.346c-18.428,10.355-35.862,22.431-54.64,32.177
		c-1.094,0.394-2.215,0.697-3.362,0.916c7.211-7.856,15.608-14.544,22.708-22.509c10.246-10.732,20.492-21.471,31.182-31.764
		c11.29-10.871,22.263-22.063,32.726-33.733c-4.413-4.08-10.111-7.839-11.452-14.096C93.871,131.336,94.621,125.746,98.079,122.092z
		"/>
	<path d="M285.728,182.701c-3.731,4.563-6.582,10.008-11.424,13.554c-3.625,2.3-7.961,3.199-11.502,5.658
		c-6.13,4.204-12.269,8.392-18.391,12.603c-1.803,1.334-3.983,1.95-6.156,2.348c-12.16,2.188-25.142-1.493-36.785,3.67
		c-7.443,2.765-13.693,8.252-21.578,9.857c-15.699,3.731-31.39-4.861-47.129-1.298c-15.027,2.779-25.22,15.886-39.794,19.773
		c-3.529,1.017-7.283,1.567-10.927,0.862c-6.993-1.227-14.096-1.515-21.117-2.521c-10.628-0.987-21.27-2.358-31.967-1.956
		C18.947,245.333,9.057,247.923,0,252.114v7.29c12.489-7.704,27.78-9.022,42.104-7.787c11.656,1.12,23.332,2.104,34.94,3.656
		c4.995,0.9,10.14,1.313,15.132,0.123c15.823-2.859,26.619-16.973,42.239-20.34c10.266-2.172,20.36,1.566,30.571,2.174
		c5.679,0.244,11.506,0.578,17.033-1.03c9.722-2.199,17.334-9.655,27.149-11.568c10.981-2.432,22.472,0.56,33.373-2.456
		c4.511-1.068,7.896-4.416,11.689-6.855c5.9-3.829,11.242-8.702,17.984-11.058c7.739-2.598,12.576-9.595,16.998-16.009
		c2.576-3.855,6.785-6.002,10.781-8.065v-6.729C294.814,175.77,289.473,178.283,285.728,182.701z"/>
</g>
</svg>
