<?xml version="1.0" encoding="utf-8"?>
<!-- Generator: Adobe Illustrator 18.0.0, SVG Export Plug-In . SVG Version: 6.00 Build 0)  -->
<!DOCTYPE svg PUBLIC "-//W3C//DTD SVG 1.1//EN" "http://www.w3.org/Graphics/SVG/1.1/DTD/svg11.dtd">
<svg version="1.1" id="Diving" xmlns="http://www.w3.org/2000/svg" xmlns:xlink="http://www.w3.org/1999/xlink" x="0px" y="0px"
	 viewBox="0 0 300 300" enable-background="new 0 0 300 300" xml:space="preserve">
<g id="Black_19_">
	<path d="M117.726,178.221c1.494,3.236,2.299,7.314,5.506,9.322c-0.726-16.253-4.121-32.314-6.186-48.462
		c-4.128-28.273-7.81-56.752-16.081-84.19c-2.264-7.196-3.01-15.523-8.642-21.077c-5.36-4.727-13.7-0.617-16.417,5.118
		c-3.661,7.742-1.76,16.641,0.393,24.545C88.178,102.4,103.745,140.029,117.726,178.221z"/>
	<path d="M126.637,185.447c0.381,0.129,1.145,0.388,1.527,0.517c0.532-4.456,2.288-8.626,3.002-13.044
		c3.553-18.67,7.569-37.258,10.655-56.014c1.767-10.887,2.25-21.917,2.893-32.91c0.197-4.131-0.028-8.735-2.8-12.056
		c-4.126-4.445-12.126-3.352-15.381,1.603c-2.881,3.888-3.628,8.822-3.912,13.528c-1.108,28.99,1.848,57.917,2.68,86.878
		C125.371,177.815,125.682,181.688,126.637,185.447z"/>
	<path d="M73.891,208.424c-23.293-0.105-46.595-0.011-69.89-0.043v6c24.084-0.063,48.171,0.125,72.254-0.096
		C78.198,211.992,77.371,208.104,73.891,208.424z"/>
	<path d="M281.99,238.739c-12.891,2.565-21.861,14.261-35.034,16.046c-10.323,1.9-19.42-4.479-28.427-8.405
		c-9.453-4.844-20.195-8.837-30.953-6.508c-9.317,1.724-17.324,7.112-26.042,10.511c-7.09,3.299-15.395,5.021-23.047,2.758
		c-8.97-2.777-16.691-9.033-26.232-10.047c-11.529-1.451-22.646,2.944-33.235,6.911c-1.884,0.839-4.856,1.378-4.788,4.021
		c-0.576,2.509,2.838,3.32,4.66,2.652c10.011-3.375,19.981-8.195,30.794-7.719c10.069,0.896,18.226,7.555,27.723,10.313
		c4.992,1.307,10.262,1.127,15.338,0.438c14.521-2.491,26.244-13.594,41.217-14.362c12.86-0.076,23.281,8.494,34.907,12.693
		c8.479,4.135,18.678,4.207,27.332,0.551c8.672-3.091,15.459-9.852,24.125-12.941c1.966-0.832,4.605-0.545,5.924-2.494
		C287.573,240.532,284.603,237.75,281.99,238.739z"/>
	<circle cx="168.968" cy="102.345" r="22"/>
</g>
</svg>
