<?xml version="1.0" encoding="utf-8"?>
<!-- Generator: Adobe Illustrator 18.0.0, SVG Export Plug-In . SVG Version: 6.00 Build 0)  -->
<!DOCTYPE svg PUBLIC "-//W3C//DTD SVG 1.1//EN" "http://www.w3.org/Graphics/SVG/1.1/DTD/svg11.dtd">
<svg version="1.1" xmlns="http://www.w3.org/2000/svg" xmlns:xlink="http://www.w3.org/1999/xlink" x="0px" y="0px"
	 viewBox="0 0 300 300" enable-background="new 0 0 300 300" xml:space="preserve">
<g id="FieldHockey">
	<g id="Black_18_">
		<path d="M250.457,246.646c-2.139,2.158-4.124,4.614-7.463,4.696c-2.473-0.77-5.09-1.497-7.059-3.27
			c-3.002-2.68-4.453-6.536-6.031-10.127c-9.207-23.041-18.125-46.203-27.418-69.204c-0.979-0.765-1.911-1.616-2.422-2.767
			c-4.739-8.295-8.142-17.404-9.514-26.876c-1.007-8.525,0.534-17.064,1.223-25.552c0.699-9.297,4.541-18.222,3.959-27.632
			c-0.465-5.597-7.191-10.814-12.478-7.52c-4.813,2.859-6.553,8.594-7.634,13.747c-2.958,13.518-4.219,27.859-0.364,41.333
			c1.285,5.05,3.322,10.144,6.833,14.057c-2.979,1.066-2.229-2.396-3.097-3.881c-3.351-6.261-6.573-12.739-7.769-19.811
			c-1.343-7.923-2.676-15.853-3.879-23.797c-1.334-10.685,3.148-22.2-2.145-32.245c-1.13-3.112-4.526-3.89-7.199-5.158
			c-3.118,0.877-6.517,1.992-8.314,4.909c-4.041,6.015-3.688,13.611-3.506,20.533c1.083,13.666,2.625,27.612,8.266,40.264
			c6.123,14.158,17.006,25.562,28.529,35.518c4.197,3.785,9.396,6.061,14.133,9.018c1.365,2.396,2.137,5.075,3.215,7.608
			c8.283,21.152,16.763,42.23,24.951,63.42c3.361,7.174,10.276,13.757,18.768,12.955c5.131,0.613,9.752-3.34,11.291-8.018
			C254.646,246.918,252.419,245.023,250.457,246.646z"/>
		<path d="M148.076,133.833c-2.924-7.364-7.121-14.738-14.116-18.907c-4.671-2.372-11.351-3.39-14.966,1.332
			c-3.209,3.695-1.286,9.067-3.828,12.993c-1.297-6.519-3.207-13.069-6.782-18.731c-2.994-4.947-7.625-9.184-13.57-9.929
			c-3.804,2.056-6.824,5.589-7.461,9.97c-1.774,9.7,1.794,19.232,3.958,28.56c1.735,6.157,2.583,12.509,3.494,18.826
			c0.26,2.063,0.119,4.589-1.72,5.924c-8.338,7.65-20.338,8.531-31.092,8.967c-8.99,0.482-17.462-2.938-26.161-4.544
			c1.32,3.071,4.439,4.813,6.626,7.235c4.405,4.707,10.773,6.563,16.75,8.367c10.212,3.186,21.099,4.601,31.746,3.24
			c8.032-1.052,14.997-5.968,20.222-11.941c3.676-4.605,4.955-10.588,5.68-16.305c0.96-9.832,0.736-19.889-1.592-29.523
			c2.424-0.791,2.021,2.336,2.59,3.846c3.752,14.995,15.982,26.416,18.466,41.854c1.219,8.283,2.501,16.726,1.308,25.093
			c-0.936,9.118-4.408,17.69-8.198,25.952c-6.081,12.607-12.884,25-21.621,35.976c3.158-0.821,5.317-3.496,7.674-5.571
			c9.238-10.054,20.793-18.354,27.309-30.63c6.222-13.041,12.829-26.342,14.376-40.907c1.047-11.117-1.258-22.182-3.715-32.968
			C151.836,145.902,150.685,139.628,148.076,133.833z"/>
		<path d="M247.87,243.865c4.761,0,8.62-3.859,8.62-8.62c0-4.761-3.859-8.62-8.62-8.62c-4.761,0-8.62,3.859-8.62,8.62
			C239.25,240.006,243.109,243.865,247.87,243.865z M247.87,232.625c1.444,0,2.62,1.176,2.62,2.62c0,1.444-1.176,2.62-2.62,2.62
			c-1.444,0-2.62-1.176-2.62-2.62C245.25,233.801,246.426,232.625,247.87,232.625z"/>
		<circle cx="196.408" cy="51.365" r="22"/>
	</g>
</g>
</svg>
