<?xml version="1.0" encoding="utf-8"?>
<!-- Generator: Adobe Illustrator 18.0.0, SVG Export Plug-In . SVG Version: 6.00 Build 0)  -->
<!DOCTYPE svg PUBLIC "-//W3C//DTD SVG 1.1//EN" "http://www.w3.org/Graphics/SVG/1.1/DTD/svg11.dtd">
<svg version="1.1" xmlns="http://www.w3.org/2000/svg" xmlns:xlink="http://www.w3.org/1999/xlink" x="0px" y="0px"
	 viewBox="0 0 300 300" enable-background="new 0 0 300 300" xml:space="preserve">
<g id="Football">
	<g id="Black_16_">
		<g>
			<g id="surface0">
				<path fill="none" stroke="#000000" stroke-width="0.1" stroke-miterlimit="10" d="M135.709,27.938
					c5.609-0.752,11.406,1.083,15.914,4.42c5.193,3.894,7.9,10.298,8.531,16.621c-0.295,8.417-5.155,16.962-13.223,20.111
					c-7.173,3.311-15.957,1.923-22.096-2.922c-5.224-4.494-8.544-11.351-8.015-18.312C117.559,37.872,125.731,29.145,135.709,27.938
					z"/>
				<path d="M135.709,27.938c5.609-0.752,11.406,1.083,15.914,4.42c5.193,3.894,7.9,10.298,8.531,16.621
					c-0.295,8.417-5.155,16.962-13.223,20.111c-7.173,3.311-15.957,1.923-22.096-2.922c-5.224-4.494-8.544-11.351-8.015-18.312
					C117.559,37.872,125.731,29.145,135.709,27.938z"/>
				<path fill="none" stroke="#000000" stroke-width="0.1" stroke-miterlimit="10" d="M77.708,63.875
					c7.386-2.163,15.97-1.732,22.092,3.353c1.917,2.876,3.946,6.594,2.431,10.088c-1.416,3.29-4.979,4.698-8.044,6.012
					c-7.894,2.683-16.457,3.841-23.707,8.161c-5.154,3.08-6.941,9.597-5.855,15.241c0.5,6.843,5.978,11.954,11.813,14.8
					c4.678,2.798,10.345,2.349,15.574,2.216c4.266-0.208,8.066-2.58,12.318-2.738c-0.103,2.978-2.86,4.734-5.127,6.142
					c-7.209,3.908-15.691,4.301-23.712,3.991c-4.148-0.199-8.006-1.968-11.519-4.065c-5.816-3.631-12.024-7.484-15.131-13.878
					c-5.994-12.084-2.534-27.284,6.337-37.039C61.017,69.554,69.544,66.487,77.708,63.875z"/>
				<path d="M77.708,63.875c7.386-2.163,15.97-1.732,22.092,3.353c1.917,2.876,3.946,6.594,2.431,10.088
					c-1.416,3.29-4.979,4.698-8.044,6.012c-7.894,2.683-16.457,3.841-23.707,8.161c-5.154,3.08-6.941,9.597-5.855,15.241
					c0.5,6.843,5.978,11.954,11.813,14.8c4.678,2.798,10.345,2.349,15.574,2.216c4.266-0.208,8.066-2.58,12.318-2.738
					c-0.103,2.978-2.86,4.734-5.127,6.142c-7.209,3.908-15.691,4.301-23.712,3.991c-4.148-0.199-8.006-1.968-11.519-4.065
					c-5.816-3.631-12.024-7.484-15.131-13.878c-5.994-12.084-2.534-27.284,6.337-37.039C61.017,69.554,69.544,66.487,77.708,63.875z
					"/>
				<path fill="none" stroke="#000000" stroke-width="0.1" stroke-miterlimit="10" d="M154.501,73.707
					c1.079-0.584,2.237-0.912,3.475-0.984c21.44-0.625,42.76,2.389,63.873,5.841c15.21,2.599,30.544,4.428,45.77,6.903
					c0.748,1.864-2.445,1.671-3.57,2.198c-24.506,3.485-49.292,4.094-73.979,5.48c-8.992,0.102-17.988,0.678-26.979,0.191
					c-4.705-0.327-9.841-1.833-12.842-5.695C146.871,82.955,149.674,76.153,154.501,73.707z"/>
				<path d="M154.501,73.707c1.079-0.584,2.237-0.912,3.475-0.984c21.44-0.625,42.76,2.389,63.873,5.841
					c15.21,2.599,30.544,4.428,45.77,6.903c0.748,1.864-2.445,1.671-3.57,2.198c-24.506,3.485-49.292,4.094-73.979,5.48
					c-8.992,0.102-17.988,0.678-26.979,0.191c-4.705-0.327-9.841-1.833-12.842-5.695C146.871,82.955,149.674,76.153,154.501,73.707z
					"/>
				<g>
					<path d="M96.674,87.979c3.651,0,7.299,0.609,10.709,1.822c4.505,1.858,8.272,5.036,12.029,8.062
						c-1.307,9.05-8.023,17.218-16.883,19.755c-3.133,1.32-6.466,1.625-9.815,1.625c-1.865,0-3.734-0.094-5.577-0.16
						c-6.755-1.242-12.693-5.212-17.796-9.649c1.625-4.728,3.091-9.78,6.623-13.492C81.458,90.62,89.072,87.98,96.674,87.979
						 M96.675,92.979C96.674,92.979,96.674,92.979,96.675,92.979c-6.613,0-12.859,2.361-17.157,6.48
						c-2.001,2.14-3.208,5.098-4.33,8.316c4.44,3.448,8.56,5.527,12.518,6.326l0.885,0.033c1.429,0.056,2.779,0.108,4.123,0.108
						c3.424,0,5.852-0.38,7.874-1.232l0.277-0.117l0.289-0.083c5.941-1.702,10.878-6.851,12.719-12.991
						c-2.721-2.169-5.377-4.131-8.282-5.35C102.765,93.481,99.766,92.979,96.675,92.979L96.675,92.979z"/>
				</g>
				<path fill="none" stroke="#000000" stroke-width="0.1" stroke-miterlimit="10" d="M89.555,142.724
					c8.434-4.452,18.034,0.25,25.649,4.312c4.229-2.854,9.524-4.887,14.655-3.598c4.44,1.239,7.31,5.328,8.821,9.456
					c0.998,3.52-1.058,6.729-2.616,9.704c6.281,6.408,12.217,13.459,15.594,21.873c3.68,9.916-0.072,21.463-7.806,28.381
					c-6.924,6.119-13.784,12.48-21.829,17.122c-8.743,4.793-18.221,8.864-28.132,10.145c4.46-4.734,10.246-7.98,14.874-12.548
					c6.003-5.296,11.119-11.509,15.767-18.004c3.385-4.891,6.505-10.239,7.045-16.293c-2.169-4.983-6.929-7.782-10.875-11.179
					c-5.996,7.16-11.934,14.403-18.748,20.815c-11.779,10.942-24.62,20.647-36.96,30.937c-13.131,10.563-26.014,21.44-39.269,31.844
					c-0.993-1.783,0.792-2.996,1.64-4.265c23.061-27.893,44.325-57.189,66.219-85.992c1.433-1.931,2.662-4,3.898-6.059
					c-5.839-3.695-12.259-8.715-12.688-16.207C84.933,149.346,85.416,144.299,89.555,142.724z"/>
				<path d="M89.555,142.724c8.434-4.452,18.034,0.25,25.649,4.312c4.229-2.854,9.524-4.887,14.655-3.598
					c4.44,1.239,7.31,5.328,8.821,9.456c0.998,3.52-1.058,6.729-2.616,9.704c6.281,6.408,12.217,13.459,15.594,21.873
					c3.68,9.916-0.072,21.463-7.806,28.381c-6.924,6.119-13.784,12.48-21.829,17.122c-8.743,4.793-18.221,8.864-28.132,10.145
					c4.46-4.734,10.246-7.98,14.874-12.548c6.003-5.296,11.119-11.509,15.767-18.004c3.385-4.891,6.505-10.239,7.045-16.293
					c-2.169-4.983-6.929-7.782-10.875-11.179c-5.996,7.16-11.934,14.403-18.748,20.815c-11.779,10.942-24.62,20.647-36.96,30.937
					c-13.131,10.563-26.014,21.44-39.269,31.844c-0.993-1.783,0.792-2.996,1.64-4.265c23.061-27.893,44.325-57.189,66.219-85.992
					c1.433-1.931,2.662-4,3.898-6.059c-5.839-3.695-12.259-8.715-12.688-16.207C84.933,149.346,85.416,144.299,89.555,142.724z"/>
			</g>
		</g>
	</g>
</g>
</svg>
