<?xml version="1.0" encoding="utf-8"?>
<!-- Generator: Adobe Illustrator 18.0.0, SVG Export Plug-In . SVG Version: 6.00 Build 0)  -->
<!DOCTYPE svg PUBLIC "-//W3C//DTD SVG 1.1//EN" "http://www.w3.org/Graphics/SVG/1.1/DTD/svg11.dtd">
<svg version="1.1" xmlns="http://www.w3.org/2000/svg" xmlns:xlink="http://www.w3.org/1999/xlink" x="0px" y="0px"
	 viewBox="0 0 300 300" enable-background="new 0 0 300 300" xml:space="preserve">
<g id="Gymnastics">
	<g id="Black_14_">
		<path d="M242.877,8.914c-14.088,12.23-28.292,24.328-42.548,36.362c-20.063,16.949-39.824,35.173-52.834,58.305
			c-2.341,4.735-2.097,12.168,3.404,14.562c7.348,2.1,15.379-1.442,19.969-7.296c22.044-26.027,41.151-54.333,60.896-82.097
			c5.353-8.016,12.459-14.918,16.586-23.705C245.994,5.458,244.518,7.384,242.877,8.914z"/>
		<path d="M140.662,113.604c1.64-4.645,0.402-9.736-1.252-14.2c-2.846-7.184-8.792-12.348-13.938-17.864
			c-21.47-22.579-45.776-42.186-68.282-63.684c-4.535-3.959-8.345-8.95-13.769-11.755c0.178,2.716,2.467,4.458,3.829,6.607
			c8.762,13.244,17.919,26.229,26.433,39.638c15.038,22.679,30.429,45.927,52.195,62.787c2.162,1.466,4.162,3.935,7.039,3.59
			C136.281,119.001,139.63,116.824,140.662,113.604z"/>
		<path d="M154.193,189.781c-1.5-3.092-4.726-5.012-8.068-5.429c-4.312,1.224-8.241,4.448-9.73,8.757
			c-1.161,3.747-1.58,7.713-1.548,11.628c0.916,13.774,2.991,27.431,5.189,41.049c2.458,14.2,4.887,28.415,7.966,42.497
			c1.023-0.426,1.568-1.16,1.633-2.203c3.359-27.271,5.12-54.701,6.267-82.139C155.849,199.209,156.445,194.14,154.193,189.781z"/>
		<circle cx="180.969" cy="208.352" r="22"/>
	</g>
</g>
</svg>
