<?xml version="1.0" encoding="utf-8"?>
<!-- Generator: Adobe Illustrator 18.0.0, SVG Export Plug-In . SVG Version: 6.00 Build 0)  -->
<!DOCTYPE svg PUBLIC "-//W3C//DTD SVG 1.1//EN" "http://www.w3.org/Graphics/SVG/1.1/DTD/svg11.dtd">
<svg version="1.1" xmlns="http://www.w3.org/2000/svg" xmlns:xlink="http://www.w3.org/1999/xlink" x="0px" y="0px"
	 viewBox="0 0 300 300" enable-background="new 0 0 300 300" xml:space="preserve">
<g id="IceHockey">
	<g id="Black_13_">
		<path id="rect2258" d="M257.113,263.17h14.174c0.756,0,1.367,0.612,1.367,1.367v4.974c0,0.755-0.611,1.368-1.367,1.368h-14.174
			c-0.756,0-1.368-0.613-1.368-1.368v-4.974C255.745,263.782,256.357,263.17,257.113,263.17z"/>
		<path id="path2236" d="M202.099,42.214c0.007,12.042-9.749,21.81-21.791,21.817c-12.042,0.007-21.81-9.749-21.817-21.791
			c0-0.009,0-0.018,0-0.026c-0.007-12.042,9.749-21.81,21.791-21.817c12.042-0.007,21.81,9.749,21.817,21.791
			C202.099,42.196,202.099,42.205,202.099,42.214z"/>
		<path id="path2261" fill="#050505" d="M35.437,152.808c2.006,0.735,3.999,1.505,5.991,2.28
			c-5.024,8.353-11.731,15.818-15.104,25.076c0.047,2.497,1.248,4.766,2.142,7.043c-1.439,1.523-2.884,3.042-4.374,4.519
			c-2.025-4.387-5.185-9.013-3.482-14.078C24.054,168.555,30.385,161,35.437,152.808z"/>
		<path id="path2265" fill="#050505" d="M94.23,245.094c5.911,5.348,11.755,10.801,18.187,15.53
			c3.425,2.329,7.84,0.816,11.666,1.778c1.683,1.076,2.633,2.965,3.882,4.479c-5.544,1.201-11.827,3.863-16.975,0.117
			c-7.872-4.642-13.868-11.685-20.931-17.378C91.447,248.107,92.839,246.602,94.23,245.094z"/>
		<path id="path2257_1_" fill="#050505" d="M93.472,126.555c0.047-8.545,7.468-16.314,14.517-16.883
			c2.729-0.221,4.788,3.736,7.168,5.628c5.079-1.393,11.041-3.574,15.783-0.229c9.041,5.547,12.158,16.41,15.134,25.887
			c3.876,14.004,9.427,28.12,7.648,42.946c-3.564,13.424-9.87,26.277-19.14,36.701c-8.859,9.884-18.814,18.773-29.485,26.658
			c12.697-16.585,25.214-34.784,28.333-55.924c2.352-15.413-5.873-29.555-12.721-42.633c-1.436,13.275-3.571,27.314-11.641,38.379
			c-5.628,6.791-14.775,9.172-23.233,7.193c-17.705-4.578-34.492-14.252-45.328-29.267c13.432,3.929,26.163,10.714,40.474,11.079
			c4.105,0.507,10.193,0.69,12.018-4.055C96.699,157.072,92.563,141.678,93.472,126.555z"/>
		<path id="path2253" fill="#050505" d="M140.16,54.842c4.077-1.548,9.02,0.315,10.789,4.179c4.748,8.693,1.769,19.051,2.794,28.391
			c2.184,14.266,5.002,29.151,14.043,40.869c-5.982-15.855-9.344-33.707-3.627-50.144c1.652-3.365,3.094-7.283,7.817-8.11
			c5.848-1.024,11.413,3.883,10.81,9.972c-1.135,18.118-6.843,37.605,1.344,54.848c18.953,37.562,36.729,75.72,55.865,113.195
			c0.66,1.462,1.639,3.134,3.39,3.418c7.458,0.804,15.415,0.265,23.261,0.222c0.02,2.805,0.103,6.277,0.123,9.104
			c-6.871,0.149-13.75,0.405-20.605-0.095c-6.306-1.475-10.545-7.098-13.236-12.636c-14.906-29.564-28.885-59.58-43.859-89.108
			c-1.67-2.834-2.913-6.362-6.143-7.777c-12.311-6.011-23.262-14.561-32.422-24.712c-14.503-16.603-19.311-39.536-18.006-61.045
			C133.405,61.042,135.603,56.573,140.16,54.842z"/>
	</g>
</g>
</svg>
