<?xml version="1.0" encoding="utf-8"?>
<!-- Generator: Adobe Illustrator 18.0.0, SVG Export Plug-In . SVG Version: 6.00 Build 0)  -->
<!DOCTYPE svg PUBLIC "-//W3C//DTD SVG 1.1//EN" "http://www.w3.org/Graphics/SVG/1.1/DTD/svg11.dtd">
<svg version="1.1" xmlns="http://www.w3.org/2000/svg" xmlns:xlink="http://www.w3.org/1999/xlink" x="0px" y="0px"
	 viewBox="0 0 300 300" enable-background="new 0 0 300 300" xml:space="preserve">
<g id="IndoorTrack">
	<g id="Black_12_">
		<path d="M108.416,41.727c10.115-4.038,21.298-1.269,30.866,2.97c10.676,5.017,21.583,12.316,25.963,23.775
			c1.965,4.676,0.675,10.132-2.701,13.797c-2.655,2.269-6.434,1.636-9.616,1.315c-7.226-1.551-11.648-7.978-17.264-12.188
			c-4.867-4.284-10.048-8.922-16.636-10.107c-5.877-0.971-10.982,2.918-14.749,6.952c-5.669,6.993-9.25,15.397-12.042,23.882
			c-1.814,7.4-5.674,14.461-5.209,22.271c-0.552-7.204-2.607-14.216-2.804-21.455c-0.368-9.334,0.816-18.72,3.16-27.745
			C91.683,55.522,98.327,45.949,108.416,41.727z"/>
		<path d="M200.64,47.913c7.322-0.85,15.021,2.023,19.936,7.537c3.334,4.104,5.572,9.274,5.537,14.615
			c-0.646,6.494-3.914,12.911-9.367,16.643c-6.428,4.556-15.215,5.505-22.447,2.347c-10.746-4.083-17.005-17.916-11.48-28.365
			C185.925,53.582,193.089,48.957,200.64,47.913z"/>
		<path d="M276.877,85.662c0.434-0.024,0.871-0.035,1.313-0.027c-0.185,3.852,0.82,7.701,0.185,11.538
			c-1.017,6.596-3.673,12.791-6.55,18.764c-6.32,14.098-18.271,25.74-32.762,31.219c-6.651,2.346-14.543,2.166-20.537-1.84
			c-9.694-6.33-17.318-15.982-20.652-27.125c-2.111-6.018-2.184-13.245,1.445-18.699c1.814-2.39,4.266-5.059,7.545-4.88
			c3.388,0.313,6.416,2.348,8.462,5c4.817,6.323,5.825,14.547,9.796,21.298c3.322,4.354,8.693,9.526,14.633,6.979
			c7.157-3.026,13.182-8.173,19-13.22c7.358-6.328,12.48-14.775,16.567-23.473C276.142,89.451,276.714,87.591,276.877,85.662z"/>
		<path d="M98.075,126.092c4.257-3.605,10.544-3.255,15.495-1.452c4.974,2.115,10.214,3.749,14.755,6.757
			c7.051,4.518,13.789,9.584,19.817,15.404c6.811,5.506,13.136,11.648,18.556,18.54c4,4.705,8.176,10.202,7.86,16.718
			c-2.955,9.494-11.09,16.436-19.553,21.082c-11.225,5.707-23.744,7.971-35.74,11.474c-5.188,1.675-10.634,2.284-16.029,2.864
			c-6.109,0.33-12.251,1.592-18.356,0.511c3.912-2.845,8.648-4.108,12.948-6.214c12.347-5.33,23.968-12.164,35.998-18.153
			c5.096-2.468,10.087-5.611,13.001-10.634c-0.156-1.105-0.308-2.205-0.455-3.305c-3.425-3.467-7.653-5.943-12.011-8.045
			c-5.085,4.203-10.947,7.4-15.631,12.094c-12.854,9.566-27.063,17.067-40.752,25.346c-18.428,10.355-35.862,22.431-54.64,32.177
			c-1.094,0.394-2.215,0.697-3.362,0.916c7.211-7.856,15.608-14.544,22.708-22.509c10.246-10.732,20.492-21.471,31.182-31.764
			c11.29-10.871,22.263-22.063,32.726-33.733c-4.413-4.08-10.111-7.839-11.452-14.096C93.867,135.336,94.617,129.746,98.075,126.092
			z"/>
		<path d="M286.115,248.33c-95.359-0.105-190.754-0.011-286.121-0.043v6c98.597-0.063,197.207,0.125,295.8-0.096
			C303.75,251.898,300.363,248.01,286.115,248.33z"/>
	</g>
</g>
</svg>
