<?xml version="1.0" encoding="utf-8"?>
<!-- Generator: Adobe Illustrator 18.0.0, SVG Export Plug-In . SVG Version: 6.00 Build 0)  -->
<!DOCTYPE svg PUBLIC "-//W3C//DTD SVG 1.1//EN" "http://www.w3.org/Graphics/SVG/1.1/DTD/svg11.dtd">
<svg version="1.1" xmlns="http://www.w3.org/2000/svg" xmlns:xlink="http://www.w3.org/1999/xlink" x="0px" y="0px"
	 viewBox="0 0 300 300" enable-background="new 0 0 300 300" xml:space="preserve">
<g id="Baseball" display="none">
	<g id="Black_23_" display="inline">
		<g id="Black_1_">
			<path d="M185.98,90.826c7.348-3.196,7.668-14.781,1.408-19.221c-2.109-1.546-4.884-0.956-7.168-0.197
				c-15.902,4.824-32.438,9.078-49.201,7.394c-23.813-1.942-48.386-9.104-66.205-25.728c37.403-13.23,74.679-26.824,112.042-40.165
				c2.311-0.824,5.402-1.895,5.509-4.832c0.45-3.863-3.597-7.099-7.2-5.202c-40.59,14.479-81.112,29.181-121.698,43.659
				c-2.948,1.397-6.909,1.63-8.724,4.68c-1.219,2.756,0.474,5.703,2.843,7.16c4.783-0.159,9.1-2.418,13.555-3.907
				c6.042,11.408,16.48,19.621,27.599,25.748c16.824,8.93,35.316,14.902,54.313,16.727C157.536,97.838,172.674,97.22,185.98,90.826z
				"/>
			<path d="M137.662,30.91c-7.576,1.041-14.763,5.693-17.865,12.83c-5.442,10.382,0.702,24.067,11.311,28.24
				c7.269,3.229,16.136,2.337,22.621-2.256c5.484-3.739,8.762-10.194,9.398-16.716c0.003-5.325-2.22-10.477-5.554-14.568
				C152.662,32.936,144.977,30.07,137.662,30.91z"/>
			<path d="M232.087,250.119c-5.034-14.189-10.376-28.313-14.017-42.945c-3.993-14.078-4.81-28.754-7.295-43.113
				c-1.543-8.545-5.59-16.807-12.558-22.206c-3.936-0.235-8.139-1.281-11.868,0.532c-3.871,1.539-6.3,5.503-6.824,9.522
				c-1.17,7.961,0.065,16.131,2.57,23.73c4.454,15.991,10.977,31.307,17.832,46.393c7.17,14.792,14.377,29.711,23.86,43.188
				c7.464,9.25,14.97,18.473,22.396,27.754c0.793,1.105,1.844,1.967,3.015,2.666c0.002-0.617,0.008-1.853,0.01-2.473
				C243.064,278.996,237.891,264.43,232.087,250.119z"/>
			<path d="M156.771,156.783c-9.96,3.934-15.811,13.723-19.83,23.125c-8.401,20.525-14.577,41.932-18.817,63.691
				c-3.384,15.646-4.866,31.607-7.346,47.401c0.063,1.974-1.514,5.16,1.132,6.075c5.217-12.54,9.477-25.446,14.229-38.162
				c8.391-20.357,16.489-41.232,29.86-58.953c5.654-7.771,11.816-15.546,14.643-24.883c1.349-5.707,3.223-12.739-1.067-17.665
				C166.18,153.705,160.871,155.482,156.771,156.783z"/>
		</g>
	</g>
</g>
<g id="Basketball" display="none">
	<g id="Black_22_" display="inline">
		<path id="path2226" d="M244.531,9.469c-11.842,0-21.469,9.596-21.469,21.438c0,11.842,9.627,21.469,21.469,21.469
			c11.842,0,21.438-9.627,21.438-21.469C265.969,19.065,256.373,9.469,244.531,9.469z M244.687,15.094
			c8.639,0,15.656,7.018,15.656,15.656c0,8.639-7.018,15.625-15.656,15.625s-15.625-6.986-15.625-15.625
			C229.062,22.111,236.049,15.094,244.687,15.094z"/>
		<path id="path2224" d="M140.207,51.201c0,12.215-9.901,22.117-22.116,22.117c-12.214,0-22.116-9.902-22.116-22.117
			c0-12.214,9.902-22.116,22.116-22.116C130.306,29.085,140.207,38.986,140.207,51.201z"/>
		<path id="path2257" fill="#050505" d="M163.268,55.308c24.356-13.46,44.583-32.778,64.926-51.456
			c-5.428,12.071-11.576,23.988-20.178,34.144c-13.311,16.174-27.263,32.945-46.075,42.879c-6.02,3.773-15.622-1.371-14.003-8.929
			C148.559,63.581,157.098,59.37,163.268,55.308z"/>
		<path id="path2285" fill="#050505" d="M114.409,163.499c7.038-2.082,12.757,6.1,11.503,12.524
			c-0.278,19.371-10.91,36.581-19.746,53.174c-13.504,21.313-25.218,43.834-40.404,64.035c4.481-17.344,10.424-34.279,14.727-51.674
			c5.837-22.551,10.918-45.658,21.483-66.594C104.542,169.959,108.218,164.054,114.409,163.499z"/>
		<path id="path2281" fill="#050505" d="M161.668,125.624c4.421-1.769,9.961-1.319,12.965,2.709
			c4.449,5.966,5.059,13.933,4.906,21.116c-3.985,31.869-24.323,58.228-44.608,81.825c5.137-15.292,13.708-29.357,17.032-45.267
			c1.504-6.264,2.196-12.673,3.137-19.034c-2.758,2.645-5.152,5.816-8.506,7.729c-4.791,1.861-9.916-1.158-11.495-5.718
			c-3.148-6.301-1.555-13.673,1.056-19.864C141.389,138.612,150.166,129.082,161.668,125.624z"/>
		<path id="path2277" fill="#050505" d="M66.355,101.372c7.655-6.522,15.9-14.563,26.703-14.344
			c5.555-0.394,10.218,5.929,8.245,11.131c-1.204,4.691-5.997,6.881-9.445,9.72c-16.222,10.872-33.071,21.137-47.095,34.883
			c-9.298,8.942-16.651,19.891-27.268,27.433C27.727,143.695,45.589,120.542,66.355,101.372z"/>
		<path id="path2273" fill="#050505" d="M219.287,55.863c20.326-1.387,40.752-1.31,61.09-0.136
			c-1.447,7.138-3.81,14.044-5.379,21.151c-1.443,7.699-1.994,15.536-3.479,23.228c-1.683-0.044-3.36-0.088-5.036-0.133
			c-0.608-13.237,2.14-26.268,5.861-38.888c-15.045-0.127-30.088-0.098-45.129-0.117c3.365,11.717,6.016,23.765,5.753,36.029
			c0.223,2.594-3.171,2.744-4.789,3.92c-1.356-9.276-1.807-18.731-4.33-27.8C222.332,67.37,220.039,61.794,219.287,55.863z"/>
	</g>
</g>
<g id="Cheerleading" display="none">
	<g id="Black_21_" display="inline">
		<g>
			<circle cx="105.3" cy="83.8" r="21.6"/>
			<path d="M139.6,107.5c-13.2,0.2-9.7-25.04-7.6-51.79c1.9-24.88,3.7-51.638,5.4-51.848c1.7-0.209,6.2,26.178,9.9,51.368
				C151.1,81.03,155.2,107.4,139.6,107.5z"/>
			<path d="M150.2,108.2c-0.2-13.18,25-9.7,51.8-7.6c24.9,1.9,51.6,3.7,51.8,5.4c0.3,1.7-26.1,6.2-51.3,9.9
				C176.7,119.7,150.3,123.8,150.2,108.2z"/>
			<path d="M137.8,175.8c-13.4-12.5-33.4,18.8-55.09,49.101c-20.16,28.1-44.93,60-43.3,61.699c1.63,1.801,30.92-25.1,57.39-48.6
				C123.9,214,149.2,186.3,137.8,175.8z"/>
			<path d="M147.6,175.8c13.4-12.5,33.5,18.8,55.101,49.101c20.2,28.1,45,60,43.3,61.699c-1.6,1.801-30.9-25.1-57.3-48.6
				C161.6,214,136.3,186.3,147.6,175.8z"/>
		</g>
	</g>
</g>
<g id="CrossCountry" display="none">
	<g id="Black_20_" display="inline">
		<path d="M108.42,37.727c10.115-4.038,21.298-1.269,30.866,2.97c10.676,5.017,21.583,12.316,25.963,23.775
			c1.965,4.676,0.675,10.132-2.701,13.797c-2.655,2.269-6.434,1.636-9.616,1.315c-7.226-1.551-11.648-7.978-17.264-12.188
			c-4.867-4.284-10.048-8.922-16.636-10.107c-5.877-0.971-10.982,2.918-14.749,6.952c-5.669,6.993-9.25,15.397-12.042,23.882
			c-1.814,7.4-5.674,14.461-5.209,22.271c-0.552-7.204-2.607-14.216-2.804-21.455c-0.368-9.334,0.816-18.72,3.16-27.745
			C91.687,51.522,98.331,41.949,108.42,37.727z"/>
		<path d="M200.644,43.913c7.322-0.85,15.021,2.023,19.936,7.537c3.334,4.104,5.572,9.274,5.537,14.615
			c-0.646,6.494-3.914,12.911-9.367,16.643c-6.428,4.556-15.215,5.505-22.447,2.347c-10.746-4.083-17.005-17.916-11.48-28.365
			C185.93,49.582,193.094,44.957,200.644,43.913z"/>
		<path d="M276.881,81.662c0.434-0.024,0.871-0.035,1.313-0.027c-0.185,3.852,0.82,7.701,0.185,11.538
			c-1.017,6.596-3.673,12.791-6.55,18.764c-6.32,14.098-18.271,25.74-32.762,31.219c-6.651,2.346-14.543,2.166-20.537-1.84
			c-9.694-6.33-17.318-15.982-20.652-27.125c-2.111-6.018-2.184-13.245,1.445-18.699c1.814-2.39,4.266-5.059,7.545-4.88
			c3.388,0.313,6.416,2.348,8.462,5c4.817,6.323,5.825,14.547,9.796,21.298c3.322,4.354,8.693,9.526,14.633,6.979
			c7.157-3.026,13.182-8.173,19-13.22c7.358-6.328,12.479-14.775,16.567-23.473C276.146,85.451,276.719,83.591,276.881,81.662z"/>
		<path d="M98.079,122.092c4.257-3.605,10.544-3.255,15.495-1.452c4.974,2.115,10.214,3.749,14.755,6.757
			c7.051,4.518,13.789,9.584,19.817,15.404c6.811,5.506,13.136,11.648,18.556,18.54c4,4.705,8.176,10.202,7.86,16.718
			c-2.955,9.494-11.09,16.436-19.553,21.082c-11.225,5.707-23.744,7.971-35.74,11.474c-5.188,1.675-10.634,2.284-16.029,2.864
			c-6.109,0.33-12.251,1.592-18.356,0.511c3.912-2.845,8.648-4.108,12.948-6.214c12.347-5.33,23.968-12.164,35.998-18.153
			c5.096-2.468,10.087-5.611,13.001-10.634c-0.156-1.105-0.308-2.205-0.455-3.305c-3.425-3.467-7.653-5.943-12.011-8.045
			c-5.085,4.203-10.947,7.4-15.631,12.094c-12.854,9.566-27.063,17.067-40.752,25.346c-18.428,10.355-35.862,22.431-54.64,32.177
			c-1.094,0.394-2.215,0.697-3.362,0.916c7.211-7.856,15.608-14.544,22.708-22.509c10.246-10.732,20.492-21.471,31.182-31.764
			c11.29-10.871,22.263-22.063,32.726-33.733c-4.413-4.08-10.111-7.839-11.452-14.096C93.871,131.336,94.621,125.746,98.079,122.092
			z"/>
		<path d="M285.728,182.701c-3.731,4.563-6.582,10.008-11.424,13.554c-3.625,2.3-7.961,3.199-11.502,5.658
			c-6.13,4.204-12.269,8.392-18.391,12.603c-1.803,1.334-3.983,1.95-6.156,2.348c-12.16,2.188-25.142-1.493-36.785,3.67
			c-7.443,2.765-13.693,8.252-21.578,9.857c-15.699,3.731-31.39-4.861-47.129-1.298c-15.027,2.779-25.22,15.886-39.794,19.773
			c-3.529,1.017-7.283,1.567-10.927,0.862c-6.993-1.227-14.096-1.515-21.117-2.521c-10.628-0.987-21.27-2.358-31.967-1.956
			C18.947,245.333,9.057,247.923,0,252.114v7.29c12.489-7.704,27.78-9.022,42.104-7.787c11.656,1.12,23.332,2.104,34.94,3.656
			c4.995,0.9,10.14,1.313,15.132,0.123c15.823-2.859,26.619-16.973,42.239-20.34c10.266-2.172,20.36,1.566,30.571,2.174
			c5.679,0.244,11.506,0.578,17.033-1.03c9.722-2.199,17.334-9.655,27.149-11.568c10.981-2.432,22.472,0.56,33.373-2.456
			c4.511-1.068,7.896-4.416,11.689-6.855c5.9-3.829,11.242-8.702,17.984-11.058c7.739-2.598,12.576-9.595,16.998-16.009
			c2.576-3.855,6.785-6.002,10.781-8.065v-6.729C294.814,175.77,289.473,178.283,285.728,182.701z"/>
	</g>
</g>
<g id="Diving" display="none">
	<g id="Black_19_" display="inline">
		<path d="M117.726,178.221c1.494,3.236,2.299,7.314,5.506,9.322c-0.726-16.253-4.121-32.314-6.186-48.462
			c-4.128-28.273-7.81-56.752-16.081-84.19c-2.264-7.196-3.01-15.523-8.642-21.077c-5.36-4.727-13.7-0.617-16.417,5.118
			c-3.661,7.742-1.76,16.641,0.393,24.545C88.178,102.4,103.745,140.029,117.726,178.221z"/>
		<path d="M126.637,185.447c0.381,0.129,1.145,0.388,1.527,0.517c0.532-4.456,2.288-8.626,3.002-13.044
			c3.553-18.67,7.569-37.258,10.655-56.014c1.767-10.887,2.25-21.917,2.893-32.91c0.197-4.131-0.028-8.735-2.8-12.056
			c-4.126-4.445-12.126-3.352-15.381,1.603c-2.881,3.888-3.628,8.822-3.912,13.528c-1.108,28.99,1.848,57.917,2.68,86.878
			C125.371,177.815,125.682,181.688,126.637,185.447z"/>
		<path d="M73.891,208.424c-23.293-0.105-46.595-0.011-69.89-0.043v6c24.084-0.063,48.171,0.125,72.254-0.096
			C78.198,211.992,77.371,208.104,73.891,208.424z"/>
		<path d="M281.99,238.739c-12.891,2.565-21.861,14.261-35.034,16.046c-10.323,1.9-19.42-4.479-28.427-8.405
			c-9.453-4.844-20.195-8.837-30.953-6.508c-9.317,1.724-17.324,7.112-26.042,10.511c-7.09,3.299-15.395,5.021-23.047,2.758
			c-8.97-2.777-16.691-9.033-26.232-10.047c-11.529-1.451-22.646,2.944-33.235,6.911c-1.884,0.839-4.856,1.378-4.788,4.021
			c-0.576,2.509,2.838,3.32,4.66,2.652c10.011-3.375,19.981-8.195,30.794-7.719c10.069,0.896,18.226,7.555,27.723,10.313
			c4.992,1.307,10.262,1.127,15.338,0.438c14.521-2.491,26.244-13.594,41.217-14.362c12.86-0.076,23.281,8.494,34.907,12.693
			c8.479,4.135,18.678,4.207,27.332,0.551c8.672-3.091,15.459-9.852,24.125-12.941c1.966-0.832,4.605-0.545,5.924-2.494
			C287.573,240.532,284.603,237.75,281.99,238.739z"/>
		<circle cx="168.968" cy="102.345" r="22"/>
	</g>
</g>
<g id="FieldHockey" display="none">
	<g id="Black_18_" display="inline">
		<path d="M250.457,246.646c-2.139,2.158-4.124,4.614-7.463,4.696c-2.473-0.77-5.09-1.497-7.059-3.27
			c-3.002-2.68-4.453-6.536-6.031-10.127c-9.207-23.041-18.125-46.203-27.418-69.204c-0.979-0.765-1.911-1.616-2.422-2.767
			c-4.739-8.295-8.142-17.404-9.514-26.876c-1.007-8.525,0.534-17.064,1.223-25.552c0.699-9.297,4.541-18.222,3.959-27.632
			c-0.465-5.597-7.191-10.814-12.478-7.52c-4.813,2.859-6.553,8.594-7.634,13.747c-2.958,13.518-4.219,27.859-0.364,41.333
			c1.285,5.05,3.322,10.144,6.833,14.057c-2.979,1.066-2.229-2.396-3.097-3.881c-3.351-6.261-6.573-12.739-7.769-19.811
			c-1.343-7.923-2.676-15.853-3.879-23.797c-1.334-10.685,3.148-22.2-2.145-32.245c-1.13-3.112-4.526-3.89-7.199-5.158
			c-3.118,0.877-6.517,1.992-8.314,4.909c-4.041,6.015-3.688,13.611-3.506,20.533c1.083,13.666,2.625,27.612,8.266,40.264
			c6.123,14.158,17.006,25.562,28.529,35.518c4.197,3.785,9.396,6.061,14.133,9.018c1.365,2.396,2.137,5.075,3.215,7.608
			c8.283,21.152,16.763,42.23,24.951,63.42c3.361,7.174,10.276,13.757,18.768,12.955c5.131,0.613,9.752-3.34,11.291-8.018
			C254.646,246.918,252.419,245.023,250.457,246.646z"/>
		<path d="M148.076,133.833c-2.924-7.364-7.121-14.738-14.116-18.907c-4.671-2.372-11.351-3.39-14.966,1.332
			c-3.209,3.695-1.286,9.067-3.828,12.993c-1.297-6.519-3.207-13.069-6.782-18.731c-2.994-4.947-7.625-9.184-13.57-9.929
			c-3.804,2.056-6.824,5.589-7.461,9.97c-1.774,9.7,1.794,19.232,3.958,28.56c1.735,6.157,2.583,12.509,3.494,18.826
			c0.26,2.063,0.119,4.589-1.72,5.924c-8.338,7.65-20.338,8.531-31.092,8.967c-8.99,0.482-17.462-2.938-26.161-4.544
			c1.32,3.071,4.439,4.813,6.626,7.235c4.405,4.707,10.773,6.563,16.75,8.367c10.212,3.186,21.099,4.601,31.746,3.24
			c8.032-1.052,14.997-5.968,20.222-11.941c3.676-4.605,4.955-10.588,5.68-16.305c0.96-9.832,0.736-19.889-1.592-29.523
			c2.424-0.791,2.021,2.336,2.59,3.846c3.752,14.995,15.982,26.416,18.466,41.854c1.219,8.283,2.501,16.726,1.308,25.093
			c-0.936,9.118-4.408,17.69-8.198,25.952c-6.081,12.607-12.884,25-21.621,35.976c3.158-0.821,5.317-3.496,7.674-5.571
			c9.238-10.054,20.793-18.354,27.309-30.63c6.222-13.041,12.829-26.342,14.376-40.907c1.047-11.117-1.258-22.182-3.715-32.968
			C151.836,145.902,150.685,139.628,148.076,133.833z"/>
		<path d="M247.87,243.865c4.761,0,8.62-3.859,8.62-8.62c0-4.761-3.859-8.62-8.62-8.62c-4.761,0-8.62,3.859-8.62,8.62
			C239.25,240.006,243.109,243.865,247.87,243.865z M247.87,232.625c1.444,0,2.62,1.176,2.62,2.62c0,1.444-1.176,2.62-2.62,2.62
			c-1.444,0-2.62-1.176-2.62-2.62C245.25,233.801,246.426,232.625,247.87,232.625z"/>
		<circle cx="196.408" cy="51.365" r="22"/>
	</g>
</g>
<g id="FirstAid" display="none">
	<g id="Black_17_" display="inline">
		<path fill="none" stroke="#000000" stroke-width="5" d="M58.555,31.018h184.89c15.208,0,27.537,12.329,27.537,27.537v184.89
			c0,15.208-12.329,27.537-27.537,27.537H58.555c-15.208,0-27.537-12.329-27.537-27.537V58.555
			C31.018,43.347,43.347,31.018,58.555,31.018z"/>
		<path stroke="#000000" stroke-width="40" d="M76.257,151h149.486 M151,76.257v149.486"/>
	</g>
</g>
<g id="Information">
	<g id="Black_copy">
		<path display="none" fill="none" stroke="#000000" stroke-width="5" d="M58.555,31.018h184.89
			c15.208,0,27.537,12.329,27.537,27.537v184.89c0,15.208-12.329,27.537-27.537,27.537H58.555
			c-15.208,0-27.537-12.329-27.537-27.537V58.555C31.018,43.347,43.347,31.018,58.555,31.018z"/>
		<g>
			<circle cx="149.932" cy="66.998" r="24"/>
			<path d="M114.198,105.932v14.933h5.867c11.733,0,11.733,9.6,11.733,9.6v104.533c0,0,0,9.6-11.733,9.6h-5.867v14.4h73.6v-14.4
				h-5.867c-11.733,0-11.733-9.6-11.733-9.6V105.932"/>
		</g>
	</g>
</g>
<g id="Football" display="none">
	<g id="Black_16_" display="inline">
		<g>
			<g id="surface0">
				<path fill="none" stroke="#000000" stroke-width="0.1" stroke-miterlimit="10" d="M135.709,27.938
					c5.609-0.752,11.406,1.083,15.914,4.42c5.193,3.894,7.9,10.298,8.531,16.621c-0.295,8.417-5.155,16.962-13.223,20.111
					c-7.173,3.311-15.957,1.923-22.096-2.922c-5.224-4.494-8.544-11.351-8.015-18.312C117.559,37.872,125.731,29.145,135.709,27.938
					z"/>
				<path d="M135.709,27.938c5.609-0.752,11.406,1.083,15.914,4.42c5.193,3.894,7.9,10.298,8.531,16.621
					c-0.295,8.417-5.155,16.962-13.223,20.111c-7.173,3.311-15.957,1.923-22.096-2.922c-5.224-4.494-8.544-11.351-8.015-18.312
					C117.559,37.872,125.731,29.145,135.709,27.938z"/>
				<path fill="none" stroke="#000000" stroke-width="0.1" stroke-miterlimit="10" d="M77.708,63.875
					c7.386-2.163,15.97-1.732,22.092,3.353c1.917,2.876,3.946,6.594,2.431,10.088c-1.416,3.29-4.979,4.698-8.044,6.012
					c-7.894,2.683-16.457,3.841-23.707,8.161c-5.154,3.08-6.941,9.597-5.855,15.241c0.5,6.843,5.978,11.954,11.813,14.8
					c4.678,2.798,10.345,2.349,15.574,2.216c4.266-0.208,8.066-2.58,12.318-2.738c-0.103,2.978-2.86,4.734-5.127,6.142
					c-7.209,3.908-15.691,4.301-23.712,3.991c-4.148-0.199-8.006-1.968-11.519-4.065c-5.816-3.631-12.024-7.484-15.131-13.878
					c-5.994-12.084-2.534-27.284,6.337-37.039C61.017,69.554,69.544,66.487,77.708,63.875z"/>
				<path d="M77.708,63.875c7.386-2.163,15.97-1.732,22.092,3.353c1.917,2.876,3.946,6.594,2.431,10.088
					c-1.416,3.29-4.979,4.698-8.044,6.012c-7.894,2.683-16.457,3.841-23.707,8.161c-5.154,3.08-6.941,9.597-5.855,15.241
					c0.5,6.843,5.978,11.954,11.813,14.8c4.678,2.798,10.345,2.349,15.574,2.216c4.266-0.208,8.066-2.58,12.318-2.738
					c-0.103,2.978-2.86,4.734-5.127,6.142c-7.209,3.908-15.691,4.301-23.712,3.991c-4.148-0.199-8.006-1.968-11.519-4.065
					c-5.816-3.631-12.024-7.484-15.131-13.878c-5.994-12.084-2.534-27.284,6.337-37.039C61.017,69.554,69.544,66.487,77.708,63.875z
					"/>
				<path fill="none" stroke="#000000" stroke-width="0.1" stroke-miterlimit="10" d="M154.501,73.707
					c1.079-0.584,2.237-0.912,3.475-0.984c21.44-0.625,42.76,2.389,63.873,5.841c15.21,2.599,30.544,4.428,45.77,6.903
					c0.748,1.864-2.445,1.671-3.57,2.198c-24.506,3.485-49.292,4.094-73.979,5.48c-8.992,0.102-17.988,0.678-26.979,0.191
					c-4.705-0.327-9.841-1.833-12.842-5.695C146.871,82.955,149.674,76.153,154.501,73.707z"/>
				<path d="M154.501,73.707c1.079-0.584,2.237-0.912,3.475-0.984c21.44-0.625,42.76,2.389,63.873,5.841
					c15.21,2.599,30.544,4.428,45.77,6.903c0.748,1.864-2.445,1.671-3.57,2.198c-24.506,3.485-49.292,4.094-73.979,5.48
					c-8.992,0.102-17.988,0.678-26.979,0.191c-4.705-0.327-9.841-1.833-12.842-5.695C146.871,82.955,149.674,76.153,154.501,73.707z
					"/>
				<g>
					<path d="M96.674,87.979c3.651,0,7.299,0.609,10.709,1.822c4.505,1.858,8.272,5.036,12.029,8.062
						c-1.307,9.05-8.023,17.218-16.883,19.755c-3.133,1.32-6.466,1.625-9.815,1.625c-1.865,0-3.734-0.094-5.577-0.16
						c-6.755-1.242-12.693-5.212-17.796-9.649c1.625-4.728,3.091-9.78,6.623-13.492C81.458,90.62,89.072,87.98,96.674,87.979
						 M96.675,92.979C96.674,92.979,96.674,92.979,96.675,92.979c-6.613,0-12.859,2.361-17.157,6.48
						c-2.001,2.14-3.208,5.098-4.33,8.316c4.44,3.448,8.56,5.527,12.518,6.326l0.885,0.033c1.429,0.056,2.779,0.108,4.123,0.108
						c3.424,0,5.852-0.38,7.874-1.232l0.277-0.117l0.289-0.083c5.941-1.702,10.878-6.851,12.719-12.991
						c-2.721-2.169-5.377-4.131-8.282-5.35C102.765,93.481,99.766,92.979,96.675,92.979L96.675,92.979z"/>
				</g>
				<path fill="none" stroke="#000000" stroke-width="0.1" stroke-miterlimit="10" d="M89.555,142.724
					c8.434-4.452,18.034,0.25,25.649,4.312c4.229-2.854,9.524-4.887,14.655-3.598c4.44,1.239,7.31,5.328,8.821,9.456
					c0.998,3.52-1.058,6.729-2.616,9.704c6.281,6.408,12.217,13.459,15.594,21.873c3.68,9.916-0.072,21.463-7.806,28.381
					c-6.924,6.119-13.784,12.48-21.829,17.122c-8.743,4.793-18.221,8.864-28.132,10.145c4.46-4.734,10.246-7.98,14.874-12.548
					c6.003-5.296,11.119-11.509,15.767-18.004c3.385-4.891,6.505-10.239,7.045-16.293c-2.169-4.983-6.929-7.782-10.875-11.179
					c-5.996,7.16-11.934,14.403-18.748,20.815c-11.779,10.942-24.62,20.647-36.96,30.937c-13.131,10.563-26.014,21.44-39.269,31.844
					c-0.993-1.783,0.792-2.996,1.64-4.265c23.061-27.893,44.325-57.189,66.219-85.992c1.433-1.931,2.662-4,3.898-6.059
					c-5.839-3.695-12.259-8.715-12.688-16.207C84.933,149.346,85.416,144.299,89.555,142.724z"/>
				<path d="M89.555,142.724c8.434-4.452,18.034,0.25,25.649,4.312c4.229-2.854,9.524-4.887,14.655-3.598
					c4.44,1.239,7.31,5.328,8.821,9.456c0.998,3.52-1.058,6.729-2.616,9.704c6.281,6.408,12.217,13.459,15.594,21.873
					c3.68,9.916-0.072,21.463-7.806,28.381c-6.924,6.119-13.784,12.48-21.829,17.122c-8.743,4.793-18.221,8.864-28.132,10.145
					c4.46-4.734,10.246-7.98,14.874-12.548c6.003-5.296,11.119-11.509,15.767-18.004c3.385-4.891,6.505-10.239,7.045-16.293
					c-2.169-4.983-6.929-7.782-10.875-11.179c-5.996,7.16-11.934,14.403-18.748,20.815c-11.779,10.942-24.62,20.647-36.96,30.937
					c-13.131,10.563-26.014,21.44-39.269,31.844c-0.993-1.783,0.792-2.996,1.64-4.265c23.061-27.893,44.325-57.189,66.219-85.992
					c1.433-1.931,2.662-4,3.898-6.059c-5.839-3.695-12.259-8.715-12.688-16.207C84.933,149.346,85.416,144.299,89.555,142.724z"/>
			</g>
		</g>
	</g>
</g>
<g id="Golf" display="none">
	<g id="Black_15_" display="inline">
		<g>
			<g id="surface0_1_">
				<path fill="none" stroke="#000000" stroke-width="0.1" stroke-miterlimit="10" d="M97.666,26.713
					c3.501-7.494,11.189-12.595,19.445-12.921c7.78-0.217,15.555,3.789,19.64,10.468c1.938,2.626,2.054,6.071,3.652,8.83
					c27.158,4.18,54.35,8.205,81.53,12.254c5.119-0.11,10.612,1.747,13.264,6.425c3.714,5.069,3.888,13.764-1.601,17.616
					c-2.284,1.88-5.484,0.201-7.096-1.776c-3.442-4.524-3.737-10.431-4.353-15.862c-27.51-4.086-55.011-8.229-82.517-12.34
					c-1.698,7.489-7.295,14.155-14.767,16.339c-6.979,2.474-15.075,0.874-20.857-3.654c-5.714-4.574-8.763-12.011-8.267-19.278
					c-8.276-1.142-16.517-2.524-24.795-3.65c-4.531,4.39-8.014,10.326-7.879,16.802c0.033,8.19,5.771,15.512,13.07,18.784
					c6.977,3.826,15.162,4.563,22.974,4.004c9.828-0.716,18.921-5.68,28.854-5.533c5.842,0.575,7.701,8.118,4.874,12.565
					c-1.164,3.934-5.073,5.516-8.625,6.666c-16.829,4.789-35.368,3.864-51.375-3.362c-5.955-2.913-11.768-7.117-14.574-13.32
					c-3.479-7.409-5.319-16.1-2.437-24.026c2.011-5.487,6.115-10.042,10.999-13.171c-1.434-0.378-2.855-0.796-4.275-1.214
					c-0.253-0.624-0.76-1.871-1.014-2.495c0.344-0.655,1.033-1.966,1.376-2.621c4.057-0.394,8.066,0.495,12.058,1.088
					C82.538,24.447,90.095,25.624,97.666,26.713z"/>
				<path d="M97.666,26.713c3.501-7.494,11.189-12.595,19.445-12.921c7.78-0.217,15.555,3.789,19.64,10.468
					c1.938,2.626,2.054,6.071,3.652,8.83c27.158,4.18,54.35,8.205,81.53,12.254c5.119-0.11,10.612,1.747,13.264,6.425
					c3.714,5.069,3.888,13.764-1.601,17.616c-2.284,1.88-5.484,0.201-7.096-1.776c-3.442-4.524-3.737-10.431-4.353-15.862
					c-27.51-4.086-55.011-8.229-82.517-12.34c-1.698,7.489-7.295,14.155-14.767,16.339c-6.979,2.474-15.075,0.874-20.857-3.654
					c-5.714-4.574-8.763-12.011-8.267-19.278c-8.276-1.142-16.517-2.524-24.795-3.65c-4.531,4.39-8.014,10.326-7.879,16.802
					c0.033,8.19,5.771,15.512,13.07,18.784c6.977,3.826,15.162,4.563,22.974,4.004c9.828-0.716,18.921-5.68,28.854-5.533
					c5.842,0.575,7.701,8.118,4.874,12.565c-1.164,3.934-5.073,5.516-8.625,6.666c-16.829,4.789-35.368,3.864-51.375-3.362
					c-5.955-2.913-11.768-7.117-14.574-13.32c-3.479-7.409-5.319-16.1-2.437-24.026c2.011-5.487,6.115-10.042,10.999-13.171
					c-1.434-0.378-2.855-0.796-4.275-1.214c-0.253-0.624-0.76-1.871-1.014-2.495c0.344-0.655,1.033-1.966,1.376-2.621
					c4.057-0.394,8.066,0.495,12.058,1.088C82.538,24.447,90.095,25.624,97.666,26.713z"/>
				<path fill="none" stroke="#000000" stroke-width="0.1" stroke-miterlimit="10" d="M127.673,134.589
					c3.024-4.891,9.335-4.622,14.291-3.698c4.044,3.92,7.464,8.617,9.085,14.07c3.314,11.416,3.356,23.416,5.415,35.064
					c4.904,29.31,15.561,57.214,25.206,85.201c1.459,4.957,4.834,9.488,4.564,14.824c-6.948-7.615-12.174-16.616-18.56-24.694
					c-6.42-8.144-10.791-17.598-15.41-26.812c-10.446-22.422-19.86-45.481-25.714-69.566
					C125.149,151.006,123.523,142.009,127.673,134.589z"/>
				<path d="M127.673,134.589c3.024-4.891,9.335-4.622,14.291-3.698c4.044,3.92,7.464,8.617,9.085,14.07
					c3.314,11.416,3.356,23.416,5.415,35.064c4.904,29.31,15.561,57.214,25.206,85.201c1.459,4.957,4.834,9.488,4.564,14.824
					c-6.948-7.615-12.174-16.616-18.56-24.694c-6.42-8.144-10.791-17.598-15.41-26.812c-10.446-22.422-19.86-45.481-25.714-69.566
					C125.149,151.006,123.523,142.009,127.673,134.589z"/>
				<path fill="none" stroke="#000000" stroke-width="0.1" stroke-miterlimit="10" d="M98.28,149.255
					c3.717-6.649,10.322-11.504,17.881-12.742c3.35,1.255,6.515,3.731,6.922,7.535c2.382,12.616-3.846,24.604-9.657,35.357
					c-10.367,18.641-15.508,39.527-20.688,60.053c-3.142,13.292-5.474,26.771-8.909,39.995c-0.999-1.244-2.032-2.605-1.726-4.309
					c0.03-11.703,0.338-23.403,0.204-35.11c0.725-19.498,2.656-38.969,6.082-58.186C90.862,170.783,92.644,159.268,98.28,149.255z"
					/>
				<path d="M98.28,149.255c3.717-6.649,10.322-11.504,17.881-12.742c3.35,1.255,6.515,3.731,6.922,7.535
					c2.382,12.616-3.846,24.604-9.657,35.357c-10.367,18.641-15.508,39.527-20.688,60.053c-3.142,13.292-5.474,26.771-8.909,39.995
					c-0.999-1.244-2.032-2.605-1.726-4.309c0.03-11.703,0.338-23.403,0.204-35.11c0.725-19.498,2.656-38.969,6.082-58.186
					C90.862,170.783,92.644,159.268,98.28,149.255z"/>
			</g>
		</g>
		<g>
			<path d="M132.75,263.25c4.142,0,7.5,3.359,7.5,7.5c0,4.143-3.358,7.5-7.5,7.5c-4.142,0-7.5-3.357-7.5-7.5
				C125.25,266.607,128.608,263.25,132.75,263.25 M132.75,269.25c-0.827,0-1.5,0.673-1.5,1.5c0,0.827,0.673,1.5,1.5,1.5
				c0.827,0,1.5-0.673,1.5-1.5C134.25,269.923,133.577,269.25,132.75,269.25L132.75,269.25z"/>
		</g>
	</g>
</g>
<g id="Gymnastics" display="none">
	<g id="Black_14_" display="inline">
		<path d="M242.877,8.914c-14.088,12.23-28.292,24.328-42.548,36.362c-20.063,16.949-39.824,35.173-52.834,58.305
			c-2.341,4.735-2.097,12.168,3.404,14.562c7.348,2.1,15.379-1.442,19.969-7.296c22.044-26.027,41.151-54.333,60.896-82.097
			c5.353-8.016,12.459-14.918,16.586-23.705C245.994,5.458,244.518,7.384,242.877,8.914z"/>
		<path d="M140.662,113.604c1.64-4.645,0.402-9.736-1.252-14.2c-2.846-7.184-8.792-12.348-13.938-17.864
			c-21.47-22.579-45.776-42.186-68.282-63.684c-4.535-3.959-8.345-8.95-13.769-11.755c0.178,2.716,2.467,4.458,3.829,6.607
			c8.762,13.244,17.919,26.229,26.433,39.638c15.038,22.679,30.429,45.927,52.195,62.787c2.162,1.466,4.162,3.935,7.039,3.59
			C136.281,119.001,139.63,116.824,140.662,113.604z"/>
		<path d="M154.193,189.781c-1.5-3.092-4.726-5.012-8.068-5.429c-4.312,1.224-8.241,4.448-9.73,8.757
			c-1.161,3.747-1.58,7.713-1.548,11.628c0.916,13.774,2.991,27.431,5.189,41.049c2.458,14.2,4.887,28.415,7.966,42.497
			c1.023-0.426,1.568-1.16,1.633-2.203c3.359-27.271,5.12-54.701,6.267-82.139C155.849,199.209,156.445,194.14,154.193,189.781z"/>
		<circle cx="180.969" cy="208.352" r="22"/>
	</g>
</g>
<g id="IceHockey" display="none">
	<g id="Black_13_" display="inline">
		<path id="rect2258" d="M257.113,263.17h14.174c0.756,0,1.367,0.612,1.367,1.367v4.974c0,0.755-0.611,1.368-1.367,1.368h-14.174
			c-0.756,0-1.368-0.613-1.368-1.368v-4.974C255.745,263.782,256.357,263.17,257.113,263.17z"/>
		<path id="path2236" d="M202.099,42.214c0.007,12.042-9.749,21.81-21.791,21.817c-12.042,0.007-21.81-9.749-21.817-21.791
			c0-0.009,0-0.018,0-0.026c-0.007-12.042,9.749-21.81,21.791-21.817c12.042-0.007,21.81,9.749,21.817,21.791
			C202.099,42.196,202.099,42.205,202.099,42.214z"/>
		<path id="path2261" fill="#050505" d="M35.437,152.808c2.006,0.735,3.999,1.505,5.991,2.28
			c-5.024,8.353-11.731,15.818-15.104,25.076c0.047,2.497,1.248,4.766,2.142,7.043c-1.439,1.523-2.884,3.042-4.374,4.519
			c-2.025-4.387-5.185-9.013-3.482-14.078C24.054,168.555,30.385,161,35.437,152.808z"/>
		<path id="path2265" fill="#050505" d="M94.23,245.094c5.911,5.348,11.755,10.801,18.187,15.53
			c3.425,2.329,7.84,0.816,11.666,1.778c1.683,1.076,2.633,2.965,3.882,4.479c-5.544,1.201-11.827,3.863-16.975,0.117
			c-7.872-4.642-13.868-11.685-20.931-17.378C91.447,248.107,92.839,246.602,94.23,245.094z"/>
		<path id="path2257_1_" fill="#050505" d="M93.472,126.555c0.047-8.545,7.468-16.314,14.517-16.883
			c2.729-0.221,4.788,3.736,7.168,5.628c5.079-1.393,11.041-3.574,15.783-0.229c9.041,5.547,12.158,16.41,15.134,25.887
			c3.876,14.004,9.427,28.12,7.648,42.946c-3.564,13.424-9.87,26.277-19.14,36.701c-8.859,9.884-18.814,18.773-29.485,26.658
			c12.697-16.585,25.214-34.784,28.333-55.924c2.352-15.413-5.873-29.555-12.721-42.633c-1.436,13.275-3.571,27.314-11.641,38.379
			c-5.628,6.791-14.775,9.172-23.233,7.193c-17.705-4.578-34.492-14.252-45.328-29.267c13.432,3.929,26.163,10.714,40.474,11.079
			c4.105,0.507,10.193,0.69,12.018-4.055C96.699,157.072,92.563,141.678,93.472,126.555z"/>
		<path id="path2253" fill="#050505" d="M140.16,54.842c4.077-1.548,9.02,0.315,10.789,4.179c4.748,8.693,1.769,19.051,2.794,28.391
			c2.184,14.266,5.002,29.151,14.043,40.869c-5.982-15.855-9.344-33.707-3.627-50.144c1.652-3.365,3.094-7.283,7.817-8.11
			c5.848-1.024,11.413,3.883,10.81,9.972c-1.135,18.118-6.843,37.605,1.344,54.848c18.953,37.562,36.729,75.72,55.865,113.195
			c0.66,1.462,1.639,3.134,3.39,3.418c7.458,0.804,15.415,0.265,23.261,0.222c0.02,2.805,0.103,6.277,0.123,9.104
			c-6.871,0.149-13.75,0.405-20.605-0.095c-6.306-1.475-10.545-7.098-13.236-12.636c-14.906-29.564-28.885-59.58-43.859-89.108
			c-1.67-2.834-2.913-6.362-6.143-7.777c-12.311-6.011-23.262-14.561-32.422-24.712c-14.503-16.603-19.311-39.536-18.006-61.045
			C133.405,61.042,135.603,56.573,140.16,54.842z"/>
	</g>
</g>
<g id="IndoorTrack" display="none">
	<g id="Black_12_" display="inline">
		<path d="M108.416,41.727c10.115-4.038,21.298-1.269,30.866,2.97c10.676,5.017,21.583,12.316,25.963,23.775
			c1.965,4.676,0.675,10.132-2.701,13.797c-2.655,2.269-6.434,1.636-9.616,1.315c-7.226-1.551-11.648-7.978-17.264-12.188
			c-4.867-4.284-10.048-8.922-16.636-10.107c-5.877-0.971-10.982,2.918-14.749,6.952c-5.669,6.993-9.25,15.397-12.042,23.882
			c-1.814,7.4-5.674,14.461-5.209,22.271c-0.552-7.204-2.607-14.216-2.804-21.455c-0.368-9.334,0.816-18.72,3.16-27.745
			C91.683,55.522,98.327,45.949,108.416,41.727z"/>
		<path d="M200.64,47.913c7.322-0.85,15.021,2.023,19.936,7.537c3.334,4.104,5.572,9.274,5.537,14.615
			c-0.646,6.494-3.914,12.911-9.367,16.643c-6.428,4.556-15.215,5.505-22.447,2.347c-10.746-4.083-17.005-17.916-11.48-28.365
			C185.925,53.582,193.089,48.957,200.64,47.913z"/>
		<path d="M276.877,85.662c0.434-0.024,0.871-0.035,1.313-0.027c-0.185,3.852,0.82,7.701,0.185,11.538
			c-1.017,6.596-3.673,12.791-6.55,18.764c-6.32,14.098-18.271,25.74-32.762,31.219c-6.651,2.346-14.543,2.166-20.537-1.84
			c-9.694-6.33-17.318-15.982-20.652-27.125c-2.111-6.018-2.184-13.245,1.445-18.699c1.814-2.39,4.266-5.059,7.545-4.88
			c3.388,0.313,6.416,2.348,8.462,5c4.817,6.323,5.825,14.547,9.796,21.298c3.322,4.354,8.693,9.526,14.633,6.979
			c7.157-3.026,13.182-8.173,19-13.22c7.358-6.328,12.48-14.775,16.567-23.473C276.142,89.451,276.714,87.591,276.877,85.662z"/>
		<path d="M98.075,126.092c4.257-3.605,10.544-3.255,15.495-1.452c4.974,2.115,10.214,3.749,14.755,6.757
			c7.051,4.518,13.789,9.584,19.817,15.404c6.811,5.506,13.136,11.648,18.556,18.54c4,4.705,8.176,10.202,7.86,16.718
			c-2.955,9.494-11.09,16.436-19.553,21.082c-11.225,5.707-23.744,7.971-35.74,11.474c-5.188,1.675-10.634,2.284-16.029,2.864
			c-6.109,0.33-12.251,1.592-18.356,0.511c3.912-2.845,8.648-4.108,12.948-6.214c12.347-5.33,23.968-12.164,35.998-18.153
			c5.096-2.468,10.087-5.611,13.001-10.634c-0.156-1.105-0.308-2.205-0.455-3.305c-3.425-3.467-7.653-5.943-12.011-8.045
			c-5.085,4.203-10.947,7.4-15.631,12.094c-12.854,9.566-27.063,17.067-40.752,25.346c-18.428,10.355-35.862,22.431-54.64,32.177
			c-1.094,0.394-2.215,0.697-3.362,0.916c7.211-7.856,15.608-14.544,22.708-22.509c10.246-10.732,20.492-21.471,31.182-31.764
			c11.29-10.871,22.263-22.063,32.726-33.733c-4.413-4.08-10.111-7.839-11.452-14.096C93.867,135.336,94.617,129.746,98.075,126.092
			z"/>
		<path d="M286.115,248.33c-95.359-0.105-190.754-0.011-286.121-0.043v6c98.597-0.063,197.207,0.125,295.8-0.096
			C303.75,251.898,300.363,248.01,286.115,248.33z"/>
	</g>
</g>
<g id="Lacrosse" display="none">
	<g id="Black_11_" display="inline">
		<path id="path9" fill="none" stroke="#000000" stroke-width="0.1" stroke-miterlimit="10" d="M229.85,47.805
			c0,0-36.072,84.717-54.225,127.023c-0.927,2.906-4.123,2.658-6.291,1.313c-0.177-2.871,1.06-5.466,2.168-8.025
			c-12.504-5.971-22.09-16.529-30.008-27.643c-2.254-1.206-4.807-1.703-7.17-2.649c-14.378-5.253-26.41-15.454-36.082-27.114
			c-4.568-5.323-9.27-10.915-11.363-17.732c-1.474-4.259,0.511-9.319,4.27-11.679c3.011-1.07,6.562-1.482,9.346,0.438
			c8.998,4.832,11.497,15.635,18.059,22.796c4.987,5.13,10.002,10.237,14.948,15.41c-1.507-7.882-2.421-15.904-2.351-23.935
			c0.35-4.434,1.171-9.972,5.578-12.215c4.449-2.858,10.179,1.242,11.568,5.747c2.063,7.605,1.27,15.578,2.256,23.332
			c0.723,5.456,1.529,10.901,2.225,16.361c0.285,1.189,0.092,2.915,1.559,3.376c9.293,3.767,19.148,5.876,28.861,8.262
			c12.724-29.913,25.488-59.807,38.236-89.708c0.825-1.998,2.395-6.034,2.395-6.034L229.85,47.805z"/>
		<path id="path11" d="M223.812,45.125c0,0-1.55,4.033-2.375,6.031c-12.748,29.901-25.525,59.806-38.25,89.719
			c-9.713-2.386-19.551-4.514-28.844-8.281c-1.467-0.461-1.277-2.186-1.563-3.375c-0.695-5.46-1.496-10.888-2.219-16.344
			c-0.986-7.754-0.219-15.739-2.281-23.344c-1.389-4.505-7.113-8.608-11.563-5.75c-4.407,2.243-5.213,7.784-5.563,12.219
			c-0.07,8.031,0.837,16.056,2.344,23.938c-4.946-5.173-9.951-10.276-14.938-15.406C112,97.37,109.498,86.582,100.5,81.75
			c-2.784-1.92-6.333-1.507-9.344-0.437c-3.759,2.36-5.755,7.397-4.281,11.656c2.093,6.817,6.807,12.427,11.375,17.75
			c9.672,11.66,21.685,21.841,36.062,27.094c2.363,0.946,4.934,1.45,7.188,2.656c7.918,11.114,17.496,21.686,30,27.656
			c-1.107,2.561-2.333,5.16-2.156,8.031c2.168,1.346,5.354,1.563,6.281-1.344c18.152-42.306,54.219-127,54.219-127l-3.063-1.375
			L223.812,45.125z M157.062,143.469c8.107,1.639,16.453,1.807,24.656,0.844c-2.938,6.939-5.959,13.849-8.844,20.812
			C166.668,158.652,160.961,151.599,157.062,143.469z"/>
		<path id="path13" fill="none" stroke="#000000" stroke-width="0.1" stroke-miterlimit="10" d="M123.681,37.948
			c5.615-0.756,11.421,1.061,15.935,4.403c5.196,3.909,7.936,10.324,8.534,16.67c-0.314,6.195-2.83,12.49-7.594,16.6
			c-5.792,4.986-14.325,6.759-21.512,3.958c-10.416-3.498-16.889-16.02-13.238-26.481C108.181,45.107,115.426,39.033,123.681,37.948
			z"/>
		<path id="path15" d="M123.681,37.948c5.615-0.756,11.421,1.061,15.935,4.403c5.196,3.909,7.936,10.324,8.534,16.67
			c-0.314,6.195-2.83,12.49-7.594,16.6c-5.792,4.986-14.325,6.759-21.512,3.958c-10.416-3.498-16.889-16.02-13.238-26.481
			C108.181,45.107,115.426,39.033,123.681,37.948z"/>
		<path id="path19" fill="none" stroke="#000000" stroke-width="0.1" stroke-miterlimit="10" d="M81.116,159.889
			c0.295-4.373,3.123-8.082,6.786-10.293c5.428,0.704,9.614,4.637,12.258,9.203c4.591,7.941,6.527,17.09,7.637,26.105
			c0.93,9.676,1.215,19.645-1.722,29.033c-1.919,6.98-7.622,12.441-14.184,15.188c-5.322,2.23-11.225,1.668-16.843,1.438
			c-12.501-1.125-25.746-3.612-35.648-11.879c-1.75-1.326-3.815-2.459-4.74-4.563c5.599,0.779,10.847,3.134,16.467,3.806
			c8.593,1.278,17.439,0.351,25.71-2.231c3.966-1.426,8.033-3.396,10.552-6.909c1.722-4.166-0.324-8.679-0.689-12.927
			C85.074,183.844,79.599,172.202,81.116,159.889z"/>
		<path id="path21" d="M81.116,159.889c0.295-4.373,3.123-8.082,6.786-10.293c5.428,0.704,9.614,4.637,12.258,9.203
			c4.591,7.941,6.527,17.09,7.637,26.105c0.93,9.676,1.215,19.645-1.722,29.033c-1.919,6.98-7.622,12.441-14.184,15.188
			c-5.322,2.23-11.225,1.668-16.843,1.438c-12.501-1.125-25.746-3.612-35.648-11.879c-1.75-1.326-3.815-2.459-4.74-4.563
			c5.599,0.779,10.847,3.134,16.467,3.806c8.593,1.278,17.439,0.351,25.71-2.231c3.966-1.426,8.033-3.396,10.552-6.909
			c1.722-4.166-0.324-8.679-0.689-12.927C85.074,183.844,79.599,172.202,81.116,159.889z"/>
		<path id="path23" fill="none" stroke="#000000" stroke-width="0.1" stroke-miterlimit="10" d="M103.618,159.932
			c-0.882-5.25,3.963-10.658,9.293-10.104c8.14,0.042,14.344,6.463,18.583,12.756c7.042,11.295,12.007,23.795,15.847,36.504
			c4.839,16.909,0.436,34.48-4.171,50.904c-3.232,9.652-9.202,18.044-15.12,26.214c-3.357,4.536-5.809,9.866-10.353,13.411
			c-0.024-0.323-0.072-0.973-0.096-1.295c3.872-5.36,5.478-11.9,8.078-17.896c4.999-15.262,10.37-31.188,8.237-47.477
			c-2.012-10.92-4.904-22.145-12.022-30.955C114.428,182.299,104.73,172.788,103.618,159.932z"/>
		<path id="path25" d="M103.618,159.932c-0.882-5.25,3.963-10.658,9.293-10.104c8.14,0.042,14.344,6.463,18.583,12.756
			c7.042,11.295,12.007,23.795,15.847,36.504c4.839,16.909,0.436,34.48-4.171,50.904c-3.232,9.652-9.202,18.044-15.12,26.214
			c-3.357,4.536-5.809,9.866-10.353,13.411c-0.024-0.323-0.072-0.973-0.096-1.295c3.872-5.36,5.478-11.9,8.078-17.896
			c4.999-15.262,10.37-31.188,8.237-47.477c-2.012-10.92-4.904-22.145-12.022-30.955
			C114.428,182.299,104.73,172.788,103.618,159.932z"/>
		<g id="XMLID_1_">
			<g id="g28">
				<path id="path30" fill="none" stroke="#000000" stroke-width="4.5" stroke-miterlimit="100" d="M243.812,7.486
					c0.818,0.35,1.65,0.714,2.504,1.058c5.656,2.746,9.998,7.043,8.906,12.928c-0.375,2.736-2.656,5.588-4.971,7.547
					c-2.35,1.904-5.858,2.355-7.193,5.375c-2.062,5.726-6.435,12.285-13.32,11.754c-0.744-0.044-1.45-0.247-2.084-0.507"/>
				<path id="path32" fill="none" stroke="#000000" stroke-width="4.5" stroke-miterlimit="100" d="M227.652,45.642
					c-0.065-0.028-0.123-0.053-0.189-0.081l-0.008-0.003c-0.635-0.28-1.271-0.649-1.816-1.156c-5.142-4.6-3.434-12.296-0.728-17.747
					c1.255-3.056-0.856-5.904-1.102-8.913c-0.187-3.025,0.293-6.647,2.008-8.811c3.492-4.861,9.6-4.702,15.488-2.522
					c0.848,0.38,1.686,0.729,2.506,1.078"/>
			</g>
		</g>
		<line id="line34" fill="none" stroke="#000000" stroke-miterlimit="100" x1="244.697" y1="5.448" x2="226.687" y2="47.682"/>
		<line id="line36" fill="none" stroke="#000000" stroke-miterlimit="100" x1="236.048" y1="5.217" x2="221.799" y2="38.634"/>
		<line id="line38" fill="none" stroke="#000000" stroke-miterlimit="100" x1="250.841" y1="11.579" x2="236.84" y2="44.413"/>
		<polyline id="polyline40" fill="#FFFFFF" stroke="#000000" stroke-miterlimit="100" points="244.41,32.395 235.023,28.392 
			225.381,24.278 		"/>
		<polyline id="polyline42" fill="#FFFFFF" stroke="#000000" stroke-miterlimit="100" points="252.514,27.099 238.184,20.987 
			223.71,14.814 		"/>
		<polyline id="polyline44" fill="#FFFFFF" stroke="#000000" stroke-miterlimit="100" points="240.619,39.529 231.866,35.796 
			222.798,31.928 		"/>
		<polyline id="polyline46" fill="#FFFFFF" stroke="#000000" stroke-miterlimit="100" points="234.414,45.635 228.707,43.201 
			222.342,40.485 		"/>
		<polyline id="polyline48" fill="#FFFFFF" stroke="#000000" stroke-miterlimit="100" points="255.671,19.694 241.341,13.582 
			226.869,7.409 		"/>
	</g>
</g>
<g id="Soccer" display="none">
	<g id="Black_10_" display="inline">
		<path d="M117.163,73.848c13.524,1.706,27.135,3.15,40.786,2.92c6.136,0.008,12.645,0.205,18.295-2.561
			c3.264-2.302,6.336-6.75,4.238-10.794c-2.515-4.375-7.617-6.611-12.402-7.435c-10.658-0.759-21.28,0.821-31.893,1.574
			c-17.685,1.791-35.369,3.786-53.137,4.463c-10.848,1.287-21.983,1.338-32.54,4.277c1.434,0.517,2.92,0.902,4.445,1.015
			C75.669,69.657,96.371,72.226,117.163,73.848z"/>
		<path d="M257.076,96.089c-2.561-8.924-8.135-17.373-16.873-21.197c-4.596-0.393-10.525,1.21-11.93,6.181
			c-1.16,8.042,3.834,15.196,8.121,21.52c3.699,5.441,8.387,10.613,9.594,17.304c-6.6,4.915-13.533,9.385-20.786,13.265
			c-4.949,2.22-10.175,3.736-15.184,5.809c-3.355,1.432-7.125,2.438-9.666,5.218c2.133,0.87,4.463,0.536,6.695,0.437
			c11.242-0.83,22.604-1.738,33.441-5.044c7.443-2.449,15.104-5.919,19.707-12.57c1.763-3.357,2.134-7.266,2.271-11.001
			C262.609,108.938,258.768,102.768,257.076,96.089z"/>
		<path d="M154.644,119.861c-8.941,1.175-15.686,7.964-21.518,14.284c-6.569,6.822-11.853,14.711-17.584,22.216
			c-3.4,5.105-6.497,10.625-7.638,16.721c-0.617,3.57,1.544,7.505,5.177,8.354c4.871,1.979,10.235-0.074,14.003-3.334
			c11.879-10.754,23.484-22.082,32.369-35.513c2.999-4.355,5.367-9.311,5.926-14.62c0.085-2.156-0.413-4.946-2.795-5.651
			C160.034,121.285,157.529,119.435,154.644,119.861z"/>
		<path d="M172.107,141.4c-10.387,5.202-16.377,15.62-23.267,24.471c-20.378,28.703-38.357,58.995-57.394,88.583
			c-2.573,4.778-5.659,9.358-7.552,14.462c1.414-0.42,2.876-0.932,3.811-2.146c5.827-6.854,12.319-13.102,19.184-18.908
			c13.409-11.193,25.265-24.071,37.965-36.036c10.577-10.435,21.541-20.546,30.745-32.265c6.286-8.013,12.592-16.424,15.553-26.307
			c1.355-4.176,0.765-9.204-2.479-12.361C183.611,137.643,177.15,138.657,172.107,141.4z"/>
		<path d="M51.287,200.146c-12.682,0-22.963,10.28-22.963,22.963s10.281,22.964,22.963,22.964s22.963-10.281,22.963-22.964
			C74.25,210.428,63.969,200.146,51.287,200.146z M51.287,240.073c-9.354,0-16.963-7.609-16.963-16.964
			c0-9.354,7.609-16.963,16.963-16.963s16.963,7.608,16.963,16.963C68.25,232.464,60.641,240.073,51.287,240.073z"/>
		<circle cx="217.968" cy="44.342" r="22"/>
	</g>
</g>
<g id="Softball" display="none">
	<g id="Black_9_" display="inline">
		<path d="M53.38,85.667c7.242,6.251,15.547,11.268,24.38,14.927c4.409,1.742,9.733,2.571,14.133,0.429
			c6.593-3.838,6.421-14.167,0.629-18.635c-6.093-5.132-14.068-6.744-21.334-9.504c-4.765-1.582-9.744-3.867-12.435-8.34
			c-3.9-6.051-3.15-14.221,0.616-20.148c6.995-11.656,18.755-19.365,30.433-25.744c-13.156,0.129-26.843,4.207-36.25,13.786
			c-6.384,5.582-11.805,12.889-12.857,21.521C38.712,65.898,44.784,77.728,53.38,85.667z"/>
		<path d="M271.466,56.99c-1.129-12.287-14.081-22.661-26.337-19.456c-5.992,1.388-10.298,6.79-11.596,12.636
			c-2.061,7.247-3.793,16.309,1.813,22.444c-4.84,6.519-12.861,8.773-19.859,12.102c-4.818,2.132-9.969,3.406-15.135,4.35
			c-14.803,2.097-29.375-2.604-44.088-3.235c-3.898,0.532-8.061,1.669-10.815,4.665c-1.529,2.031-2.472,4.949-1.313,7.369
			c2.055,5.848,7.942,9.382,13.77,10.574c10.277,2.557,20.818,0.223,31.211,0.053c16.219-1.375,29.762-11.432,41.921-21.413
			c3.794-2.698,6.185-6.783,8.435-10.753c2.362,1.113,4.854,2.205,7.531,2.092c7.057,0.485,13.122-3.879,18.264-8.178
			C269.148,67.046,272.023,62.16,271.466,56.99z"/>
		<path d="M108.298,166.25c-6.692,5.076-8.705,13.625-11.873,20.963c-3.066,8.276-6.74,16.374-11.538,23.801
			c-9.982,14.135-23.752,24.897-37.259,35.452c-9.614,6.546-19.021,13.395-28.731,19.798c2.395-0.031,4.755-0.521,6.989-1.375
			c13.438-5.002,26.924-9.936,39.943-15.969c17.1-7.967,33.101-19.311,44.061-34.875c7.831-10.999,15.003-22.906,18.204-36.146
			c1.197-4.494,0.72-9.307-1.888-13.213C120.839,160.492,113.175,162.035,108.298,166.25z"/>
		<path d="M165.589,169.664c-6.948-2.793-14.007-5.764-21.513-6.535c-4.924,1.227-10.926,4.156-11.301,9.9
			c0.591,5.861,4.18,10.955,8.11,15.144c5.094,4.806,11.875,7.109,18.252,9.669c6.771,2.336,12.979,6.006,19.152,9.571
			c6.377,3.93,8.232,11.698,9.734,18.517c2.763,16.146,1.672,32.592,0.764,48.85c3.716-4.706,6.955-9.989,8.283-15.899
			c4.049-15.323,6.656-31.069,6.973-46.931c-0.275-6.584-2.969-12.774-6.882-17.994C189.085,183.186,177.668,175.35,165.589,169.664
			z"/>
		<path d="M97.313,34.251c4.384,0,7.938-3.554,7.938-7.938c0-4.384-3.554-7.938-7.938-7.938c-4.384,0-7.938,3.554-7.938,7.938
			C89.375,30.697,92.929,34.251,97.313,34.251z M97.313,24.375c1.068,0,1.938,0.869,1.938,1.938c0,1.069-0.869,1.938-1.938,1.938
			c-1.069,0-1.938-0.869-1.938-1.938C95.375,25.244,96.245,24.375,97.313,24.375z"/>
		<circle cx="121.938" cy="60.438" r="22.175"/>
	</g>
</g>
<g id="Swimming" display="none">
	<g id="Black_8_" display="inline">
		<path d="M97.454,78.452c10.295,13.967,20.592,27.969,32.192,40.894c4.491,4.976,11.638,7.827,18.172,5.468
			c4.804-2.087,6.966-8.526,4.28-13.054c-1.849-3.034-4.439-5.519-6.833-8.113c-6.393-6.25-12.791-12.502-19.504-18.409
			C106.364,67.66,87.355,49.653,67.939,32.093c-1.416-1.302-3.077-2.287-4.797-3.128c0.856,3.301,3.135,5.954,4.849,8.838
			C77.498,51.577,87.36,65.101,97.454,78.452z"/>
		<path d="M73.584,194.589c16.201-8.631,32.331-18.409,44.338-32.556c2.57-3.246,5.075-6.738,6.234-10.76
			c0.847-8.734-4.859-16.106-9.779-22.7c-10.63-13.398-22.323-27.756-39.335-32.935c-4.326,1.999-8.97,4.704-10.552,9.509
			c-1.079,4.394,0.282,9.056,2.51,12.878c4.241,7.441,10.441,13.565,16.975,19.009c5.573,4.749,12.252,7.918,18.064,12.338
			c-12.795,12.834-24.356,26.795-36.237,40.461c-4.708,5.428-10.454,9.883-14.86,15.584l1.534,0.092
			C59.736,202.34,66.52,198.169,73.584,194.589z"/>
		<path d="M285.232,239.632c-14.197,0.252-23.479,13.634-37.114,15.979c-9.32,2.207-18.082-2.707-26.175-6.631
			c-9.366-4.532-19.271-9.597-30.004-8.664c-16.502,1.014-29.297,14.563-45.955,14.867c-12.084,0.196-21.285-9.524-33.006-10.996
			c-11.907-1.707-23.493,2.806-34.385,7.049c0.043-12.432,0.026-24.864,0.022-37.297c0.236-2.219-1.182-4.887-3.73-4.582
			c-23.628,0.045-47.257,0.013-70.885,0.023v6.003c22.793,0,45.585-0.002,68.378,0c0.046,13.18-0.077,26.358,0.047,39.533
			c-0.195,1.688,1.226,2.738,2.286,3.789c11.693-2.75,22.608-9.385,34.966-8.753c12.628,1.049,22.442,11.626,35.358,11.271
			c11.089,0.575,21.116-4.923,30.784-9.593c8.111-3.892,17.51-6.955,26.461-4.176c12.361,3.532,22.896,11.899,35.615,14.442
			c6.436,0.912,13.109,0.01,19.068-2.6c9.122-3.456,16.233-11.029,25.854-13.326c1.24-0.369,2.662-0.63,3.441-1.798
			C286.945,242.541,285.832,241.063,285.232,239.632z"/>
		<circle cx="180.968" cy="125.344" r="21.875"/>
	</g>
</g>
<g id="Tennis" display="none">
	<g id="Black_7_" display="inline">
		<g>
			<path d="M79.47,121.58c2.582,1.789,5.65,3.566,8.727,1.75c0.036-0.843,0.105-2.527,0.14-3.369
				c11.007,2.402,22.332,2.053,33.522,1.829c5.067-0.495,10.04-1.662,15.064-2.459c6.568-1.346,13.908-2.555,18.623-7.796
				c4.177-4.462,2.271-13.796-4.425-14.344c-7.42-0.158-13.677,4.566-20.261,7.331c-19.251,7.749-41.033,8.787-61.065,3.606
				c-6.448-3.266-12.745-7.01-18.745-11.019c0.429-2.979,1.708-5.954,1.101-9.002C50.217,73.981,36.046,63.01,21.904,64.268
				c-5.83,0.169-11.323,3.423-14.615,8.168c-2.86,5.357-2.656,12.016-0.392,17.554c4.753,10.255,15.693,17.482,27.075,17.233
				c4.864,0.102,9.584-1.892,13.313-4.937c3.835,1.852,7.008,4.747,10.739,6.767C65.308,112.993,72.397,117.277,79.47,121.58z
				 M39.233,100.137c-9.413,3.137-20.221-1.964-25.312-10.145C11,85.72,10.507,79.848,12.954,75.255
				c1.87-2.377,4.619-3.998,7.576-4.595c11.92-2.254,24.575,7.27,25.642,19.378C45.933,94.307,43.465,98.741,39.233,100.137z"/>
			<path d="M212.277,107.819c11.826,4.397,25.531,3.576,36.234,10.926c4.411,2.85,7.053,7.908,7.047,13.142
				c-0.049,11.29-3.437,22.657-10.312,31.688c3.767,0.212,5.91-3.69,8.69-5.667c11.285-9.49,16.989-25.176,13.903-39.65
				c-1.299-6.402-6.128-11.251-11.088-15.126c-8.774-6.195-19.168-9.641-29.646-11.611c-5.996-0.737-12.334-0.499-17.975,1.836
				c-2.525,1.049-5.224,3.548-4.3,6.545C206.019,103.491,208.579,106.652,212.277,107.819z"/>
			<path d="M253.178,229.626c-9.352-4.469-18.881-10.562-23.126-20.457c-4.909-12.778-4.067-26.705-5.023-40.12
				c-0.6-5.64-0.979-11.759-4.514-16.468c-4.168-6.124-15.336-6.841-18.925,0.271c-2.876,5.58-2.167,12.168-1.641,18.2
				c2.598,16.972,8.179,33.479,16.364,48.567c6.019,8.933,16.595,13.158,26.668,15.64c11.379,2.554,22.756,5.123,34.136,7.683
				c3.17,0.33,7.401,1.84,9.782-1.065C275.717,237.636,263.904,235.059,253.178,229.626z"/>
			<path d="M192.869,150.957c-4.168-2.54-9.43-1.803-13.824-0.289c-11.773,4.805-21.484,13.225-31.363,21.003
				c-29.334,23.354-58.806,46.544-88.072,69.979c-1.911,1.414-4.009,2.543-6.128,3.613c0.46,0.368,0.921,0.741,1.383,1.118
				c6.338-2.177,12.528-4.807,18.349-8.14c33.863-18.84,68.132-36.942,101.78-56.166c5.938-3.346,12.023-6.516,17.455-10.665
				c3.836-3.001,6.906-8.162,5.263-13.119C196.65,155.576,195.589,152.445,192.869,150.957z"/>
			<path d="M30.406,116.313c-4.988,0-9.031,4.043-9.031,9.031c0,4.988,4.043,9.031,9.031,9.031c4.988,0,9.031-4.043,9.031-9.031
				C39.437,120.356,35.394,116.313,30.406,116.313z M30.406,128.375c-1.671,0-3.031-1.36-3.031-3.031
				c0-1.671,1.36-3.031,3.031-3.031c1.672,0,3.031,1.36,3.031,3.031C33.437,127.015,32.077,128.375,30.406,128.375z"/>
			<circle cx="165.449" cy="66.676" r="21.699"/>
		</g>
	</g>
</g>
<g id="Track" display="none">
	<g id="Black_6_" display="inline">
		<path d="M104.422,47.727c10.115-4.038,21.298-1.269,30.866,2.97c10.676,5.017,21.583,12.316,25.963,23.775
			c1.965,4.676,0.675,10.132-2.701,13.797c-2.655,2.269-6.434,1.636-9.616,1.315c-7.226-1.551-11.648-7.978-17.264-12.188
			c-4.867-4.284-10.048-8.922-16.636-10.107c-5.877-0.971-10.982,2.918-14.749,6.952c-5.669,6.993-9.25,15.397-12.042,23.882
			c-1.814,7.4-5.674,14.461-5.209,22.271c-0.552-7.204-2.607-14.216-2.804-21.455c-0.368-9.334,0.816-18.72,3.16-27.745
			C87.689,61.522,94.333,51.949,104.422,47.727z"/>
		<path d="M196.646,53.913c7.322-0.85,15.021,2.023,19.936,7.537c3.334,4.104,5.572,9.274,5.537,14.615
			c-0.646,6.494-3.914,12.911-9.367,16.643c-6.428,4.556-15.215,5.505-22.447,2.347c-10.746-4.083-17.005-17.916-11.48-28.365
			C181.932,59.582,189.096,54.957,196.646,53.913z"/>
		<path d="M272.883,91.662c0.434-0.024,0.871-0.035,1.313-0.027c-0.185,3.852,0.82,7.701,0.185,11.538
			c-1.017,6.596-3.673,12.791-6.55,18.764c-6.32,14.098-18.271,25.74-32.762,31.219c-6.651,2.346-14.543,2.166-20.537-1.84
			c-9.694-6.33-17.318-15.982-20.652-27.125c-2.111-6.018-2.184-13.245,1.445-18.699c1.814-2.39,4.266-5.059,7.545-4.88
			c3.388,0.313,6.416,2.348,8.462,5c4.817,6.323,5.825,14.547,9.796,21.298c3.322,4.354,8.693,9.526,14.633,6.979
			c7.157-3.026,13.182-8.173,19-13.22c7.358-6.328,12.48-14.775,16.567-23.473C272.148,95.451,272.721,93.591,272.883,91.662z"/>
		<path d="M94.081,132.092c4.257-3.605,10.544-3.255,15.495-1.452c4.974,2.115,10.214,3.749,14.755,6.757
			c7.051,4.518,13.789,9.584,19.817,15.404c6.811,5.506,13.136,11.648,18.556,18.54c4,4.705,8.176,10.202,7.86,16.718
			c-2.955,9.494-11.09,16.436-19.553,21.082c-11.225,5.707-23.744,7.971-35.74,11.474c-5.188,1.675-10.634,2.284-16.029,2.864
			c-6.109,0.33-12.251,1.592-18.356,0.511c3.912-2.845,8.648-4.108,12.948-6.214c12.347-5.33,23.968-12.164,35.998-18.153
			c5.096-2.468,10.087-5.611,13.001-10.634c-0.156-1.105-0.308-2.205-0.455-3.305c-3.425-3.467-7.653-5.943-12.011-8.045
			c-5.085,4.203-10.947,7.4-15.631,12.094c-12.854,9.566-27.063,17.067-40.752,25.346c-18.428,10.355-35.862,22.431-54.64,32.177
			c-1.094,0.394-2.215,0.697-3.362,0.916c7.211-7.856,15.608-14.544,22.708-22.509c10.246-10.732,20.492-21.471,31.182-31.764
			c11.29-10.871,22.263-22.063,32.726-33.733c-4.413-4.08-10.111-7.839-11.452-14.096C89.873,141.336,90.623,135.746,94.081,132.092
			z"/>
	</g>
</g>
<g id="TrackFieldHurdle" display="none">
	<g id="Black_5_" display="inline">
		<path d="M83.81,38.331c9.261-5.733,20.754-4.948,30.913-2.435c11.385,3.087,23.394,8.381,29.697,18.906
			c2.747,4.263,2.424,9.86-0.264,14.056c-2.221,2.696-6.052,2.729-9.242,2.965c-7.385-0.272-12.857-5.834-19.118-9.005
			c-5.537-3.374-11.445-7.042-18.138-7.064c-5.956,0.064-10.309,4.781-13.318,9.408c-4.369,7.871-6.436,16.77-7.712,25.61
			c-0.501,7.602-3.077,15.227-1.263,22.837c-1.794-6.999-5.036-13.547-6.487-20.642c-1.983-9.128-2.447-18.578-1.706-27.873
			C69.727,54.822,74.608,44.241,83.81,38.331z"/>
		<path d="M175.708,28.408c7.063-2.108,15.144-0.616,20.941,3.961c3.996,3.463,7.098,8.166,7.991,13.431
			c0.49,6.508-1.613,13.395-6.335,18.017c-5.539,5.603-14.028,8.063-21.699,6.209c-11.292-2.155-19.857-14.691-16.231-25.941
			C162.201,36.546,168.453,30.748,175.708,28.408z"/>
		<path d="M257.341,52.346c0.423-0.099,0.852-0.186,1.288-0.255c0.487,3.826,2.146,7.442,2.186,11.331
			c0.144,6.673-1.396,13.235-3.192,19.617c-3.776,14.981-13.524,28.521-26.843,36.434c-6.143,3.465-13.945,4.658-20.544,1.754
			c-10.646-4.55-19.831-12.732-25.05-23.127c-3.124-5.56-4.45-12.664-1.823-18.665c1.372-2.669,3.322-5.723,6.583-6.117
			c3.391-0.28,6.727,1.199,9.201,3.455c5.843,5.391,8.263,13.314,13.346,19.273c4.028,3.711,10.216,7.872,15.622,4.332
			c6.523-4.223,11.563-10.338,16.416-16.319c6.147-7.51,9.725-16.717,12.239-25.993C257.275,56.205,257.517,54.273,257.341,52.346z"
			/>
		<path d="M88.276,123.21c3.566-4.289,9.818-5.036,15.007-4.12c5.266,1.219,10.71,1.918,15.704,4.092
			c7.729,3.225,15.244,7.044,22.191,11.729c7.663,4.239,14.959,9.19,21.493,15.036c4.757,3.939,9.823,8.627,10.645,15.099
			c-1.262,9.863-8.067,18.112-15.595,24.157c-10.064,7.569-21.999,11.973-33.205,17.506c-4.818,2.55-10.076,4.096-15.288,5.604
			c-5.959,1.386-11.789,3.695-17.988,3.69c3.358-3.48,7.803-5.548,11.672-8.367c11.234-7.394,21.492-16.142,32.299-24.129
			c4.59-3.315,8.959-7.277,10.957-12.729c-0.346-1.062-0.686-2.118-1.022-3.176c-3.975-2.819-8.569-4.524-13.225-5.837
			c-4.278,5.022-9.496,9.188-13.294,14.624c-10.997,11.653-23.688,21.508-35.731,32.037c-16.35,13.398-31.422,28.317-48.222,41.176
			c-1.009,0.578-2.061,1.071-3.152,1.486c5.737-8.989,12.845-17.033,18.455-26.11c8.226-12.349,16.453-24.702,25.192-36.695
			c9.231-12.667,18.094-25.595,26.372-38.904c-5.055-3.251-11.319-5.964-13.726-11.893C85.737,133.044,85.505,127.409,88.276,123.21
			z"/>
		<g>
			<g>
				<path d="M219.679,259.565c10.843-0.105,21.69-0.011,32.534-0.043v6c-11.212-0.063-22.424,0.125-33.636-0.096
					C217.673,263.133,218.058,259.244,219.679,259.565z"/>
			</g>
			<path d="M252.161,163.225c0.105,34.1,0.011,68.211,0.043,102.313h-6c0.063-35.257-0.125-70.519,0.096-105.773
				C248.593,156.918,252.481,158.129,252.161,163.225z"/>
		</g>
	</g>
</g>
<g id="TrackFieldPoleVault" display="none">
	<g id="Black_4_" display="inline">
		<g>
			<path d="M56.455,176.518c10.501-20.068,20.454-40.424,29.951-60.988c2.801-6.799,6.493-13.292,8.193-20.495
				c0.809-3.287,0.428-6.971-1.729-9.685c-1.259-1.589-2.618-3.989-5.029-3.458c-4.03-0.152-8.191,1.844-10.106,5.485
				c-3.143,5.956-4.31,12.668-6.25,19.056c-3.503,12.984-6.127,26.175-9.465,39.198c-2.51,9.929-5.67,19.685-8.205,29.605
				c-0.101,1.548-1.184,3.412,0.134,4.721C55.497,179.649,55.601,177.61,56.455,176.518z"/>
			<path d="M136.174,68.628c-0.783,3.067,0.514,6.47,3.097,8.276c5.62,4.246,13.414,3.536,19.707,1.354
				c12.918-5.544,25.97-10.795,38.717-16.725c16.023-8.308,32.294-16.118,48.302-24.456c7.151-3.759,15.045-6.244,21.584-11.094
				c-0.687-0.109-2.058-0.323-2.743-0.432c-32.418,7.801-64.686,16.239-97.046,24.27c-8.658,2.451-17.884,4.256-25.244,9.747
				C139.993,62.206,136.698,64.742,136.174,68.628z"/>
			<circle cx="49.201" cy="100.334" r="22"/>
		</g>
		<path d="M124.246,107.434c0.105,53.182,0.011,106.381,0.043,159.566h-6c0.063-54.986-0.125-109.979,0.096-164.963
			C120.677,97.599,124.566,99.488,124.246,107.434z"/>
		<g>
			<path d="M130.25,116.75c4.143,0,7.5,3.359,7.5,7.5c0,4.143-3.357,7.5-7.5,7.5c-4.142,0-7.5-3.357-7.5-7.5
				C122.75,120.107,126.108,116.75,130.25,116.75 M130.25,122.75c-0.827,0-1.5,0.673-1.5,1.5c0,0.827,0.673,1.5,1.5,1.5
				c0.827,0,1.5-0.673,1.5-1.5C131.75,123.423,131.077,122.75,130.25,122.75L130.25,122.75z"/>
		</g>
		<path d="M52.34,193.534c-4.238,24.402-8.598,48.792-12.879,73.188l-3.553-0.627c4.484-25.212,8.82-50.454,13.397-75.648
			C51.022,188.649,53.173,189.921,52.34,193.534z"/>
	</g>
</g>
<g id="Volleyball_1_" display="none">
	<g id="Black_3_" display="inline">
		<path d="M116.371,71.388c11.985-10.679,26.72-17.383,41.229-23.866c8.894-4.089,17.825-8.089,26.68-12.256
			c2.578-1.274,5.677-1.421,7.921-3.35c-5.123,0.103-10.041,1.8-15.064,2.632c-23.096,4.322-44.977,13.069-67.033,20.886
			c-8.308,3.248-16.417,7.029-24.1,11.57c-1.892,1.161-3.453,2.758-5.007,4.323C53.998,71.455,26.999,71.337,0,71.386v5.994
			c26.362-0.006,52.725,0.014,79.087-0.011c0.112,3.692,2.295,7.376,5.986,8.394c11.264,1.974,19.072-10.357,30.362-8.431
			c-0.772,2.067-1.481,4.346-0.618,6.513c2.414,6.201,7.81,10.873,13.746,13.614c9.256,3.568,18.589,7.058,28.289,9.234
			c19.789,4.619,40.25,1.988,60.215,0.136c-0.381-0.279-1.137-0.836-1.515-1.115c-5.43-1.42-11.043-1.954-16.579-2.794
			c-15.089-2.902-30.562-5.449-44.277-12.775c-7.731-2.9-14.105-8.178-20.809-12.813C189.257,77.449,244.629,77.34,300,77.386V71.38
			C238.791,71.386,177.581,71.37,116.371,71.388z"/>
		<path d="M131.948,155.255c-3.7-3.969-7.099-8.355-11.729-11.323c-2.61-1.886-5.914-2.117-8.977-2.667
			c-1.951,1.323-4.46,2.281-5.473,4.585c-1.598,3.113-0.734,6.684-0.503,9.991c-2.456-0.895-3.251-3.509-4.644-5.45
			c-3.406-5.423-8.127-10.622-14.701-11.893c-2.903,0.575-5.997,2.044-7.269,4.895c-1.526,3.835-0.763,8.05-0.232,12.007
			c-26.14-0.041-52.281-0.018-78.422-0.016v5.994c26.772,0.012,53.543-0.023,80.314,0.02c7.927,20.172,23.751,36.513,29.292,57.738
			c6.085,19.143,11.167,38.62,15.391,58.225c0.704-3.4,0.269-6.879,0.172-10.313c-0.446-8.668-0.511-17.381-1.828-25.978
			c-1.509-10.1-3.142-20.176-4.694-30.266c-2.103-17.096-8.607-33.214-12.275-49.973c2.44,2.052,3.455,5.16,5.114,7.784
			c7.12,11.813,17.309,21.311,25.387,32.426c8.637,10.543,13.473,23.429,19.475,35.506c3.993,7.779,6.965,16.013,10.36,24.058
			c1.976,4.996,4.425,9.867,5.446,15.185c0.353-0.03,1.059-0.089,1.412-0.118c-2.28-11.514-4.657-23.027-7.573-34.396
			c-4.507-14.188-9.13-28.342-13.808-42.471c-5.466-12.516-11.064-24.979-16.691-37.424c54.836,0.003,109.671-0.009,164.507,0.006
			v-6.006C243.982,155.296,187.954,155.552,131.948,155.255z"/>
		<path d="M185.312,49.464c0,11.305,9.164,20.469,20.47,20.469c11.305,0,20.469-9.164,20.469-20.469
			c0-11.305-9.164-20.469-20.469-20.469C194.477,28.995,185.312,38.159,185.312,49.464z M205.781,34.995
			c7.978,0,14.469,6.491,14.469,14.469c0,7.978-6.49,14.469-14.469,14.469c-7.98,0-14.469-6.491-14.469-14.469
			C191.312,41.486,197.802,34.995,205.781,34.995z"/>
		<circle cx="95.5" cy="36.35" r="21.875"/>
	</g>
</g>
<g id="Wrestling_1_" display="none">
	<g id="Black_2_" display="inline">
		<path d="M186.656,110.442c-2.6-4.81-9.817-6.478-14.129-3.049c-2.26,2.441-3.354,5.699-4.346,8.81
			c-2.254,8.23-3.349,15.964-6.682,24.297l-1.811-0.216c-5.521-0.72-11.083-0.967-16.642-1.054
			c-9.888-1.082-20.063-3.998-27.792-10.507c-8.384-8.569-8.574-21.427-8.922-32.663c-0.351-5.878,0.133-12.279-3.005-17.528
			c-4.125-4.503-12.228-3.91-16.292,0.438c-4.967,4.945-5.627,12.43-5.906,19.063c0.135,13.432,5.563,27.056,15.513,36.219
			c8.136,7.588,19.432,10.801,30.365,10.936c7.316,0.019,14.712,1.2,21.962-0.246c2.915-0.832,5.837-1.627,8.8-2.285
			c1.395-0.323,3.436-0.823,3.436-0.823c-2.676,3.159-6.596,8.808-10.327,10.836c-6.896,3.92-15.117,4.634-22.9,4.603
			c-5.797-0.774-11.612-2.256-17.503-1.437c2.204,2.621,5.468,3.727,8.442,5.211c5.541,2.852,11.914,2.961,17.914,4.142
			c10.938,1.588,22.991,0.852,32.124-6.039c5.762-3.953,9.832-9.765,13.451-15.626c3.736-6.185,5.836-13.274,6.453-20.452
			C189.094,118.784,189.166,114.146,186.656,110.442z"/>
		<path d="M50.566,131.139c-5.344,0.898-9.063,5.546-11.064,10.278c-3.844,9.398-3.99,19.708-5.601,29.608
			c-0.969,9.361-5.507,17.759-8.561,26.527c-4.544,12.723-15.863,20.893-25.341,29.78v8.656c6.276-4.06,13.086-7.304,18.922-12.029
			c19.831-14.612,35.745-35.407,41.687-59.567c1.949-8.439,3.472-17.513,0.741-25.958C59.972,133.925,55.319,130.549,50.566,131.139
			z"/>
		<path d="M82.814,135.983c-5.108-3.734-13.542-2.87-17.171,2.518c-2.68,5.527,0.001,11.79,3.176,16.492
			c8.028,11.097,19.44,19.168,31.04,26.141c3.277,2.169,5.753,5.822,4.982,9.918c-1.156,11.56-5.383,22.548-9.767,33.224
			c-2.967,7.276-7.299,13.923-10.292,21.174c1.392-0.792,2.79-1.602,3.852-2.825c7.623-8.072,15.126-16.332,21.288-25.601
			c5.773-8.496,11.313-17.746,12.601-28.121c1.026-6.527-2.296-12.604-5.345-18.11C108.388,156.912,96.491,145.051,82.814,135.983z"
			/>
		<path d="M204.966,201.271c-1.489-3.535-3.796-7.662-1.94-11.479c1.734-4.515,5.942-7.285,8.73-11.072
			c5.702-7.417,11.614-14.937,14.848-23.825c2.274-5.453,3.971-11.945,0.965-17.477c-3.623-6.501-13.836-5.174-17.971,0.107
			c-10.768,12.684-18.935,27.648-23.594,43.629c-2.094,7.287-2.689,15.522,1.256,22.318c7.706,13,20.199,22.067,32.109,30.93
			c5.639,3.322,10.846,7.772,17.184,9.654c-2.018-3.06-4.859-5.437-7.189-8.24C219.73,225.482,211.3,213.917,204.966,201.271z"/>
		<path d="M278.107,205.916c-3.855-4.521-5.992-10.137-8.723-15.339c-2.236-4.702-5.045-9.188-6.436-14.245
			c-3.022-11.303-4.16-23.328-9.717-33.796c-2.432-4.754-7.104-7.731-12.174-9.006c-2.607,1.387-5.723,2.496-7.258,5.204
			c-2.65,4.438-2.361,9.866-1.723,14.803c2.66,18.67,12.115,35.854,24.764,49.636c11.997,12.952,27.139,22.575,43.158,29.78v-8.178
			C292.639,218.576,284.103,213.596,278.107,205.916z"/>
		<circle cx="134.381" cy="69.342" r="21.6"/>
		<circle cx="141.388" cy="114.344" r="21.599"/>
	</g>
</g>
</svg>
