<?xml version="1.0" encoding="utf-8"?>
<!-- Generator: Adobe Illustrator 18.0.0, SVG Export Plug-In . SVG Version: 6.00 Build 0)  -->
<!DOCTYPE svg PUBLIC "-//W3C//DTD SVG 1.1//EN" "http://www.w3.org/Graphics/SVG/1.1/DTD/svg11.dtd">
<svg version="1.1" xmlns="http://www.w3.org/2000/svg" xmlns:xlink="http://www.w3.org/1999/xlink" x="0px" y="0px"
	 viewBox="0 0 300 300" enable-background="new 0 0 300 300" xml:space="preserve">
<g id="Information">
	<g id="Black_copy">
		<path display="none" fill="none" stroke="#000000" stroke-width="5" d="M58.555,31.018h184.89
			c15.208,0,27.537,12.329,27.537,27.537v184.89c0,15.208-12.329,27.537-27.537,27.537H58.555
			c-15.208,0-27.537-12.329-27.537-27.537V58.555C31.018,43.347,43.347,31.018,58.555,31.018z"/>
		<g>
			<circle cx="149.932" cy="66.998" r="24"/>
			<path d="M114.198,105.932v14.933h5.867c11.733,0,11.733,9.6,11.733,9.6v104.533c0,0,0,9.6-11.733,9.6h-5.867v14.4h73.6v-14.4
				h-5.867c-11.733,0-11.733-9.6-11.733-9.6V105.932"/>
		</g>
	</g>
</g>
</svg>
