<?xml version="1.0" encoding="utf-8"?>
<!-- Generator: Adobe Illustrator 18.0.0, SVG Export Plug-In . SVG Version: 6.00 Build 0)  -->
<!DOCTYPE svg PUBLIC "-//W3C//DTD SVG 1.1//EN" "http://www.w3.org/Graphics/SVG/1.1/DTD/svg11.dtd">
<svg version="1.1" xmlns="http://www.w3.org/2000/svg" xmlns:xlink="http://www.w3.org/1999/xlink" x="0px" y="0px"
	 viewBox="0 0 300 300" enable-background="new 0 0 300 300" xml:space="preserve">
<g id="Lacrosse">
	<g id="Black_11_">
		<path id="path9" fill="none" stroke="#000000" stroke-width="0.1" stroke-miterlimit="10" d="M229.85,47.805
			c0,0-36.072,84.717-54.225,127.023c-0.927,2.906-4.123,2.658-6.291,1.313c-0.177-2.871,1.06-5.466,2.168-8.025
			c-12.504-5.971-22.09-16.529-30.008-27.643c-2.254-1.206-4.807-1.703-7.17-2.649c-14.378-5.253-26.41-15.454-36.082-27.114
			c-4.568-5.323-9.27-10.915-11.363-17.732c-1.474-4.259,0.511-9.319,4.27-11.679c3.011-1.07,6.562-1.482,9.346,0.438
			c8.998,4.832,11.497,15.635,18.059,22.796c4.987,5.13,10.002,10.237,14.948,15.41c-1.507-7.882-2.421-15.904-2.351-23.935
			c0.35-4.434,1.171-9.972,5.578-12.215c4.449-2.858,10.179,1.242,11.568,5.747c2.063,7.605,1.27,15.578,2.256,23.332
			c0.723,5.456,1.529,10.901,2.225,16.361c0.285,1.189,0.092,2.915,1.559,3.376c9.293,3.767,19.148,5.876,28.861,8.262
			c12.724-29.913,25.488-59.807,38.236-89.708c0.825-1.998,2.395-6.034,2.395-6.034L229.85,47.805z"/>
		<path id="path11" d="M223.812,45.125c0,0-1.55,4.033-2.375,6.031c-12.748,29.901-25.525,59.806-38.25,89.719
			c-9.713-2.386-19.551-4.514-28.844-8.281c-1.467-0.461-1.277-2.186-1.563-3.375c-0.695-5.46-1.496-10.888-2.219-16.344
			c-0.986-7.754-0.219-15.739-2.281-23.344c-1.389-4.505-7.113-8.608-11.563-5.75c-4.407,2.243-5.213,7.784-5.563,12.219
			c-0.07,8.031,0.837,16.056,2.344,23.938c-4.946-5.173-9.951-10.276-14.938-15.406C112,97.37,109.498,86.582,100.5,81.75
			c-2.784-1.92-6.333-1.507-9.344-0.437c-3.759,2.36-5.755,7.397-4.281,11.656c2.093,6.817,6.807,12.427,11.375,17.75
			c9.672,11.66,21.685,21.841,36.062,27.094c2.363,0.946,4.934,1.45,7.188,2.656c7.918,11.114,17.496,21.686,30,27.656
			c-1.107,2.561-2.333,5.16-2.156,8.031c2.168,1.346,5.354,1.563,6.281-1.344c18.152-42.306,54.219-127,54.219-127l-3.063-1.375
			L223.812,45.125z M157.062,143.469c8.107,1.639,16.453,1.807,24.656,0.844c-2.938,6.939-5.959,13.849-8.844,20.812
			C166.668,158.652,160.961,151.599,157.062,143.469z"/>
		<path id="path13" fill="none" stroke="#000000" stroke-width="0.1" stroke-miterlimit="10" d="M123.681,37.948
			c5.615-0.756,11.421,1.061,15.935,4.403c5.196,3.909,7.936,10.324,8.534,16.67c-0.314,6.195-2.83,12.49-7.594,16.6
			c-5.792,4.986-14.325,6.759-21.512,3.958c-10.416-3.498-16.889-16.02-13.238-26.481C108.181,45.107,115.426,39.033,123.681,37.948
			z"/>
		<path id="path15" d="M123.681,37.948c5.615-0.756,11.421,1.061,15.935,4.403c5.196,3.909,7.936,10.324,8.534,16.67
			c-0.314,6.195-2.83,12.49-7.594,16.6c-5.792,4.986-14.325,6.759-21.512,3.958c-10.416-3.498-16.889-16.02-13.238-26.481
			C108.181,45.107,115.426,39.033,123.681,37.948z"/>
		<path id="path19" fill="none" stroke="#000000" stroke-width="0.1" stroke-miterlimit="10" d="M81.116,159.889
			c0.295-4.373,3.123-8.082,6.786-10.293c5.428,0.704,9.614,4.637,12.258,9.203c4.591,7.941,6.527,17.09,7.637,26.105
			c0.93,9.676,1.215,19.645-1.722,29.033c-1.919,6.98-7.622,12.441-14.184,15.188c-5.322,2.23-11.225,1.668-16.843,1.438
			c-12.501-1.125-25.746-3.612-35.648-11.879c-1.75-1.326-3.815-2.459-4.74-4.563c5.599,0.779,10.847,3.134,16.467,3.806
			c8.593,1.278,17.439,0.351,25.71-2.231c3.966-1.426,8.033-3.396,10.552-6.909c1.722-4.166-0.324-8.679-0.689-12.927
			C85.074,183.844,79.599,172.202,81.116,159.889z"/>
		<path id="path21" d="M81.116,159.889c0.295-4.373,3.123-8.082,6.786-10.293c5.428,0.704,9.614,4.637,12.258,9.203
			c4.591,7.941,6.527,17.09,7.637,26.105c0.93,9.676,1.215,19.645-1.722,29.033c-1.919,6.98-7.622,12.441-14.184,15.188
			c-5.322,2.23-11.225,1.668-16.843,1.438c-12.501-1.125-25.746-3.612-35.648-11.879c-1.75-1.326-3.815-2.459-4.74-4.563
			c5.599,0.779,10.847,3.134,16.467,3.806c8.593,1.278,17.439,0.351,25.71-2.231c3.966-1.426,8.033-3.396,10.552-6.909
			c1.722-4.166-0.324-8.679-0.689-12.927C85.074,183.844,79.599,172.202,81.116,159.889z"/>
		<path id="path23" fill="none" stroke="#000000" stroke-width="0.1" stroke-miterlimit="10" d="M103.618,159.932
			c-0.882-5.25,3.963-10.658,9.293-10.104c8.14,0.042,14.344,6.463,18.583,12.756c7.042,11.295,12.007,23.795,15.847,36.504
			c4.839,16.909,0.436,34.48-4.171,50.904c-3.232,9.652-9.202,18.044-15.12,26.214c-3.357,4.536-5.809,9.866-10.353,13.411
			c-0.024-0.323-0.072-0.973-0.096-1.295c3.872-5.36,5.478-11.9,8.078-17.896c4.999-15.262,10.37-31.188,8.237-47.477
			c-2.012-10.92-4.904-22.145-12.022-30.955C114.428,182.299,104.73,172.788,103.618,159.932z"/>
		<path id="path25" d="M103.618,159.932c-0.882-5.25,3.963-10.658,9.293-10.104c8.14,0.042,14.344,6.463,18.583,12.756
			c7.042,11.295,12.007,23.795,15.847,36.504c4.839,16.909,0.436,34.48-4.171,50.904c-3.232,9.652-9.202,18.044-15.12,26.214
			c-3.357,4.536-5.809,9.866-10.353,13.411c-0.024-0.323-0.072-0.973-0.096-1.295c3.872-5.36,5.478-11.9,8.078-17.896
			c4.999-15.262,10.37-31.188,8.237-47.477c-2.012-10.92-4.904-22.145-12.022-30.955
			C114.428,182.299,104.73,172.788,103.618,159.932z"/>
		<g id="XMLID_1_">
			<g id="g28">
				<path id="path30" fill="none" stroke="#000000" stroke-width="4.5" stroke-miterlimit="100" d="M243.812,7.486
					c0.818,0.35,1.65,0.714,2.504,1.058c5.656,2.746,9.998,7.043,8.906,12.928c-0.375,2.736-2.656,5.588-4.971,7.547
					c-2.35,1.904-5.858,2.355-7.193,5.375c-2.062,5.726-6.435,12.285-13.32,11.754c-0.744-0.044-1.45-0.247-2.084-0.507"/>
				<path id="path32" fill="none" stroke="#000000" stroke-width="4.5" stroke-miterlimit="100" d="M227.652,45.642
					c-0.065-0.028-0.123-0.053-0.189-0.081l-0.008-0.003c-0.635-0.28-1.271-0.649-1.816-1.156c-5.142-4.6-3.434-12.296-0.728-17.747
					c1.255-3.056-0.856-5.904-1.102-8.913c-0.187-3.025,0.293-6.647,2.008-8.811c3.492-4.861,9.6-4.702,15.488-2.522
					c0.848,0.38,1.686,0.729,2.506,1.078"/>
			</g>
		</g>
		<line id="line34" fill="none" stroke="#000000" stroke-miterlimit="100" x1="244.697" y1="5.448" x2="226.687" y2="47.682"/>
		<line id="line36" fill="none" stroke="#000000" stroke-miterlimit="100" x1="236.048" y1="5.217" x2="221.799" y2="38.634"/>
		<line id="line38" fill="none" stroke="#000000" stroke-miterlimit="100" x1="250.841" y1="11.579" x2="236.84" y2="44.413"/>
		<polyline id="polyline40" fill="#FFFFFF" stroke="#000000" stroke-miterlimit="100" points="244.41,32.395 235.023,28.392 
			225.381,24.278 		"/>
		<polyline id="polyline42" fill="#FFFFFF" stroke="#000000" stroke-miterlimit="100" points="252.514,27.099 238.184,20.987 
			223.71,14.814 		"/>
		<polyline id="polyline44" fill="#FFFFFF" stroke="#000000" stroke-miterlimit="100" points="240.619,39.529 231.866,35.796 
			222.798,31.928 		"/>
		<polyline id="polyline46" fill="#FFFFFF" stroke="#000000" stroke-miterlimit="100" points="234.414,45.635 228.707,43.201 
			222.342,40.485 		"/>
		<polyline id="polyline48" fill="#FFFFFF" stroke="#000000" stroke-miterlimit="100" points="255.671,19.694 241.341,13.582 
			226.869,7.409 		"/>
	</g>
</g>
</svg>
