<?xml version="1.0" encoding="utf-8"?>
<!-- Generator: Adobe Illustrator 18.0.0, SVG Export Plug-In . SVG Version: 6.00 Build 0)  -->
<!DOCTYPE svg PUBLIC "-//W3C//DTD SVG 1.1//EN" "http://www.w3.org/Graphics/SVG/1.1/DTD/svg11.dtd">
<svg version="1.1" xmlns="http://www.w3.org/2000/svg" xmlns:xlink="http://www.w3.org/1999/xlink" x="0px" y="0px"
	 viewBox="0 0 300 300" enable-background="new 0 0 300 300" xml:space="preserve">
<g id="Soccer">
	<g id="Black_10_">
		<path d="M117.163,73.848c13.524,1.706,27.135,3.15,40.786,2.92c6.136,0.008,12.645,0.205,18.295-2.561
			c3.264-2.302,6.336-6.75,4.238-10.794c-2.515-4.375-7.617-6.611-12.402-7.435c-10.658-0.759-21.28,0.821-31.893,1.574
			c-17.685,1.791-35.369,3.786-53.137,4.463c-10.848,1.287-21.983,1.338-32.54,4.277c1.434,0.517,2.92,0.902,4.445,1.015
			C75.669,69.657,96.371,72.226,117.163,73.848z"/>
		<path d="M257.076,96.089c-2.561-8.924-8.135-17.373-16.873-21.197c-4.596-0.393-10.525,1.21-11.93,6.181
			c-1.16,8.042,3.834,15.196,8.121,21.52c3.699,5.441,8.387,10.613,9.594,17.304c-6.6,4.915-13.533,9.385-20.786,13.265
			c-4.949,2.22-10.175,3.736-15.184,5.809c-3.355,1.432-7.125,2.438-9.666,5.218c2.133,0.87,4.463,0.536,6.695,0.437
			c11.242-0.83,22.604-1.738,33.441-5.044c7.443-2.449,15.104-5.919,19.707-12.57c1.763-3.357,2.134-7.266,2.271-11.001
			C262.609,108.938,258.768,102.768,257.076,96.089z"/>
		<path d="M154.644,119.861c-8.941,1.175-15.686,7.964-21.518,14.284c-6.569,6.822-11.853,14.711-17.584,22.216
			c-3.4,5.105-6.497,10.625-7.638,16.721c-0.617,3.57,1.544,7.505,5.177,8.354c4.871,1.979,10.235-0.074,14.003-3.334
			c11.879-10.754,23.484-22.082,32.369-35.513c2.999-4.355,5.367-9.311,5.926-14.62c0.085-2.156-0.413-4.946-2.795-5.651
			C160.034,121.285,157.529,119.435,154.644,119.861z"/>
		<path d="M172.107,141.4c-10.387,5.202-16.377,15.62-23.267,24.471c-20.378,28.703-38.357,58.995-57.394,88.583
			c-2.573,4.778-5.659,9.358-7.552,14.462c1.414-0.42,2.876-0.932,3.811-2.146c5.827-6.854,12.319-13.102,19.184-18.908
			c13.409-11.193,25.265-24.071,37.965-36.036c10.577-10.435,21.541-20.546,30.745-32.265c6.286-8.013,12.592-16.424,15.553-26.307
			c1.355-4.176,0.765-9.204-2.479-12.361C183.611,137.643,177.15,138.657,172.107,141.4z"/>
		<path d="M51.287,200.146c-12.682,0-22.963,10.28-22.963,22.963s10.281,22.964,22.963,22.964s22.963-10.281,22.963-22.964
			C74.25,210.428,63.969,200.146,51.287,200.146z M51.287,240.073c-9.354,0-16.963-7.609-16.963-16.964
			c0-9.354,7.609-16.963,16.963-16.963s16.963,7.608,16.963,16.963C68.25,232.464,60.641,240.073,51.287,240.073z"/>
		<circle cx="217.968" cy="44.342" r="22"/>
	</g>
</g>
</svg>
