<?xml version="1.0" encoding="utf-8"?>
<!-- Generator: Adobe Illustrator 18.0.0, SVG Export Plug-In . SVG Version: 6.00 Build 0)  -->
<!DOCTYPE svg PUBLIC "-//W3C//DTD SVG 1.1//EN" "http://www.w3.org/Graphics/SVG/1.1/DTD/svg11.dtd">
<svg version="1.1" xmlns="http://www.w3.org/2000/svg" xmlns:xlink="http://www.w3.org/1999/xlink" x="0px" y="0px"
	 viewBox="0 0 300 300" enable-background="new 0 0 300 300" xml:space="preserve">
<g id="Softball">
	<g id="Black_9_">
		<path d="M53.38,85.667c7.242,6.251,15.547,11.268,24.38,14.927c4.409,1.742,9.733,2.571,14.133,0.429
			c6.593-3.838,6.421-14.167,0.629-18.635c-6.093-5.132-14.068-6.744-21.334-9.504c-4.765-1.582-9.744-3.867-12.435-8.34
			c-3.9-6.051-3.15-14.221,0.616-20.148c6.995-11.656,18.755-19.365,30.433-25.744c-13.156,0.129-26.843,4.207-36.25,13.786
			c-6.384,5.582-11.805,12.889-12.857,21.521C38.712,65.898,44.784,77.728,53.38,85.667z"/>
		<path d="M271.466,56.99c-1.129-12.287-14.081-22.661-26.337-19.456c-5.992,1.388-10.298,6.79-11.596,12.636
			c-2.061,7.247-3.793,16.309,1.813,22.444c-4.84,6.519-12.861,8.773-19.859,12.102c-4.818,2.132-9.969,3.406-15.135,4.35
			c-14.803,2.097-29.375-2.604-44.088-3.235c-3.898,0.532-8.061,1.669-10.815,4.665c-1.529,2.031-2.472,4.949-1.313,7.369
			c2.055,5.848,7.942,9.382,13.77,10.574c10.277,2.557,20.818,0.223,31.211,0.053c16.219-1.375,29.762-11.432,41.921-21.413
			c3.794-2.698,6.185-6.783,8.435-10.753c2.362,1.113,4.854,2.205,7.531,2.092c7.057,0.485,13.122-3.879,18.264-8.178
			C269.148,67.046,272.023,62.16,271.466,56.99z"/>
		<path d="M108.298,166.25c-6.692,5.076-8.705,13.625-11.873,20.963c-3.066,8.276-6.74,16.374-11.538,23.801
			c-9.982,14.135-23.752,24.897-37.259,35.452c-9.614,6.546-19.021,13.395-28.731,19.798c2.395-0.031,4.755-0.521,6.989-1.375
			c13.438-5.002,26.924-9.936,39.943-15.969c17.1-7.967,33.101-19.311,44.061-34.875c7.831-10.999,15.003-22.906,18.204-36.146
			c1.197-4.494,0.72-9.307-1.888-13.213C120.839,160.492,113.175,162.035,108.298,166.25z"/>
		<path d="M165.589,169.664c-6.948-2.793-14.007-5.764-21.513-6.535c-4.924,1.227-10.926,4.156-11.301,9.9
			c0.591,5.861,4.18,10.955,8.11,15.144c5.094,4.806,11.875,7.109,18.252,9.669c6.771,2.336,12.979,6.006,19.152,9.571
			c6.377,3.93,8.232,11.698,9.734,18.517c2.763,16.146,1.672,32.592,0.764,48.85c3.716-4.706,6.955-9.989,8.283-15.899
			c4.049-15.323,6.656-31.069,6.973-46.931c-0.275-6.584-2.969-12.774-6.882-17.994C189.085,183.186,177.668,175.35,165.589,169.664
			z"/>
		<path d="M97.313,34.251c4.384,0,7.938-3.554,7.938-7.938c0-4.384-3.554-7.938-7.938-7.938c-4.384,0-7.938,3.554-7.938,7.938
			C89.375,30.697,92.929,34.251,97.313,34.251z M97.313,24.375c1.068,0,1.938,0.869,1.938,1.938c0,1.069-0.869,1.938-1.938,1.938
			c-1.069,0-1.938-0.869-1.938-1.938C95.375,25.244,96.245,24.375,97.313,24.375z"/>
		<circle cx="121.938" cy="60.438" r="22.175"/>
	</g>
</g>
</svg>
