<?xml version="1.0" encoding="utf-8"?>
<!-- Generator: Adobe Illustrator 18.0.0, SVG Export Plug-In . SVG Version: 6.00 Build 0)  -->
<!DOCTYPE svg PUBLIC "-//W3C//DTD SVG 1.1//EN" "http://www.w3.org/Graphics/SVG/1.1/DTD/svg11.dtd">
<svg version="1.1" xmlns="http://www.w3.org/2000/svg" xmlns:xlink="http://www.w3.org/1999/xlink" x="0px" y="0px"
	 viewBox="0 0 300 300" enable-background="new 0 0 300 300" xml:space="preserve">
<g id="Swimming">
	<g id="Black_8_">
		<path d="M97.454,78.452c10.295,13.967,20.592,27.969,32.192,40.894c4.491,4.976,11.638,7.827,18.172,5.468
			c4.804-2.087,6.966-8.526,4.28-13.054c-1.849-3.034-4.439-5.519-6.833-8.113c-6.393-6.25-12.791-12.502-19.504-18.409
			C106.364,67.66,87.355,49.653,67.939,32.093c-1.416-1.302-3.077-2.287-4.797-3.128c0.856,3.301,3.135,5.954,4.849,8.838
			C77.498,51.577,87.36,65.101,97.454,78.452z"/>
		<path d="M73.584,194.589c16.201-8.631,32.331-18.409,44.338-32.556c2.57-3.246,5.075-6.738,6.234-10.76
			c0.847-8.734-4.859-16.106-9.779-22.7c-10.63-13.398-22.323-27.756-39.335-32.935c-4.326,1.999-8.97,4.704-10.552,9.509
			c-1.079,4.394,0.282,9.056,2.51,12.878c4.241,7.441,10.441,13.565,16.975,19.009c5.573,4.749,12.252,7.918,18.064,12.338
			c-12.795,12.834-24.356,26.795-36.237,40.461c-4.708,5.428-10.454,9.883-14.86,15.584l1.534,0.092
			C59.736,202.34,66.52,198.169,73.584,194.589z"/>
		<path d="M285.232,239.632c-14.197,0.252-23.479,13.634-37.114,15.979c-9.32,2.207-18.082-2.707-26.175-6.631
			c-9.366-4.532-19.271-9.597-30.004-8.664c-16.502,1.014-29.297,14.563-45.955,14.867c-12.084,0.196-21.285-9.524-33.006-10.996
			c-11.907-1.707-23.493,2.806-34.385,7.049c0.043-12.432,0.026-24.864,0.022-37.297c0.236-2.219-1.182-4.887-3.73-4.582
			c-23.628,0.045-47.257,0.013-70.885,0.023v6.003c22.793,0,45.585-0.002,68.378,0c0.046,13.18-0.077,26.358,0.047,39.533
			c-0.195,1.688,1.226,2.738,2.286,3.789c11.693-2.75,22.608-9.385,34.966-8.753c12.628,1.049,22.442,11.626,35.358,11.271
			c11.089,0.575,21.116-4.923,30.784-9.593c8.111-3.892,17.51-6.955,26.461-4.176c12.361,3.532,22.896,11.899,35.615,14.442
			c6.436,0.912,13.109,0.01,19.068-2.6c9.122-3.456,16.233-11.029,25.854-13.326c1.24-0.369,2.662-0.63,3.441-1.798
			C286.945,242.541,285.832,241.063,285.232,239.632z"/>
		<circle cx="180.968" cy="125.344" r="21.875"/>
	</g>
</g>
</svg>
