<?xml version="1.0" encoding="utf-8"?>
<!-- Generator: Adobe Illustrator 18.0.0, SVG Export Plug-In . SVG Version: 6.00 Build 0)  -->
<!DOCTYPE svg PUBLIC "-//W3C//DTD SVG 1.1//EN" "http://www.w3.org/Graphics/SVG/1.1/DTD/svg11.dtd">
<svg version="1.1" xmlns="http://www.w3.org/2000/svg" xmlns:xlink="http://www.w3.org/1999/xlink" x="0px" y="0px"
	 viewBox="0 0 300 300" enable-background="new 0 0 300 300" xml:space="preserve">
<g id="Tennis">
	<g id="Black_7_">
		<g>
			<path d="M79.47,121.58c2.582,1.789,5.65,3.566,8.727,1.75c0.036-0.843,0.105-2.527,0.14-3.369
				c11.007,2.402,22.332,2.053,33.522,1.829c5.067-0.495,10.04-1.662,15.064-2.459c6.568-1.346,13.908-2.555,18.623-7.796
				c4.177-4.462,2.271-13.796-4.425-14.344c-7.42-0.158-13.677,4.566-20.261,7.331c-19.251,7.749-41.033,8.787-61.065,3.606
				c-6.448-3.266-12.745-7.01-18.745-11.019c0.429-2.979,1.708-5.954,1.101-9.002C50.217,73.981,36.046,63.01,21.904,64.268
				c-5.83,0.169-11.323,3.423-14.615,8.168c-2.86,5.357-2.656,12.016-0.392,17.554c4.753,10.255,15.693,17.482,27.075,17.233
				c4.864,0.102,9.584-1.892,13.313-4.937c3.835,1.852,7.008,4.747,10.739,6.767C65.308,112.993,72.397,117.277,79.47,121.58z
				 M39.233,100.137c-9.413,3.137-20.221-1.964-25.312-10.145C11,85.72,10.507,79.848,12.954,75.255
				c1.87-2.377,4.619-3.998,7.576-4.595c11.92-2.254,24.575,7.27,25.642,19.378C45.933,94.307,43.465,98.741,39.233,100.137z"/>
			<path d="M212.277,107.819c11.826,4.397,25.531,3.576,36.234,10.926c4.411,2.85,7.053,7.908,7.047,13.142
				c-0.049,11.29-3.437,22.657-10.312,31.688c3.767,0.212,5.91-3.69,8.69-5.667c11.285-9.49,16.989-25.176,13.903-39.65
				c-1.299-6.402-6.128-11.251-11.088-15.126c-8.774-6.195-19.168-9.641-29.646-11.611c-5.996-0.737-12.334-0.499-17.975,1.836
				c-2.525,1.049-5.224,3.548-4.3,6.545C206.019,103.491,208.579,106.652,212.277,107.819z"/>
			<path d="M253.178,229.626c-9.352-4.469-18.881-10.562-23.126-20.457c-4.909-12.778-4.067-26.705-5.023-40.12
				c-0.6-5.64-0.979-11.759-4.514-16.468c-4.168-6.124-15.336-6.841-18.925,0.271c-2.876,5.58-2.167,12.168-1.641,18.2
				c2.598,16.972,8.179,33.479,16.364,48.567c6.019,8.933,16.595,13.158,26.668,15.64c11.379,2.554,22.756,5.123,34.136,7.683
				c3.17,0.33,7.401,1.84,9.782-1.065C275.717,237.636,263.904,235.059,253.178,229.626z"/>
			<path d="M192.869,150.957c-4.168-2.54-9.43-1.803-13.824-0.289c-11.773,4.805-21.484,13.225-31.363,21.003
				c-29.334,23.354-58.806,46.544-88.072,69.979c-1.911,1.414-4.009,2.543-6.128,3.613c0.46,0.368,0.921,0.741,1.383,1.118
				c6.338-2.177,12.528-4.807,18.349-8.14c33.863-18.84,68.132-36.942,101.78-56.166c5.938-3.346,12.023-6.516,17.455-10.665
				c3.836-3.001,6.906-8.162,5.263-13.119C196.65,155.576,195.589,152.445,192.869,150.957z"/>
			<path d="M30.406,116.313c-4.988,0-9.031,4.043-9.031,9.031c0,4.988,4.043,9.031,9.031,9.031c4.988,0,9.031-4.043,9.031-9.031
				C39.437,120.356,35.394,116.313,30.406,116.313z M30.406,128.375c-1.671,0-3.031-1.36-3.031-3.031
				c0-1.671,1.36-3.031,3.031-3.031c1.672,0,3.031,1.36,3.031,3.031C33.437,127.015,32.077,128.375,30.406,128.375z"/>
			<circle cx="165.449" cy="66.676" r="21.699"/>
		</g>
	</g>
</g>
</svg>
