<?xml version="1.0" encoding="utf-8"?>
<!-- Generator: Adobe Illustrator 18.0.0, SVG Export Plug-In . SVG Version: 6.00 Build 0)  -->
<!DOCTYPE svg PUBLIC "-//W3C//DTD SVG 1.1//EN" "http://www.w3.org/Graphics/SVG/1.1/DTD/svg11.dtd">
<svg version="1.1" xmlns="http://www.w3.org/2000/svg" xmlns:xlink="http://www.w3.org/1999/xlink" x="0px" y="0px"
	 viewBox="0 0 300 300" enable-background="new 0 0 300 300" xml:space="preserve">
<g id="TrackFieldHurdle">
	<g id="Black_5_">
		<path d="M83.81,38.331c9.261-5.733,20.754-4.948,30.913-2.435c11.385,3.087,23.394,8.381,29.697,18.906
			c2.747,4.263,2.424,9.86-0.264,14.056c-2.221,2.696-6.052,2.729-9.242,2.965c-7.385-0.272-12.857-5.834-19.118-9.005
			c-5.537-3.374-11.445-7.042-18.138-7.064c-5.956,0.064-10.309,4.781-13.318,9.408c-4.369,7.871-6.436,16.77-7.712,25.61
			c-0.501,7.602-3.077,15.227-1.263,22.837c-1.794-6.999-5.036-13.547-6.487-20.642c-1.983-9.128-2.447-18.578-1.706-27.873
			C69.727,54.822,74.608,44.241,83.81,38.331z"/>
		<path d="M175.708,28.408c7.063-2.108,15.144-0.616,20.941,3.961c3.996,3.463,7.098,8.166,7.991,13.431
			c0.49,6.508-1.613,13.395-6.335,18.017c-5.539,5.603-14.028,8.063-21.699,6.209c-11.292-2.155-19.857-14.691-16.231-25.941
			C162.201,36.546,168.453,30.748,175.708,28.408z"/>
		<path d="M257.341,52.346c0.423-0.099,0.852-0.186,1.288-0.255c0.487,3.826,2.146,7.442,2.186,11.331
			c0.144,6.673-1.396,13.235-3.192,19.617c-3.776,14.981-13.524,28.521-26.843,36.434c-6.143,3.465-13.945,4.658-20.544,1.754
			c-10.646-4.55-19.831-12.732-25.05-23.127c-3.124-5.56-4.45-12.664-1.823-18.665c1.372-2.669,3.322-5.723,6.583-6.117
			c3.391-0.28,6.727,1.199,9.201,3.455c5.843,5.391,8.263,13.314,13.346,19.273c4.028,3.711,10.216,7.872,15.622,4.332
			c6.523-4.223,11.563-10.338,16.416-16.319c6.147-7.51,9.725-16.717,12.239-25.993C257.275,56.205,257.517,54.273,257.341,52.346z"
			/>
		<path d="M88.276,123.21c3.566-4.289,9.818-5.036,15.007-4.12c5.266,1.219,10.71,1.918,15.704,4.092
			c7.729,3.225,15.244,7.044,22.191,11.729c7.663,4.239,14.959,9.19,21.493,15.036c4.757,3.939,9.823,8.627,10.645,15.099
			c-1.262,9.863-8.067,18.112-15.595,24.157c-10.064,7.569-21.999,11.973-33.205,17.506c-4.818,2.55-10.076,4.096-15.288,5.604
			c-5.959,1.386-11.789,3.695-17.988,3.69c3.358-3.48,7.803-5.548,11.672-8.367c11.234-7.394,21.492-16.142,32.299-24.129
			c4.59-3.315,8.959-7.277,10.957-12.729c-0.346-1.062-0.686-2.118-1.022-3.176c-3.975-2.819-8.569-4.524-13.225-5.837
			c-4.278,5.022-9.496,9.188-13.294,14.624c-10.997,11.653-23.688,21.508-35.731,32.037c-16.35,13.398-31.422,28.317-48.222,41.176
			c-1.009,0.578-2.061,1.071-3.152,1.486c5.737-8.989,12.845-17.033,18.455-26.11c8.226-12.349,16.453-24.702,25.192-36.695
			c9.231-12.667,18.094-25.595,26.372-38.904c-5.055-3.251-11.319-5.964-13.726-11.893C85.737,133.044,85.505,127.409,88.276,123.21
			z"/>
		<g>
			<g>
				<path d="M219.679,259.565c10.843-0.105,21.69-0.011,32.534-0.043v6c-11.212-0.063-22.424,0.125-33.636-0.096
					C217.673,263.133,218.058,259.244,219.679,259.565z"/>
			</g>
			<path d="M252.161,163.225c0.105,34.1,0.011,68.211,0.043,102.313h-6c0.063-35.257-0.125-70.519,0.096-105.773
				C248.593,156.918,252.481,158.129,252.161,163.225z"/>
		</g>
	</g>
</g>
</svg>
