<?xml version="1.0" encoding="utf-8"?>
<!-- Generator: Adobe Illustrator 18.0.0, SVG Export Plug-In . SVG Version: 6.00 Build 0)  -->
<!DOCTYPE svg PUBLIC "-//W3C//DTD SVG 1.1//EN" "http://www.w3.org/Graphics/SVG/1.1/DTD/svg11.dtd">
<svg version="1.1" xmlns="http://www.w3.org/2000/svg" xmlns:xlink="http://www.w3.org/1999/xlink" x="0px" y="0px"
	 viewBox="0 0 300 300" enable-background="new 0 0 300 300" xml:space="preserve">
<g id="TrackFieldPoleVault">
	<g id="Black_4_">
		<g>
			<path d="M56.455,176.518c10.501-20.068,20.454-40.424,29.951-60.988c2.801-6.799,6.493-13.292,8.193-20.495
				c0.809-3.287,0.428-6.971-1.729-9.685c-1.259-1.589-2.618-3.989-5.029-3.458c-4.03-0.152-8.191,1.844-10.106,5.485
				c-3.143,5.956-4.31,12.668-6.25,19.056c-3.503,12.984-6.127,26.175-9.465,39.198c-2.51,9.929-5.67,19.685-8.205,29.605
				c-0.101,1.548-1.184,3.412,0.134,4.721C55.497,179.649,55.601,177.61,56.455,176.518z"/>
			<path d="M136.174,68.628c-0.783,3.067,0.514,6.47,3.097,8.276c5.62,4.246,13.414,3.536,19.707,1.354
				c12.918-5.544,25.97-10.795,38.717-16.725c16.023-8.308,32.294-16.118,48.302-24.456c7.151-3.759,15.045-6.244,21.584-11.094
				c-0.687-0.109-2.058-0.323-2.743-0.432c-32.418,7.801-64.686,16.239-97.046,24.27c-8.658,2.451-17.884,4.256-25.244,9.747
				C139.993,62.206,136.698,64.742,136.174,68.628z"/>
			<circle cx="49.201" cy="100.334" r="22"/>
		</g>
		<path d="M124.246,107.434c0.105,53.182,0.011,106.381,0.043,159.566h-6c0.063-54.986-0.125-109.979,0.096-164.963
			C120.677,97.599,124.566,99.488,124.246,107.434z"/>
		<g>
			<path d="M130.25,116.75c4.143,0,7.5,3.359,7.5,7.5c0,4.143-3.357,7.5-7.5,7.5c-4.142,0-7.5-3.357-7.5-7.5
				C122.75,120.107,126.108,116.75,130.25,116.75 M130.25,122.75c-0.827,0-1.5,0.673-1.5,1.5c0,0.827,0.673,1.5,1.5,1.5
				c0.827,0,1.5-0.673,1.5-1.5C131.75,123.423,131.077,122.75,130.25,122.75L130.25,122.75z"/>
		</g>
		<path d="M52.34,193.534c-4.238,24.402-8.598,48.792-12.879,73.188l-3.553-0.627c4.484-25.212,8.82-50.454,13.397-75.648
			C51.022,188.649,53.173,189.921,52.34,193.534z"/>
	</g>
</g>
</svg>
