<?xml version="1.0" encoding="utf-8"?>
<!-- Generator: Adobe Illustrator 18.0.0, SVG Export Plug-In . SVG Version: 6.00 Build 0)  -->
<!DOCTYPE svg PUBLIC "-//W3C//DTD SVG 1.1//EN" "http://www.w3.org/Graphics/SVG/1.1/DTD/svg11.dtd">
<svg version="1.1" xmlns="http://www.w3.org/2000/svg" xmlns:xlink="http://www.w3.org/1999/xlink" x="0px" y="0px"
	 viewBox="0 0 300 300" enable-background="new 0 0 300 300" xml:space="preserve">
<g id="Volleyball_1_">
	<g id="Black_3_">
		<path d="M116.371,71.388c11.985-10.679,26.72-17.383,41.229-23.866c8.894-4.089,17.825-8.089,26.68-12.256
			c2.578-1.274,5.677-1.421,7.921-3.35c-5.123,0.103-10.041,1.8-15.064,2.632c-23.096,4.322-44.977,13.069-67.033,20.886
			c-8.308,3.248-16.417,7.029-24.1,11.57c-1.892,1.161-3.453,2.758-5.007,4.323C53.998,71.455,26.999,71.337,0,71.386v5.994
			c26.362-0.006,52.725,0.014,79.087-0.011c0.112,3.692,2.295,7.376,5.986,8.394c11.264,1.974,19.072-10.357,30.362-8.431
			c-0.772,2.067-1.481,4.346-0.618,6.513c2.414,6.201,7.81,10.873,13.746,13.614c9.256,3.568,18.589,7.058,28.289,9.234
			c19.789,4.619,40.25,1.988,60.215,0.136c-0.381-0.279-1.137-0.836-1.515-1.115c-5.43-1.42-11.043-1.954-16.579-2.794
			c-15.089-2.902-30.562-5.449-44.277-12.775c-7.731-2.9-14.105-8.178-20.809-12.813C189.257,77.449,244.629,77.34,300,77.386V71.38
			C238.791,71.386,177.581,71.37,116.371,71.388z"/>
		<path d="M131.948,155.255c-3.7-3.969-7.099-8.355-11.729-11.323c-2.61-1.886-5.914-2.117-8.977-2.667
			c-1.951,1.323-4.46,2.281-5.473,4.585c-1.598,3.113-0.734,6.684-0.503,9.991c-2.456-0.895-3.251-3.509-4.644-5.45
			c-3.406-5.423-8.127-10.622-14.701-11.893c-2.903,0.575-5.997,2.044-7.269,4.895c-1.526,3.835-0.763,8.05-0.232,12.007
			c-26.14-0.041-52.281-0.018-78.422-0.016v5.994c26.772,0.012,53.543-0.023,80.314,0.02c7.927,20.172,23.751,36.513,29.292,57.738
			c6.085,19.143,11.167,38.62,15.391,58.225c0.704-3.4,0.269-6.879,0.172-10.313c-0.446-8.668-0.511-17.381-1.828-25.978
			c-1.509-10.1-3.142-20.176-4.694-30.266c-2.103-17.096-8.607-33.214-12.275-49.973c2.44,2.052,3.455,5.16,5.114,7.784
			c7.12,11.813,17.309,21.311,25.387,32.426c8.637,10.543,13.473,23.429,19.475,35.506c3.993,7.779,6.965,16.013,10.36,24.058
			c1.976,4.996,4.425,9.867,5.446,15.185c0.353-0.03,1.059-0.089,1.412-0.118c-2.28-11.514-4.657-23.027-7.573-34.396
			c-4.507-14.188-9.13-28.342-13.808-42.471c-5.466-12.516-11.064-24.979-16.691-37.424c54.836,0.003,109.671-0.009,164.507,0.006
			v-6.006C243.982,155.296,187.954,155.552,131.948,155.255z"/>
		<path d="M185.312,49.464c0,11.305,9.164,20.469,20.47,20.469c11.305,0,20.469-9.164,20.469-20.469
			c0-11.305-9.164-20.469-20.469-20.469C194.477,28.995,185.312,38.159,185.312,49.464z M205.781,34.995
			c7.978,0,14.469,6.491,14.469,14.469c0,7.978-6.49,14.469-14.469,14.469c-7.98,0-14.469-6.491-14.469-14.469
			C191.312,41.486,197.802,34.995,205.781,34.995z"/>
		<circle cx="95.5" cy="36.35" r="21.875"/>
	</g>
</g>
</svg>
