<?xml version="1.0" encoding="utf-8"?>
<!-- Generator: Adobe Illustrator 18.0.0, SVG Export Plug-In . SVG Version: 6.00 Build 0)  -->
<!DOCTYPE svg PUBLIC "-//W3C//DTD SVG 1.1//EN" "http://www.w3.org/Graphics/SVG/1.1/DTD/svg11.dtd">
<svg version="1.1" xmlns="http://www.w3.org/2000/svg" xmlns:xlink="http://www.w3.org/1999/xlink" x="0px" y="0px"
	 viewBox="0 0 300 300" enable-background="new 0 0 300 300" xml:space="preserve">
<g id="Wrestling_1_">
	<g id="Black_2_">
		<path d="M186.656,110.442c-2.6-4.81-9.817-6.478-14.129-3.049c-2.26,2.441-3.354,5.699-4.346,8.81
			c-2.254,8.23-3.349,15.964-6.682,24.297l-1.811-0.216c-5.521-0.72-11.083-0.967-16.642-1.054
			c-9.888-1.082-20.063-3.998-27.792-10.507c-8.384-8.569-8.574-21.427-8.922-32.663c-0.351-5.878,0.133-12.279-3.005-17.528
			c-4.125-4.503-12.228-3.91-16.292,0.438c-4.967,4.945-5.627,12.43-5.906,19.063c0.135,13.432,5.563,27.056,15.513,36.219
			c8.136,7.588,19.432,10.801,30.365,10.936c7.316,0.019,14.712,1.2,21.962-0.246c2.915-0.832,5.837-1.627,8.8-2.285
			c1.395-0.323,3.436-0.823,3.436-0.823c-2.676,3.159-6.596,8.808-10.327,10.836c-6.896,3.92-15.117,4.634-22.9,4.603
			c-5.797-0.774-11.612-2.256-17.503-1.437c2.204,2.621,5.468,3.727,8.442,5.211c5.541,2.852,11.914,2.961,17.914,4.142
			c10.938,1.588,22.991,0.852,32.124-6.039c5.762-3.953,9.832-9.765,13.451-15.626c3.736-6.185,5.836-13.274,6.453-20.452
			C189.094,118.784,189.166,114.146,186.656,110.442z"/>
		<path d="M50.566,131.139c-5.344,0.898-9.063,5.546-11.064,10.278c-3.844,9.398-3.99,19.708-5.601,29.608
			c-0.969,9.361-5.507,17.759-8.561,26.527c-4.544,12.723-15.863,20.893-25.341,29.78v8.656c6.276-4.06,13.086-7.304,18.922-12.029
			c19.831-14.612,35.745-35.407,41.687-59.567c1.949-8.439,3.472-17.513,0.741-25.958C59.972,133.925,55.319,130.549,50.566,131.139
			z"/>
		<path d="M82.814,135.983c-5.108-3.734-13.542-2.87-17.171,2.518c-2.68,5.527,0.001,11.79,3.176,16.492
			c8.028,11.097,19.44,19.168,31.04,26.141c3.277,2.169,5.753,5.822,4.982,9.918c-1.156,11.56-5.383,22.548-9.767,33.224
			c-2.967,7.276-7.299,13.923-10.292,21.174c1.392-0.792,2.79-1.602,3.852-2.825c7.623-8.072,15.126-16.332,21.288-25.601
			c5.773-8.496,11.313-17.746,12.601-28.121c1.026-6.527-2.296-12.604-5.345-18.11C108.388,156.912,96.491,145.051,82.814,135.983z"
			/>
		<path d="M204.966,201.271c-1.489-3.535-3.796-7.662-1.94-11.479c1.734-4.515,5.942-7.285,8.73-11.072
			c5.702-7.417,11.614-14.937,14.848-23.825c2.274-5.453,3.971-11.945,0.965-17.477c-3.623-6.501-13.836-5.174-17.971,0.107
			c-10.768,12.684-18.935,27.648-23.594,43.629c-2.094,7.287-2.689,15.522,1.256,22.318c7.706,13,20.199,22.067,32.109,30.93
			c5.639,3.322,10.846,7.772,17.184,9.654c-2.018-3.06-4.859-5.437-7.189-8.24C219.73,225.482,211.3,213.917,204.966,201.271z"/>
		<path d="M278.107,205.916c-3.855-4.521-5.992-10.137-8.723-15.339c-2.236-4.702-5.045-9.188-6.436-14.245
			c-3.022-11.303-4.16-23.328-9.717-33.796c-2.432-4.754-7.104-7.731-12.174-9.006c-2.607,1.387-5.723,2.496-7.258,5.204
			c-2.65,4.438-2.361,9.866-1.723,14.803c2.66,18.67,12.115,35.854,24.764,49.636c11.997,12.952,27.139,22.575,43.158,29.78v-8.178
			C292.639,218.576,284.103,213.596,278.107,205.916z"/>
		<circle cx="134.381" cy="69.342" r="21.6"/>
		<circle cx="141.388" cy="114.344" r="21.599"/>
	</g>
</g>
</svg>
